<svg version="1.1" id="Layer_1" xmlns="http://www.w3.org/2000/svg" xmlns:xlink="http://www.w3.org/1999/xlink" x="0px" y="0px"
	 width="100%" viewBox="0 0 512 512" enable-background="new 0 0 512 512" xml:space="preserve">
<path fill="none" opacity="1.000000" stroke="none"
	d="
M282.000000,513.000000 
	C188.022812,513.000000 94.545624,513.000000 1.034216,513.000000 
	C1.034216,342.397797 1.034216,171.795563 1.034216,1.096670 
	C171.560532,1.096670 342.121155,1.096670 512.840881,1.096670 
	C512.840881,171.666550 512.840881,342.333252 512.840881,513.000000 
	C436.128876,513.000000 359.314423,513.000000 282.000000,513.000000 
M257.800262,496.977142 
	C258.917633,496.787628 260.105743,496.781555 261.141937,496.381683 
	C284.688904,487.294281 308.233368,478.200043 331.748535,469.030731 
	C353.612274,460.505341 375.445770,451.902252 397.284241,443.312103 
	C410.383209,438.159607 423.719025,433.510773 436.463715,427.591949 
	C444.382660,423.914307 449.072723,417.003723 449.043671,407.510010 
	C448.956421,379.025726 449.068146,350.540833 449.773773,321.753326 
	C457.832214,318.504669 465.739563,314.791382 473.982788,312.110840 
	C488.101837,307.519714 494.572479,289.014038 486.503357,275.891144 
	C474.806244,256.867981 463.530365,237.586243 451.923492,218.506851 
	C449.515228,214.548111 448.324310,209.053268 441.624268,208.256363 
	C431.135376,206.032135 420.637238,203.850311 410.159546,201.574463 
	C390.771545,197.363190 371.395447,193.096863 352.311920,188.195862 
	C359.159607,172.921387 361.647339,156.951645 361.136383,140.221207 
	C360.701965,125.996086 357.523468,112.572914 351.368134,99.952736 
	C339.346588,75.305183 320.468903,57.726578 294.961639,47.505215 
	C276.070801,39.935211 256.302582,38.840286 236.645264,42.447411 
	C210.393997,47.264526 189.322189,61.362488 173.092636,82.479721 
	C161.768036,97.214813 154.975143,114.129898 153.221130,132.469727 
	C151.372467,151.799301 153.277939,170.961365 161.177811,188.976883 
	C144.519287,192.648849 127.854424,196.292328 111.204277,200.001862 
	C98.093086,202.922989 85.000023,205.925552 71.153862,208.991882 
	C69.289215,210.305328 66.758163,211.209442 65.661613,212.994675 
	C52.769066,233.984344 40.110905,255.117798 27.350201,276.188690 
	C19.551937,289.065430 25.594637,307.104614 39.851234,312.057129 
	C48.334141,315.003937 56.557457,318.698029 64.986977,322.981720 
	C64.991325,350.440613 65.406418,377.908417 64.808365,405.354187 
	C64.550385,417.193359 71.991302,426.124786 82.134995,429.948181 
	C85.750145,431.310760 89.398277,432.588898 92.990349,434.009247 
	C114.012398,442.321838 134.988510,450.751556 156.044785,458.976227 
	C182.804825,469.428802 209.600342,479.792145 236.440033,490.038055 
	C243.174286,492.608826 250.135788,494.584290 257.800262,496.977142 
z"/>
<path fill="#FFCA28" opacity="1.000000" stroke="none" 
	d="
M442.088470,208.892487 
	C448.324310,209.053268 449.515228,214.548111 451.923492,218.506851 
	C463.530365,237.586243 474.806244,256.867981 486.503357,275.891144 
	C494.572479,289.014038 488.101837,307.519714 473.982788,312.110840 
	C465.739563,314.791382 457.832214,318.504669 449.047119,321.895569 
	C446.568604,322.537872 444.762085,322.898041 443.072937,323.558533 
	C402.819733,339.298309 362.577271,355.065430 322.337372,370.839172 
	C309.428589,375.899323 298.183685,372.541870 290.884033,360.724213 
	C279.703339,342.623444 268.893341,324.293671 257.715271,305.881439 
	C256.543060,306.661438 255.340439,307.474792 254.656265,308.602661 
	C244.141724,325.936157 233.701782,343.314880 223.229431,360.674011 
	C216.439560,371.929016 204.673981,375.939484 192.291718,371.096375 
	C159.479355,358.262573 126.713249,345.310181 93.877205,332.537476 
	C84.306404,328.814636 74.562195,325.537567 64.897476,322.056152 
	C56.557457,318.698029 48.334141,315.003937 39.851234,312.057129 
	C25.594637,307.104614 19.551937,289.065430 27.350201,276.188690 
	C40.110905,255.117798 52.769066,233.984344 65.661613,212.994675 
	C66.758163,211.209442 69.289215,210.305328 71.925240,208.976257 
	C74.452103,209.435089 76.269913,209.749893 77.954063,210.407135 
	C135.331207,232.799179 192.721146,255.159134 250.017792,277.755554 
	C255.076111,279.750427 259.363007,279.680206 264.283630,277.739502 
	C314.612213,257.889740 364.981018,238.141434 415.378876,218.468048 
	C424.186005,215.030090 433.180511,212.072144 442.088470,208.892487 
z"/>
<path fill="#7CB342" opacity="1.000000" stroke="none" 
	d="
M161.986542,188.852585 
	C153.277939,170.961365 151.372467,151.799301 153.221130,132.469727 
	C154.975143,114.129898 161.768036,97.214813 173.092636,82.479721 
	C189.322189,61.362488 210.393997,47.264526 236.645264,42.447411 
	C256.302582,38.840286 276.070801,39.935211 294.961639,47.505215 
	C320.468903,57.726578 339.346588,75.305183 351.368134,99.952736 
	C357.523468,112.572914 360.701965,125.996086 361.136383,140.221207 
	C361.647339,156.951645 359.159607,172.921387 351.890747,188.739197 
	C345.425934,200.468903 338.636230,211.192230 329.250946,219.867096 
	C304.705872,242.554276 275.774139,252.392288 242.496033,247.888702 
	C218.385956,244.625839 197.583420,234.155258 181.392303,215.925293 
	C174.059250,207.668839 168.403305,197.922836 161.986542,188.852585 
M283.771271,120.987686 
	C282.849274,119.813400 281.175995,118.667915 281.129700,117.460068 
	C280.868317,110.643585 281.123505,103.809166 280.962708,96.986511 
	C280.748749,87.906563 274.150269,81.306236 265.106140,81.031059 
	C260.448456,80.889336 255.783020,80.986259 251.121185,81.002029 
	C239.287674,81.042061 233.032181,87.340332 233.002243,99.253151 
	C232.984390,106.352776 232.998993,113.452484 232.998993,121.006020 
	C224.560379,121.006020 216.767838,120.877289 208.981384,121.039703 
	C199.924835,121.228607 193.301804,127.870842 193.030762,136.898972 
	C192.890915,141.556747 192.986084,146.222107 193.002075,150.883942 
	C193.042816,162.766602 199.291351,168.967651 211.262604,168.997742 
	C218.361252,169.015594 225.459976,169.001007 233.006180,169.001007 
	C233.006180,177.447388 232.875580,185.240829 233.040329,193.028030 
	C233.232239,202.098328 239.860123,208.696106 248.912750,208.969147 
	C253.570480,209.109634 258.235870,209.014236 262.897705,208.997849 
	C274.755615,208.956177 280.968170,202.685165 280.997711,190.720535 
	C281.015259,183.623184 281.000946,176.525742 281.000946,168.993668 
	C289.461151,168.993668 297.256287,169.127472 305.044861,168.958679 
	C314.100769,168.762421 320.712067,162.116379 320.966187,153.067261 
	C321.115692,147.743561 321.103790,142.409515 320.970154,137.084991 
	C320.736328,127.766556 314.092010,121.200432 304.705566,121.027222 
	C298.047943,120.904373 291.386261,120.998947 283.771271,120.987686 
z"/>
<path fill="#FFB300" opacity="1.000000" stroke="none" 
	d="
M64.942230,322.518921 
	C74.562195,325.537567 84.306404,328.814636 93.877205,332.537476 
	C126.713249,345.310181 159.479355,358.262573 192.291718,371.096375 
	C204.673981,375.939484 216.439560,371.929016 223.229431,360.674011 
	C233.701782,343.314880 244.141724,325.936157 254.656265,308.602661 
	C255.340439,307.474792 256.543060,306.661438 257.490601,306.217834 
	C257.317780,308.874603 257.021027,311.015259 257.020081,313.156006 
	C256.992798,374.381805 256.995239,435.607574 256.992828,496.833374 
	C250.135788,494.584290 243.174286,492.608826 236.440033,490.038055 
	C209.600342,479.792145 182.804825,469.428802 156.044785,458.976227 
	C134.988510,450.751556 114.012398,442.321838 92.990349,434.009247 
	C89.398277,432.588898 85.750145,431.310760 82.134995,429.948181 
	C71.991302,426.124786 64.550385,417.193359 64.808365,405.354187 
	C65.406418,377.908417 64.991325,350.440613 64.942230,322.518921 
z"/>
<path fill="#FFA000" opacity="1.000000" stroke="none" 
	d="
M257.396545,496.905273 
	C256.995239,435.607574 256.992798,374.381805 257.020081,313.156006 
	C257.021027,311.015259 257.317780,308.874603 257.701355,306.397522 
	C268.893341,324.293671 279.703339,342.623444 290.884033,360.724213 
	C298.183685,372.541870 309.428589,375.899323 322.337372,370.839172 
	C362.577271,355.065430 402.819733,339.298309 443.072937,323.558533 
	C444.762085,322.898041 446.568604,322.537872 448.711334,322.046997 
	C449.068146,350.540833 448.956421,379.025726 449.043671,407.510010 
	C449.072723,417.003723 444.382660,423.914307 436.463715,427.591949 
	C423.719025,433.510773 410.383209,438.159607 397.284241,443.312103 
	C375.445770,451.902252 353.612274,460.505341 331.748535,469.030731 
	C308.233368,478.200043 284.688904,487.294281 261.141937,496.381683 
	C260.105743,496.781555 258.917633,496.787628 257.396545,496.905273 
z"/>
<path fill="#C47318" opacity="1.000000" stroke="none" 
	d="
M161.582184,188.914734 
	C168.403305,197.922836 174.059250,207.668839 181.392303,215.925293 
	C197.583420,234.155258 218.385956,244.625839 242.496033,247.888702 
	C275.774139,252.392288 304.705872,242.554276 329.250946,219.867096 
	C338.636230,211.192230 345.425934,200.468903 351.742004,189.067993 
	C371.395447,193.096863 390.771545,197.363190 410.159546,201.574463 
	C420.637238,203.850311 431.135376,206.032135 441.856384,208.574432 
	C433.180511,212.072144 424.186005,215.030090 415.378876,218.468048 
	C364.981018,238.141434 314.612213,257.889740 264.283630,277.739502 
	C259.363007,279.680206 255.076111,279.750427 250.017792,277.755554 
	C192.721146,255.159134 135.331207,232.799179 77.954063,210.407135 
	C76.269913,209.749893 74.452103,209.435089 72.297760,208.926270 
	C85.000023,205.925552 98.093086,202.922989 111.204277,200.001862 
	C127.854424,196.292328 144.519287,192.648849 161.582184,188.914734 
z"/>
<path fill="#E0E0DF" opacity="1.000000" stroke="none" 
	d="
M284.248840,120.992081 
	C291.386261,120.998947 298.047943,120.904373 304.705566,121.027222 
	C314.092010,121.200432 320.736328,127.766556 320.970154,137.084991 
	C321.103790,142.409515 321.115692,147.743561 320.966187,153.067261 
	C320.712067,162.116379 314.100769,168.762421 305.044861,168.958679 
	C297.256287,169.127472 289.461151,168.993668 281.000946,168.993668 
	C281.000946,176.525742 281.015259,183.623184 280.997711,190.720535 
	C280.968170,202.685165 274.755615,208.956177 262.897705,208.997849 
	C258.235870,209.014236 253.570480,209.109634 248.912750,208.969147 
	C239.860123,208.696106 233.232239,202.098328 233.040329,193.028030 
	C232.875580,185.240829 233.006180,177.447388 233.006180,169.001007 
	C225.459976,169.001007 218.361252,169.015594 211.262604,168.997742 
	C199.291351,168.967651 193.042816,162.766602 193.002075,150.883942 
	C192.986084,146.222107 192.890915,141.556747 193.030762,136.898972 
	C193.301804,127.870842 199.924835,121.228607 208.981384,121.039703 
	C216.767838,120.877289 224.560379,121.006020 232.998993,121.006020 
	C232.998993,113.452484 232.984390,106.352776 233.002243,99.253151 
	C233.032181,87.340332 239.287674,81.042061 251.121185,81.002029 
	C255.783020,80.986259 260.448456,80.889336 265.106140,81.031059 
	C274.150269,81.306236 280.748749,87.906563 280.962708,96.986511 
	C281.123505,103.809166 280.868317,110.643585 281.129700,117.460068 
	C281.175995,118.667915 282.849274,119.813400 284.248840,120.992081 
z"/>
</svg>