<svg version="1.1" id="Layer_1" xmlns="http://www.w3.org/2000/svg" xmlns:xlink="http://www.w3.org/1999/xlink" x="0px" y="0px"
	 width="100%" viewBox="0 0 512 512" enable-background="new 0 0 512 512" xml:space="preserve">
<path fill="#FFCA42" opacity="1.000000" stroke="none"
	d="
M0.999999,477.000000 
	C1.000000,358.979095 1.000000,240.958206 1.468657,122.468727 
	C64.811348,122.000153 127.685387,121.998260 190.559418,122.008286 
	C192.717499,122.008629 194.875565,122.128426 197.025085,122.649063 
	C197.010193,212.676987 197.003876,302.248383 196.531723,391.876343 
	C195.400223,391.953613 194.734558,391.992371 194.068893,391.992493 
	C154.934769,391.998199 115.800598,391.966736 76.666565,392.028534 
	C67.376404,392.043182 60.902885,398.480957 61.017349,407.219360 
	C61.128902,415.735809 67.533012,421.858429 76.605911,421.978821 
	C83.265877,422.067230 89.927948,421.990143 96.589058,422.001465 
	C130.058563,422.058411 163.528061,422.120148 196.998199,422.637573 
	C196.999237,453.063263 196.999619,483.031647 197.000000,513.000000 
	C143.645767,513.000000 90.291542,513.000000 36.297485,512.673218 
	C23.782864,509.102356 14.252285,502.426270 7.747449,492.025024 
	C4.863550,487.413635 3.211320,482.032013 0.999999,477.000000 
M64.614296,307.187317 
	C55.933270,318.131256 64.133087,331.906830 75.827614,331.950806 
	C106.303062,332.065399 136.783112,332.219116 167.250427,331.707489 
	C171.248535,331.640381 176.043457,328.577332 178.940948,325.474640 
	C183.078842,321.043640 183.073227,315.217163 179.924713,309.660034 
	C176.891479,304.306396 172.163559,302.040405 166.295670,302.029144 
	C136.485992,301.971863 106.674011,301.832367 76.868935,302.206451 
	C72.925697,302.255951 69.017265,305.078583 64.614296,307.187317 
M62.353043,221.147247 
	C58.448368,231.872757 65.058739,241.874115 76.387421,241.954941 
	C96.362511,242.097427 116.339539,242.050018 136.315338,241.972534 
	C145.250275,241.937881 151.867889,235.574921 151.982529,227.218628 
	C152.100143,218.645615 145.412430,212.061356 136.253204,212.026001 
	C116.443871,211.949493 96.633858,211.956253 76.824493,212.028839 
	C70.548401,212.051834 65.514427,214.463974 62.353043,221.147247 
z"/>
<path fill="#FFAF3E" opacity="1.000000" stroke="none" 
	d="
M197.468658,513.000000 
	C196.999619,483.031647 196.999237,453.063263 197.000488,422.549316 
	C197.002121,422.003723 197.001419,421.827179 197.395264,421.877045 
	C207.089493,420.780853 212.414673,414.846039 211.984436,406.106476 
	C211.580002,397.891144 205.665024,392.390411 197.001770,392.084534 
	C197.002121,391.996277 196.997559,391.819794 196.997559,391.819794 
	C197.003876,302.248383 197.010193,212.676987 197.025238,122.553215 
	C197.033951,122.000854 196.967499,121.821045 197.432800,121.893417 
	C234.838882,121.977264 271.779663,121.974495 308.720428,122.005157 
	C333.511810,122.025734 358.303162,122.093697 382.965332,122.450264 
	C381.842010,124.091705 380.872345,125.442383 379.850281,126.752205 
	C354.992462,158.608414 329.638489,190.092438 305.402771,222.414963 
	C280.486725,255.644730 267.224915,293.639984 263.100769,335.328918 
	C262.683624,338.059845 262.194061,340.355804 262.051910,342.673004 
	C260.961792,360.447449 259.855255,378.221710 258.938629,396.005554 
	C258.591187,402.745728 257.550110,409.065857 253.540604,414.817902 
	C250.316818,419.442719 247.625519,424.470276 245.016571,429.484894 
	C240.780960,437.626129 243.079727,445.162659 251.232437,450.240356 
	C259.862091,453.808105 266.554321,451.767273 271.215240,444.193634 
	C274.961792,438.105804 278.259216,431.738739 282.082550,425.702454 
	C283.625214,423.266876 285.734558,420.937531 288.105408,419.322113 
	C299.514557,411.548401 311.165253,404.129822 322.601440,396.394836 
	C329.883942,391.469269 336.941681,386.211548 344.416779,380.980774 
	C349.317261,377.304718 354.291077,374.149353 358.411072,370.120789 
	C370.116333,358.675171 381.473022,346.873077 392.980530,335.666595 
	C392.993988,381.225616 392.996338,426.329407 392.984161,471.433197 
	C392.983704,473.089691 393.134430,474.823639 392.719757,476.390533 
	C388.640686,491.805115 380.093994,503.588440 365.037384,509.981598 
	C362.687958,510.979187 360.345612,511.993439 358.000000,513.000000 
	C304.645782,513.000000 251.291550,513.000000 197.468658,513.000000 
z"/>
<path fill="none" opacity="1.000000" stroke="none"
	d="
M358.468658,513.000000 
	C360.345612,511.993439 362.687958,510.979187 365.037384,509.981598 
	C380.093994,503.588440 388.640686,491.805115 392.719757,476.390533 
	C393.134430,474.823639 392.983704,473.089691 392.984161,471.433197 
	C392.996338,426.329407 392.993988,381.225616 393.288055,335.480408 
	C399.732758,325.624390 405.883453,316.409821 412.018890,307.629181 
	C411.667053,314.976654 410.736633,321.926270 411.154449,328.793884 
	C411.607330,336.237366 418.535675,342.138550 425.593262,341.707550 
	C434.783600,341.146301 439.821960,336.232239 440.987640,328.539246 
	C441.719208,323.711151 442.459442,318.878448 442.971375,314.024109 
	C444.741028,297.243744 449.862701,281.442505 456.992126,266.264984 
	C465.470703,248.215286 477.272552,232.496201 491.181274,218.279465 
	C495.801971,213.556458 501.004913,209.116074 504.457703,203.615021 
	C508.206512,197.642426 510.226288,190.584610 513.000000,184.000000 
	C513.000000,293.567474 513.000000,403.134918 513.000000,513.000000 
	C461.646149,513.000000 410.291748,513.000000 358.468658,513.000000 
z"/>
<path fill="#4D5A68" opacity="1.000000" stroke="none" 
	d="
M197.033783,122.096703 
	C194.875565,122.128426 192.717499,122.008629 190.559418,122.008286 
	C127.685387,121.998260 64.811348,122.000153 1.468657,122.000069 
	C1.000000,103.979103 1.000000,85.958214 1.352475,67.326218 
	C6.319732,48.731712 17.237610,36.370495 35.411945,32.169415 
	C43.583035,30.280624 52.437149,31.346680 60.988277,31.536068 
	C60.996655,46.321537 60.970074,60.642986 61.009033,74.964256 
	C61.036686,85.130264 67.073456,91.943314 75.964554,91.965096 
	C84.861771,91.986893 90.959709,85.167587 90.990555,75.035133 
	C91.035172,60.380844 91.012619,45.726345 91.484985,31.041039 
	C101.961273,31.030743 111.971291,31.051346 121.988251,31.536049 
	C121.996643,46.321529 121.970085,60.642982 122.009026,74.964264 
	C122.036674,85.130234 128.073471,91.943344 136.964569,91.965103 
	C145.861801,91.986877 151.959732,85.167503 151.990555,75.035126 
	C152.035126,60.380833 152.012619,45.726337 152.485001,31.041035 
	C162.627930,31.030798 172.304596,31.051455 181.988144,31.536201 
	C181.997650,46.743885 181.916519,61.488148 182.033051,76.230843 
	C182.107513,85.652771 187.773117,91.377502 197.012451,91.887123 
	C196.990753,91.992554 196.962189,92.205933 196.971756,92.660950 
	C196.976715,102.684326 196.972107,112.252686 196.967499,121.821045 
	C196.967499,121.821045 197.033951,122.000854 197.033783,122.096703 
z"/>
<path fill="#304653" opacity="1.000000" stroke="none" 
	d="
M513.000000,183.533875 
	C510.226288,190.584610 508.206512,197.642426 504.457703,203.615021 
	C501.004913,209.116074 495.801971,213.556458 491.181274,218.279465 
	C477.272552,232.496201 465.470703,248.215286 456.992126,266.264984 
	C449.862701,281.442505 444.741028,297.243744 442.971375,314.024109 
	C442.459442,318.878448 441.719208,323.711151 440.987640,328.539246 
	C439.821960,336.232239 434.783600,341.146301 425.593262,341.707550 
	C418.535675,342.138550 411.607330,336.237366 411.154449,328.793884 
	C410.736633,321.926270 411.667053,314.976654 412.310059,307.388184 
	C414.567596,302.169464 416.540497,297.634888 418.466187,293.080383 
	C429.043732,268.063324 439.609650,243.041367 450.508789,217.848923 
	C450.935608,217.115662 451.033264,216.554596 451.069275,216.000854 
	C451.007660,216.008179 451.023071,216.131332 451.311768,216.426666 
	C458.394470,208.984604 465.198975,201.256378 471.977295,193.505264 
	C474.666595,190.429993 477.671478,187.546890 479.879211,184.151413 
	C484.806458,176.573288 481.766357,168.696121 472.052246,162.451843 
	C475.859955,152.945465 479.667023,143.814545 483.688354,134.169754 
	C471.412781,126.936340 458.712097,119.452415 446.076996,111.625458 
	C456.552643,93.175827 467.006409,75.094131 477.351959,56.950756 
	C481.692108,49.339336 485.803131,41.597282 490.375305,33.968918 
	C497.972229,38.042900 503.718903,43.598152 507.436890,51.011581 
	C509.544525,55.214046 511.161865,59.662388 513.000000,64.000000 
	C513.000000,69.688042 513.000000,75.376083 512.633423,81.669342 
	C510.506439,93.704933 503.262573,102.563095 498.034668,112.346123 
	C493.997986,119.900047 489.472168,127.192596 485.295197,134.375427 
	C492.605804,138.714432 499.906799,142.397461 503.956024,149.616089 
	C507.434479,155.817230 510.019745,162.519394 513.000000,169.000000 
	C513.000000,173.689255 513.000000,178.378510 513.000000,183.533875 
z"/>
<path fill="none" opacity="1.000000" stroke="none"
	d="
M513.000000,63.531342 
	C511.161865,59.662388 509.544525,55.214046 507.436890,51.011581 
	C503.718903,43.598152 497.972229,38.042900 490.220795,33.644684 
	C488.823334,32.845974 487.950287,32.395401 487.049316,32.010193 
	C472.100311,25.618797 457.652588,26.407160 443.633301,34.843334 
	C435.192169,39.922836 429.977386,47.588802 425.378082,56.011261 
	C419.172394,67.375343 412.526733,78.499191 405.759644,89.920853 
	C401.354950,96.076462 397.260468,102.037354 393.092926,107.533714 
	C393.013336,99.415680 393.012115,91.762161 392.998901,84.108665 
	C392.984467,75.759567 393.219513,67.528816 390.099182,59.376694 
	C384.511261,44.777882 366.906097,30.325827 350.479279,30.972364 
	C344.664734,31.201221 338.834381,31.029343 333.007080,30.569345 
	C333.001373,26.610487 332.658295,23.082178 333.066315,19.642981 
	C334.046204,11.383368 331.339569,5.115905 324.000000,1.000000 
	C386.890472,1.000000 449.780914,1.000000 513.000000,1.000000 
	C513.000000,21.686401 513.000000,42.374542 513.000000,63.531342 
z"/>
<path fill="#ADB5CC" opacity="1.000000" stroke="none" 
	d="
M323.539368,1.000000 
	C331.339569,5.115905 334.046204,11.383368 333.066315,19.642981 
	C332.658295,23.082178 333.001373,26.610487 333.002930,31.035509 
	C333.001984,46.299744 333.029327,60.626823 332.990692,74.953728 
	C332.963226,85.134468 326.932709,91.943031 318.033600,91.963600 
	C309.128479,91.984192 303.039612,85.169823 303.009888,75.020943 
	C302.966949,60.360870 302.992432,45.700600 302.992920,30.569345 
	C302.998657,26.610487 303.341705,23.082178 302.933685,19.642981 
	C301.953796,11.383368 304.660431,5.115905 312.000000,1.000000 
	C315.692902,1.000000 319.385834,1.000000 323.539368,1.000000 
z"/>
<path fill="#CAD4E4" opacity="1.000000" stroke="none" 
	d="
M91.018715,31.071938 
	C91.012619,45.726345 91.035172,60.380844 90.990555,75.035133 
	C90.959709,85.167587 84.861771,91.986893 75.964554,91.965096 
	C67.073456,91.943314 61.036686,85.130264 61.009033,74.964256 
	C60.970074,60.642986 60.996655,46.321537 60.994209,31.063034 
	C60.995983,26.646387 61.342930,23.125748 60.933083,19.695536 
	C59.944180,11.419026 62.736885,5.176068 70.000000,1.000000 
	C73.692909,1.000000 77.385818,1.000000 81.744873,1.263843 
	C88.777229,5.075737 91.788933,10.272295 91.076370,17.747034 
	C90.656593,22.150482 91.011963,26.627827 91.018715,31.071938 
z"/>
<path fill="#ADB5CC" opacity="1.000000" stroke="none" 
	d="
M252.000000,1.000000 
	C255.692917,1.000000 259.385834,1.000000 263.718567,1.286213 
	C270.872253,4.992800 273.750061,10.239989 273.072571,17.687561 
	C272.670807,22.103823 273.006927,26.587210 273.007080,31.506577 
	C273.001984,46.299725 273.029327,60.626789 272.990692,74.953674 
	C272.963226,85.134445 266.932770,91.942986 258.033691,91.963600 
	C249.128586,91.984230 243.039673,85.170097 243.009933,75.021019 
	C242.966965,60.360958 242.992691,45.700695 242.993164,30.569441 
	C242.998734,26.610565 243.341705,23.082254 242.933716,19.643030 
	C241.953903,11.383482 244.660339,5.115881 252.000000,1.000000 
z"/>
<path fill="#CAD4E4" opacity="1.000000" stroke="none" 
	d="
M152.018738,31.071928 
	C152.012619,45.726337 152.035126,60.380833 151.990555,75.035126 
	C151.959732,85.167503 145.861801,91.986877 136.964569,91.965103 
	C128.073471,91.943344 122.036674,85.130234 122.009026,74.964264 
	C121.970085,60.642982 121.996643,46.321529 121.994186,31.063019 
	C121.995964,26.646376 122.342934,23.125738 121.933075,19.695528 
	C120.944176,11.419018 123.736900,5.176073 131.000000,1.000000 
	C134.692902,1.000000 138.385818,1.000000 142.744873,1.263839 
	C149.777252,5.075726 152.788910,10.272324 152.076370,17.747030 
	C151.656616,22.150480 152.011993,26.627821 152.018738,31.071928 
z"/>
<path fill="none" opacity="1.000000" stroke="none"
	d="
M69.531342,1.000000 
	C62.736885,5.176068 59.944180,11.419026 60.933083,19.695536 
	C61.342930,23.125748 60.995983,26.646387 60.987274,30.598936 
	C52.437149,31.346680 43.583035,30.280624 35.411945,32.169415 
	C17.237610,36.370495 6.319732,48.731712 1.352475,66.857559 
	C1.000000,45.071526 1.000000,23.143053 1.000000,1.000000 
	C23.687111,1.000000 46.374897,1.000000 69.531342,1.000000 
z"/>
<path fill="#ADB5CC" opacity="1.000000" stroke="none" 
	d="
M197.000000,1.000000 
	C198.714188,1.000000 200.428375,1.000000 202.739044,1.293224 
	C209.720840,5.081872 212.749146,10.258903 212.073181,17.717081 
	C211.673828,22.123514 212.007065,26.596342 212.006256,31.505533 
	C212.000946,46.462090 212.004730,60.952427 211.998001,75.442757 
	C211.993240,85.725471 207.158173,91.108414 196.962189,92.205933 
	C196.962189,92.205933 196.990753,91.992554 197.002655,91.432892 
	C197.009689,60.915482 197.004837,30.957741 197.000000,1.000000 
z"/>
<path fill="#CAD4E4" opacity="1.000000" stroke="none" 
	d="
M196.571533,1.000000 
	C197.004837,30.957741 197.009689,60.915482 197.024338,91.327454 
	C187.773117,91.377502 182.107513,85.652771 182.033051,76.230843 
	C181.916519,61.488148 181.997650,46.743885 181.994171,31.063160 
	C181.996124,26.646515 182.343185,23.125862 181.933273,19.695665 
	C180.944229,11.419112 183.737289,5.176329 191.000000,1.000000 
	C192.714355,1.000000 194.428711,1.000000 196.571533,1.000000 
z"/>
<path fill="none" opacity="1.000000" stroke="none"
	d="
M513.000000,168.531342 
	C510.019745,162.519394 507.434479,155.817230 503.956024,149.616089 
	C499.906799,142.397461 492.605804,138.714432 485.295197,134.375427 
	C489.472168,127.192596 493.997986,119.900047 498.034668,112.346123 
	C503.262573,102.563095 510.506439,93.704933 512.633423,82.137283 
	C513.000000,110.687561 513.000000,139.375122 513.000000,168.531342 
z"/>
<path fill="none" opacity="1.000000" stroke="none"
	d="
M212.010849,31.039312 
	C212.007065,26.596342 211.673828,22.123514 212.073181,17.717081 
	C212.749146,10.258903 209.720840,5.081872 203.167770,1.293224 
	C219.020889,1.000000 235.041794,1.000000 251.531342,1.000000 
	C244.660339,5.115881 241.953903,11.383482 242.933716,19.643030 
	C243.341705,23.082254 242.998734,26.610565 242.525848,30.551405 
	C232.039932,31.016068 222.025391,31.027689 212.010849,31.039312 
z"/>
<path fill="none" opacity="1.000000" stroke="none"
	d="
M130.531342,1.000000 
	C123.736900,5.176073 120.944176,11.419018 121.933075,19.695528 
	C122.342934,23.125738 121.995964,26.646376 121.987244,30.598919 
	C111.971291,31.051346 101.961273,31.030743 91.484985,31.041039 
	C91.011963,26.627827 90.656593,22.150482 91.076370,17.747034 
	C91.788933,10.272295 88.777229,5.075737 82.205505,1.263843 
	C98.020897,1.000000 114.041786,1.000000 130.531342,1.000000 
z"/>
<path fill="none" opacity="1.000000" stroke="none"
	d="
M273.011261,31.040413 
	C273.006927,26.587210 272.670807,22.103823 273.072571,17.687561 
	C273.750061,10.239989 270.872253,4.992800 264.179199,1.286213 
	C279.687561,1.000000 295.375122,1.000000 311.531342,1.000000 
	C304.660431,5.115905 301.953796,11.383368 302.933685,19.642981 
	C303.341705,23.082178 302.998657,26.610487 302.525665,30.551353 
	C292.373230,31.016424 282.692261,31.028418 273.011261,31.040413 
z"/>
<path fill="none" opacity="1.000000" stroke="none"
	d="
M190.531342,1.000000 
	C183.737289,5.176329 180.944229,11.419112 181.933273,19.695665 
	C182.343185,23.125862 181.996124,26.646515 181.987274,30.599072 
	C172.304596,31.051455 162.627930,31.030798 152.485016,31.041035 
	C152.011993,26.627821 151.656616,22.150480 152.076370,17.747030 
	C152.788910,10.272324 149.777252,5.075726 143.205505,1.263839 
	C158.687561,1.000000 174.375122,1.000000 190.531342,1.000000 
z"/>
<path fill="none" opacity="1.000000" stroke="none"
	d="
M0.999999,477.468658 
	C3.211320,482.032013 4.863550,487.413635 7.747449,492.025024 
	C14.252285,502.426270 23.782864,509.102356 35.828827,512.673218 
	C24.405703,513.000000 12.811404,513.000000 1.000000,513.000000 
	C1.000000,501.313324 1.000000,489.625336 0.999999,477.468658 
z"/>
<path fill="#DD864D" opacity="1.000000" stroke="none" 
	d="
M196.999847,422.091980 
	C163.528061,422.120148 130.058563,422.058411 96.589058,422.001465 
	C89.927948,421.990143 83.265877,422.067230 76.605911,421.978821 
	C67.533012,421.858429 61.128902,415.735809 61.017349,407.219360 
	C60.902885,398.480957 67.376404,392.043182 76.666565,392.028534 
	C115.800598,391.966736 154.934769,391.998199 194.068893,391.992493 
	C194.734558,391.992371 195.400223,391.953613 196.531723,391.876343 
	C196.997559,391.819794 197.002121,391.996277 197.001038,392.536652 
	C197.000443,402.660400 197.000931,412.243805 197.001419,421.827179 
	C197.001419,421.827179 197.002121,422.003723 196.999847,422.091980 
z"/>
<path fill="#DD864D" opacity="1.000000" stroke="none" 
	d="
M64.853500,306.902100 
	C69.017265,305.078583 72.925697,302.255951 76.868935,302.206451 
	C106.674011,301.832367 136.485992,301.971863 166.295670,302.029144 
	C172.163559,302.040405 176.891479,304.306396 179.924713,309.660034 
	C183.073227,315.217163 183.078842,321.043640 178.940948,325.474640 
	C176.043457,328.577332 171.248535,331.640381 167.250427,331.707489 
	C136.783112,332.219116 106.303062,332.065399 75.827614,331.950806 
	C64.133087,331.906830 55.933270,318.131256 64.853500,306.902100 
z"/>
<path fill="#DD864D" opacity="1.000000" stroke="none" 
	d="
M62.531132,220.800690 
	C65.514427,214.463974 70.548401,212.051834 76.824493,212.028839 
	C96.633858,211.956253 116.443871,211.949493 136.253204,212.026001 
	C145.412430,212.061356 152.100143,218.645615 151.982529,227.218628 
	C151.867889,235.574921 145.250275,241.937881 136.315338,241.972534 
	C116.339539,242.050018 96.362511,242.097427 76.387421,241.954941 
	C65.058739,241.874115 58.448368,231.872757 62.531132,220.800690 
z"/>
<path fill="#B12E65" opacity="1.000000" stroke="none" 
	d="
M450.179596,218.021103 
	C439.609650,243.041367 429.043732,268.063324 418.466187,293.080383 
	C416.540497,297.634888 414.567596,302.169464 412.325317,306.954224 
	C405.883453,316.409821 399.732758,325.624390 393.274506,335.025146 
	C381.473022,346.873077 370.116333,358.675171 358.411072,370.120789 
	C354.291077,374.149353 349.317261,377.304718 344.370483,380.506409 
	C343.869690,374.863251 344.276093,369.490204 343.491058,364.297333 
	C341.199463,349.139618 332.890442,337.833893 320.184601,329.440125 
	C334.447937,304.652374 348.539673,280.149048 362.664673,255.664902 
	C384.433655,217.930847 406.255676,180.227371 427.987366,142.471878 
	C433.781982,132.404633 439.329437,122.195122 445.245270,112.025909 
	C445.670563,111.990082 445.840973,111.979279 446.011383,111.968491 
	C458.712097,119.452415 471.412781,126.936340 483.688354,134.169754 
	C479.667023,143.814545 475.859955,152.945465 471.714233,162.629272 
	C466.907654,174.469345 462.380463,185.733582 457.994965,197.052734 
	C455.549286,203.365112 453.339294,209.768799 451.023071,216.131332 
	C451.023071,216.131332 451.007660,216.008179 450.734741,216.064651 
	C450.367737,216.754456 450.273682,217.387772 450.179596,218.021103 
z"/>
<path fill="#E9336D" opacity="1.000000" stroke="none" 
	d="
M444.990356,112.050919 
	C439.329437,122.195122 433.781982,132.404633 427.987366,142.471878 
	C406.255676,180.227371 384.433655,217.930847 362.664673,255.664902 
	C348.539673,280.149048 334.447937,304.652374 319.960510,329.475708 
	C319.579773,329.804291 319.131836,329.874268 318.883240,329.626648 
	C308.844208,324.049011 298.201569,321.487701 287.515076,324.325104 
	C279.065857,326.568481 271.273376,331.285370 263.189240,334.903809 
	C267.224915,293.639984 280.486725,255.644730 305.402771,222.414963 
	C329.638489,190.092438 354.992462,158.608414 379.850281,126.752205 
	C380.872345,125.442383 381.842010,124.091705 383.243317,122.265320 
	C386.822327,117.179794 389.994171,112.589020 393.165985,107.998245 
	C397.260468,102.037354 401.354950,96.076462 406.098419,90.036133 
	C419.495087,97.321434 432.242706,104.686180 444.990356,112.050919 
z"/>
<path fill="#304653" opacity="1.000000" stroke="none" 
	d="
M393.092926,107.533707 
	C389.994171,112.589020 386.822327,117.179794 383.372498,121.955521 
	C358.303162,122.093697 333.511810,122.025734 308.720428,122.005157 
	C271.779663,121.974495 234.838882,121.977264 197.432800,121.893417 
	C196.972107,112.252686 196.976715,102.684326 196.971756,92.660950 
	C207.158173,91.108414 211.993240,85.725471 211.998001,75.442757 
	C212.004730,60.952427 212.000946,46.462090 212.006256,31.505533 
	C222.025391,31.027689 232.039932,31.016068 242.521790,31.022480 
	C242.992691,45.700695 242.966965,60.360958 243.009933,75.021019 
	C243.039673,85.170097 249.128586,91.984230 258.033691,91.963600 
	C266.932770,91.942986 272.963226,85.134445 272.990692,74.953674 
	C273.029327,60.626789 273.001984,46.299725 273.007080,31.506577 
	C282.692261,31.028418 292.373230,31.016424 302.521484,31.022423 
	C302.992432,45.700600 302.966949,60.360870 303.009888,75.020943 
	C303.039612,85.169823 309.128479,91.984192 318.033600,91.963600 
	C326.932709,91.943031 332.963226,85.134468 332.990692,74.953728 
	C333.029327,60.626823 333.001984,46.299744 333.007080,31.506577 
	C338.834381,31.029343 344.664734,31.201221 350.479279,30.972364 
	C366.906097,30.325827 384.511261,44.777882 390.099182,59.376694 
	C393.219513,67.528816 392.984467,75.759567 392.998901,84.108665 
	C393.012115,91.762161 393.013336,99.415680 393.092926,107.533707 
z"/>
<path fill="#AEB5CC" opacity="1.000000" stroke="none" 
	d="
M319.131836,329.874268 
	C319.131836,329.874268 319.579773,329.804291 319.803833,329.768707 
	C332.890442,337.833893 341.199463,349.139618 343.491058,364.297333 
	C344.276093,369.490204 343.869690,374.863251 344.053925,380.628357 
	C336.941681,386.211548 329.883942,391.469269 322.601440,396.394836 
	C311.165253,404.129822 299.514557,411.548401 288.105408,419.322113 
	C285.734558,420.937531 283.625214,423.266876 282.082550,425.702454 
	C278.259216,431.738739 274.961792,438.105804 271.215240,444.193634 
	C266.554321,451.767273 259.862091,453.808105 251.299103,449.893463 
	C251.353699,448.648132 251.529572,447.991516 251.858170,447.423157 
	C269.644653,416.659637 287.482178,385.925537 305.216736,355.132172 
	C310.013153,346.803925 314.501892,338.298431 319.131836,329.874268 
z"/>
<path fill="#CAD3E3" opacity="1.000000" stroke="none" 
	d="
M318.883240,329.626648 
	C314.501892,338.298431 310.013153,346.803925 305.216736,355.132172 
	C287.482178,385.925537 269.644653,416.659637 251.858170,447.423157 
	C251.529572,447.991516 251.353699,448.648132 251.039886,449.610474 
	C243.079727,445.162659 240.780960,437.626129 245.016571,429.484894 
	C247.625519,424.470276 250.316818,419.442719 253.540604,414.817902 
	C257.550110,409.065857 258.591187,402.745728 258.938629,396.005554 
	C259.855255,378.221710 260.961792,360.447449 262.051910,342.673004 
	C262.194061,340.355804 262.683624,338.059845 263.100769,335.328918 
	C271.273376,331.285370 279.065857,326.568481 287.515076,324.325104 
	C298.201569,321.487701 308.844208,324.049011 318.883240,329.626648 
z"/>
<path fill="#D46936" opacity="1.000000" stroke="none" 
	d="
M197.395264,421.877045 
	C197.000931,412.243805 197.000443,402.660400 197.000687,392.624939 
	C205.665024,392.390411 211.580002,397.891144 211.984436,406.106476 
	C212.414673,414.846039 207.089493,420.780853 197.395264,421.877045 
z"/>
<path fill="#4D5A68" opacity="1.000000" stroke="none" 
	d="
M445.245239,112.025902 
	C432.242706,104.686180 419.495087,97.321434 406.408661,89.841415 
	C412.526733,78.499191 419.172394,67.375343 425.378082,56.011261 
	C429.977386,47.588802 435.192169,39.922836 443.633301,34.843334 
	C457.652588,26.407160 472.100311,25.618797 487.049316,32.010193 
	C487.950287,32.395401 488.823334,32.845974 489.863831,33.590370 
	C485.803131,41.597282 481.692108,49.339336 477.351959,56.950756 
	C467.006409,75.094131 456.552643,93.175827 446.076996,111.625458 
	C445.840973,111.979279 445.670563,111.990082 445.245239,112.025902 
z"/>
<path fill="none" opacity="1.000000" stroke="none"
	d="
M451.311768,216.426666 
	C453.339294,209.768799 455.549286,203.365112 457.994965,197.052734 
	C462.380463,185.733582 466.907654,174.469345 471.713593,163.004730 
	C481.766357,168.696121 484.806458,176.573288 479.879211,184.151413 
	C477.671478,187.546890 474.666595,190.429993 471.977295,193.505264 
	C465.198975,201.256378 458.394470,208.984604 451.311768,216.426666 
z"/>
<path fill="none" opacity="1.000000" stroke="none"
	d="
M450.508789,217.848923 
	C450.273682,217.387772 450.367737,216.754456 450.796356,216.057327 
	C451.033264,216.554596 450.935608,217.115662 450.508789,217.848923 
z"/>
</svg>