<svg version="1.1" id="Layer_1" xmlns="http://www.w3.org/2000/svg" xmlns:xlink="http://www.w3.org/1999/xlink" x="0px" y="0px"
	 width="100%" viewBox="0 0 512 512" enable-background="new 0 0 512 512" xml:space="preserve">
<path fill="none" opacity="1.000000" stroke="none"
	d="
M1.000000,191.000000 
	C1.000000,127.333336 1.000000,64.166664 1.000000,1.000000 
	C171.666672,1.000000 342.333344,1.000000 513.000000,1.000000 
	C513.000000,171.666672 513.000000,342.333344 513.000000,513.000000 
	C342.333344,513.000000 171.666672,513.000000 1.000000,513.000000 
	C1.000000,405.833344 1.000000,298.666656 1.000000,191.000000 
M24.224068,401.005157 
	C18.481394,401.935272 17.038944,403.445984 17.021414,409.119141 
	C16.969418,425.947388 16.993584,442.775879 17.003487,459.604279 
	C17.011797,473.725250 26.668142,488.653625 39.818962,493.628632 
	C44.973522,495.578644 50.733868,496.855164 56.220585,496.863068 
	C180.184052,497.040955 304.147827,497.005707 428.111542,496.992889 
	C446.490204,496.990997 464.884552,479.576294 464.952118,461.734467 
	C465.099152,422.913086 465.013184,384.090698 464.980804,345.268738 
	C464.975739,339.187866 463.229004,337.496185 456.991943,336.061890 
	C456.977112,331.043304 456.962311,326.024719 457.742126,320.996124 
	C463.695618,320.068481 464.979553,318.645538 464.984375,312.462311 
	C465.010376,279.153717 465.044800,245.844955 464.915741,212.536850 
	C464.903839,209.466415 464.111786,206.276871 463.079346,203.355606 
	C460.087921,194.891251 454.796356,188.062180 446.962158,183.202393 
	C462.694489,156.035660 478.097992,129.313477 493.645935,102.675560 
	C497.509644,96.055939 498.103088,88.986984 496.310913,81.968674 
	C493.986877,72.867531 487.673096,66.923141 478.414551,65.215187 
	C468.042419,63.301815 458.681641,65.743706 452.914764,75.354691 
	C443.018646,91.847382 433.606842,108.629951 423.864532,125.216118 
	C421.076569,129.962570 422.445435,133.627930 425.788574,137.715652 
	C423.465973,141.796524 421.143372,145.877411 418.076538,149.851135 
	C412.613281,148.406631 409.702728,149.542404 406.867432,154.371948 
	C403.167816,160.673721 399.382355,166.932983 395.940308,173.374313 
	C394.470001,176.125824 392.663361,177.091934 389.631317,177.054199 
	C378.639191,176.917419 367.644318,177.001816 356.650482,177.001846 
	C255.707153,177.002106 154.763809,176.993515 53.820477,177.010208 
	C35.491020,177.013245 17.096886,194.441223 17.053448,212.288284 
	C16.920059,267.090515 16.993292,321.893280 17.019264,376.695862 
	C17.022156,382.797821 18.750031,384.487244 25.003284,385.934814 
	C25.006275,390.956085 25.009266,395.977325 24.224068,401.005157 
M224.997314,108.499985 
	C224.997147,94.342552 224.866287,80.183243 225.069473,66.028732 
	C225.138321,61.232246 223.382584,58.488098 219.000549,56.388206 
	C204.297119,49.342255 189.907883,41.629292 175.098022,34.825443 
	C171.785614,33.303673 166.631012,33.093277 163.384430,34.585361 
	C147.820160,41.738441 132.549881,49.550060 117.373718,57.506424 
	C115.342552,58.571297 113.234749,61.773647 113.203133,64.014969 
	C112.893013,85.996162 112.893890,107.985161 113.200844,129.966431 
	C113.232147,132.207748 115.314209,135.415527 117.335648,136.475357 
	C132.511612,144.432068 147.794525,152.214203 163.338562,159.415054 
	C166.490799,160.875336 171.471161,160.888275 174.620834,159.431931 
	C190.018875,152.312088 205.054794,144.412582 220.285172,136.923843 
	C223.750427,135.219986 225.094833,132.715118 225.027512,128.986603 
	C224.910278,122.492996 224.996414,115.995705 224.997314,108.499985 
M75.913139,18.152609 
	C74.945885,20.156523 73.219551,22.132196 73.143768,24.169277 
	C72.828224,32.650673 72.918213,41.151901 73.042755,49.643166 
	C73.119026,54.842846 75.587410,56.983109 80.965477,56.994602 
	C86.410904,57.006241 88.793182,54.928913 88.963432,49.732609 
	C89.099693,45.573616 89.145706,41.400436 88.960167,37.245686 
	C88.812027,33.928654 90.210968,32.845787 93.383919,32.959595 
	C97.873596,33.120621 102.387321,33.173252 106.866837,32.891602 
	C111.059250,32.628006 112.867165,29.906969 113.009102,25.826668 
	C113.147469,21.849091 112.429695,17.564838 107.981384,17.395458 
	C97.561127,16.998682 87.103645,17.579586 75.913139,18.152609 
M79.759125,121.017273 
	C75.061722,121.357361 73.002083,124.045212 73.005013,128.585861 
	C73.010376,136.912079 72.924271,145.239441 73.038788,153.564087 
	C73.108696,158.645798 75.329582,160.885956 80.389267,160.958786 
	C88.713776,161.078629 97.042213,161.071442 105.367104,160.966751 
	C110.930794,160.896805 113.048248,158.512268 112.994583,152.832504 
	C112.944252,147.504028 110.781578,145.172272 105.510796,145.028824 
	C101.350639,144.915588 97.180847,144.878647 93.023537,145.031372 
	C89.966026,145.143692 88.859383,143.864075 88.971390,140.894699 
	C89.115654,137.070190 89.038406,133.235458 88.990105,129.405975 
	C88.910477,123.092110 87.159386,121.366066 79.759125,121.017273 
M231.112610,17.049147 
	C225.788895,18.816576 224.112656,21.594341 225.088013,27.221300 
	C225.917145,32.004639 229.269348,33.131420 233.542603,33.019146 
	C237.201843,32.923008 240.876831,33.180771 244.524399,32.953671 
	C248.110657,32.730385 249.216995,34.279770 249.043030,37.651314 
	C248.846039,41.469330 248.939026,45.306770 249.017532,49.133472 
	C249.132980,54.762054 251.415375,56.977554 256.948486,56.994598 
	C262.578186,57.011940 264.903198,54.875271 264.971130,49.257229 
	C265.067688,41.268944 265.043945,33.278278 264.982971,25.289309 
	C264.935699,19.095682 262.818268,17.047892 256.473297,17.012789 
	C248.317703,16.967663 240.161621,17.009033 231.112610,17.049147 
M248.999695,135.498199 
	C248.999573,136.662598 248.853317,137.848984 249.024704,138.987564 
	C249.759781,143.871231 247.663239,145.559616 242.891388,145.065063 
	C239.600037,144.723969 236.243393,144.945251 232.918030,145.015320 
	C227.311066,145.133453 225.033051,147.444443 225.005219,152.911377 
	C224.976776,158.499008 227.168503,160.903442 232.718109,160.969940 
	C240.867615,161.067657 249.019867,161.062347 257.169586,160.973846 
	C262.834656,160.912338 264.918518,158.781754 264.977386,153.041718 
	C265.057587,145.224533 265.033081,137.405716 264.988068,129.587982 
	C264.951202,123.184669 262.752441,120.931992 256.783600,121.004837 
	C251.208145,121.072868 249.086838,123.394981 249.004349,129.544586 
	C248.982040,131.207703 249.000153,132.871353 248.999695,135.498199 
z"/>
<path fill="#323232" opacity="1.000000" stroke="none" 
	d="
M25.014036,385.001465 
	C18.750031,384.487244 17.022156,382.797821 17.019264,376.695862 
	C16.993292,321.893280 16.920059,267.090515 17.053448,212.288284 
	C17.096886,194.441223 35.491020,177.013245 53.820477,177.010208 
	C154.763809,176.993515 255.707153,177.002106 356.650482,177.001846 
	C367.644318,177.001816 378.639191,176.917419 389.631317,177.054199 
	C392.663361,177.091934 394.470001,176.125824 395.940308,173.374313 
	C399.382355,166.932983 403.167816,160.673721 406.867432,154.371948 
	C409.702728,149.542404 412.613281,148.406631 418.586670,150.232330 
	C423.845215,155.749451 424.038696,157.729767 420.246155,164.305252 
	C395.147583,207.821014 370.034454,251.328369 344.935486,294.843903 
	C344.051666,296.376282 343.266998,297.965881 342.229675,299.917145 
	C345.733032,301.831024 348.918152,303.571075 352.309387,305.562683 
	C356.225342,308.887268 357.237823,305.570007 358.599121,303.213623 
	C382.669952,261.548950 406.731689,219.878998 430.793579,178.209137 
	C442.449615,158.023544 454.117432,137.844727 465.729553,117.633911 
	C466.760468,115.839668 469.198395,113.611755 464.807281,112.099808 
	C461.125244,109.922951 457.734711,107.955978 454.068542,105.829109 
	C449.091980,114.440895 444.374207,122.615776 439.645538,130.784363 
	C435.511078,137.926605 434.074493,138.581558 426.018890,137.052078 
	C422.445435,133.627930 421.076569,129.962570 423.864532,125.216118 
	C433.606842,108.629951 443.018646,91.847382 452.914764,75.354691 
	C458.681641,65.743706 468.042419,63.301815 478.414551,65.215187 
	C487.673096,66.923141 493.986877,72.867531 496.310913,81.968674 
	C498.103088,88.986984 497.509644,96.055939 493.645935,102.675560 
	C478.097992,129.313477 462.694489,156.035660 446.962158,183.202393 
	C454.796356,188.062180 460.087921,194.891251 463.079346,203.355606 
	C464.111786,206.276871 464.903839,209.466415 464.915741,212.536850 
	C465.044800,245.844955 465.010376,279.153717 464.984375,312.462311 
	C464.979553,318.645538 463.695618,320.068481 456.979401,320.974762 
	C450.545807,319.839539 448.946777,316.024048 448.960388,310.710083 
	C449.039337,279.881256 449.000580,249.052155 448.995056,218.223145 
	C448.993530,209.695801 445.857849,202.779037 438.202850,197.288193 
	C435.757629,201.542328 433.450287,205.350693 431.398682,209.292160 
	C430.967377,210.120773 431.395233,211.451080 431.566315,212.528107 
	C432.002655,215.275238 432.937256,218.009491 432.939941,220.749619 
	C433.015869,298.238708 433.002167,375.727875 432.999786,453.217010 
	C432.999481,462.756409 430.765259,464.999512 421.260223,464.999664 
	C301.110382,465.001801 180.960556,465.001709 60.810730,464.999786 
	C51.245106,464.999634 49.000618,462.776306 49.000294,453.294159 
	C48.997654,375.971649 48.998280,298.649170 48.999393,221.326660 
	C48.999538,211.051880 51.026562,208.999725 61.181725,208.999573 
	C152.835556,208.998276 244.489380,208.998779 336.143219,208.999420 
	C337.476318,208.999435 338.812958,208.947327 340.141907,209.024155 
	C345.332642,209.324219 347.618500,211.629013 348.160950,217.499527 
	C347.072754,223.499893 344.911438,224.997345 337.656616,224.997726 
	C248.842239,225.002304 160.027847,225.000778 71.213470,225.000809 
	C69.269058,225.000809 67.324646,225.000793 65.301041,225.000793 
	C65.301041,299.916748 65.301041,374.295929 65.301041,448.676575 
	C182.641022,448.676575 299.680481,448.676575 416.666016,448.676575 
	C416.666016,377.524048 416.666016,306.694672 416.666016,235.865280 
	C416.416046,235.785645 416.166077,235.706009 415.916138,235.626373 
	C410.917358,244.571915 405.918610,253.517471 400.622253,262.676208 
	C392.246552,276.855652 383.774536,290.612549 376.205139,304.849274 
	C369.163391,318.093567 360.246338,329.648224 349.490112,340.022858 
	C339.994476,349.181549 333.159607,350.243713 321.995880,343.295593 
	C321.816956,343.184204 321.410095,343.439178 320.999603,343.553955 
	C320.999603,359.022614 320.873077,374.516724 321.077911,390.006439 
	C321.138092,394.557373 320.015076,398.146606 315.785309,400.690826 
	C294.846466,400.676208 274.325928,400.702576 253.599548,400.429932 
	C251.879181,397.753845 250.364655,395.376770 248.934860,392.638000 
	C250.057953,386.947327 253.480072,384.861053 258.689758,384.978302 
	C263.304535,385.082153 267.923523,385.000092 272.734344,385.000092 
	C272.734344,358.153748 272.734344,331.790161 272.734344,305.296814 
	C251.433136,305.296814 230.398148,305.296814 209.320801,305.296814 
	C209.320801,331.958252 209.320801,358.322174 209.320801,384.605652 
	C209.946762,384.779114 210.254639,384.936737 210.563751,384.939148 
	C214.724472,384.971985 218.885529,384.965210 223.046173,385.003937 
	C229.406616,385.063202 231.433807,386.680359 233.060486,393.358032 
	C231.385681,396.071808 229.799133,398.427460 227.794266,400.741455 
	C221.303329,400.699768 215.230713,400.699768 209.000610,400.699768 
	C209.000610,408.732452 209.024246,415.717133 208.994217,422.701630 
	C208.961838,430.231812 206.266693,432.984070 198.809174,432.991302 
	C173.667435,433.015686 148.525635,433.013184 123.383888,432.993103 
	C115.633453,432.986908 113.025803,430.299530 113.003502,422.403320 
	C112.983505,415.322388 112.999290,408.241364 112.999290,400.999237 
	C104.941696,400.999237 97.624214,401.059723 90.308250,400.980774 
	C84.059464,400.913361 81.034843,397.999237 81.024734,391.824982 
	C80.973503,360.522705 80.969162,329.220306 81.030434,297.918091 
	C81.041908,292.053894 84.123756,289.139496 90.054474,289.014862 
	C95.710632,288.895966 101.369179,288.891205 107.484840,288.908203 
	C112.295235,288.931152 116.647461,288.882172 121.463547,288.903900 
	C145.501251,288.974579 169.075119,288.974579 192.668625,288.974579 
	C192.668625,283.367889 192.668625,278.315643 192.668625,273.158722 
	C168.560745,273.158722 144.783112,273.158722 120.645355,273.067322 
	C115.783127,272.102936 113.113266,269.487335 113.069862,264.805267 
	C113.024948,259.961639 116.693459,257.019928 122.670242,257.012878 
	C148.002289,256.982941 173.334412,256.988007 198.666473,257.007111 
	C206.397476,257.012939 208.976501,259.698151 208.996460,267.652954 
	C209.014221,274.736450 209.000183,281.820007 209.000183,288.999817 
	C214.082108,288.999817 218.411469,288.999817 222.740845,288.999847 
	C252.239395,288.999939 281.737976,288.982391 311.236481,289.013123 
	C318.100525,289.020294 320.904907,291.880646 320.995361,298.723145 
	C321.024628,300.935699 320.999969,303.148987 320.999969,305.380188 
	C324.415680,299.075256 327.604706,292.970367 330.992615,286.977875 
	C339.664703,271.638733 348.425262,256.349640 357.431763,240.854950 
	C362.137177,232.779205 366.561249,224.889053 371.256287,216.793701 
	C375.935486,209.013458 380.343719,201.438400 385.253632,193.001236 
	C382.275085,193.001236 380.345551,193.001236 378.415985,193.001236 
	C272.441315,193.001266 166.466660,193.000961 60.492001,193.004059 
	C58.659485,193.004120 56.796211,192.838318 55.000141,193.105362 
	C49.333538,193.947906 43.845608,195.256485 40.166992,200.723083 
	C34.572365,205.498520 32.997463,211.590714 32.998436,218.326523 
	C33.005951,270.395660 33.007568,322.464813 32.994072,374.533966 
	C32.992249,381.562103 31.377508,383.621033 25.014036,385.001465 
M341.909912,318.159607 
	C340.092529,317.114288 338.275146,316.068970 335.832825,314.664185 
	C334.531647,320.013489 333.341370,324.906860 332.197571,330.479065 
	C333.579956,330.467529 335.336243,330.998260 336.278534,330.348511 
	C339.935638,327.826752 343.333923,324.929596 346.828583,322.172211 
	C346.322540,321.556122 345.816498,320.940033 345.310455,320.323975 
	C344.328400,319.771271 343.346375,319.218567 341.909912,318.159607 
M129.030060,343.940796 
	C129.030060,357.514313 129.030060,371.087860 129.030060,384.832977 
	C145.093521,384.832977 160.533157,384.832977 176.903473,384.969727 
	C182.158905,384.969727 187.414352,384.969727 192.676270,384.969727 
	C192.676270,358.016541 192.676270,331.675049 192.676270,305.339661 
	C171.334381,305.339661 150.317444,305.339661 129.166321,305.339661 
	C129.166321,318.123260 129.166321,330.568726 129.030060,343.940796 
M111.258698,305.003510 
	C106.642937,305.003510 102.027168,305.003510 97.313492,305.003510 
	C97.313492,331.909790 97.313492,358.290680 97.313492,384.629120 
	C102.687454,384.629120 107.743362,384.629120 113.005699,384.629120 
	C113.005699,358.447418 113.010803,332.635284 112.972527,306.823212 
	C112.971680,306.252533 112.475960,305.682617 111.258698,305.003510 
M304.996582,307.722229 
	C304.357758,306.820404 303.756622,305.171875 303.073975,305.137390 
	C298.486511,304.905640 293.881714,305.016724 289.362091,305.016724 
	C289.362091,332.023254 289.362091,358.410370 289.362091,384.765045 
	C294.666473,384.765045 299.606201,384.765045 304.998962,384.765045 
	C304.998962,359.251709 304.998962,333.969940 304.996582,307.722229 
M129.000610,406.598877 
	C129.000610,410.011993 129.000610,413.425110 129.000610,416.747070 
	C150.703339,416.747070 171.627319,416.747070 192.692749,416.747070 
	C192.692749,411.440582 192.692749,406.390411 192.692749,401.172058 
	C171.462921,401.172058 150.539780,401.172058 129.279846,401.172058 
	C129.180786,402.755737 129.090744,404.195496 129.000610,406.598877 
M480.605988,87.085358 
	C479.523010,82.988121 476.724243,80.793274 472.629547,81.061302 
	C466.084290,81.489746 465.012024,87.351509 462.045532,92.007385 
	C466.872375,94.681923 471.254089,97.109833 476.601044,100.072586 
	C478.175415,95.447777 479.469116,91.647461 480.605988,87.085358 
z"/>
<path fill="#93999A" opacity="1.000000" stroke="none" 
	d="
M348.244995,217.124222 
	C347.618500,211.629013 345.332642,209.324219 340.141907,209.024155 
	C338.812958,208.947327 337.476318,208.999435 336.143219,208.999420 
	C244.489380,208.998779 152.835556,208.998276 61.181725,208.999573 
	C51.026562,208.999725 48.999538,211.051880 48.999393,221.326660 
	C48.998280,298.649170 48.997654,375.971649 49.000294,453.294159 
	C49.000618,462.776306 51.245106,464.999634 60.810730,464.999786 
	C180.960556,465.001709 301.110382,465.001801 421.260223,464.999664 
	C430.765259,464.999512 432.999481,462.756409 432.999786,453.217010 
	C433.002167,375.727875 433.015869,298.238708 432.939941,220.749619 
	C432.937256,218.009491 432.002655,215.275238 431.566315,212.528107 
	C431.395233,211.451080 430.967377,210.120773 431.398682,209.292160 
	C433.450287,205.350693 435.757629,201.542328 438.202850,197.288193 
	C445.857849,202.779037 448.993530,209.695801 448.995056,218.223145 
	C449.000580,249.052155 449.039337,279.881256 448.960388,310.710083 
	C448.946777,316.024048 450.545807,319.839539 456.582092,320.979767 
	C456.962311,326.024719 456.977112,331.043304 456.604614,336.554901 
	C450.547363,338.143463 448.952484,341.953735 448.963013,347.257202 
	C449.034546,383.350952 449.014740,419.444916 448.985901,455.538788 
	C448.980286,462.564026 447.582642,469.073639 440.929291,473.386536 
	C437.951843,473.156158 435.457886,473.010773 432.963928,473.010529 
	C311.211823,472.999298 189.459702,473.001953 67.707581,472.998779 
	C50.874062,472.998352 41.001877,463.151917 41.001087,446.363342 
	C40.997337,366.916351 41.004147,287.469330 40.976704,208.022354 
	C40.975845,205.543793 40.641811,203.065353 40.463100,200.586868 
	C43.845608,195.256485 49.333538,193.947906 55.000141,193.105362 
	C56.796211,192.838318 58.659485,193.004120 60.492001,193.004059 
	C166.466660,193.000961 272.441315,193.001266 378.415985,193.001236 
	C380.345551,193.001236 382.275085,193.001236 385.253632,193.001236 
	C380.343719,201.438400 375.935486,209.013458 370.788635,216.796448 
	C362.781708,217.044327 355.513336,217.084274 348.244995,217.124222 
z"/>
<path fill="#323232" opacity="1.000000" stroke="none" 
	d="
M441.412781,473.539246 
	C447.582642,469.073639 448.980286,462.564026 448.985901,455.538788 
	C449.014740,419.444916 449.034546,383.350952 448.963013,347.257202 
	C448.952484,341.953735 450.547363,338.143463 456.582916,337.020935 
	C463.229004,337.496185 464.975739,339.187866 464.980804,345.268738 
	C465.013184,384.090698 465.099152,422.913086 464.952118,461.734467 
	C464.884552,479.576294 446.490204,496.990997 428.111542,496.992889 
	C304.147827,497.005707 180.184052,497.040955 56.220585,496.863068 
	C50.733868,496.855164 44.973522,495.578644 39.818962,493.628632 
	C26.668142,488.653625 17.011797,473.725250 17.003487,459.604279 
	C16.993584,442.775879 16.969418,425.947388 17.021414,409.119141 
	C17.038944,403.445984 18.481394,401.935272 24.987263,401.026489 
	C31.180452,402.015747 33.048096,405.554199 33.023026,410.724426 
	C32.952766,425.214691 32.994789,439.705536 33.001755,454.196136 
	C33.009991,471.334198 42.749454,480.997620 60.031750,480.998077 
	C180.620300,481.001190 301.208832,480.999969 421.797394,480.998199 
	C423.462830,480.998169 425.156982,481.168488 426.788513,480.926849 
	C432.458679,480.087036 437.935577,478.762573 441.412781,473.539246 
z"/>
<path fill="#333332" opacity="1.000000" stroke="none" 
	d="
M224.997314,108.999969 
	C224.996414,115.995705 224.910278,122.492996 225.027512,128.986603 
	C225.094833,132.715118 223.750427,135.219986 220.285172,136.923843 
	C205.054794,144.412582 190.018875,152.312088 174.620834,159.431931 
	C171.471161,160.888275 166.490799,160.875336 163.338562,159.415054 
	C147.794525,152.214203 132.511612,144.432068 117.335648,136.475357 
	C115.314209,135.415527 113.232147,132.207748 113.200844,129.966431 
	C112.893890,107.985161 112.893013,85.996162 113.203133,64.014969 
	C113.234749,61.773647 115.342552,58.571297 117.373718,57.506424 
	C132.549881,49.550060 147.820160,41.738441 163.384430,34.585361 
	C166.631012,33.093277 171.785614,33.303673 175.098022,34.825443 
	C189.907883,41.629292 204.297119,49.342255 219.000549,56.388206 
	C223.382584,58.488098 225.138321,61.232246 225.069473,66.028732 
	C224.866287,80.183243 224.997147,94.342552 224.997314,108.999969 
M186.032944,135.557480 
	C192.715073,132.219391 199.440384,128.962952 206.040894,125.470581 
	C207.280151,124.814873 208.849655,123.227905 208.865463,122.051857 
	C209.059158,107.637222 208.991531,93.219078 208.991531,78.023193 
	C198.478607,83.255768 188.533035,88.105927 178.732529,93.233398 
	C177.714233,93.766159 177.098206,95.938004 177.075409,97.361816 
	C176.929108,106.502541 177.000427,115.646751 177.000290,124.789818 
	C177.000229,129.658249 177.000290,134.526688 177.000290,139.998810 
	C180.344635,138.360443 182.856888,137.129715 186.032944,135.557480 
M149.965897,134.554077 
	C153.480972,136.237442 156.996063,137.920807 160.996094,139.836426 
	C160.996094,124.892639 161.042908,110.743324 160.912552,96.595642 
	C160.901398,95.385612 160.020523,93.593376 159.022263,93.074234 
	C149.324066,88.030685 139.514557,83.201218 129.009521,77.946945 
	C129.009521,93.155266 128.942169,107.572685 129.135178,121.986618 
	C129.150925,123.161812 130.715805,124.739212 131.951294,125.402763 
	C137.664017,128.470917 143.514832,131.281952 149.965897,134.554077 
M176.052689,53.416927 
	C171.399475,49.873959 166.998444,50.243080 162.018387,53.297241 
	C156.516434,56.671448 150.479385,59.170776 144.689789,62.079769 
	C143.033539,62.911961 141.427185,63.843452 139.150574,65.081451 
	C146.049835,68.543320 152.377594,70.936737 157.818802,74.634644 
	C165.682587,79.978958 172.624313,79.759842 180.423370,74.546654 
	C185.943085,70.857071 192.278488,68.387794 198.481964,65.256577 
	C197.669571,64.493912 197.472855,64.205437 197.200058,64.068283 
	C190.370193,60.634560 183.532318,57.216782 176.052689,53.416927 
z"/>
<path fill="#656B76" opacity="1.000000" stroke="none" 
	d="
M440.929291,473.386536 
	C437.935577,478.762573 432.458679,480.087036 426.788513,480.926849 
	C425.156982,481.168488 423.462830,480.998169 421.797394,480.998199 
	C301.208832,480.999969 180.620300,481.001190 60.031750,480.998077 
	C42.749454,480.997620 33.009991,471.334198 33.001755,454.196136 
	C32.994789,439.705536 32.952766,425.214691 33.023026,410.724426 
	C33.048096,405.554199 31.180452,402.015747 25.381357,401.023193 
	C25.009266,395.977325 25.006275,390.956085 25.008659,385.468140 
	C31.377508,383.621033 32.992249,381.562103 32.994072,374.533966 
	C33.007568,322.464813 33.005951,270.395660 32.998436,218.326523 
	C32.997463,211.590714 34.572365,205.498520 40.166992,200.723083 
	C40.641811,203.065353 40.975845,205.543793 40.976704,208.022354 
	C41.004147,287.469330 40.997337,366.916351 41.001087,446.363342 
	C41.001877,463.151917 50.874062,472.998352 67.707581,472.998779 
	C189.459702,473.001953 311.211823,472.999298 432.963928,473.010529 
	C435.457886,473.010773 437.951843,473.156158 440.929291,473.386536 
z"/>
<path fill="#47C8E2" opacity="1.000000" stroke="none" 
	d="
M425.903748,137.383865 
	C434.074493,138.581558 435.511078,137.926605 439.645538,130.784363 
	C444.374207,122.615776 449.091980,114.440895 454.068542,105.829109 
	C457.734711,107.955978 461.125244,109.922951 464.699219,112.419044 
	C462.184784,117.727028 459.525665,122.528267 456.783081,127.281326 
	C426.927765,179.023071 397.119781,230.792343 367.130371,282.456268 
	C362.560272,290.329346 357.133728,297.705231 352.103302,305.311096 
	C348.918152,303.571075 345.733032,301.831024 342.229675,299.917145 
	C343.266998,297.965881 344.051666,296.376282 344.935486,294.843903 
	C370.034454,251.328369 395.147583,207.821014 420.246155,164.305252 
	C424.038696,157.729767 423.845215,155.749451 418.958771,150.285904 
	C421.143372,145.877411 423.465973,141.796524 425.903748,137.383865 
z"/>
<path fill="#323232" opacity="1.000000" stroke="none" 
	d="
M76.287186,17.958641 
	C87.103645,17.579586 97.561127,16.998682 107.981384,17.395458 
	C112.429695,17.564838 113.147469,21.849091 113.009102,25.826668 
	C112.867165,29.906969 111.059250,32.628006 106.866837,32.891602 
	C102.387321,33.173252 97.873596,33.120621 93.383919,32.959595 
	C90.210968,32.845787 88.812027,33.928654 88.960167,37.245686 
	C89.145706,41.400436 89.099693,45.573616 88.963432,49.732609 
	C88.793182,54.928913 86.410904,57.006241 80.965477,56.994602 
	C75.587410,56.983109 73.119026,54.842846 73.042755,49.643166 
	C72.918213,41.151901 72.828224,32.650673 73.143768,24.169277 
	C73.219551,22.132196 74.945885,20.156523 76.287186,17.958641 
z"/>
<path fill="#323232" opacity="1.000000" stroke="none" 
	d="
M80.172653,121.011047 
	C87.159386,121.366066 88.910477,123.092110 88.990105,129.405975 
	C89.038406,133.235458 89.115654,137.070190 88.971390,140.894699 
	C88.859383,143.864075 89.966026,145.143692 93.023537,145.031372 
	C97.180847,144.878647 101.350639,144.915588 105.510796,145.028824 
	C110.781578,145.172272 112.944252,147.504028 112.994583,152.832504 
	C113.048248,158.512268 110.930794,160.896805 105.367104,160.966751 
	C97.042213,161.071442 88.713776,161.078629 80.389267,160.958786 
	C75.329582,160.885956 73.108696,158.645798 73.038788,153.564087 
	C72.924271,145.239441 73.010376,136.912079 73.005013,128.585861 
	C73.002083,124.045212 75.061722,121.357361 80.172653,121.011047 
z"/>
<path fill="#323232" opacity="1.000000" stroke="none" 
	d="
M231.559174,17.031145 
	C240.161621,17.009033 248.317703,16.967663 256.473297,17.012789 
	C262.818268,17.047892 264.935699,19.095682 264.982971,25.289309 
	C265.043945,33.278278 265.067688,41.268944 264.971130,49.257229 
	C264.903198,54.875271 262.578186,57.011940 256.948486,56.994598 
	C251.415375,56.977554 249.132980,54.762054 249.017532,49.133472 
	C248.939026,45.306770 248.846039,41.469330 249.043030,37.651314 
	C249.216995,34.279770 248.110657,32.730385 244.524399,32.953671 
	C240.876831,33.180771 237.201843,32.923008 233.542603,33.019146 
	C229.269348,33.131420 225.917145,32.004639 225.088013,27.221300 
	C224.112656,21.594341 225.788895,18.816576 231.559174,17.031145 
z"/>
<path fill="#323232" opacity="1.000000" stroke="none" 
	d="
M248.999695,135.016479 
	C249.000153,132.871353 248.982040,131.207703 249.004349,129.544586 
	C249.086838,123.394981 251.208145,121.072868 256.783600,121.004837 
	C262.752441,120.931992 264.951202,123.184669 264.988068,129.587982 
	C265.033081,137.405716 265.057587,145.224533 264.977386,153.041718 
	C264.918518,158.781754 262.834656,160.912338 257.169586,160.973846 
	C249.019867,161.062347 240.867615,161.067657 232.718109,160.969940 
	C227.168503,160.903442 224.976776,158.499008 225.005219,152.911377 
	C225.033051,147.444443 227.311066,145.133453 232.918030,145.015320 
	C236.243393,144.945251 239.600037,144.723969 242.891388,145.065063 
	C247.663239,145.559616 249.759781,143.871231 249.024704,138.987564 
	C248.853317,137.848984 248.999573,136.662598 248.999695,135.016479 
z"/>
<path fill="#D0D8DA" opacity="1.000000" stroke="none" 
	d="
M348.160950,217.499527 
	C355.513336,217.084274 362.781708,217.044327 370.517700,217.001633 
	C366.561249,224.889053 362.137177,232.779205 356.953522,240.844910 
	C274.531464,241.013306 192.868988,241.006134 111.206520,240.999359 
	C110.539902,240.999298 109.870018,241.048370 109.207222,240.999374 
	C106.300873,240.784561 104.844109,241.952820 104.993149,245.027634 
	C105.700912,259.629059 106.354073,274.233154 107.026672,288.836304 
	C101.369179,288.891205 95.710632,288.895966 90.054474,289.014862 
	C84.123756,289.139496 81.041908,292.053894 81.030434,297.918091 
	C80.969162,329.220306 80.973503,360.522705 81.024734,391.824982 
	C81.034843,397.999237 84.059464,400.913361 90.308250,400.980774 
	C97.624214,401.059723 104.941696,400.999237 112.999290,400.999237 
	C112.999290,408.241364 112.983505,415.322388 113.003502,422.403320 
	C113.025803,430.299530 115.633453,432.986908 123.383888,432.993103 
	C148.525635,433.013184 173.667435,433.015686 198.809174,432.991302 
	C206.266693,432.984070 208.961838,430.231812 208.994217,422.701630 
	C209.024246,415.717133 209.000610,408.732452 209.000610,400.699768 
	C215.230713,400.699768 221.303329,400.699768 228.323486,400.787445 
	C237.449158,400.826385 245.627258,400.777679 253.805374,400.728943 
	C274.325928,400.702576 294.846466,400.676208 316.312561,400.761627 
	C329.117218,400.906952 340.976318,400.940460 352.904694,401.439758 
	C352.984161,409.383759 352.904633,416.863556 353.034729,424.339722 
	C353.127808,429.688232 356.092712,432.867523 361.297150,432.943665 
	C371.764496,433.096802 382.236938,433.085266 392.704681,432.946350 
	C397.523407,432.882385 400.847626,429.939758 400.889954,425.326172 
	C400.998047,413.538025 400.737610,401.746552 400.685608,389.430420 
	C400.693390,380.569946 400.640198,372.235443 400.626251,363.576782 
	C400.639526,361.529205 400.613556,359.805817 400.661682,357.549988 
	C400.797119,325.499329 400.858490,293.981171 400.919861,262.463013 
	C405.918610,253.517471 410.917358,244.571915 415.916138,235.626373 
	C416.166077,235.706009 416.416046,235.785645 416.666016,235.865280 
	C416.666016,306.694672 416.666016,377.524048 416.666016,448.676575 
	C299.680481,448.676575 182.641022,448.676575 65.301041,448.676575 
	C65.301041,374.295929 65.301041,299.916748 65.301041,225.000793 
	C67.324646,225.000793 69.269058,225.000809 71.213470,225.000809 
	C160.027847,225.000778 248.842239,225.002304 337.656616,224.997726 
	C344.911438,224.997345 347.072754,223.499893 348.160950,217.499527 
M303.160583,425.002869 
	C309.566315,424.691010 313.049103,421.801178 312.964813,416.867981 
	C312.880096,411.912689 309.231140,409.021332 302.905151,409.005096 
	C291.761292,408.976471 280.617279,408.995911 269.473328,408.997101 
	C257.497772,408.998383 245.508987,408.703308 233.556717,409.232300 
	C230.859558,409.351685 227.426865,411.809845 225.948273,414.193542 
	C224.867050,415.936584 225.561508,420.095367 227.048981,421.769562 
	C228.734604,423.666840 232.179291,424.841125 234.874481,424.869354 
	C257.326233,425.104736 279.781494,425.003021 303.160583,425.002869 
z"/>
<path fill="#E9F1F2" opacity="1.000000" stroke="none" 
	d="
M107.484833,288.908203 
	C106.354073,274.233154 105.700912,259.629059 104.993149,245.027634 
	C104.844109,241.952820 106.300873,240.784561 109.207222,240.999374 
	C109.870018,241.048370 110.539902,240.999298 111.206520,240.999359 
	C192.868988,241.006134 274.531464,241.013306 356.672180,241.030487 
	C348.425262,256.349640 339.664703,271.638733 330.992615,286.977875 
	C327.604706,292.970367 324.415680,299.075256 320.999969,305.380188 
	C320.999969,303.148987 321.024628,300.935699 320.995361,298.723145 
	C320.904907,291.880646 318.100525,289.020294 311.236481,289.013123 
	C281.737976,288.982391 252.239395,288.999939 222.740845,288.999847 
	C218.411469,288.999817 214.082108,288.999817 209.000183,288.999817 
	C209.000183,281.820007 209.014221,274.736450 208.996460,267.652954 
	C208.976501,259.698151 206.397476,257.012939 198.666473,257.007111 
	C173.334412,256.988007 148.002289,256.982941 122.670242,257.012878 
	C116.693459,257.019928 113.024948,259.961639 113.069862,264.805267 
	C113.113266,269.487335 115.783127,272.102936 120.643341,273.523468 
	C121.000870,278.991730 121.000282,283.912506 120.999695,288.833252 
	C116.647461,288.882172 112.295235,288.931152 107.484833,288.908203 
M244.696609,248.996872 
	C243.532455,249.000809 242.363983,248.941162 241.204880,249.019699 
	C236.198669,249.358902 232.887497,252.708618 233.030197,257.238983 
	C233.166306,261.560059 236.430206,264.921936 241.195328,264.944641 
	C262.482605,265.046082 283.771179,265.065399 305.058014,264.923523 
	C310.098480,264.889954 313.546509,260.600403 312.921814,255.980545 
	C312.328888,251.595535 308.975189,249.022736 303.524567,249.012115 
	C284.232483,248.974579 264.940308,248.997116 244.696609,248.996872 
z"/>
<path fill="#E8F0F1" opacity="1.000000" stroke="none" 
	d="
M400.587006,363.900970 
	C400.640198,372.235443 400.693390,380.569946 400.444427,389.141876 
	C398.163757,385.982330 395.113556,384.915070 391.320862,384.965424 
	C383.016418,385.075714 374.709534,384.999176 366.403625,384.999237 
	C354.556488,384.999329 353.120209,386.448059 352.992432,398.493805 
	C352.983673,399.320984 352.889709,400.147278 352.835388,400.973969 
	C340.976318,400.940460 329.117218,400.906952 316.730896,400.802612 
	C320.015076,398.146606 321.138092,394.557373 321.077911,390.006439 
	C320.873077,374.516724 320.999603,359.022614 320.999603,343.553955 
	C321.410095,343.439178 321.816956,343.184204 321.995880,343.295593 
	C333.159607,350.243713 339.994476,349.181549 349.490112,340.022858 
	C360.246338,329.648224 369.163391,318.093567 376.205139,304.849274 
	C383.774536,290.612549 392.246552,276.855652 400.622284,262.676208 
	C400.858490,293.981171 400.797119,325.499329 400.431885,357.244812 
	C397.392487,355.979187 394.791107,353.652252 391.890564,353.185822 
	C387.367645,352.458496 382.640564,352.926575 378.002197,353.010803 
	C372.533966,353.110046 369.095215,356.189392 369.025116,360.881653 
	C368.952667,365.730194 372.521606,368.905548 378.274475,368.993927 
	C382.581909,369.060089 386.896729,368.871277 391.198090,369.046417 
	C395.450623,369.219543 398.584320,367.673889 400.587006,363.900970 
z"/>
<path fill="#FFD000" opacity="1.000000" stroke="none" 
	d="
M233.148743,392.999969 
	C231.433807,386.680359 229.406616,385.063202 223.046173,385.003937 
	C218.885529,384.965210 214.724472,384.971985 210.563751,384.939148 
	C210.254639,384.936737 209.946762,384.779114 209.320801,384.605652 
	C209.320801,358.322174 209.320801,331.958252 209.320801,305.296814 
	C230.398148,305.296814 251.433136,305.296814 272.734344,305.296814 
	C272.734344,331.790161 272.734344,358.153748 272.734344,385.000092 
	C267.923523,385.000092 263.304535,385.082153 258.689758,384.978302 
	C253.480072,384.861053 250.057953,386.947327 248.478134,392.637695 
	C243.007370,392.999359 238.078049,392.999664 233.148743,392.999969 
z"/>
<path fill="#FFB700" opacity="1.000000" stroke="none" 
	d="
M129.166321,343.014160 
	C129.166321,330.568726 129.166321,318.123260 129.166321,305.339661 
	C150.317444,305.339661 171.334381,305.339661 192.676270,305.339661 
	C192.676270,331.675049 192.676270,358.016541 192.676270,384.969727 
	C187.414352,384.969727 182.158905,384.969727 176.191544,384.683472 
	C163.303452,377.194519 151.912918,368.932770 142.203186,358.598450 
	C137.573334,353.670746 133.494659,348.225159 129.166321,343.014160 
z"/>
<path fill="#FFD000" opacity="1.000000" stroke="none" 
	d="
M111.734894,305.057922 
	C112.475960,305.682617 112.971680,306.252533 112.972527,306.823212 
	C113.010803,332.635284 113.005699,358.447418 113.005699,384.629120 
	C107.743362,384.629120 102.687454,384.629120 97.313492,384.629120 
	C97.313492,358.290680 97.313492,331.909790 97.313492,305.003510 
	C102.027168,305.003510 106.642937,305.003510 111.734894,305.057922 
z"/>
<path fill="#FFEA00" opacity="1.000000" stroke="none" 
	d="
M304.997772,308.205200 
	C304.998962,333.969940 304.998962,359.251709 304.998962,384.765045 
	C299.606201,384.765045 294.666473,384.765045 289.362091,384.765045 
	C289.362091,358.410370 289.362091,332.023254 289.362091,305.016724 
	C293.881714,305.016724 298.486511,304.905640 303.073975,305.137390 
	C303.756622,305.171875 304.357758,306.820404 304.997772,308.205200 
z"/>
<path fill="#FFEA00" opacity="1.000000" stroke="none" 
	d="
M121.463547,288.903931 
	C121.000282,283.912506 121.000870,278.991730 121.003479,273.614868 
	C144.783112,273.158722 168.560745,273.158722 192.668625,273.158722 
	C192.668625,278.315643 192.668625,283.367889 192.668625,288.974579 
	C169.075119,288.974579 145.501251,288.974579 121.463547,288.903931 
z"/>
<path fill="#FFD000" opacity="1.000000" stroke="none" 
	d="
M129.000656,406.117065 
	C129.090744,404.195496 129.180786,402.755737 129.279846,401.172058 
	C150.539780,401.172058 171.462921,401.172058 192.692749,401.172058 
	C192.692749,406.390411 192.692749,411.440582 192.692749,416.747070 
	C171.627319,416.747070 150.703339,416.747070 129.000610,416.747070 
	C129.000610,413.425110 129.000610,410.011993 129.000656,406.117065 
z"/>
<path fill="#FFA200" opacity="1.000000" stroke="none" 
	d="
M129.098190,343.477478 
	C133.494659,348.225159 137.573334,353.670746 142.203186,358.598450 
	C151.912918,368.932770 163.303452,377.194519 175.726196,384.615082 
	C160.533157,384.832977 145.093521,384.832977 129.030060,384.832977 
	C129.030060,371.087860 129.030060,357.514313 129.098190,343.477478 
z"/>
<path fill="#05AFD2" opacity="1.000000" stroke="none" 
	d="
M352.309387,305.562683 
	C357.133728,297.705231 362.560272,290.329346 367.130371,282.456268 
	C397.119781,230.792343 426.927765,179.023071 456.783081,127.281326 
	C459.525665,122.528267 462.184784,117.727028 464.990723,112.628922 
	C469.198395,113.611755 466.760468,115.839668 465.729553,117.633911 
	C454.117432,137.844727 442.449615,158.023544 430.793579,178.209137 
	C406.731689,219.878998 382.669952,261.548950 358.599121,303.213623 
	C357.237823,305.570007 356.225342,308.887268 352.309387,305.562683 
z"/>
<path fill="#9ADEEB" opacity="1.000000" stroke="none" 
	d="
M480.684387,87.466248 
	C479.469116,91.647461 478.175415,95.447777 476.601044,100.072586 
	C471.254089,97.109833 466.872375,94.681923 462.045532,92.007385 
	C465.012024,87.351509 466.084290,81.489746 472.629547,81.061302 
	C476.724243,80.793274 479.523010,82.988121 480.684387,87.466248 
z"/>
<path fill="#E8F0F1" opacity="1.000000" stroke="none" 
	d="
M233.060486,393.358032 
	C238.078049,392.999664 243.007370,392.999359 248.393402,392.999390 
	C250.364655,395.376770 251.879181,397.753845 253.599548,400.429932 
	C245.627258,400.777679 237.449158,400.826385 228.741821,400.829132 
	C229.799133,398.427460 231.385681,396.071808 233.060486,393.358032 
z"/>
<path fill="#A4DEEA" opacity="1.000000" stroke="none" 
	d="
M332.151093,329.800232 
	C333.341370,324.906860 334.531647,320.013489 335.832825,314.664185 
	C338.275146,316.068970 340.092529,317.114288 341.927490,318.710297 
	C338.680389,322.774078 335.415741,326.287140 332.151093,329.800232 
z"/>
<path fill="#4BC5DD" opacity="1.000000" stroke="none" 
	d="
M332.174316,330.139648 
	C335.415741,326.287140 338.680389,322.774078 342.154694,318.963440 
	C343.346375,319.218567 344.328400,319.771271 345.310455,320.323975 
	C345.816498,320.940033 346.322540,321.556122 346.828583,322.172211 
	C343.333923,324.929596 339.935638,327.826752 336.278534,330.348511 
	C335.336243,330.998260 333.579956,330.467529 332.174316,330.139648 
z"/>
<path fill="#FECF00" opacity="1.000000" stroke="none" 
	d="
M185.701035,135.728241 
	C182.856888,137.129715 180.344635,138.360443 177.000290,139.998810 
	C177.000290,134.526688 177.000229,129.658249 177.000290,124.789818 
	C177.000427,115.646751 176.929108,106.502541 177.075409,97.361816 
	C177.098206,95.938004 177.714233,93.766159 178.732529,93.233398 
	C188.533035,88.105927 198.478607,83.255768 208.991531,78.023193 
	C208.991531,93.219078 209.059158,107.637222 208.865463,122.051857 
	C208.849655,123.227905 207.280151,124.814873 206.040894,125.470581 
	C199.440384,128.962952 192.715073,132.219391 185.701035,135.728241 
z"/>
<path fill="#FEA200" opacity="1.000000" stroke="none" 
	d="
M149.641037,134.369598 
	C143.514832,131.281952 137.664017,128.470917 131.951294,125.402763 
	C130.715805,124.739212 129.150925,123.161812 129.135178,121.986618 
	C128.942169,107.572685 129.009521,93.155266 129.009521,77.946945 
	C139.514557,83.201218 149.324066,88.030685 159.022263,93.074234 
	C160.020523,93.593376 160.901398,95.385612 160.912552,96.595642 
	C161.042908,110.743324 160.996094,124.892639 160.996094,139.836426 
	C156.996063,137.920807 153.480972,136.237442 149.641037,134.369598 
z"/>
<path fill="#FCE801" opacity="1.000000" stroke="none" 
	d="
M176.374268,53.606552 
	C183.532318,57.216782 190.370193,60.634560 197.200058,64.068283 
	C197.472855,64.205437 197.669571,64.493912 198.481964,65.256577 
	C192.278488,68.387794 185.943085,70.857071 180.423370,74.546654 
	C172.624313,79.759842 165.682587,79.978958 157.818802,74.634644 
	C152.377594,70.936737 146.049835,68.543320 139.150574,65.081451 
	C141.427185,63.843452 143.033539,62.911961 144.689789,62.079769 
	C150.479385,59.170776 156.516434,56.671448 162.018387,53.297241 
	C166.998444,50.243080 171.399475,49.873959 176.374268,53.606552 
z"/>
<path fill="#333333" opacity="1.000000" stroke="none" 
	d="
M352.904694,401.439758 
	C352.889709,400.147278 352.983673,399.320984 352.992432,398.493805 
	C353.120209,386.448059 354.556488,384.999329 366.403625,384.999237 
	C374.709534,384.999176 383.016418,385.075714 391.320862,384.965424 
	C395.113556,384.915070 398.163757,385.982330 400.383423,389.667847 
	C400.737610,401.746552 400.998047,413.538025 400.889954,425.326172 
	C400.847626,429.939758 397.523407,432.882385 392.704681,432.946350 
	C382.236938,433.085266 371.764496,433.096802 361.297150,432.943665 
	C356.092712,432.867523 353.127808,429.688232 353.034729,424.339722 
	C352.904633,416.863556 352.984161,409.383759 352.904694,401.439758 
M384.998291,408.520020 
	C384.998291,406.098633 384.998291,403.677246 384.998291,401.393188 
	C379.251373,401.393188 374.201691,401.393188 369.264313,401.393188 
	C369.264313,406.718842 369.264313,411.649445 369.264313,416.688080 
	C374.576385,416.688080 379.621704,416.688080 384.998291,416.688080 
	C384.998291,414.080719 384.998291,411.780121 384.998291,408.520020 
z"/>
<path fill="#333333" opacity="1.000000" stroke="none" 
	d="
M302.698151,425.002991 
	C279.781494,425.003021 257.326233,425.104736 234.874481,424.869354 
	C232.179291,424.841125 228.734604,423.666840 227.048981,421.769562 
	C225.561508,420.095367 224.867050,415.936584 225.948273,414.193542 
	C227.426865,411.809845 230.859558,409.351685 233.556717,409.232300 
	C245.508987,408.703308 257.497772,408.998383 269.473328,408.997101 
	C280.617279,408.995911 291.761292,408.976471 302.905151,409.005096 
	C309.231140,409.021332 312.880096,411.912689 312.964813,416.867981 
	C313.049103,421.801178 309.566315,424.691010 302.698151,425.002991 
z"/>
<path fill="#353636" opacity="1.000000" stroke="none" 
	d="
M400.626251,363.576782 
	C398.584320,367.673889 395.450623,369.219543 391.198090,369.046417 
	C386.896729,368.871277 382.581909,369.060089 378.274475,368.993927 
	C372.521606,368.905548 368.952667,365.730194 369.025116,360.881653 
	C369.095215,356.189392 372.533966,353.110046 378.002197,353.010803 
	C382.640564,352.926575 387.367645,352.458496 391.890564,353.185822 
	C394.791107,353.652252 397.392487,355.979187 400.357788,357.777283 
	C400.613556,359.805817 400.639526,361.529205 400.626251,363.576782 
z"/>
<path fill="#333434" opacity="1.000000" stroke="none" 
	d="
M245.172394,248.996872 
	C264.940308,248.997116 284.232483,248.974579 303.524567,249.012115 
	C308.975189,249.022736 312.328888,251.595535 312.921814,255.980545 
	C313.546509,260.600403 310.098480,264.889954 305.058014,264.923523 
	C283.771179,265.065399 262.482605,265.046082 241.195328,264.944641 
	C236.430206,264.921936 233.166306,261.560059 233.030197,257.238983 
	C232.887497,252.708618 236.198669,249.358902 241.204880,249.019699 
	C242.363983,248.941162 243.532455,249.000809 245.172394,248.996872 
z"/>
<path fill="#FFD000" opacity="1.000000" stroke="none"
	d="
M384.998291,408.999786 
	C384.998291,411.780121 384.998291,414.080719 384.998291,416.688080 
	C379.621704,416.688080 374.576385,416.688080 369.264313,416.688080 
	C369.264313,411.649445 369.264313,406.718842 369.264313,401.393188 
	C374.201691,401.393188 379.251373,401.393188 384.998291,401.393188 
	C384.998291,403.677246 384.998291,406.098633 384.998291,408.999786 
z"/>
</svg>