<svg version="1.1" id="Layer_1" xmlns="http://www.w3.org/2000/svg" xmlns:xlink="http://www.w3.org/1999/xlink" x="0px" y="0px"
	 width="100%" viewBox="0 0 512 512" enable-background="new 0 0 512 512" xml:space="preserve">
<path fill="#178FEB" opacity="1.000000" stroke="none" 
	d="
M225.000000,0.999999 
	C246.020889,1.000000 267.041779,1.000000 288.260925,1.372557 
	C289.471008,2.162133 290.448303,2.788911 291.500305,2.962288 
	C298.569244,4.127303 305.768280,4.718963 312.713165,6.381846 
	C337.432739,12.300719 361.146545,20.835016 383.298645,33.599148 
	C399.036346,42.667271 414.164520,52.667061 427.264374,65.122566 
	C439.437103,76.696556 450.935730,89.156906 461.453186,102.253311 
	C477.624390,122.389679 489.569122,145.100937 498.192047,169.501953 
	C504.384094,187.024109 509.422638,204.812103 511.104004,223.418671 
	C511.156342,223.998154 512.342468,224.475189 513.000000,225.000000 
	C513.000000,246.020889 513.000000,267.041779 512.628174,288.259827 
	C511.840851,289.302155 511.230927,290.105560 511.039093,290.998810 
	C508.075317,304.797699 505.754395,318.766388 502.097626,332.376862 
	C497.324921,350.140717 489.739502,366.841644 480.652161,382.880859 
	C471.620544,398.821747 461.461121,414.052338 448.889008,427.270081 
	C437.320007,439.433136 424.780945,450.806274 411.782043,461.443298 
	C395.098083,475.095825 376.296143,485.664520 356.325104,493.761993 
	C335.217224,502.320404 313.509857,509.041962 290.621735,511.100677 
	C290.028992,511.153992 289.538269,512.341431 289.000000,513.000000 
	C267.979095,513.000000 246.958206,513.000000 225.740540,512.628784 
	C224.864960,511.849670 224.232468,511.219238 223.500458,511.066833 
	C209.676498,508.188812 195.601212,506.205475 182.063980,502.336365 
	C162.053955,496.617279 143.213760,487.955627 125.274490,477.169891 
	C101.238937,462.718811 80.370224,444.762299 62.063988,423.622925 
	C45.510986,404.508148 32.129066,383.428131 22.057400,360.252838 
	C12.557435,338.393097 5.780025,315.760620 2.917412,292.025055 
	C2.828008,291.283752 1.663369,290.672089 1.000000,290.000000 
	C1.000000,268.312439 1.000000,246.624878 1.360646,224.761307 
	C2.146147,223.574661 2.780648,222.600113 2.961765,221.547546 
	C4.120575,214.813156 4.747640,207.957184 6.348761,201.334412 
	C12.324756,176.615601 20.822660,152.874512 33.593987,130.707779 
	C42.666779,114.960472 52.678082,99.827629 65.132172,86.715378 
	C76.697739,74.538605 89.172134,63.056854 102.271492,52.546753 
	C119.431168,38.778904 138.555664,28.044331 159.121994,19.853098 
	C179.906281,11.575055 201.078369,5.133636 223.419006,2.897064 
	C224.003464,2.838553 224.475525,1.657534 225.000000,0.999999 
M325.266113,172.221497 
	C316.752441,149.063980 302.421234,132.129379 276.904327,127.361900 
	C274.114624,126.840683 273.461548,125.595825 273.486786,123.039284 
	C273.583771,113.210266 273.574982,103.379227 273.495728,93.549828 
	C273.450836,87.979874 272.189819,86.737511 266.707977,86.675064 
	C260.377594,86.602936 254.045456,86.618500 247.714661,86.668289 
	C241.676270,86.715790 240.524963,87.890984 240.491241,94.119278 
	C240.442505,103.115982 240.279510,112.119415 240.564896,121.107292 
	C240.695770,125.229126 239.614716,127.094238 235.299469,128.177612 
	C219.805969,132.067383 206.976044,140.529755 196.904633,152.878586 
	C173.576538,181.481903 178.621918,222.940521 208.893219,243.869690 
	C220.670502,252.012344 234.095993,257.962860 247.224396,263.910431 
	C263.206665,271.150879 279.222107,278.099213 291.666016,291.000061 
	C299.967560,299.606445 304.189850,309.768036 302.559692,321.881683 
	C299.506744,344.568420 286.962372,356.671997 263.568573,359.644653 
	C238.941238,362.774048 217.294418,348.669739 212.490479,326.044800 
	C211.428619,321.043762 211.276047,315.804291 211.149612,310.663666 
	C211.040070,306.209320 209.006317,304.253754 204.741211,304.250702 
	C197.410370,304.245483 190.079529,304.241547 182.748718,304.256287 
	C178.707138,304.264404 176.778610,306.190948 176.539429,310.356018 
	C174.319336,349.014679 198.134857,379.588654 236.427979,386.829132 
	C239.580154,387.425140 240.574890,388.534943 240.528458,391.619263 
	C240.382980,401.280426 240.542831,410.945831 240.454727,420.608398 
	C240.413574,425.121399 242.196060,427.458832 246.951065,427.369751 
	C253.613129,427.244904 260.281281,427.239990 266.943024,427.372955 
	C271.639160,427.466644 273.593018,425.272430 273.539734,420.705750 
	C273.452271,413.209320 273.522034,405.711090 273.523010,398.213623 
	C273.524353,387.959320 273.523346,387.959259 283.120300,385.467316 
	C283.764282,385.300079 284.415344,385.157104 285.052521,384.967194 
	C311.412384,377.111298 328.970398,360.579346 335.267151,333.329163 
	C341.607758,305.889313 334.590637,282.683563 312.791992,264.250214 
	C297.836914,251.603882 280.488831,243.409973 262.671478,235.761078 
	C251.568054,230.994431 240.363998,225.829895 230.475739,219.003418 
	C212.720657,206.745956 212.529861,177.814163 229.168808,164.031906 
	C249.831757,146.916504 282.914276,155.198395 292.585388,180.072723 
	C294.126862,184.037338 294.789856,188.427383 295.295502,192.687637 
	C295.820740,197.112915 297.610657,199.275131 302.296326,199.134232 
	C309.287628,198.924042 316.290497,199.134476 323.287415,199.062210 
	C328.463318,199.008743 330.425720,196.983902 329.575897,191.951859 
	C328.498566,185.572998 326.934052,179.276428 325.266113,172.221497 
z"/>
<path fill="none" opacity="1.000000" stroke="none"
	d="
M513.000000,224.531342 
	C512.342468,224.475189 511.156342,223.998154 511.104004,223.418671 
	C509.422638,204.812103 504.384094,187.024109 498.192047,169.501953 
	C489.569122,145.100937 477.624390,122.389679 461.453186,102.253311 
	C450.935730,89.156906 439.437103,76.696556 427.264374,65.122566 
	C414.164520,52.667061 399.036346,42.667271 383.298645,33.599148 
	C361.146545,20.835016 337.432739,12.300719 312.713165,6.381846 
	C305.768280,4.718963 298.569244,4.127303 291.500305,2.962288 
	C290.448303,2.788911 289.471008,2.162133 288.729584,1.372557 
	C363.593719,1.000000 438.187408,1.000000 513.000000,1.000000 
	C513.000000,75.354088 513.000000,149.708389 513.000000,224.531342 
z"/>
<path fill="none" opacity="1.000000" stroke="none"
	d="
M289.468658,513.000000 
	C289.538269,512.341431 290.028992,511.153992 290.621735,511.100677 
	C313.509857,509.041962 335.217224,502.320404 356.325104,493.761993 
	C376.296143,485.664520 395.098083,475.095825 411.782043,461.443298 
	C424.780945,450.806274 437.320007,439.433136 448.889008,427.270081 
	C461.461121,414.052338 471.620544,398.821747 480.652161,382.880859 
	C489.739502,366.841644 497.324921,350.140717 502.097626,332.376862 
	C505.754395,318.766388 508.075317,304.797699 511.039093,290.998810 
	C511.230927,290.105560 511.840851,289.302155 512.628174,288.728455 
	C513.000000,363.593719 513.000000,438.187408 513.000000,513.000000 
	C438.645905,513.000000 364.291626,513.000000 289.468658,513.000000 
z"/>
<path fill="none" opacity="1.000000" stroke="none"
	d="
M1.000000,290.468658 
	C1.663369,290.672089 2.828008,291.283752 2.917412,292.025055 
	C5.780025,315.760620 12.557435,338.393097 22.057400,360.252838 
	C32.129066,383.428131 45.510986,404.508148 62.063988,423.622925 
	C80.370224,444.762299 101.238937,462.718811 125.274490,477.169891 
	C143.213760,487.955627 162.053955,496.617279 182.063980,502.336365 
	C195.601212,506.205475 209.676498,508.188812 223.500458,511.066833 
	C224.232468,511.219238 224.864960,511.849670 225.271881,512.628784 
	C150.406464,513.000000 75.812927,513.000000 1.000000,513.000000 
	C1.000000,438.979248 1.000000,364.958282 1.000000,290.468658 
z"/>
<path fill="none" opacity="1.000000" stroke="none"
	d="
M224.531342,0.999999 
	C224.475525,1.657534 224.003464,2.838553 223.419006,2.897064 
	C201.078369,5.133636 179.906281,11.575055 159.121994,19.853098 
	C138.555664,28.044331 119.431168,38.778904 102.271492,52.546753 
	C89.172134,63.056854 76.697739,74.538605 65.132172,86.715378 
	C52.678082,99.827629 42.666779,114.960472 33.593987,130.707779 
	C20.822660,152.874512 12.324756,176.615601 6.348761,201.334412 
	C4.747640,207.957184 4.120575,214.813156 2.961765,221.547546 
	C2.780648,222.600113 2.146147,223.574661 1.360646,224.292648 
	C1.000000,149.739456 1.000000,75.478920 1.000000,1.000000 
	C75.354088,1.000000 149.708389,1.000000 224.531342,0.999999 
z"/>
<path fill="#FDFEFF" opacity="1.000000" stroke="none" 
	d="
M325.422882,172.582932 
	C326.934052,179.276428 328.498566,185.572998 329.575897,191.951859 
	C330.425720,196.983902 328.463318,199.008743 323.287415,199.062210 
	C316.290497,199.134476 309.287628,198.924042 302.296326,199.134232 
	C297.610657,199.275131 295.820740,197.112915 295.295502,192.687637 
	C294.789856,188.427383 294.126862,184.037338 292.585388,180.072723 
	C282.914276,155.198395 249.831757,146.916504 229.168808,164.031906 
	C212.529861,177.814163 212.720657,206.745956 230.475739,219.003418 
	C240.363998,225.829895 251.568054,230.994431 262.671478,235.761078 
	C280.488831,243.409973 297.836914,251.603882 312.791992,264.250214 
	C334.590637,282.683563 341.607758,305.889313 335.267151,333.329163 
	C328.970398,360.579346 311.412384,377.111298 285.052521,384.967194 
	C284.415344,385.157104 283.764282,385.300079 283.120300,385.467316 
	C273.523346,387.959259 273.524353,387.959320 273.523010,398.213623 
	C273.522034,405.711090 273.452271,413.209320 273.539734,420.705750 
	C273.593018,425.272430 271.639160,427.466644 266.943024,427.372955 
	C260.281281,427.239990 253.613129,427.244904 246.951065,427.369751 
	C242.196060,427.458832 240.413574,425.121399 240.454727,420.608398 
	C240.542831,410.945831 240.382980,401.280426 240.528458,391.619263 
	C240.574890,388.534943 239.580154,387.425140 236.427979,386.829132 
	C198.134857,379.588654 174.319336,349.014679 176.539429,310.356018 
	C176.778610,306.190948 178.707138,304.264404 182.748718,304.256287 
	C190.079529,304.241547 197.410370,304.245483 204.741211,304.250702 
	C209.006317,304.253754 211.040070,306.209320 211.149612,310.663666 
	C211.276047,315.804291 211.428619,321.043762 212.490479,326.044800 
	C217.294418,348.669739 238.941238,362.774048 263.568573,359.644653 
	C286.962372,356.671997 299.506744,344.568420 302.559692,321.881683 
	C304.189850,309.768036 299.967560,299.606445 291.666016,291.000061 
	C279.222107,278.099213 263.206665,271.150879 247.224396,263.910431 
	C234.095993,257.962860 220.670502,252.012344 208.893219,243.869690 
	C178.621918,222.940521 173.576538,181.481903 196.904633,152.878586 
	C206.976044,140.529755 219.805969,132.067383 235.299469,128.177612 
	C239.614716,127.094238 240.695770,125.229126 240.564896,121.107292 
	C240.279510,112.119415 240.442505,103.115982 240.491241,94.119278 
	C240.524963,87.890984 241.676270,86.715790 247.714661,86.668289 
	C254.045456,86.618500 260.377594,86.602936 266.707977,86.675064 
	C272.189819,86.737511 273.450836,87.979874 273.495728,93.549828 
	C273.574982,103.379227 273.583771,113.210266 273.486786,123.039284 
	C273.461548,125.595825 274.114624,126.840683 276.904327,127.361900 
	C302.421234,132.129379 316.752441,149.063980 325.422882,172.582932 
z"/>
</svg>