<svg version="1.1" id="Layer_1" xmlns="http://www.w3.org/2000/svg" xmlns:xlink="http://www.w3.org/1999/xlink" x="0px" y="0px"
	 width="100%" viewBox="0 0 512 512" enable-background="new 0 0 512 512" xml:space="preserve">
<path fill="none" opacity="1.000000" stroke="none"
	d="
M513.000000,130.000000 
	C513.000000,257.624847 513.000000,385.249664 513.000000,512.937256 
	C342.431091,512.937256 171.862137,512.937256 1.000000,512.937256 
	C1.000000,375.976074 1.000000,238.951920 1.468656,101.465164 
	C23.747210,101.002632 45.557106,101.002708 67.367004,101.002762 
	C80.159241,101.002792 80.255524,100.976540 83.569527,113.141525 
	C92.086685,144.406128 100.622643,175.666382 108.939743,206.984497 
	C117.465843,239.089569 125.602074,271.298340 134.165634,303.393219 
	C142.601196,335.008423 151.471634,366.507965 159.805374,398.149384 
	C160.669189,401.429108 161.733551,402.065491 164.614120,402.044373 
	C173.433731,401.979584 182.254715,402.102448 190.957184,402.464294 
	C187.901001,406.259583 184.962830,409.742889 181.651489,413.118469 
	C178.857559,412.992859 176.110809,408.125092 174.073441,413.097351 
	C169.093842,425.250275 169.180588,437.572998 174.298843,449.631378 
	C182.012711,467.804840 203.263168,479.195587 223.826141,475.130219 
	C244.465714,471.049591 259.249268,453.926849 259.798828,433.229004 
	C259.995087,425.837097 257.858215,418.383179 256.665375,410.120117 
	C252.895935,411.399048 250.519470,412.205353 247.986420,412.703857 
	C244.892792,408.983521 241.955765,405.570984 239.481232,402.086121 
	C260.395020,402.010101 280.846313,401.986267 301.297546,402.007477 
	C331.887878,402.039215 362.478241,402.102661 392.949738,402.462402 
	C389.893768,406.255249 386.956604,409.738281 383.647278,413.116058 
	C380.798218,412.976318 378.331909,408.099884 375.815155,413.520752 
	C370.074921,425.884613 370.752167,438.538269 376.287354,450.116516 
	C384.959991,468.257599 403.033508,478.995300 424.825195,475.109558 
	C436.864716,472.962738 446.159943,467.127136 453.182373,457.363373 
	C457.881805,450.829498 460.215363,443.558319 461.430359,435.508026 
	C462.661926,427.347626 460.630920,420.151276 457.849854,412.914703 
	C457.524506,412.068054 455.306183,411.541016 453.995026,411.594360 
	C452.651611,411.649048 451.344666,412.599121 449.720612,412.982239 
	C446.619202,409.257690 443.818939,405.708130 441.481140,402.086212 
	C450.768036,402.010132 459.595032,402.116333 468.414612,401.908722 
	C470.150452,401.867828 472.250519,401.033936 473.509888,399.850128 
	C478.840363,394.839508 483.946899,389.588074 489.056885,384.348175 
	C489.904633,383.478882 490.907593,382.234344 490.917572,381.154663 
	C491.043610,367.554138 491.000305,353.952026 491.000305,340.060181 
	C396.551788,340.060181 302.537384,340.060181 208.564102,340.060181 
	C206.002457,330.538971 203.517319,321.302124 201.485168,312.020081 
	C205.274033,311.998535 208.609924,312.022156 211.970352,312.497864 
	C211.994873,315.219147 211.994873,317.488312 211.994873,319.447418 
	C212.653900,319.805176 212.795334,319.949219 212.936798,319.949280 
	C291.249359,319.973022 369.561951,320.002441 447.874268,319.875183 
	C449.243561,319.872986 451.401184,318.247559 451.841309,316.929047 
	C453.821198,310.997894 455.359955,304.916351 456.973419,298.866547 
	C465.496552,266.908356 473.962585,234.934814 482.559326,202.996460 
	C483.261047,200.389481 482.726501,199.316116 480.124512,198.967545 
	C478.707428,198.777695 477.333893,198.262589 475.943054,197.505463 
	C477.231476,191.883484 478.517517,186.650223 480.083923,181.233978 
	C490.905884,174.783783 498.549500,165.669983 503.830078,154.917282 
	C507.710358,147.016006 510.000946,138.334045 513.000000,130.000000 
z"/>
<path fill="none" opacity="1.000000" stroke="none"
	d="
M1.000000,40.000000 
	C1.000000,27.008669 1.000000,14.017338 0.999999,1.019506 
	C171.544189,1.013004 342.088379,1.013004 513.000000,1.013004 
	C513.000000,35.686695 513.000000,70.374687 512.611023,105.388519 
	C512.136902,104.057579 512.334961,102.326790 511.924286,100.755089 
	C505.722961,77.024742 492.411041,58.852345 470.217651,47.658962 
	C454.825836,39.895992 438.587555,38.382149 421.771637,40.976353 
	C405.027039,43.559566 390.949463,51.255527 379.205200,63.318504 
	C369.659241,73.123550 363.403442,84.811485 359.392700,97.987671 
	C355.340607,97.986389 351.736725,97.979164 348.071106,97.522858 
	C348.009338,95.143501 348.009338,93.213226 348.009338,91.270691 
	C283.391174,91.270691 219.256882,91.270691 154.894577,91.270691 
	C154.894577,93.693031 154.894577,95.845116 154.445404,98.025085 
	C150.689529,98.030106 147.382843,98.007233 143.938904,97.620529 
	C138.877182,79.498665 133.651489,61.814724 129.250885,43.927792 
	C128.217316,39.726681 126.312347,39.989605 123.468643,39.990368 
	C82.645760,40.001339 41.822880,39.999081 1.000000,40.000000 
z"/>
<path fill="#010102" opacity="1.000000" stroke="none" 
	d="
M1.000000,40.468658 
	C41.822880,39.999081 82.645760,40.001339 123.468643,39.990368 
	C126.312347,39.989605 128.217316,39.726681 129.250885,43.927792 
	C133.651489,61.814724 138.877182,79.498665 143.751709,97.893082 
	C143.982132,100.151100 144.137650,101.806137 144.560959,103.389572 
	C160.052338,161.336456 175.537277,219.285110 191.107590,277.210815 
	C194.243011,288.875427 197.715256,300.449463 201.032196,312.065277 
	C203.517319,321.302124 206.002457,330.538971 208.564102,340.060181 
	C302.537384,340.060181 396.551788,340.060181 491.000305,340.060181 
	C491.000305,353.952026 491.043610,367.554138 490.917572,381.154663 
	C490.907593,382.234344 489.904633,383.478882 489.056885,384.348175 
	C483.946899,389.588074 478.840363,394.839508 473.509888,399.850128 
	C472.250519,401.033936 470.150452,401.867828 468.414612,401.908722 
	C459.595032,402.116333 450.768036,402.010132 441.019104,402.012817 
	C434.738007,402.044373 429.381470,402.076965 423.560303,402.031677 
	C413.086670,402.020081 403.077637,402.086334 393.068573,402.152618 
	C362.478241,402.102661 331.887878,402.039215 301.297546,402.007477 
	C280.846313,401.986267 260.395020,402.010101 239.019257,402.012299 
	C232.768936,402.048767 227.443100,402.086731 221.647430,402.042480 
	C211.143463,402.024323 201.109314,402.088318 191.075165,402.152313 
	C182.254715,402.102448 173.433731,401.979584 164.614120,402.044373 
	C161.733551,402.065491 160.669189,401.429108 159.805374,398.149384 
	C151.471634,366.507965 142.601196,335.008423 134.165634,303.393219 
	C125.602074,271.298340 117.465843,239.089569 108.939743,206.984497 
	C100.622643,175.666382 92.086685,144.406128 83.569527,113.141525 
	C80.255524,100.976540 80.159241,101.002792 67.367004,101.002762 
	C45.557106,101.002708 23.747210,101.002632 1.468656,101.001282 
	C1.000000,80.979103 1.000000,60.958210 1.000000,40.468658 
M195.959656,386.926788 
	C283.284302,386.933929 370.609039,386.905487 457.933472,387.049622 
	C462.464844,387.057098 465.968231,386.201294 468.707428,382.505280 
	C470.739319,379.763611 474.406921,377.430939 474.887543,374.511322 
	C475.865021,368.574097 475.179871,362.363159 475.179871,355.968689 
	C472.808960,355.968689 471.003632,355.968689 469.198334,355.968689 
	C380.206940,355.968689 291.215515,355.940796 202.224258,356.057404 
	C198.107391,356.062805 196.281097,355.112640 195.143387,350.833160 
	C172.894455,267.143280 150.451401,183.505020 128.050369,99.855576 
	C124.057472,84.945419 120.074966,70.032494 116.118851,55.237507 
	C110.084213,55.237507 104.463730,55.237507 98.386162,55.237507 
	C98.386162,61.394070 98.386162,67.320244 98.386162,73.320763 
	C93.224449,73.320763 88.529823,73.320763 83.332687,73.320763 
	C83.332687,67.051254 83.332687,61.152363 83.332687,55.302116 
	C79.568871,55.302116 76.323578,55.302116 72.633820,55.302116 
	C72.633820,61.509926 72.633820,67.419136 72.633820,73.478531 
	C67.583565,73.478531 62.988487,73.478531 57.764503,73.478531 
	C57.764503,67.227501 57.764503,61.182636 57.764503,55.263111 
	C53.861580,55.263111 50.591541,55.263111 46.922031,55.263111 
	C46.922031,61.440140 46.922031,67.365196 46.922031,73.470528 
	C43.739189,73.663902 40.954941,73.833054 37.296337,73.771461 
	C35.680977,73.699959 34.065617,73.628464 31.874905,73.531494 
	C31.874905,67.196411 31.874905,61.164738 31.874905,55.381577 
	C26.216030,55.381577 21.158813,55.381577 16.392572,55.381577 
	C16.392572,65.803246 16.392572,75.844063 16.392572,85.797623 
	C23.918505,85.797623 31.054821,85.797623 39.093155,85.949669 
	C55.311756,85.961014 71.531181,86.060730 87.748268,85.909798 
	C91.026741,85.879288 93.182579,86.338264 93.432861,90.091896 
	C93.507294,91.208328 94.091507,92.290779 94.550285,94.173317 
	C106.712769,139.627335 118.861877,185.084946 131.041306,230.534424 
	C144.640884,281.283478 158.302292,332.016022 171.799835,382.792175 
	C172.629776,385.914307 173.706268,387.203796 177.058228,387.021973 
	C183.039017,386.697540 189.044464,386.827484 195.959656,386.926788 
z"/>
<path fill="#010102" opacity="1.000000" stroke="none" 
	d="
M359.840881,97.981728 
	C363.403442,84.811485 369.659241,73.123550 379.205200,63.318504 
	C390.949463,51.255527 405.027039,43.559566 421.771637,40.976353 
	C438.587555,38.382149 454.825836,39.895992 470.217651,47.658962 
	C492.411041,58.852345 505.722961,77.024742 511.924286,100.755089 
	C512.334961,102.326790 512.136902,104.057579 512.611023,105.857178 
	C513.000000,113.687584 513.000000,121.375160 513.000000,129.531372 
	C510.000946,138.334045 507.710358,147.016006 503.830078,154.917282 
	C498.549500,165.669983 490.905884,174.783783 479.739044,181.367416 
	C471.649292,185.152634 464.434814,189.382629 456.668793,191.933243 
	C440.035065,197.396271 423.382019,195.588562 406.753174,189.795654 
	C395.564972,185.132675 386.300659,178.289368 377.922791,169.664825 
	C373.268555,162.552704 368.737793,155.755066 364.149719,148.581909 
	C359.860596,137.615646 357.354675,126.676567 358.028534,115.217392 
	C358.367279,109.456566 359.220398,103.725990 359.840881,97.981728 
M496.142242,103.155136 
	C489.992340,74.843605 462.712799,53.837078 432.996948,55.065773 
	C409.027527,56.705994 390.830627,67.832024 379.880371,89.211319 
	C368.823822,110.798172 370.256378,132.467178 383.730743,152.552094 
	C395.103485,169.504288 411.385986,178.945251 433.045898,179.925217 
	C439.436249,179.235504 446.124481,179.523315 452.164276,177.683090 
	C475.512787,170.569122 490.683990,155.286484 496.668365,130.475067 
	C498.313599,121.597748 498.953217,112.740456 496.142242,103.155136 
z"/>
<path fill="#010100" opacity="1.000000" stroke="none" 
	d="
M475.940735,197.894180 
	C477.333893,198.262589 478.707428,198.777695 480.124512,198.967545 
	C482.726501,199.316116 483.261047,200.389481 482.559326,202.996460 
	C473.962585,234.934814 465.496552,266.908356 456.973419,298.866547 
	C455.359955,304.916351 453.821198,310.997894 451.841309,316.929047 
	C451.401184,318.247559 449.243561,319.872986 447.874268,319.875183 
	C369.561951,320.002441 291.249359,319.973022 212.936798,319.949280 
	C212.795334,319.949219 212.653900,319.805176 211.994873,319.447418 
	C211.994873,317.488312 211.994873,315.219147 212.230591,312.179077 
	C212.611816,309.035889 212.757309,306.663544 212.909164,304.187408 
	C215.531067,304.059875 217.791901,303.949890 220.512024,303.912415 
	C293.621796,303.984894 366.272308,303.984894 439.288300,303.984894 
	C440.842499,297.846252 442.340454,291.929810 443.994263,285.664124 
	C448.817474,267.576569 453.484741,249.838272 458.392029,231.811737 
	C461.076202,222.008713 463.520355,212.493912 466.164215,202.662079 
	C466.934937,200.538956 467.505981,198.732880 468.073578,196.937714 
	C470.932526,197.285294 473.436646,197.589737 475.940735,197.894180 
z"/>
<path fill="#F7B153" opacity="1.000000" stroke="none" 
	d="
M220.052734,303.839935 
	C217.791901,303.949890 215.531067,304.059875 212.909164,304.187408 
	C212.757309,306.663544 212.611816,309.035889 212.206085,311.726990 
	C208.609924,312.022156 205.274033,311.998535 201.485168,312.020081 
	C197.715256,300.449463 194.243011,288.875427 191.107590,277.210815 
	C175.537277,219.285110 160.052338,161.336456 144.560959,103.389572 
	C144.137650,101.806137 143.982132,100.151100 143.888947,98.256897 
	C147.382843,98.007233 150.689529,98.030106 154.626923,98.397552 
	C155.523499,101.131180 155.789352,103.520233 156.123047,106.518822 
	C160.189133,106.518822 164.102249,106.518822 168.028351,106.896690 
	C168.729034,110.165619 169.424744,113.054810 170.102966,115.948097 
	C172.101578,124.473923 174.093246,133.001373 175.638367,141.650208 
	C173.978912,141.936447 172.768707,142.100662 171.272354,142.303711 
	C177.364624,165.045105 183.346039,187.372650 189.362854,209.832367 
	C191.729187,209.957626 193.856049,210.070221 195.980347,210.588196 
	C196.998260,215.594147 198.018707,220.194717 198.604401,224.875244 
	C196.736176,225.037384 195.302719,225.119553 193.617630,225.216156 
	C194.013519,226.869919 194.290192,228.155945 194.629883,229.425110 
	C199.717087,248.431976 204.994736,267.390930 209.779282,286.473572 
	C210.988968,291.298157 212.619476,294.215546 218.020691,293.817657 
	C218.708740,297.408875 219.380737,300.624390 220.052734,303.839935 
z"/>
<path fill="#000102" opacity="1.000000" stroke="none" 
	d="
M248.143005,413.011658 
	C250.519470,412.205353 252.895935,411.399048 256.665375,410.120117 
	C257.858215,418.383179 259.995087,425.837097 259.798828,433.229004 
	C259.249268,453.926849 244.465714,471.049591 223.826141,475.130219 
	C203.263168,479.195587 182.012711,467.804840 174.298843,449.631378 
	C169.180588,437.572998 169.093842,425.250275 174.073441,413.097351 
	C176.110809,408.125092 178.857559,412.992859 181.751801,413.447327 
	C184.413528,415.278656 186.601761,416.673492 188.724487,418.026550 
	C178.038391,445.083313 201.735016,465.156555 222.169174,459.638672 
	C237.879684,454.912720 245.832855,442.756256 244.038269,426.714172 
	C243.467056,421.608063 244.870255,416.944550 248.004379,413.484863 
	C248.103683,413.375244 248.099136,413.171509 248.143005,413.011658 
z"/>
<path fill="#000102" opacity="1.000000" stroke="none" 
	d="
M450.021790,413.157288 
	C451.344666,412.599121 452.651611,411.649048 453.995026,411.594360 
	C455.306183,411.541016 457.524506,412.068054 457.849854,412.914703 
	C460.630920,420.151276 462.661926,427.347626 461.430359,435.508026 
	C460.215363,443.558319 457.881805,450.829498 453.182373,457.363373 
	C446.159943,467.127136 436.864716,472.962738 424.825195,475.109558 
	C403.033508,478.995300 384.959991,468.257599 376.287354,450.116516 
	C370.752167,438.538269 370.074921,425.884613 375.815155,413.520752 
	C378.331909,408.099884 380.798218,412.976318 383.702026,413.452881 
	C385.360352,414.687988 386.512268,415.668121 387.840790,416.232727 
	C390.169800,417.222534 390.572357,418.610443 389.715057,420.936737 
	C381.121735,444.255493 402.251434,464.903900 423.474060,459.750488 
	C432.814362,457.336884 439.429657,451.992859 443.473083,443.611847 
	C447.598358,435.061066 446.622955,426.383148 443.489838,418.242371 
	C445.976685,416.306396 447.999237,414.731842 450.021790,413.157288 
z"/>
<path fill="#016CEB" opacity="1.000000" stroke="none" 
	d="
M423.120911,459.755463 
	C402.251434,464.903900 381.121735,444.255493 389.715057,420.936737 
	C390.572357,418.610443 390.169800,417.222534 387.840790,416.232727 
	C386.512268,415.668121 385.360352,414.687988 384.074158,413.558136 
	C386.956604,409.738281 389.893768,406.255249 392.949738,402.462402 
	C403.077637,402.086334 413.086670,402.020081 423.391357,402.310303 
	C421.478973,405.091492 419.270966,407.516205 416.677429,410.039185 
	C409.118103,410.868256 403.191010,413.812836 399.236755,420.029022 
	C390.918091,433.106232 399.023621,451.482758 417.197662,452.630798 
	C419.301758,455.170502 421.211334,457.462982 423.120911,459.755463 
z"/>
<path fill="#016CEB" opacity="1.000000" stroke="none" 
	d="
M221.818146,459.672668 
	C201.735016,465.156555 178.038391,445.083313 188.724487,418.026550 
	C186.601761,416.673492 184.413528,415.278656 182.124969,413.555023 
	C184.962830,409.742889 187.901001,406.259583 190.957184,402.464294 
	C201.109314,402.088318 211.143463,402.024323 221.467438,402.323669 
	C219.782852,405.120178 217.808411,407.553314 215.455399,410.067993 
	C208.833908,410.565643 203.370804,412.738007 199.331467,417.653412 
	C194.036041,424.097198 192.654846,431.369141 195.876968,439.131317 
	C199.517548,447.901459 206.514496,451.937195 215.913025,452.649323 
	C217.945267,455.210968 219.881699,457.441833 221.818146,459.672668 
z"/>
<path fill="#55A1FA" opacity="1.000000" stroke="none" 
	d="
M417.062958,409.940918 
	C419.270966,407.516205 421.478973,405.091492 423.855957,402.388153 
	C429.381470,402.076965 434.738007,402.044373 440.556610,402.085205 
	C443.818939,405.708130 446.619202,409.257690 449.720642,412.982239 
	C447.999237,414.731842 445.976685,416.306396 443.489838,418.242371 
	C446.622955,426.383148 447.598358,435.061066 443.473083,443.611847 
	C439.429657,451.992859 432.814362,457.336884 423.474060,459.750488 
	C421.211334,457.462982 419.301758,455.170502 417.600830,452.524170 
	C434.472046,450.597412 443.338501,433.516479 434.573029,419.859344 
	C430.482086,413.485474 424.237213,410.885925 417.062958,409.940918 
z"/>
<path fill="#55A1FA" opacity="1.000000" stroke="none" 
	d="
M222.169159,459.638672 
	C219.881699,457.441833 217.945267,455.210968 216.335815,452.551392 
	C229.609619,450.681824 237.903854,440.130005 235.934265,427.605774 
	C234.484726,418.388428 227.810104,412.537628 215.833984,409.986420 
	C217.808411,407.553314 219.782852,405.120178 221.937271,402.405884 
	C227.443100,402.086731 232.768936,402.048767 238.556763,402.084656 
	C241.955765,405.570984 244.892792,408.983521 247.986420,412.703857 
	C248.099136,413.171509 248.103683,413.375244 248.004379,413.484863 
	C244.870255,416.944550 243.467056,421.608063 244.038269,426.714172 
	C245.832855,442.756256 237.879684,454.912720 222.169159,459.638672 
z"/>
<path fill="#FBB656" opacity="1.000000" stroke="none" 
	d="
M475.943054,197.505463 
	C473.436646,197.589737 470.932526,197.285294 468.073578,196.937714 
	C467.505981,198.732880 466.934937,200.538956 465.697754,202.657227 
	C445.332764,202.984360 425.633881,202.999344 405.848022,202.775665 
	C405.816071,202.376877 405.871063,202.216721 406.242554,201.781219 
	C406.711426,197.679794 406.863800,193.853745 407.016174,190.027679 
	C423.382019,195.588562 440.035065,197.396271 456.668793,191.933243 
	C464.434814,189.382629 471.649292,185.152634 479.458679,181.550385 
	C478.517517,186.650223 477.231476,191.883484 475.943054,197.505463 
z"/>
<path fill="#FFE477" opacity="1.000000" stroke="none" 
	d="
M176.087646,141.528168 
	C174.093246,133.001373 172.101578,124.473923 170.102966,115.948097 
	C169.424744,113.054810 168.729034,110.165619 168.490326,106.820724 
	C228.276932,106.366882 287.614563,106.366882 346.630066,106.366882 
	C347.215790,103.094933 347.674316,100.533432 348.132843,97.971939 
	C351.736725,97.979164 355.340607,97.986389 359.392700,97.987671 
	C359.220398,103.725990 358.367279,109.456566 358.028534,115.217392 
	C357.354675,126.676567 359.860596,137.615646 363.704681,148.601730 
	C360.712830,148.984268 358.108734,148.971466 355.504669,148.492828 
	C355.504730,146.091064 355.504730,144.155151 355.504730,142.011078 
	C330.993073,142.011078 307.015961,142.011078 282.793091,142.011078 
	C282.603333,144.423126 282.424438,146.697250 281.770569,149.012085 
	C277.110382,148.986725 272.925110,148.920654 268.639465,148.406982 
	C268.539032,146.028152 268.539032,144.096924 268.539032,141.796967 
	C258.929352,141.796967 249.964615,141.822495 241.000092,141.791870 
	C219.362564,141.717941 197.725128,141.617767 176.087646,141.528168 
z"/>
<path fill="#000000" opacity="1.000000" stroke="none" 
	d="
M348.071106,97.522858 
	C347.674316,100.533432 347.215790,103.094933 346.630066,106.366882 
	C287.614563,106.366882 228.276932,106.366882 168.477356,106.442856 
	C164.102249,106.518822 160.189133,106.518822 156.123047,106.518822 
	C155.789352,103.520233 155.523499,101.131180 155.076111,98.369659 
	C154.894577,95.845116 154.894577,93.693031 154.894577,91.270691 
	C219.256882,91.270691 283.391174,91.270691 348.009338,91.270691 
	C348.009338,93.213226 348.009338,95.143501 348.071106,97.522858 
z"/>
<path fill="#B2D7F2" opacity="1.000000" stroke="none" 
	d="
M94.442146,93.388802 
	C94.091507,92.290779 93.507294,91.208328 93.432861,90.091896 
	C93.182579,86.338264 91.026741,85.879288 87.748268,85.909798 
	C71.531181,86.060730 55.311756,85.961014 38.620346,85.426155 
	C38.155254,81.269165 38.162975,77.635689 38.170692,74.002213 
	C40.954941,73.833054 43.739189,73.663902 46.922031,73.470528 
	C46.922031,67.365196 46.922031,61.440140 46.922031,55.263111 
	C50.591541,55.263111 53.861580,55.263111 57.764503,55.263111 
	C57.764503,61.182636 57.764503,67.227501 57.764503,73.478531 
	C62.988487,73.478531 67.583565,73.478531 72.633820,73.478531 
	C72.633820,67.419136 72.633820,61.509926 72.633820,55.302116 
	C76.323578,55.302116 79.568871,55.302116 83.332687,55.302116 
	C83.332687,61.152363 83.332687,67.051254 83.332687,73.320763 
	C88.529823,73.320763 93.224449,73.320763 98.386162,73.320763 
	C98.386162,67.320244 98.386162,61.394070 98.386162,55.237507 
	C104.463730,55.237507 110.084213,55.237507 116.118851,55.237507 
	C120.074966,70.032494 124.057472,84.945419 128.050369,99.855576 
	C150.451401,183.505020 172.894455,267.143280 195.143387,350.833160 
	C196.281097,355.112640 198.107391,356.062805 202.224258,356.057404 
	C291.215515,355.940796 380.206940,355.968689 469.198334,355.968689 
	C471.003632,355.968689 472.808960,355.968689 475.179871,355.968689 
	C475.179871,362.363159 475.865021,368.574097 474.887543,374.511322 
	C474.406921,377.430939 470.739319,379.763611 468.707428,382.505280 
	C465.968231,386.201294 462.464844,387.057098 457.933472,387.049622 
	C370.609039,386.905487 283.284302,386.933929 195.478348,386.468933 
	C187.532867,358.129272 180.079605,330.244598 172.602158,302.366394 
	C158.377106,249.330917 144.133423,196.300476 129.908127,143.265076 
	C125.825363,128.043518 121.740082,112.822365 117.748238,97.576874 
	C116.921143,94.418083 115.524063,92.800247 111.904587,93.039925 
	C106.101509,93.424171 100.264702,93.298790 94.442146,93.388802 
M403.500000,378.961090 
	C418.329437,378.961090 433.159119,379.008636 447.988281,378.945526 
	C459.101379,378.898224 457.714264,380.485565 458.008972,368.668396 
	C458.102509,364.917938 456.934570,363.821533 453.198761,363.866699 
	C437.538483,364.056152 421.874634,363.946442 406.212067,363.946442 
	C390.049652,363.946442 373.887115,363.920868 357.724915,363.980408 
	C355.782166,363.987549 353.005127,363.029022 352.958008,366.598328 
	C352.906067,370.535767 352.946167,374.474365 352.946167,378.961029 
	C369.929413,378.961029 386.214722,378.961029 403.500000,378.961090 
M327.920929,372.452332 
	C328.646454,374.634155 326.091705,378.057617 330.297668,378.916901 
	C340.858490,381.074524 343.133240,379.196442 342.941833,368.559052 
	C342.926971,367.733398 343.064301,366.862091 342.842010,366.095795 
	C342.638947,365.395905 342.062653,364.273041 341.618225,364.257294 
	C337.508667,364.111664 333.308014,363.730377 329.341888,364.495667 
	C328.451111,364.667572 328.372925,369.050476 327.920929,372.452332 
M307.624268,378.964966 
	C318.888031,378.841705 317.696747,380.422180 318.038116,369.692902 
	C318.180328,365.223633 317.014832,363.657532 312.315979,363.830505 
	C302.893829,364.177338 302.884064,363.908691 302.920776,373.352356 
	C302.923370,374.013519 302.983337,374.681213 302.913239,375.334747 
	C302.606262,378.196503 303.988373,379.259399 307.624268,378.964966 
z"/>
<path fill="#57A3FD" opacity="1.000000" stroke="none" 
	d="
M94.496216,93.781059 
	C100.264702,93.298790 106.101509,93.424171 111.904587,93.039925 
	C115.524063,92.800247 116.921143,94.418083 117.748238,97.576874 
	C121.740082,112.822365 125.825363,128.043518 129.908127,143.265076 
	C144.133423,196.300476 158.377106,249.330917 172.602158,302.366394 
	C180.079605,330.244598 187.532867,358.129272 195.018311,386.389221 
	C189.044464,386.827484 183.039017,386.697540 177.058228,387.021973 
	C173.706268,387.203796 172.629776,385.914307 171.799835,382.792175 
	C158.302292,332.016022 144.640884,281.283478 131.041306,230.534424 
	C118.861877,185.084946 106.712769,139.627335 94.496216,93.781059 
z"/>
<path fill="#57A4FF" opacity="1.000000" stroke="none" 
	d="
M37.733513,73.886841 
	C38.162975,77.635689 38.155254,81.269165 38.169338,85.350128 
	C31.054821,85.797623 23.918505,85.797623 16.392572,85.797623 
	C16.392572,75.844063 16.392572,65.803246 16.392572,55.381577 
	C21.158813,55.381577 26.216030,55.381577 31.874905,55.381577 
	C31.874905,61.164738 31.874905,67.196411 31.874905,73.531494 
	C34.065617,73.628464 35.680977,73.699959 37.733513,73.886841 
z"/>
<path fill="#026BEA" opacity="1.000000" stroke="none" 
	d="
M432.168884,179.758209 
	C411.385986,178.945251 395.103485,169.504288 383.730743,152.552094 
	C370.256378,132.467178 368.823822,110.798172 379.880371,89.211319 
	C390.830627,67.832024 409.027527,56.705994 433.202301,55.362953 
	C427.885986,59.860214 422.364319,64.060295 416.598450,68.423386 
	C415.579712,69.345917 414.805176,70.105431 413.722412,71.023346 
	C406.741852,78.444031 401.492706,86.526131 398.634827,96.358994 
	C394.375793,96.519783 390.485748,96.519783 386.664368,96.519783 
	C386.664368,111.115219 386.664368,124.765503 386.664368,138.979492 
	C391.040344,138.979492 394.996490,138.979492 398.998535,139.350494 
	C402.324036,149.130020 406.992554,157.719788 414.079285,165.234940 
	C414.812317,166.016586 415.395874,166.535431 416.148438,167.341019 
	C421.601227,171.671249 426.885040,175.714737 432.168884,179.758209 
z"/>
<path fill="#56A2FC" opacity="1.000000" stroke="none" 
	d="
M432.607391,179.841705 
	C426.885040,175.714737 421.601227,171.671249 416.608643,167.229950 
	C429.904510,166.832138 442.909149,166.832138 456.154633,166.832138 
	C456.399506,163.950424 456.604309,161.540665 457.221008,159.095215 
	C464.634003,159.059509 471.635071,159.059509 479.002197,159.059509 
	C479.002197,151.782867 479.002197,145.382568 479.401764,138.876724 
	C481.231049,138.639954 482.660767,138.508728 484.508453,138.339127 
	C484.508453,135.655319 484.508453,133.351074 484.939392,131.053085 
	C488.970154,131.067215 492.569977,131.075104 496.169830,131.082977 
	C490.683990,155.286484 475.512787,170.569122 452.164276,177.683090 
	C446.124481,179.523315 439.436249,179.235504 432.607391,179.841705 
z"/>
<path fill="#56A2FC" opacity="1.000000" stroke="none" 
	d="
M416.842651,68.260376 
	C422.364319,64.060295 427.885986,59.860214 433.625854,55.421364 
	C462.712799,53.837078 489.992340,74.843605 495.669800,103.578003 
	C491.729828,103.992950 488.262268,103.985016 484.690979,103.585281 
	C484.587219,101.105675 484.587219,99.017868 484.587219,96.878288 
	C482.252808,96.593346 480.635742,96.395966 479.006226,95.716682 
	C478.993774,89.025993 478.993774,82.817215 478.993774,75.983719 
	C471.197357,75.983719 463.999786,75.983719 456.695343,75.576736 
	C456.491180,73.086182 456.393890,71.002617 456.265839,68.260376 
	C442.815063,68.260376 429.828857,68.260376 416.842651,68.260376 
z"/>
<path fill="#FBB454" opacity="1.000000" stroke="none" 
	d="
M355.504578,148.958679 
	C358.108734,148.971466 360.712830,148.984268 363.761993,148.977234 
	C368.737793,155.755066 373.268555,162.552704 377.903351,170.130951 
	C378.001221,175.902344 377.995056,180.893127 377.551300,185.962250 
	C374.702393,186.040588 372.291107,186.040588 369.191528,186.040588 
	C369.191528,192.084839 369.191528,197.504517 368.714294,202.932007 
	C364.093414,202.934402 359.949738,202.929016 355.684692,202.474304 
	C355.543762,184.336197 355.524170,166.647446 355.504578,148.958679 
z"/>
<path fill="#0267E1" opacity="1.000000" stroke="none" 
	d="
M484.794739,103.977081 
	C488.262268,103.985016 491.729828,103.992950 495.668793,103.976395 
	C498.953217,112.740456 498.313599,121.597748 496.419098,130.779022 
	C492.569977,131.075104 488.970154,131.067215 484.894592,130.584229 
	C484.544159,121.398438 484.669434,112.687767 484.794739,103.977081 
z"/>
<path fill="#FB7755" opacity="1.000000" stroke="none" 
	d="
M377.988892,185.883911 
	C377.995056,180.893127 378.001221,175.902344 378.026855,170.445435 
	C386.300659,178.289368 395.564972,185.132675 406.753174,189.795654 
	C406.863800,193.853745 406.711426,197.679794 406.131317,201.347748 
	C405.613922,199.259659 405.524231,197.329681 405.415100,194.980804 
	C398.341278,194.980804 391.632568,194.980804 384.814850,194.980804 
	C384.615326,191.814972 384.443054,189.081589 384.265533,186.265335 
	C381.916473,186.122589 379.952667,186.003250 377.988892,185.883911 
z"/>
<path fill="#FDE376" opacity="1.000000" stroke="none" 
	d="
M355.806091,202.923645 
	C359.949738,202.929016 364.093414,202.934402 368.831665,203.344177 
	C369.426239,205.702667 369.426239,207.656799 369.426239,209.698761 
	C381.753571,209.698761 393.548584,209.698761 405.401154,209.698761 
	C405.596771,207.249695 405.765900,205.132004 405.934998,203.014313 
	C425.633881,202.999344 445.332764,202.984360 465.498108,202.974243 
	C463.520355,212.493912 461.076202,222.008713 457.913513,231.795105 
	C452.254883,232.015366 447.314789,231.964035 442.440857,231.500854 
	C442.976990,229.179703 443.446991,227.270416 443.934967,225.287949 
	C419.086731,225.287949 394.461578,225.287949 369.693817,225.287949 
	C369.531799,227.726791 369.390289,229.856613 368.768005,232.020599 
	C364.109192,232.033951 359.931122,232.013138 355.656982,231.576721 
	C355.560913,229.206650 355.560913,227.252151 355.560913,225.273071 
	C330.922028,225.273071 306.885681,225.273071 282.700317,225.273071 
	C282.538605,227.706070 282.396454,229.844681 281.773285,232.021500 
	C277.108612,232.035629 272.924988,232.011566 268.646912,231.578369 
	C268.552429,229.218216 268.552429,227.267212 268.552429,224.795273 
	C245.008362,224.795273 222.023743,224.795273 199.039154,224.795273 
	C198.018707,220.194717 196.998260,215.594147 196.448334,210.522736 
	C220.667343,210.051865 244.415848,210.051865 268.306244,210.051865 
	C268.472656,207.290253 268.601349,205.154526 269.211884,202.972198 
	C273.885315,202.954544 278.076965,202.983490 282.356140,203.423004 
	C282.443665,205.785904 282.443665,207.738266 282.443665,209.861359 
	C306.995514,209.861359 330.982819,209.861359 355.198914,209.861359 
	C355.407440,207.478668 355.606750,205.201157 355.806091,202.923645 
z"/>
<path fill="#FFE477" opacity="1.000000" stroke="none" 
	d="
M220.512024,303.912415 
	C219.380737,300.624390 218.708740,297.408875 218.482498,293.726593 
	C235.274582,293.259857 251.620911,293.259857 268.197052,293.259857 
	C268.408783,290.570862 268.587555,288.300842 269.246307,285.998718 
	C273.893585,285.985992 278.060852,286.005371 282.330170,286.447540 
	C282.432220,288.824738 282.432220,290.779144 282.432220,292.982147 
	C306.966370,292.982147 330.962433,292.982147 355.219940,292.982147 
	C355.412628,290.581665 355.595459,288.304474 356.257599,285.999023 
	C360.898804,285.988159 365.060669,286.005524 369.327789,286.445129 
	C369.433044,288.821899 369.433044,290.776489 369.433044,292.980164 
	C388.498749,292.980164 407.027924,292.980164 425.701050,292.980164 
	C426.493652,290.644073 427.282837,288.317932 428.533936,285.988281 
	C433.943329,285.994324 438.890839,286.003845 443.838379,286.013367 
	C442.340454,291.929810 440.842499,297.846252 439.288300,303.984894 
	C366.272308,303.984894 293.621796,303.984894 220.512024,303.912415 
z"/>
<path fill="#FBB454" opacity="1.000000" stroke="none" 
	d="
M443.994263,285.664124 
	C438.890839,286.003845 433.943329,285.994324 428.510132,285.598511 
	C432.807922,267.445709 437.591309,249.679214 442.374725,231.912704 
	C447.314789,231.964035 452.254883,232.015366 457.673492,232.083328 
	C453.484741,249.838272 448.817474,267.576569 443.994263,285.664124 
z"/>
<path fill="#040201" opacity="1.000000" stroke="none" 
	d="
M268.730072,203.018799 
	C268.601349,205.154526 268.472656,207.290253 268.306244,210.051865 
	C244.415848,210.051865 220.667343,210.051865 196.450867,210.117340 
	C193.856049,210.070221 191.729187,209.957626 189.362854,209.832367 
	C183.346039,187.372650 177.364624,165.045105 171.272354,142.303711 
	C172.768707,142.100662 173.978912,141.936447 175.638367,141.650208 
	C197.725128,141.617767 219.362564,141.717941 241.000092,141.791870 
	C249.964615,141.822495 258.929352,141.796967 268.539032,141.796967 
	C268.539032,144.096924 268.539032,146.028152 268.488892,148.862503 
	C268.535858,167.516693 268.632965,185.267746 268.730072,203.018799 
M212.082840,156.855484 
	C205.130844,156.855484 198.178864,156.855484 190.690262,156.855484 
	C194.169052,169.835983 197.505127,182.283951 200.873352,194.851868 
	C208.455750,194.851868 215.735611,194.851868 223.940170,195.001785 
	C233.704422,195.001785 243.468674,195.001785 253.131439,195.001785 
	C253.131439,182.005066 253.131439,169.608917 253.131439,157.041245 
	C239.542877,157.041245 226.273941,157.041245 212.082840,156.855484 
z"/>
<path fill="#020101" opacity="1.000000" stroke="none" 
	d="
M268.766296,286.030823 
	C268.587555,288.300842 268.408783,290.570862 268.197052,293.259857 
	C251.620911,293.259857 235.274582,293.259857 218.466431,293.350922 
	C212.619476,294.215546 210.988968,291.298157 209.779282,286.473572 
	C204.994736,267.390930 199.717087,248.431976 194.629883,229.425110 
	C194.290192,228.155945 194.013519,226.869919 193.617630,225.216156 
	C195.302719,225.119553 196.736176,225.037384 198.604401,224.875244 
	C222.023743,224.795273 245.008362,224.795273 268.552429,224.795273 
	C268.552429,227.267212 268.552429,229.218216 268.487793,231.951004 
	C268.537537,250.498795 268.651947,268.264801 268.766296,286.030823 
M235.002426,239.978851 
	C227.769531,239.978851 220.536652,239.978851 212.957550,239.978851 
	C216.202621,252.205017 219.186676,263.780792 222.455551,275.275604 
	C222.802872,276.496887 224.791092,278.033051 226.064835,278.077332 
	C232.377975,278.296661 238.706848,278.064117 245.912170,278.190979 
	C248.331406,278.190979 250.750641,278.190979 253.167511,278.190979 
	C253.167511,265.124481 253.167511,252.654694 253.167511,240.112701 
	C247.157669,240.112701 241.539444,240.112701 235.002426,239.978851 
z"/>
<path fill="#010204" opacity="1.000000" stroke="none" 
	d="
M416.677429,410.039185 
	C424.237213,410.885925 430.482086,413.485474 434.573029,419.859344 
	C443.338501,433.516479 434.472046,450.597412 417.406250,452.276978 
	C399.023621,451.482758 390.918091,433.106232 399.236755,420.029022 
	C403.191010,413.812836 409.118103,410.868256 416.677429,410.039185 
M421.535248,435.063446 
	C423.621826,432.246979 423.717041,429.201935 420.975159,427.131653 
	C419.424072,425.960480 416.338287,425.249359 414.812012,426.029572 
	C413.040070,426.935364 411.278015,429.653015 411.173035,431.670654 
	C410.919800,436.537781 415.772766,438.337372 421.535248,435.063446 
z"/>
<path fill="#010204" opacity="1.000000" stroke="none" 
	d="
M215.455399,410.067993 
	C227.810104,412.537628 234.484726,418.388428 235.934265,427.605774 
	C237.903854,440.130005 229.609619,450.681824 216.240021,452.220581 
	C206.514496,451.937195 199.517548,447.901459 195.876968,439.131317 
	C192.654846,431.369141 194.036041,424.097198 199.331467,417.653412 
	C203.370804,412.738007 208.833908,410.565643 215.455399,410.067993 
M209.390152,429.952332 
	C208.864044,433.394806 210.227997,435.907379 213.509872,436.890411 
	C216.782333,437.870636 220.013290,436.668884 220.585861,433.365326 
	C220.971130,431.142548 219.791519,427.559906 218.061264,426.290253 
	C214.673309,423.804291 211.505325,425.465271 209.390152,429.952332 
z"/>
<path fill="#050302" opacity="1.000000" stroke="none" 
	d="
M405.848022,202.775665 
	C405.765900,205.132004 405.596771,207.249695 405.401154,209.698761 
	C393.548584,209.698761 381.753571,209.698761 369.426239,209.698761 
	C369.426239,207.656799 369.426239,205.702667 369.308899,203.336380 
	C369.191528,197.504517 369.191528,192.084839 369.191528,186.040588 
	C372.291107,186.040588 374.702393,186.040588 377.551300,185.962250 
	C379.952667,186.003250 381.916473,186.122589 384.265533,186.265335 
	C384.443054,189.081589 384.615326,191.814972 384.814850,194.980804 
	C391.632568,194.980804 398.341278,194.980804 405.415100,194.980804 
	C405.524231,197.329681 405.613922,199.259659 405.814819,201.623108 
	C405.871063,202.216721 405.816071,202.376877 405.848022,202.775665 
z"/>
<path fill="#040201" opacity="1.000000" stroke="none" 
	d="
M355.684692,202.474304 
	C355.606750,205.201157 355.407440,207.478668 355.198914,209.861359 
	C330.982819,209.861359 306.995514,209.861359 282.443665,209.861359 
	C282.443665,207.738266 282.443665,205.785904 282.517761,203.051178 
	C282.476410,184.502991 282.360992,166.737183 282.245544,148.971359 
	C282.424438,146.697250 282.603333,144.423126 282.793091,142.011078 
	C307.015961,142.011078 330.993073,142.011078 355.504730,142.011078 
	C355.504730,144.155151 355.504730,146.091064 355.504639,148.492828 
	C355.524170,166.647446 355.543762,184.336197 355.684692,202.474304 
M320.938202,195.001099 
	C327.371185,195.001099 333.804169,195.001099 340.139069,195.001099 
	C340.139069,182.007248 340.139069,169.617798 340.139069,157.044571 
	C333.220856,157.044571 326.612335,157.044571 319.081390,156.860703 
	C312.002258,156.860703 304.923096,156.860703 297.885315,156.860703 
	C297.885315,169.903183 297.885315,182.267639 297.885315,194.849533 
	C305.469391,194.849533 312.741364,194.849533 320.938202,195.001099 
z"/>
<path fill="#DBA34E" opacity="1.000000" stroke="none" 
	d="
M281.770569,149.012085 
	C282.360992,166.737183 282.476410,184.502991 282.430206,202.640625 
	C278.076965,202.983490 273.885315,202.954544 269.211884,202.972198 
	C268.632965,185.267746 268.535858,167.516693 268.589294,149.310120 
	C272.925110,148.920654 277.110382,148.986725 281.770569,149.012085 
z"/>
<path fill="#FDFEFF" opacity="1.000000" stroke="none" 
	d="
M403.000000,378.961060 
	C386.214722,378.961029 369.929413,378.961029 352.946167,378.961029 
	C352.946167,374.474365 352.906067,370.535767 352.958008,366.598328 
	C353.005127,363.029022 355.782166,363.987549 357.724915,363.980408 
	C373.887115,363.920868 390.049652,363.946442 406.212067,363.946442 
	C421.874634,363.946442 437.538483,364.056152 453.198761,363.866699 
	C456.934570,363.821533 458.102509,364.917938 458.008972,368.668396 
	C457.714264,380.485565 459.101379,378.898224 447.988281,378.945526 
	C433.159119,379.008636 418.329437,378.961090 403.000000,378.961060 
z"/>
<path fill="#FCFDFF" opacity="1.000000" stroke="none" 
	d="
M327.920776,371.973572 
	C328.372925,369.050476 328.451111,364.667572 329.341888,364.495667 
	C333.308014,363.730377 337.508667,364.111664 341.618225,364.257294 
	C342.062653,364.273041 342.638947,365.395905 342.842010,366.095795 
	C343.064301,366.862091 342.926971,367.733398 342.941833,368.559052 
	C343.133240,379.196442 340.858490,381.074524 330.297668,378.916901 
	C326.091705,378.057617 328.646454,374.634155 327.920776,371.973572 
z"/>
<path fill="#FCFDFF" opacity="1.000000" stroke="none" 
	d="
M307.158813,378.964172 
	C303.988373,379.259399 302.606262,378.196503 302.913239,375.334747 
	C302.983337,374.681213 302.923370,374.013519 302.920776,373.352356 
	C302.884064,363.908691 302.893829,364.177338 312.315979,363.830505 
	C317.014832,363.657532 318.180328,365.223633 318.038116,369.692902 
	C317.696747,380.422180 318.888031,378.841705 307.158813,378.964172 
z"/>
<path fill="#010204" opacity="1.000000" stroke="none" 
	d="
M484.690979,103.585281 
	C484.669434,112.687767 484.544159,121.398438 484.463684,130.577972 
	C484.508453,133.351074 484.508453,135.655319 484.508453,138.339127 
	C482.660767,138.508728 481.231049,138.639954 478.939941,138.786102 
	C471.011322,138.801010 463.944061,138.801010 456.809082,138.801010 
	C456.809082,145.974716 456.809082,152.552811 456.809082,159.130905 
	C456.604309,161.540665 456.399506,163.950424 456.154633,166.832138 
	C442.909149,166.832138 429.904510,166.832138 416.439636,166.943207 
	C415.395874,166.535431 414.812317,166.016586 414.192505,164.779633 
	C414.156189,155.794876 414.156189,147.528229 414.156189,138.979492 
	C408.821381,138.979492 403.887024,138.979492 398.952637,138.979492 
	C394.996490,138.979492 391.040344,138.979492 386.664368,138.979492 
	C386.664368,124.765503 386.664368,111.115219 386.664368,96.519783 
	C390.485748,96.519783 394.375793,96.519783 399.095459,96.461929 
	C404.510406,96.404076 409.095764,96.404076 414.030609,96.404076 
	C414.030609,87.610619 414.030609,79.237778 414.030609,70.864944 
	C414.805176,70.105431 415.579712,69.345917 416.598450,68.423386 
	C429.828857,68.260376 442.815063,68.260376 456.265839,68.260376 
	C456.393890,71.002617 456.491180,73.086182 456.533569,75.947945 
	C456.446381,82.184402 456.244354,87.651031 456.512604,93.094490 
	C456.572418,94.308586 458.259674,96.427032 459.240540,96.452118 
	C465.826752,96.620598 472.424591,96.336182 479.018646,96.198586 
	C480.635742,96.395966 482.252808,96.593346 484.587219,96.878288 
	C484.587219,99.017868 484.587219,101.105675 484.690979,103.585281 
M425.001465,123.710289 
	C426.396759,123.816635 427.792023,123.922974 429.129761,124.024933 
	C429.254730,126.636963 429.356598,128.765793 429.223816,131.818726 
	C429.223816,138.382065 429.223816,144.945419 429.223816,151.500504 
	C433.678741,151.500504 437.407013,151.500504 441.232819,151.500504 
	C441.232819,144.451523 441.232819,137.708588 441.452911,130.147293 
	C441.452911,128.087326 441.452911,126.027374 441.452911,123.590363 
	C451.177734,123.590363 460.084778,123.590363 469.160278,123.590363 
	C469.160278,119.464516 469.160278,115.732513 469.160278,111.437988 
	C459.889008,111.437988 450.868835,111.437988 441.730225,111.437988 
	C441.537872,108.603165 441.382843,106.318214 441.546814,103.280792 
	C441.546814,96.832672 441.546814,90.384544 441.546814,83.789337 
	C437.179260,83.789337 433.306610,83.789337 429.459839,83.789337 
	C429.459839,90.825859 429.459839,97.469513 429.289825,105.010124 
	C429.289825,107.041283 429.289825,109.072433 429.289825,111.223282 
	C427.253693,111.432304 425.697998,111.591995 423.230927,111.454109 
	C415.975861,111.454109 408.720764,111.454109 401.507080,111.454109 
	C401.507080,115.870972 401.507080,119.617767 401.507080,123.542320 
	C409.250397,123.542320 416.681519,123.542320 425.001465,123.710289 
z"/>
<path fill="#57A3FD" opacity="1.000000" stroke="none" 
	d="
M398.998535,139.350494 
	C403.887024,138.979492 408.821381,138.979492 414.156189,138.979492 
	C414.156189,147.528229 414.156189,155.794876 414.042999,164.516846 
	C406.992554,157.719788 402.324036,149.130020 398.998535,139.350494 
z"/>
<path fill="#57A4FF" opacity="1.000000" stroke="none" 
	d="
M413.722412,71.023346 
	C414.030609,79.237778 414.030609,87.610619 414.030609,96.404076 
	C409.095764,96.404076 404.510406,96.404076 399.464417,96.301140 
	C401.492706,86.526131 406.741852,78.444031 413.722412,71.023346 
z"/>
<path fill="#016AE9" opacity="1.000000" stroke="none" 
	d="
M457.221008,159.095215 
	C456.809082,152.552811 456.809082,145.974716 456.809082,138.801010 
	C463.944061,138.801010 471.011322,138.801010 478.540405,138.891632 
	C479.002197,145.382568 479.002197,151.782867 479.002197,159.059509 
	C471.635071,159.059509 464.634003,159.059509 457.221008,159.095215 
z"/>
<path fill="#0168E3" opacity="1.000000" stroke="none" 
	d="
M479.006226,95.716682 
	C472.424591,96.336182 465.826752,96.620598 459.240540,96.452118 
	C458.259674,96.427032 456.572418,94.308586 456.512604,93.094490 
	C456.244354,87.651031 456.446381,82.184402 456.640442,76.354927 
	C463.999786,75.983719 471.197357,75.983719 478.993774,75.983719 
	C478.993774,82.817215 478.993774,89.025993 479.006226,95.716682 
z"/>
<path fill="#040201" opacity="1.000000" stroke="none" 
	d="
M355.778259,286.027283 
	C355.595459,288.304474 355.412628,290.581665 355.219940,292.982147 
	C330.962433,292.982147 306.966370,292.982147 282.432220,292.982147 
	C282.432220,290.779144 282.432220,288.824738 282.489807,286.073364 
	C282.449677,267.511993 282.351990,249.747650 282.254333,231.983292 
	C282.396454,229.844681 282.538605,227.706070 282.700317,225.273071 
	C306.885681,225.273071 330.922028,225.273071 355.560913,225.273071 
	C355.560913,227.252151 355.560913,229.206650 355.500427,231.949646 
	C355.552704,250.501190 355.665497,268.264221 355.778259,286.027283 
M320.922607,278.172882 
	C327.346344,278.172882 333.770050,278.172882 340.156097,278.172882 
	C340.156097,265.125641 340.156097,252.741638 340.156097,240.150620 
	C333.247070,240.150620 326.630188,240.150620 319.084869,240.002029 
	C311.993683,240.002029 304.902496,240.002029 297.891876,240.002029 
	C297.891876,253.002716 297.891876,265.381226 297.891876,277.975067 
	C305.474121,277.975067 312.738983,277.975067 320.922607,278.172882 
z"/>
<path fill="#040201" opacity="1.000000" stroke="none" 
	d="
M442.440857,231.500854 
	C437.591309,249.679214 432.807922,267.445709 428.048279,285.601990 
	C427.282837,288.317932 426.493652,290.644073 425.701050,292.980164 
	C407.027924,292.980164 388.498749,292.980164 369.433044,292.980164 
	C369.433044,290.776489 369.433044,288.821899 369.485962,286.070679 
	C369.442139,267.511475 369.345459,249.748947 369.248779,231.986435 
	C369.390289,229.856613 369.531799,227.726791 369.693817,225.287949 
	C394.461578,225.287949 419.086731,225.287949 443.934967,225.287949 
	C443.446991,227.270416 442.976990,229.179703 442.440857,231.500854 
M406.082245,240.000275 
	C398.990723,240.000275 391.899200,240.000275 384.889160,240.000275 
	C384.889160,253.002487 384.889160,265.381775 384.889160,277.981018 
	C392.471558,277.981018 399.736969,277.981018 407.867615,278.179077 
	C412.962769,279.274414 415.605072,277.242401 416.045807,272.024048 
	C416.197021,270.233154 416.905975,268.487518 417.377106,266.725769 
	C419.719910,257.964935 422.068359,249.205612 424.495056,240.146332 
	C418.264923,240.146332 412.637817,240.146332 406.082245,240.000275 
z"/>
<path fill="#E2A74F" opacity="1.000000" stroke="none" 
	d="
M281.773254,232.021500 
	C282.351990,249.747650 282.449677,267.511993 282.387756,285.650574 
	C278.060852,286.005371 273.893585,285.985992 269.246338,285.998718 
	C268.651947,268.264801 268.537537,250.498795 268.582275,232.360138 
	C272.924988,232.011566 277.108612,232.035629 281.773254,232.021500 
z"/>
<path fill="#E6A84F" opacity="1.000000" stroke="none" 
	d="
M368.768005,232.020599 
	C369.345459,249.748947 369.442139,267.511475 369.380676,285.648438 
	C365.060669,286.005524 360.898804,285.988159 356.257599,285.999023 
	C355.665497,268.264221 355.552704,250.501190 355.596497,232.365234 
	C359.931122,232.013138 364.109192,232.033951 368.768005,232.020599 
z"/>
<path fill="#FFB655" opacity="1.000000" stroke="none" 
	d="
M213.005005,157.041245 
	C226.273941,157.041245 239.542877,157.041245 253.131439,157.041245 
	C253.131439,169.608917 253.131439,182.005066 253.131439,195.001785 
	C243.468674,195.001785 233.704422,195.001785 223.420898,194.550919 
	C219.602768,181.747116 216.303879,169.394180 213.005005,157.041245 
z"/>
<path fill="#FE7955" opacity="1.000000" stroke="none" 
	d="
M212.543915,156.948364 
	C216.303879,169.394180 219.602768,181.747116 222.958557,194.475952 
	C215.735611,194.851868 208.455750,194.851868 200.873352,194.851868 
	C197.505127,182.283951 194.169052,169.835983 190.690262,156.855484 
	C198.178864,156.855484 205.130844,156.855484 212.543915,156.948364 
z"/>
<path fill="#FE7955" opacity="1.000000" stroke="none" 
	d="
M245.030167,277.990784 
	C238.706848,278.064117 232.377975,278.296661 226.064835,278.077332 
	C224.791092,278.033051 222.802872,276.496887 222.455551,275.275604 
	C219.186676,263.780792 216.202621,252.205017 212.957550,239.978851 
	C220.536652,239.978851 227.769531,239.978851 235.474274,240.459961 
	C236.171265,242.405640 236.277267,243.900452 236.640518,245.329910 
	C239.408798,256.224060 242.227295,267.105438 245.030167,277.990784 
z"/>
<path fill="#F6AF52" opacity="1.000000" stroke="none" 
	d="
M245.471161,278.090881 
	C242.227295,267.105438 239.408798,256.224060 236.640518,245.329910 
	C236.277267,243.900452 236.171265,242.405640 235.933685,240.526886 
	C241.539444,240.112701 247.157669,240.112701 253.167511,240.112701 
	C253.167511,252.654694 253.167511,265.124481 253.167511,278.190979 
	C250.750641,278.190979 248.331406,278.190979 245.471161,278.090881 
z"/>
<path fill="#AACDE8" opacity="1.000000" stroke="none" 
	d="
M421.264709,435.357361 
	C415.772766,438.337372 410.919800,436.537781 411.173035,431.670654 
	C411.278015,429.653015 413.040070,426.935364 414.812012,426.029572 
	C416.338287,425.249359 419.424072,425.960480 420.975159,427.131653 
	C423.717041,429.201935 423.621826,432.246979 421.264709,435.357361 
z"/>
<path fill="#AACDE8" opacity="1.000000" stroke="none" 
	d="
M209.529022,429.600586 
	C211.505325,425.465271 214.673309,423.804291 218.061264,426.290253 
	C219.791519,427.559906 220.971130,431.142548 220.585861,433.365326 
	C220.013290,436.668884 216.782333,437.870636 213.509872,436.890411 
	C210.227997,435.907379 208.864044,433.394806 209.529022,429.600586 
z"/>
<path fill="#FF7956" opacity="1.000000" stroke="none" 
	d="
M320.013336,194.849533 
	C312.741364,194.849533 305.469391,194.849533 297.885315,194.849533 
	C297.885315,182.267639 297.885315,169.903183 297.885315,156.860703 
	C304.923096,156.860703 312.002258,156.860703 319.541504,157.418274 
	C320.005524,170.267090 320.009430,182.558304 320.013336,194.849533 
z"/>
<path fill="#FFB655" opacity="1.000000" stroke="none" 
	d="
M320.475769,194.925323 
	C320.009430,182.558304 320.005524,170.267090 320.002686,157.510223 
	C326.612335,157.044571 333.220856,157.044571 340.139069,157.044571 
	C340.139069,169.617798 340.139069,182.007248 340.139069,195.001099 
	C333.804169,195.001099 327.371185,195.001099 320.475769,194.925323 
z"/>
<path fill="#FFFFFF" opacity="1.000000" stroke="none" 
	d="
M424.142334,111.751694 
	C425.697998,111.591995 427.253693,111.432304 429.289825,111.223282 
	C429.289825,109.072433 429.289825,107.041283 429.808411,104.527328 
	C433.960602,104.040779 437.594208,104.037018 441.227844,104.033257 
	C441.382843,106.318214 441.537872,108.603165 441.730225,111.437988 
	C450.868835,111.437988 459.889008,111.437988 469.160278,111.437988 
	C469.160278,115.732513 469.160278,119.464516 469.160278,123.590363 
	C460.084778,123.590363 451.177734,123.590363 441.452911,123.590363 
	C441.452911,126.027374 441.452911,128.087326 440.875580,130.602325 
	C436.684998,131.003128 433.071716,130.948883 429.458466,130.894638 
	C429.356598,128.765793 429.254730,126.636963 429.129761,124.024933 
	C427.792023,123.922974 426.396759,123.816635 424.521210,123.200775 
	C424.074768,119.044739 424.108551,115.398216 424.142334,111.751694 
z"/>
<path fill="#C9C9CB" opacity="1.000000" stroke="none" 
	d="
M423.686646,111.602905 
	C424.108551,115.398216 424.074768,119.044739 424.076782,123.116791 
	C416.681519,123.542320 409.250397,123.542320 401.507080,123.542320 
	C401.507080,119.617767 401.507080,115.870972 401.507080,111.454109 
	C408.720764,111.454109 415.975861,111.454109 423.686646,111.602905 
z"/>
<path fill="#C9C9CB" opacity="1.000000" stroke="none" 
	d="
M429.341125,131.356689 
	C433.071716,130.948883 436.684998,131.003128 440.765533,131.011505 
	C441.232819,137.708588 441.232819,144.451523 441.232819,151.500504 
	C437.407013,151.500504 433.678741,151.500504 429.223816,151.500504 
	C429.223816,144.945419 429.223816,138.382065 429.341125,131.356689 
z"/>
<path fill="#C9C9CB" opacity="1.000000" stroke="none" 
	d="
M441.387329,103.657028 
	C437.594208,104.037018 433.960602,104.040779 429.893402,104.078857 
	C429.459839,97.469513 429.459839,90.825859 429.459839,83.789337 
	C433.306610,83.789337 437.179260,83.789337 441.546814,83.789337 
	C441.546814,90.384544 441.546814,96.832672 441.387329,103.657028 
z"/>
<path fill="#FF7956" opacity="1.000000" stroke="none" 
	d="
M320.003845,277.975067 
	C312.738983,277.975067 305.474121,277.975067 297.891876,277.975067 
	C297.891876,265.381226 297.891876,253.002716 297.891876,240.002029 
	C304.902496,240.002029 311.993683,240.002029 319.544922,240.535065 
	C320.004608,253.370438 320.004211,265.672760 320.003845,277.975067 
z"/>
<path fill="#FFB655" opacity="1.000000" stroke="none" 
	d="
M320.463226,278.073975 
	C320.004211,265.672760 320.004608,253.370438 320.009155,240.609375 
	C326.630188,240.150620 333.247070,240.150620 340.156097,240.150620 
	C340.156097,252.741638 340.156097,265.125641 340.156097,278.172882 
	C333.770050,278.172882 327.346344,278.172882 320.463226,278.073975 
z"/>
<path fill="#FF7956" opacity="1.000000" stroke="none" 
	d="
M407.002380,277.981018 
	C399.736969,277.981018 392.471558,277.981018 384.889160,277.981018 
	C384.889160,265.381775 384.889160,253.002487 384.889160,240.000275 
	C391.899200,240.000275 398.990723,240.000275 406.542358,240.532349 
	C407.002411,253.369949 407.002411,265.675476 407.002380,277.981018 
z"/>
<path fill="#FDB454" opacity="1.000000" stroke="none" 
	d="
M407.434998,278.080048 
	C407.002411,265.675476 407.002411,253.369949 407.006592,240.605377 
	C412.637817,240.146332 418.264923,240.146332 424.495056,240.146332 
	C422.068359,249.205612 419.719910,257.964935 417.377106,266.725769 
	C416.905975,268.487518 416.197021,270.233154 416.045807,272.024048 
	C415.605072,277.242401 412.962769,279.274414 407.434998,278.080048 
z"/>
</svg>