<svg version="1.1" id="Layer_1" xmlns="http://www.w3.org/2000/svg" xmlns:xlink="http://www.w3.org/1999/xlink" x="0px" y="0px"
	 width="100%" viewBox="0 0 512 512" enable-background="new 0 0 512 512" xml:space="preserve">
<path fill="none" opacity="1.000000" stroke="none"
	d="
M1.000000,199.000000 
	C1.000000,132.666672 1.000000,66.833336 1.000000,1.000000 
	C171.666672,1.000000 342.333344,1.000000 513.000000,1.000000 
	C513.000000,171.666672 513.000000,342.333344 513.000000,513.000000 
	C342.333344,513.000000 171.666672,513.000000 1.000000,513.000000 
	C1.000000,408.500000 1.000000,304.000000 1.000000,199.000000 
M126.158165,71.006798 
	C113.118149,71.077217 100.078125,71.147636 86.109901,71.046837 
	C76.975876,71.030876 67.805656,71.525635 58.716152,70.881462 
	C44.422211,69.868439 29.859022,81.151474 25.945248,94.994873 
	C25.197481,97.639786 24.761103,100.372742 24.078629,103.509613 
	C24.078629,103.509613 24.162548,103.958008 24.012659,104.890099 
	C23.997524,222.277588 23.982096,339.665100 23.974503,457.052582 
	C23.974461,457.714752 24.084129,458.376923 24.043461,459.661011 
	C24.349995,460.144684 24.656528,460.628326 24.989676,461.952271 
	C25.143776,475.851166 37.310719,490.290833 51.414639,491.787445 
	C64.179466,493.141937 77.150574,492.552429 90.958427,492.928009 
	C171.341461,492.951416 251.724503,492.975281 332.107544,492.990601 
	C332.768738,492.990723 333.429901,492.874664 334.995789,492.946075 
	C339.651733,492.911194 344.307648,492.876312 349.896362,492.980194 
	C378.213623,492.986908 406.531189,493.058563 434.847626,492.908966 
	C437.993713,492.892365 441.334137,492.082855 444.238525,490.835602 
	C453.448303,486.880768 456.877350,479.017670 456.945068,469.628174 
	C457.115692,445.976166 456.962128,422.321991 457.019531,398.668884 
	C457.045776,387.844910 454.523376,378.451263 443.493103,373.314850 
	C453.197327,373.000031 462.638123,372.788879 472.065063,373.059509 
	C481.457764,373.329193 489.910492,366.245483 489.970886,355.382812 
	C490.080109,335.727905 490.309662,316.065216 489.877838,296.419189 
	C489.645569,285.852539 483.770996,278.490326 472.950134,278.071167 
	C464.972168,277.762146 456.968933,278.105560 448.055664,278.010468 
	C438.710144,278.059723 429.364594,278.108978 419.093109,278.019348 
	C414.383972,278.066406 409.674866,278.113464 404.060120,278.012085 
	C402.895691,278.005096 401.724152,278.079681 400.567932,277.978760 
	C386.500366,276.750885 378.313019,285.615784 378.837585,299.702881 
	C379.468536,316.647766 379.094818,333.635101 378.941437,350.602112 
	C378.864288,359.135559 379.873779,366.999420 388.992157,371.919281 
	C382.074097,371.919281 376.087677,371.919281 370.017517,370.995453 
	C369.956940,335.827362 369.896362,300.659271 370.425262,265.012054 
	C372.287415,261.983063 374.145844,258.951752 376.012360,255.925461 
	C388.343109,235.933060 400.690887,215.951126 413.003021,195.947250 
	C424.036774,178.020355 435.031952,160.069702 446.667511,141.763672 
	C448.297852,138.567856 449.928192,135.372040 452.294800,131.990265 
	C456.024261,126.028198 460.133270,120.262321 463.351562,114.036018 
	C465.544891,109.792587 467.437500,104.980560 467.810577,100.291176 
	C468.724640,88.802231 460.133636,77.537697 449.687561,73.630539 
	C438.702332,69.521721 422.926575,75.419678 418.018341,84.364761 
	C414.311035,91.121178 409.946869,97.517212 405.249603,104.347565 
	C403.495575,107.513084 401.741547,110.678604 399.342010,114.159279 
	C389.630951,129.766068 379.919861,145.372849 370.037415,160.058853 
	C370.024811,142.095016 370.062561,124.130882 369.953369,106.167641 
	C369.933594,102.914932 369.708160,99.563423 368.899628,96.432625 
	C365.097443,81.709602 352.246399,70.957466 336.935120,70.984856 
	C316.310791,71.021736 295.686249,70.944984 274.761627,70.309006 
	C271.012543,63.596066 265.124329,61.626156 257.736694,61.916290 
	C248.662674,62.272655 239.564011,62.001324 229.997299,62.001324 
	C229.997299,57.933662 230.085220,54.479496 229.980728,51.031155 
	C229.672974,40.874004 226.493515,32.053238 217.624176,26.203672 
	C208.424194,20.136030 198.534424,18.988085 188.634399,23.946243 
	C179.610519,28.465618 173.804443,35.720238 172.976486,46.273098 
	C172.569382,51.461712 171.953964,56.633976 171.385056,62.288456 
	C166.806259,62.288456 162.491898,62.288456 157.235428,62.068340 
	C152.633163,62.026184 148.019897,62.170567 143.431152,61.899525 
	C135.959625,61.458218 130.422882,64.188995 126.158165,71.006798 
z"/>
<path fill="#FCB73E" opacity="1.000000" stroke="none" 
	d="
M448.976959,278.158264 
	C456.968933,278.105560 464.972168,277.762146 472.950134,278.071167 
	C483.770996,278.490326 489.645569,285.852539 489.877838,296.419189 
	C490.309662,316.065216 490.080109,335.727905 489.970886,355.382812 
	C489.910492,366.245483 481.457764,373.329193 472.065063,373.059509 
	C462.638123,372.788879 453.197327,373.000031 443.493103,373.314850 
	C454.523376,378.451263 457.045776,387.844910 457.019531,398.668884 
	C456.962128,422.321991 457.115692,445.976166 456.945068,469.628174 
	C456.877350,479.017670 453.448303,486.880768 444.238525,490.835602 
	C441.334137,492.082855 437.993713,492.892365 434.847626,492.908966 
	C406.531189,493.058563 378.213623,492.986908 349.151245,492.709351 
	C334.176147,487.120880 330.998138,482.505768 330.997894,467.147278 
	C330.997467,442.680573 331.052246,418.213715 330.971222,393.747284 
	C330.942261,385.003540 334.954559,378.913300 342.438965,374.798676 
	C343.701538,374.104553 344.845520,373.194641 346.452454,372.391785 
	C354.227966,372.566864 361.595367,372.734619 368.965820,373.380249 
	C368.968903,381.910522 368.968903,389.962982 368.968903,397.701569 
	C381.006042,397.701569 392.154510,397.701569 403.954437,397.701569 
	C403.954437,390.155701 404.085236,382.393738 403.811035,374.646088 
	C403.770691,373.506531 402.006165,372.011230 400.702393,371.403198 
	C394.038696,368.295715 391.047028,362.963776 391.023468,355.876099 
	C390.955902,335.552094 391.070465,315.227264 390.958771,294.903625 
	C390.923553,288.488342 394.228180,284.267334 399.178833,280.990875 
	C400.954468,279.815735 403.028107,279.090912 404.965729,278.160522 
	C409.674866,278.113464 414.383972,278.066406 419.556152,278.547241 
	C420.019165,285.475464 420.019165,291.875793 420.019165,298.156860 
	C429.986542,298.156860 439.032074,298.156860 448.976959,298.156860 
	C448.976959,291.341492 448.976959,284.749878 448.976959,278.158264 
M403.697144,477.999756 
	C412.997437,477.998138 422.297791,477.986206 431.598053,478.002075 
	C433.919708,478.006042 435.906647,477.852386 435.995758,474.702728 
	C436.090240,471.365723 434.160828,470.947174 431.521790,470.960571 
	C421.889587,471.009552 412.256897,470.998291 402.624542,470.965698 
	C400.090759,470.957123 397.972931,471.134857 398.002319,474.559021 
	C398.032471,478.068451 400.328247,478.030212 403.697144,477.999756 
M469.156311,361.008789 
	C470.410156,359.897095 471.664032,358.785370 472.917877,357.673676 
	C471.599243,356.791687 470.308075,355.199585 468.957397,355.147430 
	C462.163147,354.885040 455.353333,355.015717 448.549042,355.028351 
	C446.353088,355.032440 443.567139,354.969452 444.287659,358.105560 
	C444.575165,359.356934 447.200439,360.806213 448.824493,360.886139 
	C455.281250,361.204010 461.762878,361.017029 469.156311,361.008789 
M414.384399,456.257263 
	C412.545959,452.811554 410.707550,449.365875 408.312897,444.877747 
	C405.191589,449.192841 403.013519,452.203979 401.488007,454.312927 
	C402.589874,457.283691 403.719971,459.142914 403.893341,461.087494 
	C404.129578,463.737183 404.937042,465.019775 407.763672,465.049957 
	C410.651428,465.080780 412.031219,464.150421 412.098663,461.049408 
	C412.129974,459.610565 413.240784,458.195251 414.384399,456.257263 
M430.511505,450.009369 
	C429.106384,448.631134 427.887238,445.551056 425.558899,448.208344 
	C423.517700,450.537964 421.780060,453.488281 421.019531,456.449799 
	C420.576874,458.173492 422.169128,460.535492 423.143219,462.459686 
	C423.649078,463.458832 424.729034,464.699188 425.678314,464.820038 
	C427.186371,465.012115 429.678680,464.870422 430.207367,463.965698 
	C431.767883,461.295410 432.990753,458.249207 433.478455,455.210846 
	C433.700348,453.828491 431.880646,452.118439 430.511505,450.009369 
M455.530548,345.634552 
	C456.391907,342.620239 453.750244,336.799652 451.721130,337.549561 
	C449.585754,338.338776 447.839630,340.800934 446.542603,342.912476 
	C446.070221,343.681488 447.650208,345.513641 447.818146,346.917664 
	C448.102264,349.293335 448.509949,351.027252 451.547943,351.049500 
	C455.121918,351.075684 454.862640,348.551819 455.530548,345.634552 
M465.161865,337.686920 
	C461.619141,340.794250 460.976746,344.507843 463.139954,348.602539 
	C463.656677,349.580627 464.789215,350.648682 465.797546,350.840881 
	C466.921387,351.055084 468.695648,350.719818 469.375580,349.927551 
	C473.266815,345.393250 471.671783,340.130188 465.161865,337.686920 
z"/>
<path fill="#AB604B" opacity="1.000000" stroke="none" 
	d="
M24.142570,459.039093 
	C24.084129,458.376923 23.974461,457.714752 23.974503,457.052582 
	C23.982096,339.665100 23.997524,222.277588 24.177048,104.324448 
	C24.471451,103.497025 24.417992,103.265785 24.181061,103.065079 
	C24.761103,100.372742 25.197481,97.639786 25.945248,94.994873 
	C29.859022,81.151474 44.422211,69.868439 58.716152,70.881462 
	C67.805656,71.525635 76.975876,71.030876 86.455505,71.444412 
	C85.389900,72.639999 83.972046,73.426521 82.568520,74.237816 
	C70.985161,80.933548 63.383465,90.213737 62.935616,104.526062 
	C58.214924,108.552971 57.260799,113.605888 57.262474,119.158104 
	C57.295143,227.533234 57.300140,335.908356 57.249279,444.283478 
	C57.246567,450.062622 58.550690,455.127869 62.996033,459.490417 
	C64.181679,474.738556 73.036949,486.132263 86.917793,490.821503 
	C88.051147,491.204346 88.997482,492.140869 90.030731,492.820129 
	C77.150574,492.552429 64.179466,493.141937 51.414639,491.787445 
	C37.310719,490.290833 25.143776,475.851166 24.948410,461.246796 
	C24.652290,460.040558 24.397432,459.539825 24.142570,459.039093 
z"/>
<path fill="#5C5F8B" opacity="1.000000" stroke="none" 
	d="
M158.177551,62.288456 
	C162.491898,62.288456 166.806259,62.288456 171.385056,62.288456 
	C171.953964,56.633976 172.569382,51.461712 172.976486,46.273098 
	C173.804443,35.720238 179.610519,28.465618 188.634399,23.946243 
	C198.534424,18.988085 208.424194,20.136030 217.624176,26.203672 
	C226.493515,32.053238 229.672974,40.874004 229.980728,51.031155 
	C230.085220,54.479496 229.997299,57.933662 229.997299,62.001324 
	C239.564011,62.001324 248.662674,62.272655 257.736694,61.916290 
	C265.124329,61.626156 271.012543,63.596066 274.858368,70.996536 
	C278.622955,81.749519 282.290833,91.814980 285.855347,102.252274 
	C283.791382,112.726967 278.964600,117.575310 269.579102,117.615013 
	C229.030518,117.786568 188.480972,117.732613 147.829559,117.452271 
	C146.578186,116.239571 145.381805,115.388702 144.288147,114.421646 
	C139.915619,110.555237 136.606674,105.502312 138.743790,99.952293 
	C143.829987,86.743584 145.576279,71.654984 158.177551,62.288456 
M190.767914,49.474693 
	C194.450256,56.879524 201.151413,59.317142 206.981262,55.372467 
	C211.578506,52.261810 213.189697,46.624008 210.878174,41.736572 
	C208.571457,36.859352 203.345581,34.639034 197.821060,36.188992 
	C192.721634,37.619682 189.882126,42.488716 190.767914,49.474693 
z"/>
<path fill="#C7754F" opacity="1.000000" stroke="none" 
	d="
M90.494576,492.874084 
	C88.997482,492.140869 88.051147,491.204346 86.917793,490.821503 
	C73.036949,486.132263 64.181679,474.738556 63.340698,459.606171 
	C67.697388,460.128723 71.706848,461.655090 75.719444,461.663330 
	C155.814636,461.828308 235.910202,461.818085 316.032440,462.311371 
	C315.245850,476.887665 319.055328,488.220367 334.091095,492.812866 
	C333.429901,492.874664 332.768738,492.990723 332.107544,492.990601 
	C251.724503,492.975281 171.341461,492.951416 90.494576,492.874084 
z"/>
<path fill="#C77550" opacity="1.000000" stroke="none" 
	d="
M285.958679,101.880447 
	C282.290833,91.814980 278.622955,81.749519 275.008453,71.300537 
	C295.686249,70.944984 316.310791,71.021736 336.935120,70.984856 
	C352.246399,70.957466 365.097443,81.709602 368.899628,96.432625 
	C369.708160,99.563423 369.933594,102.914932 369.953369,106.167641 
	C370.062561,124.130882 370.024811,142.095016 370.042969,160.881775 
	C369.776611,162.476837 369.634338,163.329178 369.213715,164.009354 
	C358.583679,181.197311 347.924469,198.367188 337.204498,215.110596 
	C337.114258,182.702423 337.097900,150.723846 337.061279,118.745316 
	C337.047882,107.041328 331.987122,101.912804 320.436249,101.887764 
	C308.943756,101.862846 297.451202,101.881119 285.958679,101.880447 
z"/>
<path fill="#65B9FF" opacity="1.000000" stroke="none" 
	d="
M446.044159,142.129547 
	C435.031952,160.069702 424.036774,178.020355 413.003021,195.947250 
	C400.690887,215.951126 388.343109,235.933060 376.012360,255.925461 
	C374.145844,258.951752 372.287415,261.983063 369.878601,265.411499 
	C367.590546,268.293121 365.849182,270.775330 363.801910,273.064819 
	C356.328461,268.331909 349.160919,263.791718 342.150146,258.937134 
	C364.677673,222.442688 387.086365,186.286026 409.387024,150.062866 
	C413.812469,142.874603 417.823547,135.431244 422.340973,128.209991 
	C430.452240,132.919510 438.248199,137.524521 446.044159,142.129547 
z"/>
<path fill="#3F80FF" opacity="1.000000" stroke="none" 
	d="
M422.025665,128.105499 
	C417.823547,135.431244 413.812469,142.874603 409.387024,150.062866 
	C387.086365,186.286026 364.677673,222.442688 341.802551,258.842255 
	C333.943665,254.666763 326.589142,250.271713 319.324707,245.559143 
	C325.366669,235.341171 331.318512,225.440704 337.270355,215.540237 
	C347.924469,198.367188 358.583679,181.197311 369.213715,164.009354 
	C369.634338,163.329178 369.776611,162.476837 370.128662,161.342163 
	C379.919861,145.372849 389.630951,129.766068 399.850403,114.293076 
	C407.581116,118.986412 414.803406,123.545959 422.025665,128.105499 
z"/>
<path fill="#C77650" opacity="1.000000" stroke="none" 
	d="
M364.107819,273.257568 
	C365.849182,270.775330 367.590546,268.293121 369.583862,265.651062 
	C369.896362,300.659271 369.956940,335.827362 369.852264,371.601746 
	C369.445587,372.439484 369.204163,372.670929 368.962769,372.902374 
	C361.595367,372.734619 354.227966,372.566864 346.010742,372.298523 
	C342.481323,372.148010 339.801758,372.098022 337.101440,371.576019 
	C337.053040,345.690430 337.025391,320.276855 337.176910,294.592133 
	C339.245850,292.743591 341.093292,291.111969 343.032928,289.598480 
	C350.041138,284.130035 357.080322,278.701294 364.107819,273.257568 
z"/>
<path fill="#5B5E8B" opacity="1.000000" stroke="none" 
	d="
M405.875061,104.073639 
	C409.946869,97.517212 414.311035,91.121178 418.018341,84.364761 
	C422.926575,75.419678 438.702332,69.521721 449.687561,73.630539 
	C460.133636,77.537697 468.724640,88.802231 467.810577,100.291176 
	C467.437500,104.980560 465.544891,109.792587 463.351562,114.036018 
	C460.133270,120.262321 456.024261,126.028198 451.582367,132.143082 
	C437.131622,123.908043 423.383850,115.535629 409.669678,107.108528 
	C408.300262,106.267044 407.135040,105.093216 405.875061,104.073639 
z"/>
<path fill="#FD992F" opacity="1.000000" stroke="none" 
	d="
M368.965820,373.380249 
	C369.204163,372.670929 369.445587,372.439484 369.894135,372.063660 
	C376.087677,371.919281 382.074097,371.919281 388.992157,371.919281 
	C379.873779,366.999420 378.864288,359.135559 378.941437,350.602112 
	C379.094818,333.635101 379.468536,316.647766 378.837585,299.702881 
	C378.313019,285.615784 386.500366,276.750885 400.567932,277.978760 
	C401.724152,278.079681 402.895691,278.005096 404.512939,278.086304 
	C403.028107,279.090912 400.954468,279.815735 399.178833,280.990875 
	C394.228180,284.267334 390.923553,288.488342 390.958771,294.903625 
	C391.070465,315.227264 390.955902,335.552094 391.023468,355.876099 
	C391.047028,362.963776 394.038696,368.295715 400.702393,371.403198 
	C402.006165,372.011230 403.770691,373.506531 403.811035,374.646088 
	C404.085236,382.393738 403.954437,390.155701 403.954437,397.701569 
	C392.154510,397.701569 381.006042,397.701569 368.968903,397.701569 
	C368.968903,389.962982 368.968903,381.910522 368.965820,373.380249 
z"/>
<path fill="#FC9A33" opacity="1.000000" stroke="none" 
	d="
M337.122162,372.048035 
	C339.801758,372.098022 342.481323,372.148010 345.602600,372.291229 
	C344.845520,373.194641 343.701538,374.104553 342.438965,374.798676 
	C334.954559,378.913300 330.942261,385.003540 330.971222,393.747284 
	C331.052246,418.213715 330.997467,442.680573 330.997894,467.147278 
	C330.998138,482.505768 334.176147,487.120880 348.684845,492.639954 
	C344.307648,492.876312 339.651733,492.911194 334.543457,492.879456 
	C319.055328,488.220367 315.245850,476.887665 316.145874,461.865845 
	C316.298279,458.963043 316.419495,456.973877 316.421051,454.984680 
	C316.436432,435.218445 316.364868,415.451874 316.459259,395.686096 
	C316.513062,384.419861 321.649384,376.708984 330.888611,373.633698 
	C332.917572,372.958344 335.041809,372.569061 337.122162,372.048035 
z"/>
<path fill="#C77550" opacity="1.000000" stroke="none" 
	d="
M63.110626,104.244873 
	C63.383465,90.213737 70.985161,80.933548 82.568520,74.237816 
	C83.972046,73.426521 85.389900,72.639999 86.919609,71.530022 
	C100.078125,71.147636 113.118149,71.077217 126.662315,71.406212 
	C123.466438,81.813667 119.766411,91.821709 115.593994,101.848503 
	C101.636520,101.872040 88.147812,101.705299 74.668633,101.989830 
	C70.801826,102.071457 66.962532,103.457123 63.110626,104.244873 
z"/>
<path fill="#322F4D" opacity="1.000000" stroke="none" 
	d="
M116.066391,101.829758 
	C119.766411,91.821709 123.466438,81.813667 127.137604,71.420486 
	C130.422882,64.188995 135.959625,61.458218 143.431152,61.899525 
	C148.019897,62.170567 152.633163,62.026184 157.706482,62.178398 
	C145.576279,71.654984 143.829987,86.743584 138.743790,99.952293 
	C136.606674,105.502312 139.915619,110.555237 144.288147,114.421646 
	C145.381805,115.388702 146.578186,116.239571 147.366791,117.490852 
	C143.350281,117.843086 139.694351,117.854088 136.038406,117.852478 
	C123.326088,117.846870 118.928925,114.317322 116.066391,101.829758 
z"/>
<path fill="#DFE0FE" opacity="1.000000" stroke="none" 
	d="
M405.562317,104.210602 
	C407.135040,105.093216 408.300262,106.267044 409.669678,107.108528 
	C423.383850,115.535629 437.131622,123.908043 451.214233,132.236053 
	C449.928192,135.372040 448.297852,138.567856 446.355835,141.946609 
	C438.248199,137.524521 430.452240,132.919510 422.340973,128.209991 
	C414.803406,123.545959 407.581116,118.986412 400.173157,114.135498 
	C401.741547,110.678604 403.495575,107.513084 405.562317,104.210602 
z"/>
<path fill="#FD992F" opacity="1.000000" stroke="none" 
	d="
M448.516296,278.084351 
	C448.976959,284.749878 448.976959,291.341492 448.976959,298.156860 
	C439.032074,298.156860 429.986542,298.156860 420.019165,298.156860 
	C420.019165,291.875793 420.019165,285.475464 420.019104,278.616699 
	C429.364594,278.108978 438.710144,278.059723 448.516296,278.084351 
z"/>
<path fill="#BA6951" opacity="1.000000" stroke="none" 
	d="
M24.093018,459.350037 
	C24.397432,459.539825 24.652290,460.040558 24.935104,460.826660 
	C24.656528,460.628326 24.349995,460.144684 24.093018,459.350037 
z"/>
<path fill="#BA6951" opacity="1.000000" stroke="none" 
	d="
M24.129845,103.287346 
	C24.417992,103.265785 24.471451,103.497025 24.251991,103.858398 
	C24.162548,103.958008 24.078629,103.509613 24.129845,103.287346 
z"/>
<path fill="#FD982E" opacity="1.000000" stroke="none" 
	d="
M403.228577,477.998901 
	C400.328247,478.030212 398.032471,478.068451 398.002319,474.559021 
	C397.972931,471.134857 400.090759,470.957123 402.624542,470.965698 
	C412.256897,470.998291 421.889587,471.009552 431.521790,470.960571 
	C434.160828,470.947174 436.090240,471.365723 435.995758,474.702728 
	C435.906647,477.852386 433.919708,478.006042 431.598053,478.002075 
	C422.297791,477.986206 412.997437,477.998138 403.228577,477.998901 
z"/>
<path fill="#FD9A2F" opacity="1.000000" stroke="none" 
	d="
M468.695801,361.012909 
	C461.762878,361.017029 455.281250,361.204010 448.824493,360.886139 
	C447.200439,360.806213 444.575165,359.356934 444.287659,358.105560 
	C443.567139,354.969452 446.353088,355.032440 448.549042,355.028351 
	C455.353333,355.015717 462.163147,354.885040 468.957397,355.147430 
	C470.308075,355.199585 471.599243,356.791687 472.917877,357.673676 
	C471.664032,358.785370 470.410156,359.897095 468.695801,361.012909 
z"/>
<path fill="#FD992F" opacity="1.000000" stroke="none" 
	d="
M414.123291,456.513245 
	C413.240784,458.195251 412.129974,459.610565 412.098663,461.049408 
	C412.031219,464.150421 410.651428,465.080780 407.763672,465.049957 
	C404.937042,465.019775 404.129578,463.737183 403.893341,461.087494 
	C403.719971,459.142914 402.589874,457.283691 401.488007,454.312927 
	C403.013519,452.203979 405.191589,449.192841 408.312897,444.877747 
	C410.707550,449.365875 412.545959,452.811554 414.123291,456.513245 
z"/>
<path fill="#FD992F" opacity="1.000000" stroke="none" 
	d="
M430.749237,450.283203 
	C431.880646,452.118439 433.700348,453.828491 433.478455,455.210846 
	C432.990753,458.249207 431.767883,461.295410 430.207367,463.965698 
	C429.678680,464.870422 427.186371,465.012115 425.678314,464.820038 
	C424.729034,464.699188 423.649078,463.458832 423.143219,462.459686 
	C422.169128,460.535492 420.576874,458.173492 421.019531,456.449799 
	C421.780060,453.488281 423.517700,450.537964 425.558899,448.208344 
	C427.887238,445.551056 429.106384,448.631134 430.749237,450.283203 
z"/>
<path fill="#FD9A2F" opacity="1.000000" stroke="none" 
	d="
M455.378204,345.974976 
	C454.862640,348.551819 455.121918,351.075684 451.547943,351.049500 
	C448.509949,351.027252 448.102264,349.293335 447.818146,346.917664 
	C447.650208,345.513641 446.070221,343.681488 446.542603,342.912476 
	C447.839630,340.800934 449.585754,338.338776 451.721130,337.549561 
	C453.750244,336.799652 456.391907,342.620239 455.378204,345.974976 
z"/>
<path fill="#FD9A2F" opacity="1.000000" stroke="none" 
	d="
M465.468323,337.528687 
	C471.671783,340.130188 473.266815,345.393250 469.375580,349.927551 
	C468.695648,350.719818 466.921387,351.055084 465.797546,350.840881 
	C464.789215,350.648682 463.656677,349.580627 463.139954,348.602539 
	C460.976746,344.507843 461.619141,340.794250 465.468323,337.528687 
z"/>
<path fill="#DEDDFE" opacity="1.000000" stroke="none" 
	d="
M115.593994,101.848503 
	C118.928925,114.317322 123.326088,117.846870 136.038406,117.852478 
	C139.694351,117.854088 143.350281,117.843086 147.468994,117.799286 
	C188.480972,117.732613 229.030518,117.786568 269.579102,117.615013 
	C278.964600,117.575310 283.791382,112.726967 285.855347,102.252274 
	C297.451202,101.881119 308.943756,101.862846 320.436249,101.887764 
	C331.987122,101.912804 337.047882,107.041328 337.061279,118.745316 
	C337.097900,150.723846 337.114258,182.702423 337.204498,215.110596 
	C331.318512,225.440704 325.366669,235.341171 319.225220,245.965668 
	C317.637421,254.100586 316.239197,261.511475 314.637878,268.653534 
	C313.219849,264.705750 310.322754,263.990082 306.912933,263.991241 
	C258.787201,264.007538 210.661453,264.001556 162.535706,264.001801 
	C162.036179,264.001831 161.535156,263.989197 161.037354,264.021393 
	C157.576569,264.244934 155.260162,265.971313 155.129257,269.508514 
	C155.002274,272.939575 156.995224,275.135437 160.385925,275.777130 
	C161.840286,276.052429 163.370773,275.973846 164.866699,275.974121 
	C211.327194,275.982727 257.787933,276.040741 304.247681,275.853058 
	C307.495331,275.839966 310.735565,273.995453 313.991394,273.418701 
	C313.345123,278.233917 312.686676,282.633057 311.874817,287.391602 
	C310.770325,292.496063 309.819244,297.241089 308.407806,301.989319 
	C260.166840,301.994659 212.386246,301.995270 164.605652,302.005463 
	C162.943649,302.005829 160.881668,301.505219 159.711349,302.289886 
	C157.850922,303.537262 155.502686,305.600250 155.380188,307.451843 
	C155.263412,309.216705 157.349030,311.967682 159.155334,312.812866 
	C161.571854,313.943604 164.651947,313.931702 167.447708,313.935303 
	C212.564514,313.993652 257.681396,313.980072 302.798248,313.965515 
	C304.958588,313.964813 307.118835,313.804047 309.604523,313.671936 
	C316.902985,308.536316 323.876068,303.446503 331.166534,298.188965 
	C333.321838,296.968567 335.159790,295.915924 336.997742,294.863281 
	C337.025391,320.276855 337.053040,345.690430 337.101440,371.576019 
	C335.041809,372.569061 332.917572,372.958344 330.888611,373.633698 
	C321.649384,376.708984 316.513062,384.419861 316.459259,395.686096 
	C316.364868,415.451874 316.436432,435.218445 316.421051,454.984680 
	C316.419495,456.973877 316.298279,458.963043 316.119141,461.397736 
	C235.910202,461.818085 155.814636,461.828308 75.719444,461.663330 
	C71.706848,461.655090 67.697388,460.128723 63.341797,459.193481 
	C58.550690,455.127869 57.246567,450.062622 57.249279,444.283478 
	C57.300140,335.908356 57.295143,227.533234 57.262474,119.158104 
	C57.260799,113.605888 58.214924,108.552971 62.935616,104.526062 
	C66.962532,103.457123 70.801826,102.071457 74.668633,101.989830 
	C88.147812,101.705299 101.636520,101.872040 115.593994,101.848503 
M142.873734,162.970657 
	C186.194321,162.979843 229.514893,163.002533 272.835480,162.986603 
	C281.317841,162.983475 286.920990,157.992294 286.802032,150.729141 
	C286.686127,143.655746 281.232849,138.986954 272.886810,138.978271 
	C245.061630,138.949280 217.236389,138.948059 189.411209,138.973724 
	C173.587250,138.988312 157.763367,139.076004 141.022293,138.979156 
	C133.723679,138.979416 126.421501,138.838028 119.127502,139.021622 
	C112.446037,139.189819 107.687218,144.312393 107.680756,150.918808 
	C107.674332,157.482986 112.523895,162.818985 119.055763,162.947784 
	C126.679306,163.098083 134.309967,162.886993 142.873734,162.970657 
M297.484589,237.985001 
	C299.817322,237.985001 302.150085,237.987411 304.482819,237.984497 
	C310.745667,237.976654 314.813263,235.576401 314.839722,231.875717 
	C314.868561,227.842834 311.642395,226.002396 304.493988,226.001984 
	C258.172150,225.999329 211.850327,225.999344 165.528488,226.001938 
	C158.169601,226.002350 155.075439,227.684280 155.069870,231.658554 
	C155.063583,236.138657 158.095749,237.982941 165.522736,237.983459 
	C209.178558,237.986526 252.834381,237.984970 297.484589,237.985001 
M159.438400,188.408569 
	C156.187653,189.564941 153.845459,192.064117 155.361740,195.172073 
	C156.417130,197.335358 159.636658,198.524384 162.029724,199.905518 
	C162.782104,200.339722 163.989868,199.990326 164.989197,199.990341 
	C211.626495,199.991272 258.263794,199.992905 304.901093,199.988953 
	C310.761566,199.988464 314.628113,197.542023 314.719788,193.814087 
	C314.803192,190.422699 310.637360,188.004211 304.671509,188.003387 
	C279.020996,187.999786 253.370438,187.978470 227.719971,188.008865 
	C205.237137,188.035492 182.754379,188.122482 159.438400,188.408569 
M258.500000,351.976959 
	C273.829834,351.973175 289.160370,352.052063 304.489197,351.926331 
	C310.941071,351.873383 314.825378,349.203247 314.748962,345.434540 
	C314.673157,341.692322 311.515167,339.999512 304.551361,339.999084 
	C257.895325,339.996277 211.239304,339.996002 164.583282,340.004242 
	C162.919861,340.004517 160.851395,339.503326 159.685791,340.291656 
	C157.829834,341.546997 155.331802,343.739746 155.397766,345.447479 
	C155.471573,347.358154 157.749161,349.986145 159.702118,350.824829 
	C162.323059,351.950378 165.551590,351.928497 168.520370,351.935364 
	C198.180130,352.003815 227.840088,351.976868 258.500000,351.976959 
M254.500000,415.997559 
	C224.001251,415.997833 193.502457,416.020752 163.003784,415.971405 
	C158.928818,415.964813 155.182129,416.772644 155.203278,421.533752 
	C155.224457,426.300079 159.010178,427.046356 163.062210,427.043060 
	C211.060211,427.003906 259.058289,426.992737 307.056244,427.063416 
	C311.073639,427.069336 314.100006,426.045135 314.669342,421.716736 
	C315.125244,418.250336 311.982727,416.013794 306.997894,416.007202 
	C289.831970,415.984528 272.665955,415.997894 254.500000,415.997559 
M249.500000,389.024200 
	C268.999084,389.021851 288.498260,388.987030 307.997162,389.043793 
	C312.032135,389.055511 314.701965,387.236694 314.589264,383.293427 
	C314.485352,379.656982 311.866821,377.771301 308.054535,377.995758 
	C307.224213,378.044678 306.388367,377.998993 305.555084,377.998993 
	C258.557281,377.998810 211.559464,377.998077 164.561646,378.002136 
	C163.062561,378.002289 161.161514,377.484070 160.150085,378.199799 
	C158.190231,379.586731 155.440445,381.672119 155.427994,383.484619 
	C155.415588,385.288849 158.148849,387.406189 160.094803,388.807831 
	C161.096649,389.529419 163.005112,389.019501 164.503906,389.019806 
	C192.502609,389.025482 220.501297,389.024170 249.500000,389.024200 
M99.505585,237.985046 
	C106.473434,237.982010 113.442535,238.058563 120.408691,237.948425 
	C125.183105,237.872955 128.200897,235.367172 127.813858,231.761398 
	C127.354439,227.481400 124.387497,226.014267 120.442268,226.011612 
	C109.326889,226.004150 98.211456,226.024933 87.096161,225.993927 
	C83.035683,225.982605 80.191864,227.543594 80.091080,231.908691 
	C79.985596,236.477585 83.283615,237.745316 87.063843,237.928375 
	C90.870888,238.112732 94.693329,237.979218 99.505585,237.985046 
M82.202324,198.456741 
	C83.591698,198.950775 84.977097,199.860214 86.371063,199.873520 
	C98.153496,199.986206 109.938820,200.033295 121.720238,199.874420 
	C125.304718,199.826080 127.812958,197.674591 127.776001,193.937485 
	C127.739044,190.200745 125.187782,188.143784 121.604111,188.102890 
	C109.822113,187.968399 98.030952,187.822906 86.256805,188.156937 
	C80.390503,188.323364 78.641823,192.512909 82.202324,198.456741 
M80.574852,272.671539 
	C83.204163,273.774048 85.802620,275.731598 88.468254,275.827759 
	C98.784500,276.200134 109.122261,276.007050 119.451790,275.966827 
	C124.039650,275.948975 127.795761,273.178619 127.860535,269.917419 
	C127.932747,266.281982 124.884315,264.039612 119.566818,264.015625 
	C108.904137,263.967468 98.240868,263.960724 87.578270,264.016785 
	C81.664940,264.047882 80.005035,265.923523 80.574852,272.671539 
M124.326286,302.710052 
	C111.211937,302.504425 98.094032,302.101532 84.987686,302.338257 
	C83.315117,302.368469 80.696045,305.580719 80.385567,307.605560 
	C80.143280,309.185638 82.487450,311.674866 84.273369,312.894562 
	C85.757217,313.907990 88.105820,313.950195 90.064674,313.923981 
	C100.692078,313.781860 111.366180,314.016357 121.925705,313.047638 
	C128.564484,312.438599 129.574905,308.036346 124.326286,302.710052 
M109.493866,339.997559 
	C101.675087,340.003632 93.855438,339.943817 86.037918,340.046021 
	C82.579941,340.091217 80.257126,341.950775 80.134422,345.488770 
	C80.024406,348.660919 81.541580,351.002655 85.117088,351.081696 
	C96.727364,351.338379 108.338638,351.559235 119.950569,351.716187 
	C121.078232,351.731415 122.572823,351.567078 123.273293,350.864319 
	C124.974899,349.157166 127.810211,346.691284 127.433746,345.251251 
	C126.890244,343.172302 124.134369,340.745056 121.918152,340.239746 
	C118.279663,339.410156 114.316620,340.003937 109.493866,339.997559 
M105.499382,389.024292 
	C110.975838,389.016724 116.454147,389.092529 121.928078,388.971100 
	C125.348518,388.895233 127.914314,387.137604 127.737579,383.573120 
	C127.577469,380.343903 125.592590,378.022339 121.905067,378.019623 
	C109.956398,378.010834 98.007156,377.951752 86.059364,378.054565 
	C82.386452,378.086182 80.023430,380.105865 80.145912,383.936035 
	C80.260872,387.531067 82.411789,389.128784 86.079521,389.051697 
	C92.217079,388.922607 98.359413,389.021484 105.499382,389.024292 
M122.834976,426.945801 
	C126.189613,426.176605 128.405472,424.198639 127.773582,420.645264 
	C127.162804,417.210602 124.496605,415.963409 121.077446,415.980774 
	C110.079880,416.036530 99.081444,416.053040 88.084206,415.970215 
	C84.037956,415.939758 80.569099,416.662994 80.119499,421.450256 
	C79.795349,424.901855 82.895134,426.997437 87.964226,427.008362 
	C99.295227,427.032745 110.626350,427.004456 122.834976,426.945801 
z"/>
<path fill="#322F4C" opacity="1.000000" stroke="none" 
	d="
M190.632629,49.111012 
	C189.882126,42.488716 192.721634,37.619682 197.821060,36.188992 
	C203.345581,34.639034 208.571457,36.859352 210.878174,41.736572 
	C213.189697,46.624008 211.578506,52.261810 206.981262,55.372467 
	C201.151413,59.317142 194.450256,56.879524 190.632629,49.111012 
z"/>
<path fill="#FEAF94" opacity="1.000000" stroke="none" 
	d="
M314.840942,268.922363 
	C316.239197,261.511475 317.637421,254.100586 319.135132,246.283173 
	C326.589142,250.271713 333.943665,254.666763 341.645782,259.156677 
	C349.160919,263.791718 356.328461,268.331909 363.801910,273.064819 
	C357.080322,278.701294 350.041138,284.130035 343.032928,289.598480 
	C341.093292,291.111969 339.245850,292.743591 337.176910,294.592133 
	C335.159790,295.915924 333.321838,296.968567 330.920471,297.933960 
	C326.280457,290.796265 320.218781,287.110168 312.028229,287.032166 
	C312.686676,282.633057 313.345123,278.233917 314.141663,273.100342 
	C314.466827,271.218048 314.653900,270.070221 314.840942,268.922363 
z"/>
<path fill="#E83D62" opacity="1.000000" stroke="none" 
	d="
M141.939438,139.130783 
	C157.763367,139.076004 173.587250,138.988312 189.411209,138.973724 
	C217.236389,138.948059 245.061630,138.949280 272.886810,138.978271 
	C281.232849,138.986954 286.686127,143.655746 286.802032,150.729141 
	C286.920990,157.992294 281.317841,162.983475 272.835480,162.986603 
	C229.514893,163.002533 186.194321,162.979843 142.165619,162.682434 
	C136.540787,159.970520 133.024567,156.360672 133.115173,150.603271 
	C133.206528,144.798309 137.142212,141.533951 141.939438,139.130783 
z"/>
<path fill="#C7C7F7" opacity="1.000000" stroke="none" 
	d="
M296.987396,237.984985 
	C252.834381,237.984970 209.178558,237.986526 165.522736,237.983459 
	C158.095749,237.982941 155.063583,236.138657 155.069870,231.658554 
	C155.075439,227.684280 158.169601,226.002350 165.528488,226.001938 
	C211.850327,225.999344 258.172150,225.999329 304.493988,226.001984 
	C311.642395,226.002396 314.868561,227.842834 314.839722,231.875717 
	C314.813263,235.576401 310.745667,237.976654 304.482819,237.984497 
	C302.150085,237.987411 299.817322,237.985001 296.987396,237.984985 
z"/>
<path fill="#C7C7F7" opacity="1.000000" stroke="none" 
	d="
M314.637878,268.653534 
	C314.653900,270.070221 314.466827,271.218048 314.129517,272.684235 
	C310.735565,273.995453 307.495331,275.839966 304.247681,275.853058 
	C257.787933,276.040741 211.327194,275.982727 164.866699,275.974121 
	C163.370773,275.973846 161.840286,276.052429 160.385925,275.777130 
	C156.995224,275.135437 155.002274,272.939575 155.129257,269.508514 
	C155.260162,265.971313 157.576569,264.244934 161.037354,264.021393 
	C161.535156,263.989197 162.036179,264.001831 162.535706,264.001801 
	C210.661453,264.001556 258.787201,264.007538 306.912933,263.991241 
	C310.322754,263.990082 313.219849,264.705750 314.637878,268.653534 
z"/>
<path fill="#C7C7F7" opacity="1.000000" stroke="none" 
	d="
M159.854996,188.295685 
	C182.754379,188.122482 205.237137,188.035492 227.719971,188.008865 
	C253.370438,187.978470 279.020996,187.999786 304.671509,188.003387 
	C310.637360,188.004211 314.803192,190.422699 314.719788,193.814087 
	C314.628113,197.542023 310.761566,199.988464 304.901093,199.988953 
	C258.263794,199.992905 211.626495,199.991272 164.989197,199.990341 
	C163.989868,199.990326 162.782104,200.339722 162.029724,199.905518 
	C159.636658,198.524384 156.417130,197.335358 155.361740,195.172073 
	C153.845459,192.064117 156.187653,189.564941 159.854996,188.295685 
z"/>
<path fill="#C7C7F7" opacity="1.000000" stroke="none" 
	d="
M258.000000,351.976898 
	C227.840088,351.976868 198.180130,352.003815 168.520370,351.935364 
	C165.551590,351.928497 162.323059,351.950378 159.702118,350.824829 
	C157.749161,349.986145 155.471573,347.358154 155.397766,345.447479 
	C155.331802,343.739746 157.829834,341.546997 159.685791,340.291656 
	C160.851395,339.503326 162.919861,340.004517 164.583282,340.004242 
	C211.239304,339.996002 257.895325,339.996277 304.551361,339.999084 
	C311.515167,339.999512 314.673157,341.692322 314.748962,345.434540 
	C314.825378,349.203247 310.941071,351.873383 304.489197,351.926331 
	C289.160370,352.052063 273.829834,351.973175 258.000000,351.976898 
z"/>
<path fill="#C7C7F7" opacity="1.000000" stroke="none" 
	d="
M309.279144,313.717804 
	C307.118835,313.804047 304.958588,313.964813 302.798248,313.965515 
	C257.681396,313.980072 212.564514,313.993652 167.447708,313.935303 
	C164.651947,313.931702 161.571854,313.943604 159.155334,312.812866 
	C157.349030,311.967682 155.263412,309.216705 155.380188,307.451843 
	C155.502686,305.600250 157.850922,303.537262 159.711349,302.289886 
	C160.881668,301.505219 162.943649,302.005829 164.605652,302.005463 
	C212.386246,301.995270 260.166840,301.994659 308.431152,302.399048 
	C309.036285,306.442993 309.157715,310.080383 309.279144,313.717804 
z"/>
<path fill="#C6C6F7" opacity="1.000000" stroke="none" 
	d="
M255.000000,415.997559 
	C272.665955,415.997894 289.831970,415.984528 306.997894,416.007202 
	C311.982727,416.013794 315.125244,418.250336 314.669342,421.716736 
	C314.100006,426.045135 311.073639,427.069336 307.056244,427.063416 
	C259.058289,426.992737 211.060211,427.003906 163.062210,427.043060 
	C159.010178,427.046356 155.224457,426.300079 155.203278,421.533752 
	C155.182129,416.772644 158.928818,415.964813 163.003784,415.971405 
	C193.502457,416.020752 224.001251,415.997833 255.000000,415.997559 
z"/>
<path fill="#C6C6F7" opacity="1.000000" stroke="none" 
	d="
M249.000000,389.024261 
	C220.501297,389.024170 192.502609,389.025482 164.503906,389.019806 
	C163.005112,389.019501 161.096649,389.529419 160.094803,388.807831 
	C158.148849,387.406189 155.415588,385.288849 155.427994,383.484619 
	C155.440445,381.672119 158.190231,379.586731 160.150085,378.199799 
	C161.161514,377.484070 163.062561,378.002289 164.561646,378.002136 
	C211.559464,377.998077 258.557281,377.998810 305.555084,377.998993 
	C306.388367,377.998993 307.224213,378.044678 308.054535,377.995758 
	C311.866821,377.771301 314.485352,379.656982 314.589264,383.293427 
	C314.701965,387.236694 312.032135,389.055511 307.997162,389.043793 
	C288.498260,388.987030 268.999084,389.021851 249.000000,389.024261 
z"/>
<path fill="#CE2A56" opacity="1.000000" stroke="none" 
	d="
M141.480865,139.054962 
	C137.142212,141.533951 133.206528,144.798309 133.115173,150.603271 
	C133.024567,156.360672 136.540787,159.970520 141.697510,162.613464 
	C134.309967,162.886993 126.679306,163.098083 119.055763,162.947784 
	C112.523895,162.818985 107.674332,157.482986 107.680756,150.918808 
	C107.687218,144.312393 112.446037,139.189819 119.127502,139.021622 
	C126.421501,138.838028 133.723679,138.979416 141.480865,139.054962 
z"/>
<path fill="#C7C7F7" opacity="1.000000" stroke="none" 
	d="
M99.007309,237.985016 
	C94.693329,237.979218 90.870888,238.112732 87.063843,237.928375 
	C83.283615,237.745316 79.985596,236.477585 80.091080,231.908691 
	C80.191864,227.543594 83.035683,225.982605 87.096161,225.993927 
	C98.211456,226.024933 109.326889,226.004150 120.442268,226.011612 
	C124.387497,226.014267 127.354439,227.481400 127.813858,231.761398 
	C128.200897,235.367172 125.183105,237.872955 120.408691,237.948425 
	C113.442535,238.058563 106.473434,237.982010 99.007309,237.985016 
z"/>
<path fill="#C7C7F7" opacity="1.000000" stroke="none" 
	d="
M81.888855,198.198608 
	C78.641823,192.512909 80.390503,188.323364 86.256805,188.156937 
	C98.030952,187.822906 109.822113,187.968399 121.604111,188.102890 
	C125.187782,188.143784 127.739044,190.200745 127.776001,193.937485 
	C127.812958,197.674591 125.304718,199.826080 121.720238,199.874420 
	C109.938820,200.033295 98.153496,199.986206 86.371063,199.873520 
	C84.977097,199.860214 83.591698,198.950775 81.888855,198.198608 
z"/>
<path fill="#C7C7F7" opacity="1.000000" stroke="none" 
	d="
M80.419327,272.307587 
	C80.005035,265.923523 81.664940,264.047882 87.578270,264.016785 
	C98.240868,263.960724 108.904137,263.967468 119.566818,264.015625 
	C124.884315,264.039612 127.932747,266.281982 127.860535,269.917419 
	C127.795761,273.178619 124.039650,275.948975 119.451790,275.966827 
	C109.122261,276.007050 98.784500,276.200134 88.468254,275.827759 
	C85.802620,275.731598 83.204163,273.774048 80.419327,272.307587 
z"/>
<path fill="#C7C7F7" opacity="1.000000" stroke="none" 
	d="
M124.688431,302.896545 
	C129.574905,308.036346 128.564484,312.438599 121.925705,313.047638 
	C111.366180,314.016357 100.692078,313.781860 90.064674,313.923981 
	C88.105820,313.950195 85.757217,313.907990 84.273369,312.894562 
	C82.487450,311.674866 80.143280,309.185638 80.385567,307.605560 
	C80.696045,305.580719 83.315117,302.368469 84.987686,302.338257 
	C98.094032,302.101532 111.211937,302.504425 124.688431,302.896545 
z"/>
<path fill="#C7C7F7" opacity="1.000000" stroke="none" 
	d="
M109.992149,339.997559 
	C114.316620,340.003937 118.279663,339.410156 121.918152,340.239746 
	C124.134369,340.745056 126.890244,343.172302 127.433746,345.251251 
	C127.810211,346.691284 124.974899,349.157166 123.273293,350.864319 
	C122.572823,351.567078 121.078232,351.731415 119.950569,351.716187 
	C108.338638,351.559235 96.727364,351.338379 85.117088,351.081696 
	C81.541580,351.002655 80.024406,348.660919 80.134422,345.488770 
	C80.257126,341.950775 82.579941,340.091217 86.037918,340.046021 
	C93.855438,339.943817 101.675087,340.003632 109.992149,339.997559 
z"/>
<path fill="#C6C6F7" opacity="1.000000" stroke="none" 
	d="
M104.999557,389.024353 
	C98.359413,389.021484 92.217079,388.922607 86.079521,389.051697 
	C82.411789,389.128784 80.260872,387.531067 80.145912,383.936035 
	C80.023430,380.105865 82.386452,378.086182 86.059364,378.054565 
	C98.007156,377.951752 109.956398,378.010834 121.905067,378.019623 
	C125.592590,378.022339 127.577469,380.343903 127.737579,383.573120 
	C127.914314,387.137604 125.348518,388.895233 121.928078,388.971100 
	C116.454147,389.092529 110.975838,389.016724 104.999557,389.024353 
z"/>
<path fill="#C6C6F7" opacity="1.000000" stroke="none" 
	d="
M122.396194,426.971741 
	C110.626350,427.004456 99.295227,427.032745 87.964226,427.008362 
	C82.895134,426.997437 79.795349,424.901855 80.119499,421.450256 
	C80.569099,416.662994 84.037956,415.939758 88.084206,415.970215 
	C99.081444,416.053040 110.079880,416.036530 121.077446,415.980774 
	C124.496605,415.963409 127.162804,417.210602 127.773582,420.645264 
	C128.405472,424.198639 126.189613,426.176605 122.396194,426.971741 
z"/>
<path fill="#5F618C" opacity="1.000000" stroke="none" 
	d="
M309.604523,313.671936 
	C309.157715,310.080383 309.036285,306.442993 308.891541,302.395813 
	C309.819244,297.241089 310.770325,292.496063 311.874817,287.391602 
	C320.218781,287.110168 326.280457,290.796265 330.603119,298.101685 
	C323.876068,303.446503 316.902985,308.536316 309.604523,313.671936 
z"/>
</svg>