<svg version="1.1" id="Layer_1" xmlns="http://www.w3.org/2000/svg" xmlns:xlink="http://www.w3.org/1999/xlink" x="0px" y="0px"
	 width="100%" viewBox="0 0 512 512" enable-background="new 0 0 512 512" xml:space="preserve">
<path fill="none" opacity="1.000000" stroke="none"
	d="
M77.000000,1.000000 
	C222.275513,1.000000 367.551025,1.000000 512.913269,1.000000 
	C512.913269,171.666656 512.913269,342.333313 512.913269,513.000000 
	C467.228943,513.000000 421.580505,513.000000 375.131470,512.793152 
	C374.918365,511.742523 375.505829,510.898743 376.437805,510.003296 
	C379.117798,506.645294 381.453308,503.338989 383.997253,499.655762 
	C384.470459,497.184418 384.965912,495.090149 384.966858,492.995667 
	C385.005707,406.164398 385.001282,319.333130 384.993408,232.501862 
	C384.993225,230.671783 384.889496,228.841705 384.995605,226.695618 
	C388.846191,220.672394 392.600708,215.006226 396.209534,209.248764 
	C402.324921,199.492477 408.348328,189.678513 414.551788,179.859177 
	C414.871155,179.706451 414.955017,179.536575 415.226227,179.115112 
	C415.739838,178.268219 415.971985,177.626114 416.496643,176.840515 
	C418.126648,174.760849 419.464081,172.824692 420.887207,170.526413 
	C426.732635,158.030579 430.082001,145.577927 426.305298,131.970078 
	C446.579651,118.270889 466.698456,104.950737 486.402466,91.043015 
	C490.342346,88.262115 493.837128,83.675400 495.563416,79.165787 
	C499.832581,68.013306 492.638519,61.517715 484.041901,62.175743 
	C478.073120,62.632622 472.559784,64.976837 468.074249,69.372948 
	C461.191162,76.118851 454.149994,82.704056 447.134735,89.313728 
	C446.451202,89.957710 445.479309,90.295609 444.641266,90.775589 
	C447.867859,84.926369 451.957672,80.013443 455.612427,74.795753 
	C460.194672,68.253983 466.366974,62.710560 467.297424,53.894600 
	C467.989258,47.339577 466.368774,41.096233 461.900513,38.555237 
	C457.921570,36.292496 449.825256,37.561024 445.872711,41.804363 
	C442.307953,45.631374 439.090027,49.905487 436.395020,54.388725 
	C432.588745,60.720737 429.404663,67.426765 425.954590,73.972908 
	C427.958740,65.477524 430.744476,57.392197 433.344513,49.247597 
	C435.737457,41.751633 436.235779,34.292873 432.003052,27.168043 
	C429.156464,22.376427 423.690063,20.864700 418.674011,23.092798 
	C412.002594,26.056223 408.383026,31.571934 407.107941,38.201572 
	C404.369995,52.436684 402.308105,66.802368 400.002747,81.119949 
	C398.300720,91.690453 396.651245,102.269417 394.566772,112.905922 
	C379.745422,114.601830 369.815460,123.221336 361.946289,134.430008 
	C354.936432,144.414825 348.640076,154.900558 341.620972,165.108368 
	C337.044952,165.686920 339.927338,169.126022 338.560638,171.169647 
	C336.126709,173.890976 333.983337,176.433640 331.915710,178.606552 
	C341.007751,154.531509 350.679413,131.046707 358.760101,107.026665 
	C362.718231,95.261032 363.942902,82.538063 366.003815,70.181503 
	C368.577393,54.751305 367.049377,39.639641 359.791199,25.659189 
	C353.590607,13.715751 343.575592,7.047871 329.699738,6.990822 
	C315.555573,6.932671 304.819244,14.379002 295.255737,23.465689 
	C284.635040,33.556892 276.843658,45.926640 270.053741,58.854259 
	C259.796143,78.384178 252.944107,99.283417 245.471268,119.881271 
	C240.355392,110.229446 235.454422,100.784615 230.788513,91.225052 
	C229.763931,89.125893 229.158295,86.632675 229.080460,84.296921 
	C228.856567,77.577126 229.001465,70.845039 229.001465,64.192436 
	C209.728149,64.192436 191.150848,64.192436 172.299637,63.913464 
	C164.898468,61.344631 157.771194,59.054771 150.241074,56.635487 
	C150.285965,56.819958 150.074722,56.348110 150.069656,55.874054 
	C149.874191,37.625713 142.245010,23.093668 127.717979,12.305485 
	C116.769493,4.174837 104.558846,1.499895 91.348831,5.937785 
	C86.628799,7.523477 80.493629,5.683549 77.000000,1.000000 
z"/>
<path fill="#BB844C" opacity="1.000000" stroke="none" 
	d="
M305.000000,513.000000 
	C228.312439,513.000000 151.624878,513.000000 74.804543,512.764648 
	C66.363167,506.944855 63.205978,499.177368 63.891949,489.236084 
	C64.429832,481.440918 63.997700,473.579010 64.000153,465.746735 
	C64.024834,386.924713 64.050262,308.102692 64.365196,229.404419 
	C70.479454,235.802460 76.304001,242.076767 82.323318,248.518356 
	C83.751083,248.046387 85.295822,247.688049 86.166298,246.722107 
	C91.670227,240.614670 97.024780,234.372635 102.738274,227.819901 
	C109.556068,235.539032 115.879265,242.698196 122.483864,250.175949 
	C129.465515,242.178665 135.976242,234.720825 142.862823,226.832443 
	C149.943237,234.808319 156.608459,242.316498 163.552216,250.138428 
	C170.293350,242.480362 176.606613,235.308350 183.124054,227.904388 
	C185.799927,230.649109 187.988007,232.893494 190.404907,235.352661 
	C194.543457,240.338516 198.453201,245.109589 202.865067,250.493423 
	C209.821213,242.180603 216.049820,234.737198 222.592255,227.341293 
	C226.657303,231.257996 230.408493,235.127182 234.337723,239.204361 
	C235.006485,239.627045 235.497238,239.841751 235.968597,240.032745 
	C235.949234,240.009048 235.918869,240.062210 235.980621,240.400925 
	C238.531189,243.791290 241.020004,246.842926 243.867340,250.334167 
	C245.690308,248.044083 246.879379,246.550308 248.337265,244.860214 
	C253.426514,239.240784 258.246948,233.817673 263.531097,227.872849 
	C268.069305,233.032913 272.291016,237.653625 276.310852,242.443787 
	C283.159576,250.604874 282.975800,250.529846 290.079376,242.792419 
	C294.829315,237.618637 300.015228,232.845108 304.998901,228.364456 
	C304.994507,323.557617 304.997253,418.278809 305.000000,513.000000 
M204.895767,310.514587 
	C189.610657,308.145386 174.323502,308.168549 159.159988,311.210266 
	C144.302246,314.190613 130.095535,318.867035 119.206551,330.222595 
	C109.646645,340.192078 108.998253,352.568481 118.781609,362.271515 
	C124.427452,367.871002 131.514832,372.650970 138.811066,375.833557 
	C160.671844,385.369080 183.720200,386.235992 206.973709,382.360321 
	C221.772400,379.893829 235.855164,375.276642 247.042130,364.631561 
	C258.996368,353.256439 258.940002,339.721680 246.844299,328.529236 
	C243.222702,325.178101 239.098480,321.853729 234.589462,320.085602 
	C225.193481,316.401001 215.387009,313.763153 204.895767,310.514587 
z"/>
<path fill="none" opacity="1.000000" stroke="none"
	d="
M64.075485,229.280670 
	C64.050262,308.102692 64.024834,386.924713 64.000153,465.746735 
	C63.997700,473.579010 64.429832,481.440918 63.891949,489.236084 
	C63.205978,499.177368 66.363167,506.944855 74.335884,512.764648 
	C49.683334,513.000000 25.366673,513.000000 1.049732,513.000000 
	C1.049456,342.333313 1.049456,171.666656 1.049456,1.000000 
	C18.753502,1.000000 36.408092,1.000000 54.643837,1.353126 
	C54.330952,2.396262 53.526546,3.277505 52.528381,3.745394 
	C45.807934,6.895597 40.247372,11.765089 38.369194,18.750576 
	C36.143925,27.026993 32.200546,33.217831 26.602707,39.919765 
	C13.817457,55.226719 14.048742,73.405457 22.697937,90.957870 
	C26.415268,98.501701 32.036381,105.107422 36.892857,112.287636 
	C26.910959,124.989571 25.846632,139.967316 30.078100,155.719879 
	C34.349552,171.621262 44.626595,182.774536 58.738556,190.572754 
	C55.504395,204.327332 57.228191,217.164978 64.075485,229.280670 
z"/>
<path fill="#A87140" opacity="1.000000" stroke="none" 
	d="
M305.437500,513.000000 
	C304.997253,418.278809 304.994507,323.557617 305.293274,228.528854 
	C307.715820,230.205383 309.836853,232.189499 312.059082,234.491943 
	C316.230713,239.747421 320.301178,244.684540 324.766968,250.101151 
	C331.563568,242.463837 337.797577,235.458694 344.804993,227.584473 
	C346.639038,229.816376 347.962311,231.492813 349.355316,233.109207 
	C353.153625,237.516769 357.057892,241.835495 360.771667,246.312592 
	C363.424591,249.510834 365.274506,249.610886 368.077087,246.102798 
	C373.356537,239.494431 379.215820,233.349335 384.834045,227.011627 
	C384.889496,228.841705 384.993225,230.671783 384.993408,232.501862 
	C385.001282,319.333130 385.005707,406.164398 384.966858,492.995667 
	C384.965912,495.090149 384.470459,497.184418 383.679718,499.554138 
	C376.258026,493.592316 369.652405,486.985413 362.355103,481.260162 
	C358.139954,477.953033 356.888947,474.406464 356.898590,469.347290 
	C357.018219,406.538544 356.976868,343.729492 356.976257,280.920502 
	C356.976196,274.423035 356.865662,267.923187 357.009949,261.428986 
	C357.092316,257.720734 355.869049,255.926590 351.859406,255.943512 
	C345.681641,255.969559 345.006317,256.395508 345.003754,262.675873 
	C344.988251,300.661133 344.995514,338.646423 344.995056,376.631683 
	C344.994720,406.786652 344.968597,436.941711 345.028015,467.096558 
	C345.034973,470.625214 344.332062,473.327271 341.220490,475.681793 
	C331.401794,483.111664 321.767670,490.794495 312.237610,498.593842 
	C304.538239,504.894989 305.462585,502.934967 310.402130,509.932617 
	C311.060974,510.865967 311.473450,511.973236 312.000000,513.000000 
	C309.958344,513.000000 307.916656,513.000000 305.437500,513.000000 
z"/>
<path fill="#618400" opacity="1.000000" stroke="none" 
	d="
M64.365196,229.404419 
	C57.228191,217.164978 55.504395,204.327332 58.738556,190.572754 
	C44.626595,182.774536 34.349552,171.621262 30.078100,155.719879 
	C25.846632,139.967316 26.910959,124.989571 36.892857,112.287636 
	C32.036381,105.107422 26.415268,98.501701 22.697937,90.957870 
	C14.048742,73.405457 13.817457,55.226719 26.602707,39.919765 
	C32.200546,33.217831 36.143925,27.026993 38.369194,18.750576 
	C40.247372,11.765089 45.807934,6.895597 52.528381,3.745394 
	C53.526546,3.277505 54.330952,2.396262 55.112495,1.353126 
	C62.020947,1.000000 69.041893,1.000000 76.531418,1.000000 
	C80.493629,5.683549 86.628799,7.523477 91.348831,5.937785 
	C104.558846,1.499895 116.769493,4.174837 127.717979,12.305485 
	C142.245010,23.093668 149.874191,37.625713 150.069656,55.874054 
	C150.074722,56.348110 150.285965,56.819958 150.241074,56.635487 
	C157.771194,59.054771 164.898468,61.344631 171.897629,64.150131 
	C158.160034,64.656242 144.550552,64.646713 130.947540,64.205521 
	C129.691071,57.326347 128.830414,50.752823 126.877991,44.521358 
	C126.399261,42.993416 122.155357,41.511562 119.991615,41.909046 
	C116.690010,42.515553 115.894089,45.588219 116.586876,49.061493 
	C117.614449,54.213196 118.223473,59.448383 118.561478,64.730400 
	C115.536957,64.812767 112.961639,64.812767 109.888626,64.812767 
	C109.888626,71.130165 109.888626,76.585892 109.623039,82.224609 
	C103.332306,87.736610 103.292747,87.755783 99.668350,80.277756 
	C96.984627,74.740585 94.414459,69.148262 91.805855,63.574825 
	C90.099380,59.928829 87.401871,57.725948 83.478600,59.755424 
	C79.707375,61.706249 79.584900,65.113312 81.372681,68.783173 
	C84.431824,75.062805 87.224953,81.475044 90.393600,87.697250 
	C92.445351,91.726196 91.238472,93.279350 87.047256,94.144775 
	C73.264503,96.990700 61.661442,92.579948 53.660030,80.908035 
	C51.369995,77.567490 48.688496,75.721649 44.923626,77.978058 
	C41.028984,80.312233 41.772709,83.745743 43.608513,87.137276 
	C47.752586,94.793159 54.143211,99.900810 62.064178,103.164543 
	C71.933243,107.230972 82.058723,107.682396 92.347786,104.928535 
	C95.185493,104.169022 98.042580,103.347221 99.115471,107.700150 
	C93.750298,118.720535 88.449936,129.401169 82.759758,140.032410 
	C75.108261,138.447617 69.183624,135.118759 65.012192,128.605774 
	C64.034744,127.079643 60.782776,126.327942 58.662083,126.471664 
	C57.385113,126.558220 55.371616,129.013855 55.293503,130.489807 
	C55.172501,132.776108 55.883389,135.504517 57.183098,137.399780 
	C63.145245,146.093994 71.701881,150.671341 82.168976,152.473358 
	C82.307564,164.957016 82.349266,176.981308 82.265808,189.436157 
	C82.187943,192.511139 82.235245,195.155579 82.225044,198.205872 
	C82.222366,199.426483 82.277176,200.241226 82.301071,201.515717 
	C82.222954,217.434006 82.175751,232.892548 82.128548,248.351074 
	C76.304001,242.076767 70.479454,235.802460 64.365196,229.404419 
z"/>
<path fill="#BA834C" opacity="1.000000" stroke="none" 
	d="
M312.375000,513.000000 
	C311.473450,511.973236 311.060974,510.865967 310.402130,509.932617 
	C305.462585,502.934967 304.538239,504.894989 312.237610,498.593842 
	C321.767670,490.794495 331.401794,483.111664 341.220490,475.681793 
	C344.332062,473.327271 345.034973,470.625214 345.028015,467.096558 
	C344.968597,436.941711 344.994720,406.786652 344.995056,376.631683 
	C344.995514,338.646423 344.988251,300.661133 345.003754,262.675873 
	C345.006317,256.395508 345.681641,255.969559 351.859406,255.943512 
	C355.869049,255.926590 357.092316,257.720734 357.009949,261.428986 
	C356.865662,267.923187 356.976196,274.423035 356.976257,280.920502 
	C356.976868,343.729492 357.018219,406.538544 356.898590,469.347290 
	C356.888947,474.406464 358.139954,477.953033 362.355103,481.260162 
	C369.652405,486.985413 376.258026,493.592316 383.471252,499.931061 
	C381.453308,503.338989 379.117798,506.645294 376.152100,509.820435 
	C368.154083,502.771118 360.611542,496.026306 353.497833,488.856049 
	C350.305206,485.638000 347.936127,485.075287 344.337494,488.121429 
	C338.522766,493.043457 332.248108,497.419830 326.393127,502.297241 
	C322.396759,505.626343 318.784180,509.416168 315.000000,513.000000 
	C314.250000,513.000000 313.500000,513.000000 312.375000,513.000000 
z"/>
<path fill="#A87140" opacity="1.000000" stroke="none" 
	d="
M315.468658,513.000000 
	C318.784180,509.416168 322.396759,505.626343 326.393127,502.297241 
	C332.248108,497.419830 338.522766,493.043457 344.337494,488.121429 
	C347.936127,485.075287 350.305206,485.638000 353.497833,488.856049 
	C360.611542,496.026306 368.154083,502.771118 375.807587,509.872131 
	C375.505829,510.898743 374.918365,511.742523 374.665466,512.793152 
	C355.312439,513.000000 335.624878,513.000000 315.468658,513.000000 
z"/>
<path fill="#C49249" opacity="1.000000" stroke="none" 
	d="
M245.770691,120.047012 
	C252.944107,99.283417 259.796143,78.384178 270.053741,58.854259 
	C276.843658,45.926640 284.635040,33.556892 295.255737,23.465689 
	C304.819244,14.379002 315.555573,6.932671 329.699738,6.990822 
	C343.575592,7.047871 353.590607,13.715751 359.791199,25.659189 
	C367.049377,39.639641 368.577393,54.751305 366.003815,70.181503 
	C363.942902,82.538063 362.718231,95.261032 358.760101,107.026665 
	C350.679413,131.046707 341.007751,154.531509 331.956970,178.622437 
	C331.922516,179.008087 331.949738,178.924362 331.638702,179.086685 
	C331.274170,180.167877 331.220673,181.086731 330.989868,182.309082 
	C324.513031,192.837311 318.213440,203.062042 311.730743,212.960724 
	C307.823608,201.444061 302.121887,191.643524 291.847534,184.695129 
	C291.071716,184.311844 290.507904,184.141373 289.979340,183.970627 
	C290.014618,183.970352 290.048492,184.032257 289.941772,183.703232 
	C282.252319,179.879440 274.669617,176.384674 267.258667,172.614380 
	C277.667358,162.628738 288.964386,155.773041 303.959991,157.760101 
	C309.272766,158.464081 309.182373,153.424194 310.025055,150.236633 
	C310.260071,149.347824 307.276947,146.464035 305.756470,146.453430 
	C299.169708,146.407410 292.388885,146.248383 286.028717,147.682678 
	C274.153107,150.360748 265.160736,158.369995 256.068542,165.568787 
	C256.468719,151.936584 255.947937,139.008484 248.414963,127.401093 
	C247.034332,125.273720 246.627197,122.514549 245.770691,120.047012 
M298.533661,81.002861 
	C308.500580,73.347900 318.944550,67.235130 332.356018,69.629860 
	C333.511353,69.836151 335.508026,68.607422 336.219757,67.480560 
	C340.304932,61.012585 339.320038,58.996536 331.788177,57.861469 
	C329.668610,57.542046 327.489807,57.154186 325.378082,57.316647 
	C307.569977,58.686695 293.949585,68.004684 282.123322,80.529533 
	C281.321594,81.378616 280.783691,83.383705 281.224304,84.347939 
	C283.622406,89.595741 288.940216,90.406189 293.040161,86.380463 
	C294.699768,84.750870 296.359070,83.120987 298.533661,81.002861 
M320.273926,103.500427 
	C317.203400,102.340057 314.172607,100.303207 311.055878,100.161949 
	C291.234802,99.263603 276.790131,109.946815 263.679321,123.091850 
	C262.894226,123.878983 262.537323,126.024658 263.034180,127.003853 
	C265.738434,132.333115 270.480865,132.973633 274.658905,128.825912 
	C275.721924,127.770622 276.723511,126.642815 277.861237,125.675148 
	C287.429504,117.536858 297.632141,110.532867 310.994598,112.139046 
	C316.059265,112.747810 318.498596,111.323341 319.396027,106.554306 
	C319.548065,105.746246 319.924683,104.980453 320.273926,103.500427 
z"/>
<path fill="#C35B26" opacity="1.000000" stroke="none" 
	d="
M311.913879,213.286789 
	C318.213440,203.062042 324.513031,192.837311 331.302734,182.069580 
	C331.845154,180.659180 331.897461,179.791779 331.949738,178.924362 
	C331.949738,178.924362 331.922516,179.008087 331.881226,178.992188 
	C333.983337,176.433640 336.126709,173.890976 338.587372,171.583481 
	C339.910950,173.824631 340.560760,177.247452 341.981750,177.604965 
	C350.724121,179.804489 358.317810,183.792725 365.242798,189.531281 
	C369.251099,192.852859 370.864197,187.982483 373.184326,186.178757 
	C375.566101,184.327057 374.601318,182.461792 372.591339,180.897034 
	C369.458038,178.457748 366.629150,175.382080 363.129333,173.711151 
	C356.293854,170.447678 349.083801,167.968872 342.028809,165.165222 
	C348.640076,154.900558 354.936432,144.414825 361.946289,134.430008 
	C369.815460,123.221336 379.745422,114.601830 395.005859,112.953583 
	C399.589783,113.242844 403.322998,113.545753 407.349426,113.990494 
	C408.416046,114.424553 409.189392,114.716774 410.056274,115.336075 
	C416.614258,120.021271 422.467438,124.967468 426.003876,132.142502 
	C430.082001,145.577927 426.732635,158.030579 420.619232,170.355042 
	C411.494141,162.894608 402.047241,156.508484 390.246521,154.541855 
	C387.628540,154.105576 384.832825,153.092392 384.098755,157.224045 
	C383.104309,162.820969 384.304260,164.692184 388.141693,166.219254 
	C394.567535,168.776367 400.778076,171.904236 406.964081,175.020447 
	C409.595795,176.346176 411.937103,178.248505 414.410370,179.888794 
	C408.348328,189.678513 402.324921,199.492477 396.209534,209.248764 
	C392.600708,215.006226 388.846191,220.672394 384.995605,226.695618 
	C379.215820,233.349335 373.356537,239.494431 368.077087,246.102798 
	C365.274506,249.610886 363.424591,249.510834 360.771667,246.312592 
	C357.057892,241.835495 353.153625,237.516769 349.355316,233.109207 
	C347.962311,231.492813 346.639038,229.816376 344.804993,227.584473 
	C337.797577,235.458694 331.563568,242.463837 324.766968,250.101151 
	C320.301178,244.684540 316.230713,239.747421 312.106232,234.056244 
	C312.006104,226.630402 311.959991,219.958588 311.913879,213.286789 
z"/>
<path fill="#C6CCC9" opacity="1.000000" stroke="none" 
	d="
M245.471268,119.881271 
	C246.627197,122.514549 247.034332,125.273720 248.414963,127.401093 
	C255.947937,139.008484 256.468719,151.936584 256.004578,165.955994 
	C255.311691,168.269928 254.618774,169.729706 253.530411,171.154236 
	C251.812943,171.137039 250.490921,171.155106 248.876251,170.978607 
	C242.562546,162.635742 236.541489,154.487442 230.232758,145.949844 
	C227.020584,148.339813 224.045212,150.553604 221.038620,152.790619 
	C225.947205,159.826508 230.505188,166.359894 234.681503,172.976959 
	C221.630478,176.449295 210.371231,182.230835 201.584473,192.246704 
	C201.526993,192.187790 201.391342,192.094452 201.283447,191.632660 
	C201.175537,176.570969 201.175537,161.971069 201.175537,147.371155 
	C200.861038,147.372559 200.546555,147.373978 200.232056,147.375381 
	C200.113510,148.196640 199.994965,149.017899 199.528229,149.939667 
	C168.958572,163.434998 138.757736,176.876724 108.502541,190.194946 
	C99.860046,193.999344 91.059860,197.445526 82.331985,201.055969 
	C82.277176,200.241226 82.222366,199.426483 82.360214,197.860535 
	C82.684868,194.440445 82.816849,191.771561 83.253128,188.916656 
	C121.899078,171.615189 160.264557,154.552475 198.529816,137.267899 
	C201.136749,136.090332 203.627975,133.615936 205.077759,131.110809 
	C209.578796,123.333282 213.559631,115.254242 217.726578,107.283974 
	C220.925018,101.166222 224.099686,95.036034 227.337143,88.810989 
	C226.152954,88.350624 225.697693,88.020836 225.240707,88.018394 
	C214.575562,87.961464 203.910217,87.939949 192.862244,87.702072 
	C190.168961,87.330574 187.858734,87.034050 185.547729,87.027931 
	C160.443893,86.961456 135.339935,86.940514 110.174942,86.504013 
	C110.038788,84.747780 109.963707,83.394699 109.888626,82.041611 
	C109.888626,76.585892 109.888626,71.130165 109.888626,64.812767 
	C112.961639,64.812767 115.536957,64.812767 119.015060,64.813797 
	C123.592255,64.755615 127.266663,64.696411 130.941071,64.637192 
	C144.550552,64.646713 158.160034,64.656242 172.171524,64.429100 
	C191.150848,64.192436 209.728149,64.192436 229.001465,64.192436 
	C229.001465,70.845039 228.856567,77.577126 229.080460,84.296921 
	C229.158295,86.632675 229.763931,89.125893 230.788513,91.225052 
	C235.454422,100.784615 240.355392,110.229446 245.471268,119.881271 
z"/>
<path fill="#566D03" opacity="1.000000" stroke="none" 
	d="
M426.305298,131.970078 
	C422.467438,124.967468 416.614258,120.021271 410.102051,114.958130 
	C411.369720,110.282959 412.685150,106.312790 414.000580,102.342628 
	C413.708313,102.215866 413.416046,102.089104 413.123779,101.962349 
	C411.101257,105.924454 409.078705,109.886559 407.056183,113.848663 
	C403.322998,113.545753 399.589783,113.242844 395.417480,112.892273 
	C396.651245,102.269417 398.300720,91.690453 400.002747,81.119949 
	C402.308105,66.802368 404.369995,52.436684 407.107941,38.201572 
	C408.383026,31.571934 412.002594,26.056223 418.674011,23.092798 
	C423.690063,20.864700 429.156464,22.376427 432.003052,27.168043 
	C436.235779,34.292873 435.737457,41.751633 433.344513,49.247597 
	C430.744476,57.392197 427.958740,65.477524 425.954590,73.972908 
	C429.404663,67.426765 432.588745,60.720737 436.395020,54.388725 
	C439.090027,49.905487 442.307953,45.631374 445.872711,41.804363 
	C449.825256,37.561024 457.921570,36.292496 461.900513,38.555237 
	C466.368774,41.096233 467.989258,47.339577 467.297424,53.894600 
	C466.366974,62.710560 460.194672,68.253983 455.612427,74.795753 
	C451.957672,80.013443 447.867859,84.926369 444.641266,90.775589 
	C445.479309,90.295609 446.451202,89.957710 447.134735,89.313728 
	C454.149994,82.704056 461.191162,76.118851 468.074249,69.372948 
	C472.559784,64.976837 478.073120,62.632622 484.041901,62.175743 
	C492.638519,61.517715 499.832581,68.013306 495.563416,79.165787 
	C493.837128,83.675400 490.342346,88.262115 486.402466,91.043015 
	C466.698456,104.950737 446.579651,118.270889 426.305298,131.970078 
M441.274139,94.126778 
	C441.489197,94.121841 441.711304,94.144592 441.914551,94.093048 
	C441.967133,94.079704 441.960632,93.833504 441.981293,93.694267 
	C441.753906,93.696968 441.526489,93.699661 441.274139,94.126778 
z"/>
<path fill="#BC2C3C" opacity="1.000000" stroke="none" 
	d="
M414.551788,179.859161 
	C411.937103,178.248505 409.595795,176.346176 406.964081,175.020447 
	C400.778076,171.904236 394.567535,168.776367 388.141693,166.219254 
	C384.304260,164.692184 383.104309,162.820969 384.098755,157.224045 
	C384.832825,153.092392 387.628540,154.105576 390.246521,154.541855 
	C402.047241,156.508484 411.494141,162.894608 420.533508,170.717163 
	C419.464081,172.824692 418.126648,174.760849 416.266144,177.088669 
	C415.476990,178.093536 415.210876,178.706726 414.944763,179.319916 
	C414.955017,179.536575 414.871155,179.706451 414.551788,179.859161 
z"/>
<path fill="#BC2C3D" opacity="1.000000" stroke="none" 
	d="
M341.620941,165.108368 
	C349.083801,167.968872 356.293854,170.447678 363.129333,173.711151 
	C366.629150,175.382080 369.458038,178.457748 372.591339,180.897034 
	C374.601318,182.461792 375.566101,184.327057 373.184326,186.178757 
	C370.864197,187.982483 369.251099,192.852859 365.242798,189.531281 
	C358.317810,183.792725 350.724121,179.804489 341.981750,177.604965 
	C340.560760,177.247452 339.910950,173.824631 338.877930,171.404816 
	C339.927338,169.126022 337.044952,165.686920 341.620941,165.108368 
z"/>
<path fill="#C35B26" opacity="1.000000" stroke="none" 
	d="
M415.226227,179.115112 
	C415.210876,178.706726 415.476990,178.093536 415.973602,177.232178 
	C415.971985,177.626114 415.739838,178.268219 415.226227,179.115112 
z"/>
<path fill="#C6CDC8" opacity="1.000000" stroke="none" 
	d="
M205.322479,310.604919 
	C215.387009,313.763153 225.193481,316.401001 234.589462,320.085602 
	C239.098480,321.853729 243.222702,325.178101 246.844299,328.529236 
	C258.940002,339.721680 258.996368,353.256439 247.042130,364.631561 
	C235.855164,375.276642 221.772400,379.893829 206.973709,382.360321 
	C183.720200,386.235992 160.671844,385.369080 138.811066,375.833557 
	C131.514832,372.650970 124.427452,367.871002 118.781609,362.271515 
	C108.998253,352.568481 109.646645,340.192078 119.206551,330.222595 
	C130.095535,318.867035 144.302246,314.190613 159.159988,311.210266 
	C174.323502,308.168549 189.610657,308.145386 205.322479,310.604919 
z"/>
<path fill="#8EB1C3" opacity="1.000000" stroke="none" 
	d="
M82.301071,201.515717 
	C91.059860,197.445526 99.860046,193.999344 108.502541,190.194946 
	C138.757736,176.876724 168.958572,163.434998 199.559448,150.423309 
	C199.957428,165.157043 199.976028,179.507660 199.860474,194.178375 
	C190.394318,206.600037 187.119400,220.125000 190.176086,235.137878 
	C187.988007,232.893494 185.799927,230.649109 183.124054,227.904388 
	C176.606613,235.308350 170.293350,242.480362 163.552216,250.138428 
	C156.608459,242.316498 149.943237,234.808319 142.862823,226.832443 
	C135.976242,234.720825 129.465515,242.178665 122.483864,250.175949 
	C115.879265,242.698196 109.556068,235.539032 102.738274,227.819901 
	C97.024780,234.372635 91.670227,240.614670 86.166298,246.722107 
	C85.295822,247.688049 83.751083,248.046387 82.323318,248.518356 
	C82.175751,232.892548 82.222954,217.434006 82.301071,201.515717 
z"/>
<path fill="#DA3744" opacity="1.000000" stroke="none" 
	d="
M311.730743,212.960724 
	C311.959991,219.958588 312.006104,226.630402 312.005066,233.737915 
	C309.836853,232.189499 307.715820,230.205383 305.300415,228.056870 
	C300.015228,232.845108 294.829315,237.618637 290.079376,242.792419 
	C282.975800,250.529846 283.159576,250.604874 276.310852,242.443787 
	C272.291016,237.653625 268.069305,233.032913 263.531097,227.872849 
	C258.246948,233.817673 253.426514,239.240784 247.983383,244.763184 
	C243.546753,243.262375 239.732803,241.662292 235.918869,240.062210 
	C235.918869,240.062210 235.949234,240.009048 235.766479,239.856842 
	C235.109055,239.468552 234.634369,239.232468 234.159698,238.996384 
	C230.408493,235.127182 226.657303,231.257996 222.289459,227.124359 
	C212.412430,217.505005 208.916931,205.990753 209.462723,193.043579 
	C212.045273,192.781097 214.233978,192.773270 216.349762,192.376556 
	C220.383545,191.620224 222.112473,192.958984 222.177719,197.236191 
	C222.236389,201.081970 223.091507,204.915588 223.733688,209.809006 
	C229.667007,204.522461 234.690704,200.046402 240.326385,195.025055 
	C243.973083,203.243820 247.280228,210.697327 251.125198,219.362976 
	C255.488800,210.576996 259.194275,203.116165 263.079193,195.293976 
	C270.578918,200.556046 277.285736,205.261795 284.629608,210.414536 
	C285.484375,202.184128 286.276672,195.096909 286.923431,187.996429 
	C287.117065,185.870483 287.179810,183.922363 290.048492,184.032257 
	C290.048492,184.032257 290.014618,183.970352 290.141602,184.233734 
	C290.865540,184.634064 291.462555,184.771011 292.059540,184.907944 
	C302.121887,191.643524 307.823608,201.444061 311.730743,212.960724 
z"/>
<path fill="#BC2C3E" opacity="1.000000" stroke="none" 
	d="
M209.035950,193.122635 
	C208.916931,205.990753 212.412430,217.505005 221.975632,227.076843 
	C216.049820,234.737198 209.821213,242.180603 202.865067,250.493423 
	C198.453201,245.109589 194.543457,240.338516 190.404907,235.352661 
	C187.119400,220.125000 190.394318,206.600037 200.094452,194.018417 
	C200.772186,193.057053 201.081757,192.575745 201.391327,192.094452 
	C201.391342,192.094452 201.526993,192.187790 201.940125,192.467651 
	C204.580826,192.872559 206.808380,192.997604 209.035950,193.122635 
z"/>
<path fill="#BD303E" opacity="1.000000" stroke="none" 
	d="
M235.980621,240.400925 
	C239.732803,241.662292 243.546753,243.262375 247.714569,244.959503 
	C246.879379,246.550308 245.690308,248.044083 243.867340,250.334167 
	C241.020004,246.842926 238.531189,243.791290 235.980621,240.400925 
z"/>
<path fill="#BD303E" opacity="1.000000" stroke="none" 
	d="
M234.337723,239.204361 
	C234.634369,239.232468 235.109055,239.468552 235.785858,239.880539 
	C235.497238,239.841751 235.006485,239.627045 234.337723,239.204361 
z"/>
<path fill="#8EB1C4" opacity="1.000000" stroke="none" 
	d="
M193.244919,87.911911 
	C203.910217,87.939949 214.575562,87.961464 225.240707,88.018394 
	C225.697693,88.020836 226.152954,88.350624 227.337143,88.810989 
	C224.099686,95.036034 220.925018,101.166222 217.726578,107.283974 
	C213.559631,115.254242 209.578796,123.333282 205.077759,131.110809 
	C203.627975,133.615936 201.136749,136.090332 198.529816,137.267899 
	C160.264557,154.552475 121.899078,171.615189 83.114944,188.886932 
	C82.672462,189.043228 82.390976,189.005615 82.390976,189.005615 
	C82.349266,176.981308 82.307564,164.957016 82.269089,152.064209 
	C82.564735,147.491074 82.857155,143.786423 83.149574,140.081787 
	C88.449936,129.401169 93.750298,118.720535 99.380219,107.475021 
	C103.174965,100.597290 106.640144,94.284447 110.566254,87.980957 
	C138.433090,87.964188 165.839005,87.938049 193.244919,87.911911 
z"/>
<path fill="#506702" opacity="1.000000" stroke="none" 
	d="
M110.105331,87.971596 
	C106.640144,94.284447 103.174965,100.597290 99.445030,107.135269 
	C98.042580,103.347221 95.185493,104.169022 92.347786,104.928535 
	C82.058723,107.682396 71.933243,107.230972 62.064178,103.164543 
	C54.143211,99.900810 47.752586,94.793159 43.608513,87.137276 
	C41.772709,83.745743 41.028984,80.312233 44.923626,77.978058 
	C48.688496,75.721649 51.369995,77.567490 53.660030,80.908035 
	C61.661442,92.579948 73.264503,96.990700 87.047256,94.144775 
	C91.238472,93.279350 92.445351,91.726196 90.393600,87.697250 
	C87.224953,81.475044 84.431824,75.062805 81.372681,68.783173 
	C79.584900,65.113312 79.707375,61.706249 83.478600,59.755424 
	C87.401871,57.725948 90.099380,59.928829 91.805855,63.574825 
	C94.414459,69.148262 96.984627,74.740585 99.668350,80.277756 
	C103.292747,87.755783 103.332306,87.736610 109.623032,82.224609 
	C109.963707,83.394699 110.038788,84.747780 110.108841,86.766037 
	C110.104317,87.611336 110.104820,87.791466 110.105331,87.971596 
z"/>
<path fill="#516703" opacity="1.000000" stroke="none" 
	d="
M82.759758,140.032410 
	C82.857155,143.786423 82.564735,147.491074 82.172195,151.604858 
	C71.701881,150.671341 63.145245,146.093994 57.183098,137.399780 
	C55.883389,135.504517 55.172501,132.776108 55.293503,130.489807 
	C55.371616,129.013855 57.385113,126.558220 58.662083,126.471664 
	C60.782776,126.327942 64.034744,127.079643 65.012192,128.605774 
	C69.183624,135.118759 75.108261,138.447617 82.759758,140.032410 
z"/>
<path fill="#506702" opacity="1.000000" stroke="none" 
	d="
M130.947540,64.205521 
	C127.266663,64.696411 123.592255,64.755615 119.464256,64.731430 
	C118.223473,59.448383 117.614449,54.213196 116.586876,49.061493 
	C115.894089,45.588219 116.690010,42.515553 119.991615,41.909046 
	C122.155357,41.511562 126.399261,42.993416 126.877991,44.521358 
	C128.830414,50.752823 129.691071,57.326347 130.947540,64.205521 
z"/>
<path fill="#8EB1C3" opacity="1.000000" stroke="none" 
	d="
M82.265808,189.436157 
	C82.390976,189.005615 82.672462,189.043228 82.810646,189.072937 
	C82.816849,191.771561 82.684868,194.440445 82.417709,197.454681 
	C82.235245,195.155579 82.187943,192.511139 82.265808,189.436157 
z"/>
<path fill="#596C05" opacity="1.000000" stroke="none" 
	d="
M209.462723,193.043579 
	C206.808380,192.997604 204.580826,192.872559 201.997620,192.526581 
	C210.371231,182.230835 221.630478,176.449295 234.953644,173.173431 
	C239.761780,178.840454 243.916107,184.394669 248.356796,190.331741 
	C251.550690,187.972733 254.402832,185.866119 257.417206,183.639694 
	C254.443802,179.145676 251.806351,175.159439 249.168900,171.173187 
	C250.490921,171.155106 251.812943,171.137039 253.902954,171.308929 
	C258.809570,171.962570 262.948242,172.426239 267.086884,172.889893 
	C274.669617,176.384674 282.252319,179.879440 289.941772,183.703232 
	C287.179810,183.922363 287.117065,185.870483 286.923431,187.996429 
	C286.276672,195.096909 285.484375,202.184128 284.629608,210.414536 
	C277.285736,205.261795 270.578918,200.556046 263.079193,195.293976 
	C259.194275,203.116165 255.488800,210.576996 251.125198,219.362976 
	C247.280228,210.697327 243.973083,203.243820 240.326385,195.025055 
	C234.690704,200.046402 229.667007,204.522461 223.733688,209.809006 
	C223.091507,204.915588 222.236389,201.081970 222.177719,197.236191 
	C222.112473,192.958984 220.383545,191.620224 216.349762,192.376556 
	C214.233978,192.773270 212.045273,192.781097 209.462723,193.043579 
z"/>
<path fill="#A97240" opacity="1.000000" stroke="none" 
	d="
M298.276093,81.247040 
	C296.359070,83.120987 294.699768,84.750870 293.040161,86.380463 
	C288.940216,90.406189 283.622406,89.595741 281.224304,84.347939 
	C280.783691,83.383705 281.321594,81.378616 282.123322,80.529533 
	C293.949585,68.004684 307.569977,58.686695 325.378082,57.316647 
	C327.489807,57.154186 329.668610,57.542046 331.788177,57.861469 
	C339.320038,58.996536 340.304932,61.012585 336.219757,67.480560 
	C335.508026,68.607422 333.511353,69.836151 332.356018,69.629860 
	C318.944550,67.235130 308.500580,73.347900 298.276093,81.247040 
z"/>
<path fill="#A97240" opacity="1.000000" stroke="none" 
	d="
M320.235779,103.847778 
	C319.924683,104.980453 319.548065,105.746246 319.396027,106.554306 
	C318.498596,111.323341 316.059265,112.747810 310.994598,112.139046 
	C297.632141,110.532867 287.429504,117.536858 277.861237,125.675148 
	C276.723511,126.642815 275.721924,127.770622 274.658905,128.825912 
	C270.480865,132.973633 265.738434,132.333115 263.034180,127.003853 
	C262.537323,126.024658 262.894226,123.878983 263.679321,123.091850 
	C276.790131,109.946815 291.234802,99.263603 311.055878,100.161949 
	C314.172607,100.303207 317.203400,102.340057 320.235779,103.847778 
z"/>
<path fill="#A87140" opacity="1.000000" stroke="none" 
	d="
M267.258667,172.614380 
	C262.948242,172.426239 258.809570,171.962570 254.298401,171.344193 
	C254.618774,169.729706 255.311691,168.269928 256.068542,166.422943 
	C265.160736,158.369995 274.153107,150.360748 286.028717,147.682678 
	C292.388885,146.248383 299.169708,146.407410 305.756470,146.453430 
	C307.276947,146.464035 310.260071,149.347824 310.025055,150.236633 
	C309.182373,153.424194 309.272766,158.464081 303.959991,157.760101 
	C288.964386,155.773041 277.667358,162.628738 267.258667,172.614380 
z"/>
<path fill="#000000" opacity="1.000000" stroke="none" 
	d="
M331.638702,179.086685 
	C331.897461,179.791779 331.845154,180.659180 331.480011,181.766098 
	C331.220673,181.086731 331.274170,180.167877 331.638702,179.086685 
z"/>
<path fill="#596C05" opacity="1.000000" stroke="none" 
	d="
M291.847534,184.695129 
	C291.462555,184.771011 290.865540,184.634064 290.106323,184.234009 
	C290.507904,184.141373 291.071716,184.311844 291.847534,184.695129 
z"/>
<path fill="#000000" opacity="1.000000" stroke="none" 
	d="
M407.349426,113.990494 
	C409.078705,109.886559 411.101257,105.924454 413.123779,101.962349 
	C413.416046,102.089104 413.708313,102.215866 414.000580,102.342628 
	C412.685150,106.312790 411.369720,110.282959 410.008545,114.631065 
	C409.189392,114.716774 408.416046,114.424553 407.349426,113.990494 
z"/>
<path fill="#D93945" opacity="1.000000" stroke="none" 
	d="
M248.876251,170.978607 
	C251.806351,175.159439 254.443802,179.145676 257.417206,183.639694 
	C254.402832,185.866119 251.550690,187.972733 248.356796,190.331741 
	C243.916107,184.394669 239.761780,178.840454 235.335327,173.089752 
	C230.505188,166.359894 225.947205,159.826508 221.038620,152.790619 
	C224.045212,150.553604 227.020584,148.339813 230.232758,145.949844 
	C236.541489,154.487442 242.562546,162.635742 248.876251,170.978607 
z"/>
<path fill="#9AB094" opacity="1.000000" stroke="none" 
	d="
M110.566254,87.980957 
	C110.104820,87.791466 110.104317,87.611336 110.169907,87.169174 
	C135.339935,86.940514 160.443893,86.961456 185.547729,87.027931 
	C187.858734,87.034050 190.168961,87.330574 192.862244,87.702072 
	C165.839005,87.938049 138.433090,87.964188 110.566254,87.980957 
z"/>
<path fill="#9AB198" opacity="1.000000" stroke="none" 
	d="
M201.283432,191.632660 
	C201.081757,192.575745 200.772186,193.057053 200.228638,193.698303 
	C199.976028,179.507660 199.957428,165.157043 199.907623,150.322800 
	C199.994965,149.017899 200.113510,148.196640 200.232056,147.375381 
	C200.546555,147.373978 200.861038,147.372559 201.175537,147.371155 
	C201.175537,161.971069 201.175537,176.570969 201.283432,191.632660 
z"/>
<path fill="#000000" opacity="1.000000" stroke="none" 
	d="
M441.286621,93.914566 
	C441.526489,93.699661 441.753906,93.696968 441.981293,93.694267 
	C441.960632,93.833504 441.967133,94.079704 441.914551,94.093048 
	C441.711304,94.144592 441.489197,94.121841 441.286621,93.914566 
z"/>
</svg>