<svg version="1.1" id="Layer_1" xmlns="http://www.w3.org/2000/svg" xmlns:xlink="http://www.w3.org/1999/xlink" x="0px" y="0px"
	 width="100%" viewBox="0 0 512 512" enable-background="new 0 0 512 512" xml:space="preserve">
<path fill="none" opacity="1.000000" stroke="none"
	d="
M1.000000,402.000000 
	C1.000000,268.409180 1.000000,134.818375 1.000000,1.000000 
	C124.020798,1.000000 247.041748,1.000000 370.422241,1.333735 
	C369.838562,2.294902 368.886078,2.908935 367.953644,3.551996 
	C362.615387,7.233590 359.920044,14.896442 362.253571,21.391808 
	C364.001862,26.258141 369.241974,31.658825 376.517181,31.118935 
	C383.826111,30.576544 391.206696,30.999662 398.555908,30.999662 
	C398.886719,31.575037 399.217529,32.150414 399.548340,32.725788 
	C389.354004,42.448372 379.159698,52.170956 368.717896,61.982250 
	C368.371735,62.374657 368.273071,62.678349 368.033173,63.294361 
	C334.271393,97.234612 300.655273,130.867004 267.023224,164.483444 
	C263.740448,167.764725 260.359283,170.947632 256.713074,174.029938 
	C240.243820,158.061661 224.067307,142.257889 207.935455,126.408653 
	C201.415024,120.002464 192.563492,119.931885 186.126404,126.368706 
	C146.648605,165.844879 107.226402,205.376984 67.617607,244.721268 
	C63.521290,248.790222 61.655682,252.864975 61.849079,258.664307 
	C62.066906,265.196198 66.127777,268.472687 70.845520,271.190399 
	C75.032463,273.602356 83.318840,272.081848 86.526527,268.950439 
	C101.635498,254.200745 116.814079,239.520981 131.805374,224.652481 
	C152.275513,204.350021 172.596390,183.897095 192.989822,163.517227 
	C194.253067,162.254822 195.591064,161.067215 196.926926,159.814194 
	C213.484344,175.906784 229.860870,191.705200 246.067169,207.676376 
	C249.246658,210.809738 252.461197,212.815842 257.427490,211.904022 
	C261.795685,212.540298 264.678436,210.881470 267.452148,208.100784 
	C312.960175,162.479187 358.542816,116.931976 404.107971,71.367348 
	C404.931763,70.543564 405.746429,69.710648 406.566376,68.882980 
	C411.446777,63.956562 416.327484,59.030441 422.000549,53.304348 
	C422.000549,62.135635 421.989838,69.593529 422.003387,77.051369 
	C422.019287,85.818550 427.467804,90.993767 436.660400,90.999214 
	C446.385620,91.004974 451.987213,85.998390 451.994476,77.231056 
	C452.010437,57.916122 451.650726,38.591858 452.165131,19.290607 
	C452.383453,11.098664 450.152222,5.051770 443.000000,1.000000 
	C466.296295,1.000000 489.592621,1.000000 513.000000,1.000000 
	C513.000000,69.354187 513.000000,137.708435 512.670898,206.413513 
	C509.927216,202.056519 506.656738,198.096222 500.967743,198.066559 
	C479.980499,197.957138 458.991852,198.111450 437.539429,198.096710 
	C416.749908,198.017899 396.424744,197.992462 376.099548,198.009338 
	C369.400085,198.014908 363.053009,203.706543 363.038910,210.043167 
	C362.992249,231.031052 363.111023,252.019302 363.095703,273.471008 
	C363.072144,293.620178 363.119232,313.305786 363.096558,333.455933 
	C363.073334,353.616577 363.119843,373.312622 363.095673,393.471985 
	C363.072083,413.621033 363.119202,433.306793 363.096558,453.456970 
	C363.017822,467.530731 363.429291,481.158173 362.842926,494.742523 
	C362.489136,502.937866 364.833862,508.970886 372.000000,513.000000 
	C355.979095,513.000000 339.958221,513.000000 323.586487,512.670898 
	C327.943573,509.927246 331.884857,506.657684 331.932739,500.967438 
	C332.067169,484.978790 331.888580,468.987549 331.903992,452.533447 
	C331.927521,432.380768 331.880493,412.691986 331.903564,392.539001 
	C331.982239,376.582764 332.029053,361.090607 331.980774,345.598724 
	C331.961029,339.263153 326.130768,333.051941 319.960938,333.039032 
	C298.975403,332.995178 277.989502,333.111420 256.539429,333.096680 
	C235.750656,333.017883 215.426193,332.992554 195.101776,333.009338 
	C188.403030,333.014862 182.064499,338.705658 182.039566,345.040283 
	C181.976685,361.029327 182.111038,377.019165 182.095657,393.471985 
	C182.072098,413.621033 182.119217,433.306793 182.096558,453.456970 
	C182.017853,467.530731 182.429321,481.158142 181.842880,494.742493 
	C181.489105,502.937897 183.833862,508.970886 191.000000,513.000000 
	C174.979111,513.000000 158.958206,513.000000 142.586472,512.670898 
	C146.943527,509.927216 150.884827,506.657684 150.932678,500.967407 
	C151.067123,484.978790 150.888550,468.987549 150.903976,452.533447 
	C150.983017,437.602844 150.503387,423.113312 151.178314,408.677765 
	C151.600723,399.643585 143.307297,393.157745 136.347198,393.090210 
	C116.232773,392.895111 96.114372,393.111664 75.533829,393.095795 
	C56.462177,393.016663 37.844021,393.366211 19.250992,392.835388 
	C11.063885,392.601685 5.027274,394.834106 1.000000,402.000000 
z"/>
<path fill="#CC2E43" opacity="1.000000" stroke="none" 
	d="
M257.023773,174.176178 
	C260.359283,170.947632 263.740448,167.764725 267.023224,164.483444 
	C300.655273,130.867004 334.271393,97.234612 368.225677,63.162533 
	C368.789917,62.490284 368.925232,62.215321 368.965332,61.893517 
	C379.159698,52.170956 389.354004,42.448372 399.548340,32.725788 
	C399.217529,32.150414 398.886719,31.575037 398.555908,30.999662 
	C391.206696,30.999662 383.826111,30.576544 376.517181,31.118935 
	C369.241974,31.658825 364.001862,26.258141 362.253571,21.391808 
	C359.920044,14.896442 362.615387,7.233590 367.953644,3.551996 
	C368.886078,2.908935 369.838562,2.294902 370.890869,1.333735 
	C394.687561,1.000000 418.375122,1.000000 442.531342,1.000000 
	C450.152222,5.051770 452.383453,11.098664 452.165131,19.290607 
	C451.650726,38.591858 452.010437,57.916122 451.994476,77.231056 
	C451.987213,85.998390 446.385620,91.004974 436.660400,90.999214 
	C427.467804,90.993767 422.019287,85.818550 422.003387,77.051369 
	C421.989838,69.593529 422.000549,62.135635 422.000549,53.304348 
	C416.327484,59.030441 411.446777,63.956562 406.566376,68.882980 
	C405.746429,69.710648 404.931763,70.543564 404.107971,71.367348 
	C358.542816,116.931976 312.960175,162.479187 267.452148,208.100784 
	C264.678436,210.881470 261.795685,212.540298 257.422852,211.446411 
	C257.011597,198.670944 257.017700,186.423553 257.023773,174.176178 
z"/>
<path fill="#FDBF00" opacity="1.000000" stroke="none" 
	d="
M438.003754,198.166595 
	C458.991852,198.111450 479.980499,197.957138 500.967743,198.066559 
	C506.656738,198.096222 509.927216,202.056519 512.670898,206.882172 
	C513.000000,228.687561 513.000000,250.375122 512.531372,272.531342 
	C487.370453,272.992828 462.678192,272.985626 437.991089,272.512024 
	C437.998688,247.419281 438.001221,222.792938 438.003754,198.166595 
z"/>
<path fill="#FF7816" opacity="1.000000" stroke="none" 
	d="
M437.985962,272.978424 
	C462.678192,272.985626 487.370453,272.992828 512.531372,273.000000 
	C513.000000,292.687561 513.000000,312.375122 512.531372,332.531342 
	C487.381073,332.967072 462.699432,332.934143 438.011230,332.443237 
	C438.014160,312.337036 438.023712,292.688843 438.025269,273.022247 
	C438.017273,273.003876 437.985962,272.978424 437.985962,272.978424 
z"/>
<path fill="#FF7816" opacity="1.000000" stroke="none" 
	d="
M513.000000,393.000000 
	C513.000000,412.687561 513.000000,432.375122 512.531372,452.531342 
	C487.370575,453.007050 462.678497,453.014130 438.002380,453.009003 
	C438.018372,452.996796 438.033264,452.959381 438.021118,452.494720 
	C438.011841,432.386475 438.014709,412.742889 438.484009,393.066162 
	C463.633636,393.022034 488.316833,393.011017 513.000000,393.000000 
z"/>
<path fill="#FDBF00" opacity="1.000000" stroke="none" 
	d="
M513.000000,392.531342 
	C488.316833,393.011017 463.633636,393.022034 438.478088,393.017609 
	C438.005737,393.002167 437.989410,392.907623 437.993286,392.448364 
	C437.994568,372.356873 437.991974,352.724640 437.997711,333.044769 
	C438.006012,332.997162 438.017822,332.901215 438.017822,332.901215 
	C462.699432,332.934143 487.381073,332.967072 512.531372,333.000000 
	C513.000000,352.687561 513.000000,372.375122 513.000000,392.531342 
z"/>
<path fill="#FDBF00" opacity="1.000000" stroke="none" 
	d="
M150.833435,452.997345 
	C150.888550,468.987549 151.067123,484.978790 150.932678,500.967407 
	C150.884827,506.657684 146.943527,509.927216 142.117813,512.670898 
	C120.312439,513.000000 98.624878,513.000000 76.468658,512.531372 
	C75.996498,492.405914 75.992989,472.749176 75.998260,453.047241 
	C76.007042,453.002106 76.018883,452.910919 76.484764,452.944519 
	C101.578239,452.984558 126.205841,452.990936 150.833435,452.997345 
z"/>
<path fill="#FF9F00" opacity="1.000000" stroke="none" 
	d="
M1.000000,402.468658 
	C5.027274,394.834106 11.063885,392.601685 19.250992,392.835388 
	C37.844021,393.366211 56.462177,393.016663 75.534607,393.553406 
	C76.005684,413.691498 76.012283,433.301208 76.018883,452.910919 
	C76.018883,452.910919 76.007042,453.002106 75.531601,453.012451 
	C50.370773,453.015228 25.685387,453.007599 1.000000,453.000000 
	C1.000000,436.312439 1.000000,419.624878 1.000000,402.468658 
z"/>
<path fill="#FFD400" opacity="1.000000" stroke="none" 
	d="
M191.468658,513.000000 
	C183.833862,508.970886 181.489105,502.937897 181.842880,494.742493 
	C182.429321,481.158142 182.017853,467.530731 182.554138,453.459290 
	C207.732086,452.984558 232.382675,452.971985 257.025269,452.977722 
	C257.017273,452.996063 256.985992,453.021423 256.990479,453.488708 
	C256.996674,473.637329 256.998322,493.318665 257.000000,513.000000 
	C235.312439,513.000000 213.624878,513.000000 191.468658,513.000000 
z"/>
<path fill="#FDBF00" opacity="1.000000" stroke="none" 
	d="
M257.468658,513.000000 
	C256.998322,493.318665 256.996674,473.637329 257.460571,453.480835 
	C282.561890,453.002869 307.197693,453.000092 331.833466,452.997314 
	C331.888580,468.987549 332.067169,484.978790 331.932739,500.967438 
	C331.884857,506.657684 327.943573,509.927246 323.117798,512.670898 
	C301.312439,513.000000 279.624878,513.000000 257.468658,513.000000 
z"/>
<path fill="#FFD400" opacity="1.000000" stroke="none" 
	d="
M372.468658,513.000000 
	C364.833862,508.970886 362.489136,502.937866 362.842926,494.742523 
	C363.429291,481.158173 363.017822,467.530731 363.554138,453.459290 
	C388.732086,452.984558 413.382660,452.971954 438.033264,452.959381 
	C438.033264,452.959381 438.018372,452.996796 438.007324,453.475433 
	C437.997528,473.636047 437.998749,493.318024 438.000000,513.000000 
	C416.312439,513.000000 394.624878,513.000000 372.468658,513.000000 
z"/>
<path fill="#FDBF00" opacity="1.000000" stroke="none" 
	d="
M438.468658,513.000000 
	C437.998749,493.318024 437.997528,473.636047 437.991333,453.487640 
	C462.678497,453.014130 487.370575,453.007050 512.531372,453.000000 
	C513.000000,469.687561 513.000000,486.375122 512.671387,503.648712 
	C509.561798,507.156494 506.780914,510.078247 504.000000,513.000000 
	C482.312439,513.000000 460.624878,513.000000 438.468658,513.000000 
z"/>
<path fill="#FFD400" opacity="1.000000" stroke="none" 
	d="
M1.000000,453.468658 
	C25.685387,453.007599 50.370773,453.015228 75.522820,453.057617 
	C75.992989,472.749176 75.996498,492.405914 76.000000,512.531372 
	C54.312439,513.000000 32.624878,513.000000 10.349537,512.672363 
	C6.841174,509.563110 3.920590,506.781555 1.000003,504.000000 
	C1.000000,487.312439 1.000000,470.624878 1.000000,453.468658 
z"/>
<path fill="none" opacity="1.000000" stroke="none"
	d="
M1.000003,504.491058 
	C3.920590,506.781555 6.841174,509.563110 9.880878,512.672363 
	C7.082648,513.000000 4.165297,513.000000 1.000000,513.000000 
	C1.000000,510.330017 1.000000,507.656067 1.000003,504.491058 
z"/>
<path fill="none" opacity="1.000000" stroke="none"
	d="
M504.491058,513.000000 
	C506.780914,510.078247 509.561798,507.156494 512.671387,504.117371 
	C513.000000,506.917358 513.000000,509.834717 513.000000,513.000000 
	C510.329987,513.000000 507.656067,513.000000 504.491058,513.000000 
z"/>
<path fill="#E63950" opacity="1.000000" stroke="none" 
	d="
M256.713074,174.029938 
	C257.017700,186.423553 257.011597,198.670944 257.010132,211.375946 
	C252.461197,212.815842 249.246658,210.809738 246.067169,207.676376 
	C229.860870,191.705200 213.484344,175.906784 196.926926,159.814194 
	C195.591064,161.067215 194.253067,162.254822 192.989822,163.517227 
	C172.596390,183.897095 152.275513,204.350021 131.805374,224.652481 
	C116.814079,239.520981 101.635498,254.200745 86.526527,268.950439 
	C83.318840,272.081848 75.032463,273.602356 70.845520,271.190399 
	C66.127777,268.472687 62.066906,265.196198 61.849079,258.664307 
	C61.655682,252.864975 63.521290,248.790222 67.617607,244.721268 
	C107.226402,205.376984 146.648605,165.844879 186.126404,126.368706 
	C192.563492,119.931885 201.415024,120.002464 207.935455,126.408653 
	C224.067307,142.257889 240.243820,158.061661 256.713074,174.029938 
z"/>
<path fill="#FFD400" opacity="1.000000" stroke="none" 
	d="
M437.539429,198.096710 
	C438.001221,222.792938 437.998688,247.419281 437.991089,272.512024 
	C437.985962,272.978424 438.017273,273.003876 437.553345,273.007385 
	C412.448364,273.009766 387.807343,273.008575 363.166321,273.007416 
	C363.111023,252.019302 362.992249,231.031052 363.038910,210.043167 
	C363.053009,203.706543 369.400085,198.014908 376.099548,198.009338 
	C396.424744,197.992462 416.749908,198.017899 437.539429,198.096710 
z"/>
<path fill="#FF9F00" opacity="1.000000" stroke="none" 
	d="
M363.095703,273.471008 
	C387.807343,273.008575 412.448364,273.009766 437.561340,273.025757 
	C438.023712,292.688843 438.014160,312.337036 438.011230,332.443237 
	C438.017822,332.901215 438.006012,332.997162 437.531067,333.010010 
	C412.426178,333.012329 387.796265,333.001862 363.166321,332.991394 
	C363.119232,313.305786 363.072144,293.620178 363.095703,273.471008 
z"/>
<path fill="#FF9F00" opacity="1.000000" stroke="none" 
	d="
M438.021118,452.494720 
	C413.382660,452.971954 388.732086,452.984558 363.623901,452.994843 
	C363.119202,433.306793 363.072083,413.621033 363.553223,393.469299 
	C388.717468,392.971375 413.353424,392.939484 437.989410,392.907593 
	C437.989410,392.907623 438.005737,393.002167 438.011658,393.050720 
	C438.014709,412.742889 438.011841,432.386475 438.021118,452.494720 
z"/>
<path fill="#FFD400" opacity="1.000000" stroke="none" 
	d="
M437.993286,392.448364 
	C413.353424,392.939484 388.717468,392.971375 363.623901,393.005981 
	C363.119843,373.312622 363.073334,353.616577 363.096558,333.455963 
	C387.796265,333.001862 412.426178,333.012329 437.522766,333.057617 
	C437.991974,352.724640 437.994568,372.356873 437.993286,392.448364 
z"/>
<path fill="#FF7816" opacity="1.000000" stroke="none" 
	d="
M331.903992,452.533447 
	C307.197693,453.000092 282.561890,453.002869 257.456055,453.013550 
	C256.985992,453.021423 257.017273,452.996063 257.013031,452.513397 
	C257.011536,432.386932 257.014252,412.743134 257.482849,393.061890 
	C282.576996,393.017334 307.205200,393.010254 331.833435,393.003174 
	C331.880493,412.691986 331.927521,432.380768 331.903992,452.533447 
z"/>
<path fill="#FF9F00" opacity="1.000000" stroke="none" 
	d="
M257.016968,393.099335 
	C257.014252,412.743134 257.011536,432.386932 257.021027,452.495056 
	C232.382675,452.971985 207.732086,452.984558 182.623932,452.994843 
	C182.119217,433.306793 182.072098,413.621033 182.553223,393.469299 
	C207.717453,392.971375 232.353439,392.939484 256.997620,392.955322 
	C257.005859,393.003082 257.016968,393.099335 257.016968,393.099335 
z"/>
<path fill="#FDBF00" opacity="1.000000" stroke="none" 
	d="
M331.903564,392.539001 
	C307.205200,393.010254 282.576996,393.017334 257.482849,393.061890 
	C257.016968,393.099335 257.005859,393.003082 257.001556,392.497070 
	C256.999420,372.382874 257.001587,352.774719 257.003754,333.166565 
	C277.989502,333.111420 298.975403,332.995178 319.960938,333.039032 
	C326.130768,333.051941 331.961029,339.263153 331.980774,345.598724 
	C332.029053,361.090607 331.982239,376.582764 331.903564,392.539001 
z"/>
<path fill="#FFD400" opacity="1.000000" stroke="none" 
	d="
M256.539429,333.096680 
	C257.001587,352.774719 256.999420,372.382874 256.993347,392.449280 
	C232.353439,392.939484 207.717453,392.971375 182.623917,393.005981 
	C182.111038,377.019165 181.976685,361.029327 182.039566,345.040283 
	C182.064499,338.705658 188.403030,333.014862 195.101776,333.009338 
	C215.426193,332.992554 235.750656,333.017883 256.539429,333.096680 
z"/>
<path fill="#FF7816" opacity="1.000000" stroke="none" 
	d="
M76.484764,452.944519 
	C76.012283,433.301208 76.005684,413.691498 75.998306,393.624207 
	C96.114372,393.111664 116.232773,392.895111 136.347198,393.090210 
	C143.307297,393.157745 151.600723,399.643585 151.178314,408.677765 
	C150.503387,423.113312 150.983017,437.602844 150.903992,452.533447 
	C126.205841,452.990936 101.578239,452.984558 76.484764,452.944519 
z"/>
<path fill="#D53247" opacity="1.000000" stroke="none" 
	d="
M368.717896,61.982227 
	C368.925232,62.215321 368.789917,62.490284 368.366882,62.850212 
	C368.273071,62.678349 368.371735,62.374657 368.717896,61.982227 
z"/>
</svg>