<svg version="1.1" id="Layer_1" xmlns="http://www.w3.org/2000/svg" xmlns:xlink="http://www.w3.org/1999/xlink" x="0px" y="0px"
	 width="100%" viewBox="0 0 512 512" enable-background="new 0 0 512 512" xml:space="preserve">
<path fill="none" opacity="1.000000" stroke="none"
	d="
M1.000000,460.000000 
	C1.000000,307.049011 1.000000,154.098022 1.000000,1.073512 
	C171.562958,1.073512 342.125977,1.073512 513.000000,1.073512 
	C513.000000,122.023903 513.000000,243.048065 512.608765,364.481384 
	C511.810089,363.874969 511.172943,362.890900 511.028900,361.839294 
	C507.480560,335.932770 496.084290,314.491516 474.682983,299.023865 
	C470.931641,296.312561 469.782410,293.579681 469.771698,289.181427 
	C469.607300,221.713348 469.391907,154.244812 468.888428,86.778641 
	C468.796936,74.521835 463.407227,63.872555 455.272583,54.877708 
	C443.312347,41.652618 427.581970,37.078808 410.404205,37.060249 
	C311.577850,36.953480 212.751251,36.972309 113.924911,37.095333 
	C107.841896,37.102905 101.624069,37.775566 95.702171,39.146301 
	C71.793587,44.680367 54.768528,67.168968 54.877434,90.414162 
	C55.228779,165.407318 54.990395,240.403183 55.062386,315.397919 
	C55.065910,319.067810 54.795509,321.311432 50.100277,321.120850 
	C43.089466,320.836304 43.009777,321.222900 43.009445,328.507294 
	C43.007530,370.504395 42.943218,412.501709 43.104824,454.498199 
	C43.121799,458.909241 41.916496,460.216187 37.495010,460.109039 
	C25.336264,459.814453 13.165817,460.002747 1.000000,460.000000 
z"/>
<path fill="none" opacity="1.000000" stroke="none"
	d="
M513.000000,466.000000 
	C513.000000,481.655365 513.000000,497.310699 513.000000,512.959106 
	C342.333313,512.952148 171.666656,512.952148 1.000000,512.952148 
	C1.000000,497.581940 1.000000,482.259613 1.468651,466.465881 
	C172.291534,465.996277 342.645782,465.998138 513.000000,466.000000 
z"/>
<path fill="#5C0A0E" opacity="1.000000" stroke="none" 
	d="
M513.000000,465.571533 
	C342.645782,465.998138 172.291534,465.996277 1.468651,465.997192 
	C1.000000,464.285645 1.000000,462.571289 1.000000,460.428467 
	C13.165817,460.002747 25.336264,459.814453 37.495010,460.109039 
	C41.916496,460.216187 43.121799,458.909241 43.104824,454.498199 
	C42.943218,412.501709 43.007530,370.504395 43.009445,328.507294 
	C43.009777,321.222900 43.089466,320.836304 50.100277,321.120850 
	C54.795509,321.311432 55.065910,319.067810 55.062386,315.397919 
	C54.990395,240.403183 55.228779,165.407318 54.877434,90.414162 
	C54.768528,67.168968 71.793587,44.680367 95.702171,39.146301 
	C101.624069,37.775566 107.841896,37.102905 113.924911,37.095333 
	C212.751251,36.972309 311.577850,36.953480 410.404205,37.060249 
	C427.581970,37.078808 443.312347,41.652618 455.272583,54.877708 
	C463.407227,63.872555 468.796936,74.521835 468.888428,86.778641 
	C469.391907,154.244812 469.607300,221.713348 469.771698,289.181427 
	C469.782410,293.579681 470.931641,296.312561 474.682983,299.023865 
	C496.084290,314.491516 507.480560,335.932770 511.028900,361.839294 
	C511.172943,362.890900 511.810089,363.874969 512.608765,364.945251 
	C513.000000,370.022095 513.000000,375.044189 512.608948,380.587860 
	C511.468079,384.582916 510.738708,388.060944 509.965027,391.529114 
	C505.527771,411.419952 496.330811,428.724030 480.586823,441.810333 
	C472.273346,448.720398 462.796234,454.230469 454.387543,460.000000 
	C473.205261,460.000000 493.102631,460.000000 513.000000,460.000000 
	C513.000000,461.714355 513.000000,463.428711 513.000000,465.571533 
M450.725677,454.424408 
	C455.900879,451.686646 461.076080,448.948883 466.911499,446.036285 
	C471.658264,442.067230 476.405029,438.098175 481.746704,433.838440 
	C485.110291,429.585663 488.473877,425.332886 492.320282,420.563263 
	C496.125427,411.731689 499.930573,402.900085 504.046722,393.316437 
	C507.610046,379.507935 507.412964,365.681366 503.976257,351.909027 
	C492.136719,304.462585 443.946960,276.255249 397.199738,288.423828 
	C388.443268,292.373077 379.686829,296.322327 370.326965,300.463409 
	C366.214691,303.949280 362.102448,307.435120 357.378418,311.206940 
	C353.545105,316.090607 349.711792,320.974243 345.325287,326.259399 
	C342.805603,331.439026 340.285919,336.618683 337.269714,342.332031 
	C336.354126,345.472748 335.438538,348.613464 334.170868,352.430389 
	C331.458740,363.924286 331.190857,375.482513 332.918640,387.159973 
	C340.259277,436.773010 391.828033,470.659637 441.045807,457.540955 
	C444.057312,456.559204 447.068817,455.577454 450.725677,454.424408 
M285.382111,385.044250 
	C285.437714,390.659424 285.493317,396.274597 285.329926,402.795807 
	C285.329926,405.898712 285.329926,409.001648 285.329926,412.148285 
	C302.301544,412.148285 318.627960,412.148285 335.493988,412.148285 
	C333.901917,408.320618 332.579376,405.140930 331.168549,401.167053 
	C329.864716,395.498108 328.560883,389.829132 327.389252,383.358093 
	C327.160309,380.779022 326.931335,378.199982 326.699768,375.591797 
	C312.808655,375.591797 299.314484,375.591797 285.227844,375.591797 
	C285.365234,378.657654 285.488434,381.406616 285.382111,385.044250 
M437.996582,110.239525 
	C433.322388,103.837593 426.717285,101.440750 419.736053,103.613167 
	C412.690216,105.805695 408.211121,112.033234 408.137787,120.446609 
	C408.004364,135.747864 408.002625,151.051971 408.143250,166.353088 
	C408.204895,173.058456 410.602661,178.694519 417.684387,182.288239 
	C430.023956,186.953079 440.840790,179.718460 440.935303,166.572723 
	C441.046356,151.128418 441.111084,135.680023 440.835327,120.239853 
	C440.779449,117.112541 439.115295,114.013954 437.996582,110.239525 
M48.191753,334.852448 
	C48.191753,376.629608 48.191753,418.406769 48.191753,460.690369 
	C50.567326,460.690369 52.357071,460.690369 54.146816,460.690369 
	C122.979614,460.690186 191.812408,460.693512 260.645203,460.681274 
	C264.802704,460.680542 268.960236,460.556274 273.938446,460.682373 
	C280.553192,460.832153 280.567719,460.832153 280.568481,454.346405 
	C280.573212,413.705780 280.574005,373.065155 280.560150,332.424530 
	C280.559540,330.666809 280.402191,328.909149 280.319824,327.192261 
	C202.724457,327.192261 125.692932,327.192261 48.357243,327.192261 
	C48.357243,329.678711 48.357243,331.798798 48.191753,334.852448 
M60.099007,321.512848 
	C60.391563,321.587311 60.684116,321.661743 61.904438,321.892761 
	C67.933609,321.834991 73.962776,321.777252 80.914833,321.891235 
	C86.187935,321.891235 91.461029,321.891235 97.051132,321.891235 
	C97.051132,319.359497 97.051140,317.386139 97.051140,315.412781 
	C97.051155,241.913406 97.047714,168.414032 97.055038,94.914665 
	C97.056091,84.356010 101.354469,80.030502 111.846657,80.029846 
	C212.012466,80.023567 312.178284,80.023598 412.344086,80.030090 
	C422.496246,80.030754 426.469971,83.787903 427.036255,94.751915 
	C427.827545,96.001022 428.346985,97.677689 429.476044,98.395546 
	C431.035156,99.386826 433.053925,99.655151 435.281677,100.756683 
	C442.862122,105.565407 445.974213,112.594170 445.902100,121.412865 
	C445.786530,135.545242 445.641510,149.684326 445.953644,163.810745 
	C446.155731,172.957062 443.378357,180.391830 435.222412,186.052368 
	C432.615662,187.096497 430.008881,188.140625 427.218201,189.258438 
	C427.218201,214.915192 427.218201,240.645844 427.218201,266.255310 
	C430.200531,267.379303 432.968964,268.422699 436.179016,269.941772 
	C438.743774,272.932770 442.565247,275.550201 443.590485,278.998871 
	C445.299408,284.747467 449.228638,286.085205 454.432526,287.647217 
	C457.541534,289.043640 460.650574,290.440094 464.161407,292.017029 
	C464.161407,289.427155 464.161407,287.438202 464.161407,285.449249 
	C464.161407,222.740891 464.163574,160.032516 464.155060,97.324158 
	C464.154633,94.164619 464.273834,90.984940 463.974976,87.849167 
	C462.869476,76.248184 458.796692,65.975006 449.761749,57.301548 
	C440.117371,47.611584 428.415283,42.933670 414.788635,42.934151 
	C378.170746,42.935444 341.552856,42.919983 304.934967,42.941879 
	C293.622070,42.948647 282.309265,43.054157 270.071198,42.956280 
	C216.584579,42.948383 163.097961,42.933720 109.611343,42.952713 
	C106.954933,42.953659 104.255859,42.997360 101.648918,43.443478 
	C76.764664,47.701832 60.003391,67.309715 59.974251,92.588272 
	C59.887627,167.736099 59.941143,242.884079 59.950733,318.032013 
	C59.950863,319.024475 60.092812,320.016937 60.099007,321.512848 
M103.928825,321.878723 
	C155.770660,321.889038 207.612503,321.901550 259.454346,321.898560 
	C260.945099,321.898468 262.435822,321.734283 264.857269,321.839691 
	C269.852264,321.867584 274.859406,322.121582 279.838440,321.853333 
	C283.976624,321.630463 285.373199,323.114044 285.306976,327.264343 
	C285.102539,340.083374 285.330109,352.908936 285.171570,365.729248 
	C285.128845,369.184967 286.198151,370.452148 289.725555,370.323517 
	C296.045013,370.092987 302.378937,370.259155 308.706818,370.259308 
	C314.634857,370.259460 320.562927,370.259338 326.615814,370.259338 
	C326.805115,368.541351 326.943115,367.572845 327.014404,366.599426 
	C328.103363,351.727386 332.380157,337.838470 340.230194,325.159149 
	C353.958466,302.985199 373.590546,288.927307 398.963684,282.814178 
	C401.043518,282.313141 403.953186,281.420532 404.696289,279.861115 
	C408.203369,272.501221 413.938812,268.319550 421.679413,266.476349 
	C421.817719,265.651306 422.018921,265.009216 422.019531,264.366943 
	C422.042542,240.387695 422.010468,216.408310 422.105103,192.429398 
	C422.115692,189.742996 421.052856,188.709824 418.603790,187.959793 
	C411.034241,185.641663 405.989258,180.574692 404.123352,172.851471 
	C403.273773,169.334946 403.304291,165.605789 403.058807,161.045990 
	C403.125305,148.463455 403.446747,135.875443 403.176025,123.300171 
	C402.967346,113.606522 405.950623,105.797989 414.917145,100.128136 
	C417.237885,99.085159 420.537048,98.670692 421.689270,96.877075 
	C424.705322,92.181938 420.856873,85.993622 414.034821,85.026123 
	C386.328522,85.070610 358.622253,85.115097 329.996674,85.044479 
	C256.848541,85.023018 183.700409,84.991867 110.552284,84.997459 
	C104.320000,84.997932 102.023247,87.464958 102.019585,93.960419 
	C101.999207,130.118073 101.987831,166.275742 102.015625,202.433380 
	C102.040344,234.590256 102.120094,266.747101 102.015053,299.841125 
	C102.064163,306.894104 102.113274,313.947113 102.186073,321.470947 
	C102.186073,321.470947 102.524467,321.798859 102.524467,321.798859 
	C102.524467,321.798859 102.995514,321.785248 103.928825,321.878723 
M330.105347,420.784515 
	C328.697815,419.843536 327.305023,418.112579 325.880493,418.086029 
	C314.063995,417.865845 302.240021,418.070679 290.422089,417.893005 
	C286.873840,417.839691 285.832275,419.101562 285.883575,422.527313 
	C286.048035,433.513000 286.053650,444.504395 285.880951,455.489838 
	C285.826385,458.961456 286.948853,460.126678 290.452118,460.084564 
	C304.102142,459.920441 317.755188,460.016541 331.407104,459.994781 
	C332.305328,459.993347 333.203247,459.815613 332.781860,459.860535 
	C331.822052,453.228058 330.547272,446.994476 330.114288,440.702942 
	C329.681183,434.409790 330.089691,428.058746 330.105347,420.784515 
M335.936401,421.904083 
	C335.942322,430.385376 335.831787,438.868896 335.990723,447.347321 
	C336.119659,454.224121 340.254608,459.678619 346.996674,459.960297 
	C360.518982,460.525146 374.081451,460.128113 387.745667,460.128113 
	C386.849792,459.698425 385.837830,459.315491 384.930084,458.761810 
	C376.455048,453.592133 367.223785,449.302979 359.753418,442.946686 
	C352.292755,436.598633 346.614227,428.160400 340.114502,420.673157 
	C339.300507,419.735474 338.242798,419.009369 337.298035,418.185242 
	C336.846527,419.130768 336.395020,420.076294 335.936401,421.904083 
M419.202911,272.413727 
	C415.442993,274.124512 411.879181,276.032135 410.701660,280.412872 
	C420.481598,281.036407 429.976624,281.641815 439.440033,282.245178 
	C438.656311,275.631989 428.135925,269.098328 419.202911,272.413727 
z"/>
<path fill="none" opacity="1.000000" stroke="none"
	d="
M513.000000,459.531342 
	C493.102631,460.000000 473.205261,460.000000 454.387543,460.000000 
	C462.796234,454.230469 472.273346,448.720398 480.586823,441.810333 
	C496.330811,428.724030 505.527771,411.419952 509.965027,391.529114 
	C510.738708,388.060944 511.468079,384.582916 512.608948,381.054718 
	C513.000000,407.020905 513.000000,433.041779 513.000000,459.531342 
z"/>
<path fill="#89889A" opacity="1.000000" stroke="none" 
	d="
M102.162384,321.000092 
	C102.113274,313.947113 102.064163,306.894104 102.318642,299.036560 
	C103.062294,290.946716 103.561455,283.664398 103.931168,276.375519 
	C104.974236,255.811401 105.954201,235.244080 106.978691,214.679001 
	C107.614731,201.911377 108.344170,189.148178 108.929665,176.378311 
	C109.994713,153.148819 111.041298,129.918167 111.972603,106.683060 
	C112.287796,98.819359 115.816139,95.033379 123.658775,95.021049 
	C147.817429,94.983070 171.985229,95.426376 196.132675,94.904655 
	C229.660538,94.180267 263.362122,97.976196 296.680725,91.060425 
	C308.012512,88.708344 319.499756,87.105034 330.915955,85.159576 
	C358.622253,85.115097 386.328522,85.070610 414.510376,85.521774 
	C414.715332,90.782959 414.444763,95.548492 414.174164,100.314034 
	C405.950623,105.797989 402.967346,113.606522 403.176025,123.300171 
	C403.446747,135.875443 403.125305,148.463455 402.655701,161.599731 
	C401.507690,163.579819 400.528320,164.932297 400.052368,166.443359 
	C390.012756,198.316574 374.644165,227.319397 353.232239,253.014359 
	C350.137878,256.727722 346.209900,259.746399 342.793213,262.714722 
	C348.776062,247.357437 351.002563,232.026566 349.143097,215.866196 
	C343.893372,170.241455 298.418030,134.629089 252.801392,140.220657 
	C201.586609,146.498428 168.862244,192.438705 174.961365,237.801407 
	C179.656235,272.720001 198.893356,296.660583 231.322586,309.918030 
	C244.976074,315.499725 259.395020,316.521240 273.790619,315.252747 
	C270.358063,317.559998 267.142334,319.603333 263.926575,321.646667 
	C262.435822,321.734283 260.945099,321.898468 259.454346,321.898560 
	C207.612503,321.901550 155.770660,321.889038 103.350220,321.674744 
	C102.595734,321.278656 102.392654,321.121765 102.162384,321.000092 
z"/>
<path fill="#E1E1F1" opacity="1.000000" stroke="none" 
	d="
M435.948669,185.904205 
	C443.378357,180.391830 446.155731,172.957062 445.953644,163.810745 
	C445.641510,149.684326 445.786530,135.545242 445.902100,121.412865 
	C445.974213,112.594170 442.862122,105.565407 435.071533,100.134972 
	C432.300079,97.661171 429.738770,95.809082 427.177460,93.956985 
	C426.469971,83.787903 422.496246,80.030754 412.344086,80.030090 
	C312.178284,80.023598 212.012466,80.023567 111.846657,80.029846 
	C101.354469,80.030502 97.056091,84.356010 97.055038,94.914665 
	C97.047714,168.414032 97.051155,241.913406 97.051140,315.412781 
	C97.051140,317.386139 97.051132,319.359497 97.051132,321.891235 
	C91.461029,321.891235 86.187935,321.891235 80.452515,321.354614 
	C80.019943,305.823608 79.284271,290.778687 80.269341,275.847321 
	C81.558319,256.309509 81.244766,236.985565 76.400192,218.004608 
	C72.209862,201.586990 67.462410,185.500244 67.764809,168.143173 
	C68.111580,148.238373 66.105637,128.301025 66.154045,108.380325 
	C66.205528,87.190033 76.354126,72.542793 98.739807,69.062469 
	C114.086807,66.676468 129.775360,66.578270 145.255753,64.934807 
	C162.054260,63.151413 178.872116,61.268410 195.530289,58.514034 
	C218.277115,54.752926 240.889038,50.168991 263.535095,45.814560 
	C266.100403,45.321297 268.513000,44.033710 270.996399,43.114456 
	C282.309265,43.054157 293.622070,42.948647 304.934967,42.941879 
	C341.552856,42.919983 378.170746,42.935444 414.788635,42.934151 
	C428.415283,42.933670 440.117371,47.611584 449.888977,57.997368 
	C451.342834,65.168411 453.797485,71.639229 453.822845,78.119553 
	C454.095612,147.783920 453.985138,217.449799 453.979614,287.115265 
	C449.228638,286.085205 445.299408,284.747467 443.590485,278.998871 
	C442.565247,275.550201 438.743774,272.932770 436.028076,269.208038 
	C435.900970,240.950943 435.924835,213.427567 435.948669,185.904205 
z"/>
<path fill="#757482" opacity="1.000000" stroke="none" 
	d="
M264.391907,321.743164 
	C267.142334,319.603333 270.358063,317.559998 274.142303,315.081451 
	C289.744751,312.340149 303.326172,306.671173 315.448364,297.411896 
	C327.441803,288.250977 336.086090,276.503632 342.667664,263.086548 
	C346.209900,259.746399 350.137878,256.727722 353.232239,253.014359 
	C374.644165,227.319397 390.012756,198.316574 400.052368,166.443359 
	C400.528320,164.932297 401.507690,163.579819 402.594116,162.063293 
	C403.304291,165.605789 403.273773,169.334946 404.123352,172.851471 
	C405.989258,180.574692 411.034241,185.641663 418.603790,187.959793 
	C421.052856,188.709824 422.115692,189.742996 422.105103,192.429398 
	C422.010468,216.408310 422.042542,240.387695 422.019531,264.366943 
	C422.018921,265.009216 421.817719,265.651306 421.679413,266.476349 
	C413.938812,268.319550 408.203369,272.501221 404.696289,279.861115 
	C403.953186,281.420532 401.043518,282.313141 398.963684,282.814178 
	C373.590546,288.927307 353.958466,302.985199 340.230194,325.159149 
	C332.380157,337.838470 328.103363,351.727386 327.014404,366.599426 
	C326.943115,367.572845 326.805115,368.541351 326.615814,370.259338 
	C320.562927,370.259338 314.634857,370.259460 308.706818,370.259308 
	C302.378937,370.259155 296.045013,370.092987 289.725555,370.323517 
	C286.198151,370.452148 285.128845,369.184967 285.171570,365.729248 
	C285.330109,352.908936 285.102539,340.083374 285.306976,327.264343 
	C285.373199,323.114044 283.976624,321.630463 279.838440,321.853333 
	C274.859406,322.121582 269.852264,321.867584 264.391907,321.743164 
z"/>
<path fill="#E9E9F5" opacity="1.000000" stroke="none" 
	d="
M270.533813,43.035366 
	C268.513000,44.033710 266.100403,45.321297 263.535095,45.814560 
	C240.889038,50.168991 218.277115,54.752926 195.530289,58.514034 
	C178.872116,61.268410 162.054260,63.151413 145.255753,64.934807 
	C129.775360,66.578270 114.086807,66.676468 98.739807,69.062469 
	C76.354126,72.542793 66.205528,87.190033 66.154045,108.380325 
	C66.105637,128.301025 68.111580,148.238373 67.764809,168.143173 
	C67.462410,185.500244 72.209862,201.586990 76.400192,218.004608 
	C81.244766,236.985565 81.558319,256.309509 80.269341,275.847321 
	C79.284271,290.778687 80.019943,305.823608 79.991066,321.268738 
	C73.962776,321.777252 67.933609,321.834991 61.337063,321.661560 
	C60.601273,321.244385 60.400898,321.104065 60.168568,321.009399 
	C60.092812,320.016937 59.950863,319.024475 59.950733,318.032013 
	C59.941143,242.884079 59.887627,167.736099 59.974251,92.588272 
	C60.003391,67.309715 76.764664,47.701832 101.648918,43.443478 
	C104.255859,42.997360 106.954933,42.953659 109.611343,42.952713 
	C163.097961,42.933720 216.584579,42.948383 270.533813,43.035366 
z"/>
<path fill="#5CC647" opacity="1.000000" stroke="none" 
	d="
M273.117737,460.489502 
	C268.960236,460.556274 264.802704,460.680542 260.645203,460.681274 
	C191.812408,460.693512 122.979614,460.690186 54.146816,460.690369 
	C52.357071,460.690369 50.567326,460.690369 48.191753,460.690369 
	C48.191753,418.406769 48.191753,376.629608 48.718826,334.399719 
	C119.354317,333.960724 189.462738,333.971771 259.571167,333.991180 
	C269.453766,333.993927 273.026489,337.609161 273.034912,347.584442 
	C273.066681,385.219452 273.090790,422.854492 273.117737,460.489502 
M58.984989,424.369751 
	C58.191051,429.740845 59.538647,433.272614 65.548828,434.933868 
	C70.578560,436.324097 73.659935,440.670807 75.054855,445.752930 
	C75.887772,448.787567 77.343651,450.042969 80.641800,450.037842 
	C136.448700,449.951050 192.255798,449.961395 248.062790,450.017303 
	C250.933670,450.020172 252.647461,449.352722 253.493484,446.278687 
	C255.254333,439.880676 259.479950,435.592773 265.917053,433.776520 
	C268.750885,432.976929 269.944031,431.517456 269.931671,428.468414 
	C269.837616,405.313019 269.850616,382.156952 269.917236,359.001343 
	C269.925659,356.071655 269.016357,354.561279 265.988647,353.697906 
	C259.850189,351.947479 255.447479,347.911377 253.724304,341.653961 
	C252.785629,338.245331 250.950256,337.279175 247.631241,337.283142 
	C192.160370,337.349457 136.689392,337.354065 81.218559,337.274658 
	C77.609299,337.269501 75.903648,338.550842 74.888298,342.048187 
	C73.202209,347.855865 69.136208,351.940277 63.318443,353.480713 
	C59.497810,354.492371 58.912632,356.536407 58.930191,359.935425 
	C59.039505,381.091614 58.985100,402.248596 58.984989,424.369751 
z"/>
<path fill="#A7A6B3" opacity="1.000000" stroke="none" 
	d="
M330.456299,85.102020 
	C319.499756,87.105034 308.012512,88.708344 296.680725,91.060425 
	C263.362122,97.976196 229.660538,94.180267 196.132675,94.904655 
	C171.985229,95.426376 147.817429,94.983070 123.658775,95.021049 
	C115.816139,95.033379 112.287796,98.819359 111.972603,106.683060 
	C111.041298,129.918167 109.994713,153.148819 108.929665,176.378311 
	C108.344170,189.148178 107.614731,201.911377 106.978691,214.679001 
	C105.954201,235.244080 104.974236,255.811401 103.931168,276.375519 
	C103.561455,283.664398 103.062294,290.946716 102.398888,298.567993 
	C102.120094,266.747101 102.040344,234.590256 102.015625,202.433380 
	C101.987831,166.275742 101.999207,130.118073 102.019585,93.960419 
	C102.023247,87.464958 104.320000,84.997932 110.552284,84.997459 
	C183.700409,84.991867 256.848541,85.023018 330.456299,85.102020 
z"/>
<path fill="#83D372" opacity="1.000000" stroke="none" 
	d="
M273.528076,460.585938 
	C273.090790,422.854492 273.066681,385.219452 273.034912,347.584442 
	C273.026489,337.609161 269.453766,333.993927 259.571167,333.991180 
	C189.462738,333.971771 119.354317,333.960724 48.801567,333.932922 
	C48.357243,331.798798 48.357243,329.678711 48.357243,327.192261 
	C125.692932,327.192261 202.724457,327.192261 280.319824,327.192261 
	C280.402191,328.909149 280.559540,330.666809 280.560150,332.424530 
	C280.574005,373.065155 280.573212,413.705780 280.568481,454.346405 
	C280.567719,460.832153 280.553192,460.832153 273.528076,460.585938 
z"/>
<path fill="#FABB2B" opacity="1.000000" stroke="none" 
	d="
M440.261841,457.631927 
	C391.828033,470.659637 340.259277,436.773010 332.918640,387.159973 
	C331.190857,375.482513 331.458740,363.924286 334.675018,352.265259 
	C339.777954,356.718353 344.376770,361.336639 348.912354,366.371948 
	C348.862976,373.053955 348.108704,379.433228 349.021362,385.564362 
	C353.345245,414.612000 373.912445,436.711060 402.479126,442.429382 
	C410.078186,443.950500 418.191742,442.901245 426.365967,443.208099 
	C432.839600,446.564484 435.869476,452.748413 440.261841,457.631927 
M345.904327,372.235687 
	C345.336365,370.786621 344.768372,369.337524 344.200409,367.888458 
	C343.567993,368.043793 342.935608,368.199097 342.303192,368.354431 
	C342.303192,370.382050 342.303192,372.409637 342.303192,374.437256 
	C343.457825,373.952576 344.612457,373.467896 345.904327,372.235687 
z"/>
<path fill="#BFBFCD" opacity="1.000000" stroke="none" 
	d="
M454.206055,287.381226 
	C453.985138,217.449799 454.095612,147.783920 453.822845,78.119553 
	C453.797485,71.639229 451.342834,65.168411 450.030762,58.299419 
	C458.796692,65.975006 462.869476,76.248184 463.974976,87.849167 
	C464.273834,90.984940 464.154633,94.164619 464.155060,97.324158 
	C464.163574,160.032516 464.161407,222.740891 464.161407,285.449249 
	C464.161407,287.438202 464.161407,289.427155 464.161407,292.017029 
	C460.650574,290.440094 457.541534,289.043640 454.206055,287.381226 
z"/>
<path fill="none" opacity="1.000000" stroke="none"
	d="
M330.117310,421.258789 
	C330.089691,428.058746 329.681183,434.409790 330.114288,440.702942 
	C330.547272,446.994476 331.822052,453.228058 332.781860,459.860535 
	C333.203247,459.815613 332.305328,459.993347 331.407104,459.994781 
	C317.755188,460.016541 304.102142,459.920441 290.452118,460.084564 
	C286.948853,460.126678 285.826385,458.961456 285.880951,455.489838 
	C286.053650,444.504395 286.048035,433.513000 285.883575,422.527313 
	C285.832275,419.101562 286.873840,417.839691 290.422089,417.893005 
	C302.240021,418.070679 314.063995,417.865845 325.880493,418.086029 
	C327.305023,418.112579 328.697815,419.843536 330.117310,421.258789 
z"/>
<path fill="#63546D" opacity="1.000000" stroke="none" 
	d="
M438.192627,110.902122 
	C439.115295,114.013954 440.779449,117.112541 440.835327,120.239853 
	C441.111084,135.680023 441.046356,151.128418 440.935303,166.572723 
	C440.840790,179.718460 430.023956,186.953079 417.349121,181.628998 
	C417.008392,165.338730 417.000641,149.707703 416.998230,134.076660 
	C416.995880,118.954781 422.972290,112.422829 438.192627,110.902122 
z"/>
<path fill="#54455C" opacity="1.000000" stroke="none" 
	d="
M335.939941,421.462952 
	C336.395020,420.076294 336.846527,419.130768 337.298035,418.185242 
	C338.242798,419.009369 339.300507,419.735474 340.114502,420.673157 
	C346.614227,428.160400 352.292755,436.598633 359.753418,442.946686 
	C367.223785,449.302979 376.455048,453.592133 384.930084,458.761810 
	C385.837830,459.315491 386.849792,459.698425 387.745667,460.128113 
	C374.081451,460.128113 360.518982,460.525146 346.996674,459.960297 
	C340.254608,459.678619 336.119659,454.224121 335.990723,447.347321 
	C335.831787,438.868896 335.942322,430.385376 335.939941,421.462952 
z"/>
<path fill="#54455C" opacity="1.000000" stroke="none" 
	d="
M438.094604,110.570824 
	C422.972290,112.422829 416.995880,118.954781 416.998230,134.076660 
	C417.000641,149.707703 417.008392,165.338730 417.023804,181.427734 
	C410.602661,178.694519 408.204895,173.058456 408.143250,166.353088 
	C408.002625,151.051971 408.004364,135.747864 408.137787,120.446609 
	C408.211121,112.033234 412.690216,105.805695 419.736053,103.613167 
	C426.717285,101.440750 433.322388,103.837593 438.094604,110.570824 
z"/>
<path fill="#D39D25" opacity="1.000000" stroke="none" 
	d="
M397.918610,288.350830 
	C443.946960,276.255249 492.136719,304.462585 503.976257,351.909027 
	C507.412964,365.681366 507.610046,379.507935 503.653931,393.552063 
	C502.825836,393.207916 502.390533,392.628143 501.998901,391.624023 
	C502.060425,383.107117 502.878662,374.921417 501.949951,366.938965 
	C498.849762,340.292755 485.672577,319.342468 463.548126,304.451843 
	C444.365967,291.541473 423.060852,286.401062 399.701843,289.952301 
	C398.943817,289.343079 398.431213,288.846954 397.918610,288.350830 
z"/>
<path fill="#E0E0F0" opacity="1.000000" stroke="none" 
	d="
M285.548920,401.889771 
	C285.493317,396.274597 285.437714,390.659424 285.924103,384.566528 
	C300.063080,384.112610 313.660065,384.136414 327.257050,384.160187 
	C328.560883,389.829132 329.864716,395.498108 330.727905,401.594482 
	C315.374512,401.977905 300.461700,401.933838 285.548920,401.889771 
z"/>
<path fill="#BEBECC" opacity="1.000000" stroke="none" 
	d="
M435.585541,185.978287 
	C435.924835,213.427567 435.900970,240.950943 435.807251,268.970215 
	C432.968964,268.422699 430.200531,267.379303 427.218201,266.255310 
	C427.218201,240.645844 427.218201,214.915192 427.218201,189.258438 
	C430.008881,188.140625 432.615662,187.096497 435.585541,185.978287 
z"/>
<path fill="#FBCC5F" opacity="1.000000" stroke="none" 
	d="
M397.559174,288.387329 
	C398.431213,288.846954 398.943817,289.343079 399.874176,290.236877 
	C404.534363,295.087921 408.776764,299.541290 412.719299,304.251129 
	C402.233063,305.560944 392.824768,308.941010 383.739441,314.003082 
	C383.495453,313.989624 383.006927,313.976379 382.851288,313.675293 
	C378.773895,309.006683 374.852142,304.639130 370.930359,300.271606 
	C379.686829,296.322327 388.443268,292.373077 397.559174,288.387329 
z"/>
<path fill="#FBCC5F" opacity="1.000000" stroke="none" 
	d="
M501.955261,392.048370 
	C502.390533,392.628143 502.825836,393.207916 503.498413,393.928101 
	C499.930573,402.900085 496.125427,411.731689 491.752869,420.737305 
	C487.217041,418.634766 484.388458,415.647949 485.080353,411.321411 
	C482.421387,410.431946 480.251648,409.706146 478.063782,408.731079 
	C478.034454,408.315460 478.023224,408.149139 478.181305,407.684174 
	C479.581299,405.042145 481.196259,402.818268 481.969543,400.332550 
	C484.165405,393.274170 486.017487,386.108795 488.305695,379.157379 
	C493.051758,383.573456 496.603302,388.755676 501.955261,392.048370 
z"/>
<path fill="#BCB9C7" opacity="1.000000" stroke="none" 
	d="
M285.439423,402.342773 
	C300.461700,401.933838 315.374512,401.977905 330.772034,401.991577 
	C332.579376,405.140930 333.901917,408.320618 335.493988,412.148285 
	C318.627960,412.148285 302.301544,412.148285 285.329926,412.148285 
	C285.329926,409.001648 285.329926,405.898712 285.439423,402.342773 
z"/>
<path fill="#B8B2BF" opacity="1.000000" stroke="none" 
	d="
M327.323151,383.759155 
	C313.660065,384.136414 300.063080,384.112610 286.038879,384.122192 
	C285.488434,381.406616 285.365234,378.657654 285.227844,375.591797 
	C299.314484,375.591797 312.808655,375.591797 326.699768,375.591797 
	C326.931335,378.199982 327.160309,380.779022 327.323151,383.759155 
z"/>
<path fill="#FCCC5F" opacity="1.000000" stroke="none" 
	d="
M345.878479,325.857880 
	C349.711792,320.974243 353.545105,316.090607 357.975739,311.232910 
	C362.938904,315.192017 367.304718,319.125183 371.731506,323.379517 
	C371.843781,324.133057 371.895142,324.565399 371.608093,325.039795 
	C367.505859,329.708893 363.742035,334.335938 359.627167,338.911652 
	C357.931000,336.540649 356.585907,334.220978 355.022797,331.525391 
	C350.539856,333.396484 348.555145,328.995117 345.878479,325.857880 
z"/>
<path fill="#FCCC5F" opacity="1.000000" stroke="none" 
	d="
M481.151794,434.129120 
	C476.405029,438.098175 471.658264,442.067230 466.278992,445.938995 
	C461.446259,441.555573 457.246002,437.269409 453.260559,432.731262 
	C458.317780,428.666138 463.160217,424.853027 468.292908,421.177185 
	C469.599487,423.610809 470.615814,425.907135 471.167480,427.153595 
	C473.947632,428.622162 476.371796,429.726532 478.590210,431.151306 
	C479.646057,431.829407 480.310211,433.117401 481.151794,434.129120 
z"/>
<path fill="#FBBB2D" opacity="1.000000" stroke="none" 
	d="
M345.601868,326.058655 
	C348.555145,328.995117 350.539856,333.396484 355.022797,331.525391 
	C356.585907,334.220978 357.931000,336.540649 359.629639,339.178589 
	C359.982666,339.674530 359.982239,339.852203 359.669312,340.157349 
	C356.859375,345.217773 354.361938,350.150787 351.572906,354.882050 
	C349.275330,353.458252 346.935699,352.564667 345.337341,350.941254 
	C342.571472,348.132019 340.265259,344.870239 337.766235,341.798309 
	C340.285919,336.618683 342.805603,331.439026 345.601868,326.058655 
z"/>
<path fill="#FBBB2D" opacity="1.000000" stroke="none" 
	d="
M481.449249,433.983765 
	C480.310211,433.117401 479.646057,431.829407 478.590210,431.151306 
	C476.371796,429.726532 473.947632,428.622162 471.167480,427.153595 
	C470.615814,425.907135 469.599487,423.610809 468.284576,420.942627 
	C467.985992,420.570801 467.966034,420.102570 468.308105,420.032074 
	C471.794067,416.301178 474.937988,412.640747 478.081909,408.980316 
	C480.251648,409.706146 482.421387,410.431946 485.080353,411.321411 
	C484.388458,415.647949 487.217041,418.634766 491.511475,420.995728 
	C488.473877,425.332886 485.110291,429.585663 481.449249,433.983765 
z"/>
<path fill="#FBBB2B" opacity="1.000000" stroke="none" 
	d="
M453.045746,432.983276 
	C457.246002,437.269409 461.446259,441.555573 465.948914,446.026428 
	C461.076080,448.948883 455.900879,451.686646 450.308838,454.201965 
	C445.936432,449.647827 441.980835,445.316132 438.333710,440.834534 
	C440.764160,439.457794 442.886139,438.230927 445.004089,437.002045 
	C445.000000,437.000000 444.999359,437.008301 445.334229,437.009308 
	C446.446411,436.665710 447.223694,436.321136 448.002625,435.989868 
	C448.004272,436.003143 447.978302,435.996948 448.195679,435.881714 
	C448.690247,435.572540 448.892151,435.318726 449.008606,435.002625 
	C448.998505,435.000214 449.001953,435.020782 449.301117,434.987610 
	C450.075409,434.619324 450.550507,434.284210 451.176819,433.751099 
	C451.598755,433.361603 451.869476,433.170135 452.366577,432.979034 
	C452.592957,432.979370 453.045746,432.983276 453.045746,432.983276 
z"/>
<path fill="#FBBB2B" opacity="1.000000" stroke="none" 
	d="
M371.670563,323.058319 
	C367.304718,319.125183 362.938904,315.192017 358.281616,311.089905 
	C362.102448,307.435120 366.214691,303.949280 370.628662,300.367493 
	C374.852142,304.639130 378.773895,309.006683 382.690613,313.972839 
	C379.013916,317.400421 375.342255,320.229370 371.670563,323.058319 
z"/>
<path fill="#55455B" opacity="1.000000" stroke="none" 
	d="
M419.569153,272.292358 
	C428.135925,269.098328 438.656311,275.631989 439.440033,282.245178 
	C429.976624,281.641815 420.481598,281.036407 410.701660,280.412872 
	C411.879181,276.032135 415.442993,274.124512 419.569153,272.292358 
z"/>
<path fill="#F9CA5F" opacity="1.000000" stroke="none" 
	d="
M337.517975,342.065186 
	C340.265259,344.870239 342.571472,348.132019 345.337341,350.941254 
	C346.935699,352.564667 349.275330,353.458252 351.630615,355.102356 
	C351.979889,355.524414 352.075806,355.969818 352.049896,356.396790 
	C351.684296,360.219452 351.344574,363.615173 350.744263,366.893372 
	C349.980927,366.502197 349.478241,366.228546 348.975555,365.954895 
	C344.376770,361.336639 339.777954,356.718353 334.851044,351.927155 
	C335.438538,348.613464 336.354126,345.472748 337.517975,342.065186 
z"/>
<path fill="#F9CA5F" opacity="1.000000" stroke="none" 
	d="
M438.025238,440.984436 
	C441.980835,445.316132 445.936432,449.647827 449.986176,454.287628 
	C447.068817,455.577454 444.057312,456.559204 440.653809,457.586426 
	C435.869476,452.748413 432.839600,446.564484 426.241760,442.948303 
	C425.551544,442.007965 425.282471,441.503387 425.447571,441.002777 
	C429.231354,440.662262 432.581024,440.317780 436.196167,440.092224 
	C436.982849,440.468964 437.504059,440.726685 438.025238,440.984436 
z"/>
<path fill="#747180" opacity="1.000000" stroke="none" 
	d="
M414.545654,100.221085 
	C414.444763,95.548492 414.715332,90.782959 414.972656,85.585175 
	C420.856873,85.993622 424.705322,92.181938 421.689270,96.877075 
	C420.537048,98.670692 417.237885,99.085159 414.545654,100.221085 
z"/>
<path fill="#BDBBC8" opacity="1.000000" stroke="none" 
	d="
M427.106873,94.354446 
	C429.738770,95.809082 432.300079,97.661171 434.868591,99.873184 
	C433.053925,99.655151 431.035156,99.386826 429.476044,98.395546 
	C428.346985,97.677689 427.827545,96.001022 427.106873,94.354446 
z"/>
<path fill="#757482" opacity="1.000000" stroke="none" 
	d="
M102.174225,321.235535 
	C102.392654,321.121765 102.595734,321.278656 102.883560,321.627991 
	C102.995514,321.785248 102.524467,321.798859 102.524467,321.798859 
	C102.524467,321.798859 102.186073,321.470947 102.174225,321.235535 
z"/>
<path fill="#E1E1F1" opacity="1.000000" stroke="none" 
	d="
M60.133789,321.261108 
	C60.400898,321.104065 60.601273,321.244385 60.873180,321.583252 
	C60.684116,321.661743 60.391563,321.587311 60.133789,321.261108 
z"/>
<path fill="#5B090F" opacity="1.000000" stroke="none" 
	d="
M342.793213,262.714722 
	C336.086090,276.503632 327.441803,288.250977 315.448364,297.411896 
	C303.326172,306.671173 289.744751,312.340149 274.359131,314.817505 
	C259.395020,316.521240 244.976074,315.499725 231.322586,309.918030 
	C198.893356,296.660583 179.656235,272.720001 174.961365,237.801407 
	C168.862244,192.438705 201.586609,146.498428 252.801392,140.220657 
	C298.418030,134.629089 343.893372,170.241455 349.143097,215.866196 
	C351.002563,232.026566 348.776062,247.357437 342.793213,262.714722 
M206.547424,288.424225 
	C213.151398,293.129913 219.711838,297.900391 226.439209,302.422516 
	C226.998047,302.798157 229.111206,301.796875 229.746124,300.900024 
	C230.650177,299.623077 230.853867,297.850250 231.787338,295.732574 
	C233.503387,293.842102 235.865280,290.061401 236.823547,290.388794 
	C240.942657,291.796173 236.777496,294.669647 236.765518,297.581085 
	C235.774841,299.986542 234.784149,302.391998 233.363251,305.842041 
	C240.079773,307.320862 246.074570,309.087860 252.195419,309.876190 
	C259.981995,310.879059 260.020691,310.537323 260.033142,302.518188 
	C260.036469,300.364532 260.082855,298.210968 260.614807,295.721436 
	C262.035645,295.505798 263.456451,295.290161 265.081787,295.872986 
	C265.337128,299.341278 265.311768,302.865051 265.981415,306.251404 
	C266.262115,307.670929 268.181580,309.995636 269.073578,309.871948 
	C276.693634,308.815308 284.248810,307.290588 292.432922,305.794556 
	C290.503998,301.045044 288.916290,297.750336 287.880615,294.290405 
	C287.452179,292.859131 288.206512,291.073822 288.422913,289.449524 
	C289.693420,290.366364 291.392487,291.023041 292.141144,292.256592 
	C293.508881,294.510101 294.082458,297.246124 295.453461,299.496979 
	C296.121887,300.594391 298.306580,302.000031 299.011139,301.653290 
	C306.111053,298.159088 312.964142,294.222260 319.058136,286.908569 
	C315.800110,284.156830 312.727875,281.828888 310.042358,279.117920 
	C309.313385,278.382050 309.751953,276.489624 309.654663,275.128021 
	C310.932556,275.373901 312.710480,275.173187 313.399658,275.944855 
	C316.039948,278.901031 318.330444,282.169617 320.751526,285.321564 
	C321.529633,284.956390 322.307770,284.591217 323.085876,284.226044 
	C326.642639,279.262146 330.434845,274.447540 333.698883,269.298126 
	C338.185852,262.219513 338.015289,262.109344 330.276062,258.640717 
	C329.060577,258.095917 327.615234,257.818909 326.672821,256.975067 
	C325.617432,256.030060 325.013367,254.581055 324.212891,253.351364 
	C325.669983,253.060165 327.310608,252.192352 328.549500,252.586655 
	C332.154205,253.733978 335.598114,255.386597 340.189178,257.290619 
	C342.046173,248.074493 343.779510,239.472198 345.522003,230.824463 
	C339.139374,230.086823 334.097656,229.504150 329.036102,228.246597 
	C329.686737,227.158844 330.337402,226.071091 331.920135,225.039444 
	C333.079163,225.047119 334.238190,225.060455 335.397217,225.061615 
	C344.967712,225.071228 345.223602,225.034058 343.909729,215.820297 
	C343.093475,210.096222 341.359528,204.503006 339.888672,198.215027 
	C336.070709,199.884583 333.523468,200.998474 330.295166,202.258698 
	C328.264282,202.234344 326.233398,202.209991 324.202515,202.185623 
	C325.506317,200.654282 326.755219,199.070541 328.141479,197.617889 
	C328.680786,197.052750 329.529877,196.783203 330.956482,196.187469 
	C338.085632,193.859329 338.190002,193.795593 334.238129,187.323959 
	C331.584412,182.978256 328.692047,178.764053 325.659180,174.674377 
	C324.926514,173.686401 323.215546,173.423920 321.367279,173.164825 
	C318.989441,175.496552 316.755707,178.010727 314.157532,180.063568 
	C313.215912,180.807526 311.402649,180.448257 309.987091,180.592377 
	C310.239197,179.301056 310.055298,177.589493 310.821899,176.794083 
	C313.559601,173.953537 316.619965,171.424026 320.625183,167.815536 
	C312.073364,162.028061 304.823059,157.121384 297.111389,151.902481 
	C295.172516,156.475830 294.021057,159.793320 292.359711,162.832001 
	C291.635681,164.156265 289.865753,164.908676 288.570831,165.920792 
	C288.310547,164.355576 287.495667,162.627716 287.897736,161.256760 
	C288.949707,157.669937 290.533447,154.239044 292.158722,150.100418 
	C286.228394,148.628708 280.990082,146.975006 275.625366,146.074738 
	C265.963226,144.453293 265.931458,144.641815 265.783295,154.572174 
	C265.773346,155.238281 266.016541,156.064209 265.711914,156.540939 
	C264.752106,158.042892 263.587280,159.413818 262.501831,160.835449 
	C261.682861,159.404388 260.294617,158.025681 260.157196,156.531921 
	C259.815796,152.820419 260.044891,149.056442 260.044891,143.995972 
	C250.583649,145.899277 242.288071,147.568085 233.374390,149.361237 
	C235.232010,154.064407 236.795303,157.375488 237.786713,160.849762 
	C238.185074,162.245758 237.327942,164.000000 237.042267,165.591187 
	C235.841385,164.715775 234.160355,164.096741 233.530167,162.916580 
	C231.683075,159.457626 230.254181,155.775345 228.203613,151.147186 
	C220.177780,156.573761 212.759048,161.589844 205.340317,166.605942 
	C205.208954,167.364059 205.077576,168.122177 204.946198,168.880280 
	C207.783783,171.185562 210.784073,173.326233 213.371964,175.884125 
	C214.295776,176.797226 214.221008,178.720596 214.602051,180.182831 
	C213.031906,179.852951 211.075302,179.999512 209.966888,179.100418 
	C207.088974,176.765915 204.584030,173.971619 201.055862,170.500610 
	C195.730164,178.564880 191.047729,185.655106 186.013718,193.277710 
	C190.837845,195.388885 194.557648,196.818649 198.050888,198.674820 
	C199.010834,199.184891 199.293320,200.969925 199.886658,202.169937 
	C198.607742,202.449966 197.161209,203.257690 196.080276,202.914368 
	C192.333282,201.724243 188.713364,200.134033 183.936783,198.261597 
	C182.079453,207.390854 180.379547,215.746277 178.479843,225.083801 
	C182.964584,225.083801 186.435242,224.794403 189.821686,225.203003 
	C191.577057,225.414795 193.183289,226.862442 194.856903,227.751770 
	C193.257812,228.522125 191.709198,229.790588 190.049103,229.958740 
	C186.632278,230.304840 183.155899,230.062836 178.499176,230.062836 
	C180.370422,239.522583 182.074051,248.134918 183.876968,257.249207 
	C188.603561,255.383423 192.082382,253.799744 195.707474,252.696854 
	C196.926025,252.326111 198.516647,253.178329 199.937195,253.471558 
	C199.104004,254.711426 198.548386,256.474304 197.384888,257.091827 
	C194.065399,258.853577 190.498611,260.149414 185.804901,262.150482 
	C191.316879,270.247009 196.377289,277.680267 202.355713,286.462006 
	C205.676926,282.576569 207.874680,279.624878 210.500641,277.122620 
	C211.536118,276.135895 213.526581,276.151398 215.082184,275.710541 
	C214.734222,277.261566 214.829575,279.154205 213.950073,280.295685 
	C211.831604,283.045135 209.256790,285.443024 206.547424,288.424225 
z"/>
<path fill="#5B100F" opacity="1.000000" stroke="none" 
	d="
M58.984985,423.887543 
	C58.985100,402.248596 59.039505,381.091614 58.930191,359.935425 
	C58.912632,356.536407 59.497810,354.492371 63.318443,353.480713 
	C69.136208,351.940277 73.202209,347.855865 74.888298,342.048187 
	C75.903648,338.550842 77.609299,337.269501 81.218559,337.274658 
	C136.689392,337.354065 192.160370,337.349457 247.631241,337.283142 
	C250.950256,337.279175 252.785629,338.245331 253.724304,341.653961 
	C255.447479,347.911377 259.850189,351.947479 265.988647,353.697906 
	C269.016357,354.561279 269.925659,356.071655 269.917236,359.001343 
	C269.850616,382.156952 269.837616,405.313019 269.931671,428.468414 
	C269.944031,431.517456 268.750885,432.976929 265.917053,433.776520 
	C259.479950,435.592773 255.254333,439.880676 253.493484,446.278687 
	C252.647461,449.352722 250.933670,450.020172 248.062790,450.017303 
	C192.255798,449.961395 136.448700,449.951050 80.641800,450.037842 
	C77.343651,450.042969 75.887772,448.787567 75.054855,445.752930 
	C73.659935,440.670807 70.578560,436.324097 65.548828,434.933868 
	C59.538647,433.272614 58.191051,429.740845 58.984985,423.887543 
M182.708267,349.392700 
	C169.063004,339.096100 154.259598,340.271515 142.572906,352.714355 
	C133.789276,362.066315 129.631973,373.558044 128.465530,386.051788 
	C126.944519,402.343079 129.382706,417.821320 140.132523,431.772858 
	C146.108093,439.449402 153.538925,444.699310 163.589508,444.947784 
	C175.809875,445.249939 184.360550,438.627716 190.642365,429.036499 
	C200.395264,414.145599 202.727173,397.635406 199.393814,380.341644 
	C197.125992,368.576019 192.753128,357.783417 182.708267,349.392700 
M264.935547,397.500000 
	C264.935333,385.844086 264.860352,374.187317 264.991058,362.532867 
	C265.021149,359.852692 263.884491,358.768311 261.783478,357.189911 
	C257.516571,353.984375 253.349411,350.276642 250.297852,345.958496 
	C248.407013,343.282867 247.020798,342.101257 243.804626,342.123444 
	C224.656509,342.255676 205.507034,342.182678 186.358017,342.203979 
	C185.196335,342.205261 184.034882,342.424622 182.346756,342.595978 
	C212.542786,365.071686 213.992050,420.774567 182.411453,444.990784 
	C204.258713,444.990784 225.490768,445.011932 246.722244,444.912323 
	C247.558151,444.908417 248.811478,443.928345 249.155380,443.104614 
	C252.164337,435.897949 257.476990,431.211700 264.935486,428.605682 
	C264.935486,418.460449 264.935486,408.480225 264.935547,397.500000 
M128.644775,421.800751 
	C117.958138,391.846375 121.681168,365.036682 145.774231,342.611481 
	C145.664902,342.540344 145.421402,342.243317 145.177444,342.242950 
	C124.528358,342.211609 103.878677,342.141144 83.231361,342.328949 
	C81.811615,342.341827 79.822563,343.996033 79.103928,345.401245 
	C76.424347,350.640778 72.861282,354.961792 67.354752,357.110657 
	C64.439850,358.248169 63.858646,359.922668 63.879818,362.727692 
	C63.990444,377.381378 63.931297,392.036346 63.931221,406.690887 
	C63.931183,413.998444 63.931210,421.305969 63.931210,428.709229 
	C72.159363,431.491089 77.481483,436.892609 80.117264,444.653870 
	C102.235626,444.653870 124.061050,444.653870 146.762405,444.653870 
	C138.205261,438.611267 132.765091,431.186798 128.644775,421.800751 
z"/>
<path fill="#D8A224" opacity="1.000000" stroke="none" 
	d="
M425.013428,440.998779 
	C425.282471,441.503387 425.551544,442.007965 425.944855,442.772339 
	C418.191742,442.901245 410.078186,443.950500 402.479126,442.429382 
	C373.912445,436.711060 353.345245,414.612000 349.021362,385.564362 
	C348.108704,379.433228 348.862976,373.053955 348.912354,366.371948 
	C349.478241,366.228546 349.980927,366.502197 350.742737,367.159729 
	C351.008179,367.721130 351.014465,367.898682 351.006714,368.535828 
	C349.817505,388.574005 355.841919,405.558350 369.329132,419.848114 
	C384.178986,435.581604 402.446198,442.494751 424.229126,441.000671 
	C424.664825,441.003937 424.839142,441.001343 425.013428,440.998779 
z"/>
<path fill="#FEA605" opacity="1.000000" stroke="none" 
	d="
M345.835693,372.609436 
	C344.612457,373.467896 343.457825,373.952576 342.303192,374.437256 
	C342.303192,372.409637 342.303192,370.382050 342.303192,368.354431 
	C342.935608,368.199097 343.567993,368.043793 344.200409,367.888458 
	C344.768372,369.337524 345.336365,370.786621 345.835693,372.609436 
z"/>
<path fill="#FCBC2B" opacity="1.000000" stroke="none" 
	d="
M501.998901,391.624023 
	C496.603302,388.755676 493.051758,383.573456 488.300720,378.893280 
	C487.991791,378.281158 487.988617,378.104950 487.984619,377.473572 
	C488.487854,355.998657 481.729004,337.740509 466.492065,323.137146 
	C451.929993,309.180603 434.013000,303.671692 413.824768,304.013611 
	C413.377228,304.003113 413.198212,303.998901 413.019165,303.994690 
	C408.776764,299.541290 404.534363,295.087921 400.119629,290.349976 
	C423.060852,286.401062 444.365967,291.541473 463.548126,304.451843 
	C485.672577,319.342468 498.849762,340.292755 501.949951,366.938965 
	C502.878662,374.921417 502.060425,383.107117 501.998901,391.624023 
z"/>
<path fill="#FEBB40" opacity="1.000000" stroke="none" 
	d="
M487.985413,377.928772 
	C487.988617,378.104950 487.991791,378.281158 487.999939,378.721436 
	C486.017487,386.108795 484.165405,393.274170 481.969543,400.332550 
	C481.196259,402.818268 479.581299,405.042145 477.890442,407.524567 
	C466.721924,397.021484 456.026093,386.366852 445.301819,375.740875 
	C434.581451,365.118774 423.832672,354.525391 413.085144,343.694366 
	C413.073944,343.469330 413.079895,343.017273 413.484619,342.996582 
	C423.116852,340.788696 428.261017,343.201813 431.066742,351.425079 
	C432.488953,354.639801 440.433594,356.395416 442.300781,354.222290 
	C442.762482,353.684937 443.102905,352.536621 442.843689,351.967743 
	C440.993378,347.906891 438.973328,343.923370 436.949463,339.576813 
	C433.962982,337.024170 430.936096,334.925018 428.149353,332.544708 
	C426.856995,331.440826 425.137848,329.772919 425.164001,328.390045 
	C425.240234,324.360016 423.271698,323.620514 419.550934,324.040771 
	C416.013428,323.744293 413.724731,324.077515 413.775085,328.264038 
	C413.792206,329.688354 411.974487,331.374054 410.630371,332.507874 
	C409.296844,333.632782 407.503998,334.213257 405.674500,335.036865 
	C405.436401,335.041229 404.960205,335.051086 404.682251,334.869507 
	C397.597351,327.797455 390.790375,320.907013 383.983429,314.016541 
	C392.824768,308.941010 402.233063,305.560944 412.719299,304.251129 
	C413.198212,303.998901 413.377228,304.003113 413.954956,304.312439 
	C414.891113,305.251221 415.386627,305.926697 415.971985,306.512360 
	C438.942108,329.493896 461.916931,352.470734 484.910278,375.428986 
	C485.840240,376.357483 486.956146,377.099731 487.985413,377.928772 
z"/>
<path fill="#FEA402" opacity="1.000000" stroke="none" 
	d="
M383.739441,314.003082 
	C390.790375,320.907013 397.597351,327.797455 404.532166,335.159546 
	C401.775726,339.760468 398.891418,343.889801 395.716095,347.856750 
	C387.598877,340.128815 379.772675,332.563293 371.946503,324.997742 
	C371.895142,324.565399 371.843781,324.133057 371.731506,323.379517 
	C375.342255,320.229370 379.013916,317.400421 382.846252,314.273926 
	C383.006927,313.976379 383.495453,313.989624 383.739441,314.003082 
z"/>
<path fill="#FEA402" opacity="1.000000" stroke="none" 
	d="
M413.096344,343.919403 
	C423.832672,354.525391 434.581451,365.118774 445.301819,375.740875 
	C456.026093,386.366852 466.721924,397.021484 477.721130,407.823181 
	C478.023224,408.149139 478.034454,408.315460 478.063782,408.731079 
	C474.937988,412.640747 471.794067,416.301178 468.032410,419.840363 
	C459.265442,411.473785 451.116211,403.228455 442.971191,394.541351 
	C442.998016,376.768311 433.119293,367.197540 414.711548,366.826050 
	C411.954498,364.103790 409.482544,361.548462 407.008575,358.549011 
	C406.365234,352.229645 407.439667,347.090942 413.096344,343.919403 
z"/>
<path fill="#FEBB41" opacity="1.000000" stroke="none" 
	d="
M371.608093,325.039795 
	C379.772675,332.563293 387.598877,340.128815 395.726135,348.110107 
	C396.033234,348.694885 396.039337,348.863953 396.026855,349.492004 
	C395.990906,351.946228 396.119690,353.955383 395.931793,355.934418 
	C394.894775,366.856598 407.111938,379.189178 418.380188,378.032104 
	C419.113281,378.028229 419.532196,378.020477 420.215027,378.251465 
	C427.324158,380.450714 431.480133,384.856842 431.855133,390.551086 
	C432.162384,395.215942 428.434906,400.541473 422.854126,403.034424 
	C422.435883,403.001648 422.268707,402.986694 421.934204,402.680481 
	C411.683655,392.247589 401.586304,382.119873 391.520996,371.960419 
	C380.991913,361.332794 370.493561,350.674683 359.981781,340.029907 
	C359.982239,339.852203 359.982666,339.674530 359.980652,339.229919 
	C363.742035,334.335938 367.505859,329.708893 371.608093,325.039795 
z"/>
<path fill="#FEBB41" opacity="1.000000" stroke="none" 
	d="
M442.966949,394.983093 
	C451.116211,403.228455 459.265442,411.473785 467.690369,419.910858 
	C467.966034,420.102570 467.985992,420.570801 467.994324,420.805359 
	C463.160217,424.853027 458.317780,428.666138 453.260559,432.731262 
	C453.045746,432.983276 452.592957,432.979370 452.184143,432.692505 
	C444.879425,425.582581 437.983521,418.759521 431.078186,411.709717 
	C431.068756,411.482941 431.057098,411.029175 431.392456,410.971039 
	C437.573273,407.149475 441.509918,402.153320 442.267212,394.961609 
	C442.500427,394.969788 442.966949,394.983093 442.966949,394.983093 
z"/>
<path fill="#FEA402" opacity="1.000000" stroke="none" 
	d="
M359.669312,340.157349 
	C370.493561,350.674683 380.991913,361.332794 391.520996,371.960419 
	C401.586304,382.119873 411.683655,392.247589 421.638367,402.930817 
	C415.120026,404.478180 408.521942,400.902618 407.341125,394.890381 
	C406.610321,391.169342 404.913391,390.698242 401.517212,391.088135 
	C397.119537,390.445282 395.323242,391.997131 395.975189,396.109650 
	C396.124878,397.053802 396.015533,398.039001 395.731018,398.848389 
	C393.167694,396.492615 390.881104,394.311707 388.632751,392.092072 
	C376.441895,380.056580 364.260468,368.011566 352.075806,355.969818 
	C352.075806,355.969818 351.979889,355.524414 351.922180,355.304108 
	C354.361938,350.150787 356.859375,345.217773 359.669312,340.157349 
z"/>
<path fill="#FEA402" opacity="1.000000" stroke="none" 
	d="
M431.087585,411.936462 
	C437.983521,418.759521 444.879425,425.582581 451.957764,432.692169 
	C451.869476,433.170135 451.598755,433.361603 450.882416,433.800903 
	C449.958496,434.372772 449.480225,434.696808 449.001953,435.020813 
	C449.001953,435.020782 448.998505,435.000214 448.788635,435.114746 
	C448.296875,435.421234 448.096710,435.677124 447.978302,435.996948 
	C447.978302,435.996948 448.004272,436.003143 447.667542,435.991425 
	C446.553680,436.322571 445.776520,436.665436 444.999359,437.008301 
	C444.999359,437.008301 445.000000,437.000000 444.615479,437.006409 
	C441.477264,437.683197 438.723572,438.353577 435.685150,438.855225 
	C429.940735,433.128815 424.481110,427.571167 419.256958,421.986389 
	C419.492432,421.959259 419.960114,421.879456 420.382385,421.903748 
	C422.175049,421.175293 424.793304,420.262848 424.720581,419.694702 
	C424.074982,414.648926 427.221527,413.070648 431.087585,411.936462 
z"/>
<path fill="#DEA422" opacity="1.000000" stroke="none" 
	d="
M435.969910,439.023987 
	C438.723572,438.353577 441.477264,437.683197 444.619537,437.008423 
	C442.886139,438.230927 440.764160,439.457794 438.333710,440.834534 
	C437.504059,440.726685 436.982849,440.468964 436.213348,439.855347 
	C435.965027,439.499512 435.969910,439.023987 435.969910,439.023987 
z"/>
<path fill="#DEA422" opacity="1.000000" stroke="none" 
	d="
M445.334229,437.009308 
	C445.776520,436.665436 446.553680,436.322571 447.665894,435.978149 
	C447.223694,436.321136 446.446411,436.665710 445.334229,437.009308 
z"/>
<path fill="#DEA422" opacity="1.000000" stroke="none" 
	d="
M449.301147,434.987610 
	C449.480225,434.696808 449.958496,434.372772 450.731201,433.998962 
	C450.550507,434.284210 450.075409,434.619324 449.301147,434.987610 
z"/>
<path fill="#DEA422" opacity="1.000000" stroke="none" 
	d="
M448.195679,435.881714 
	C448.096710,435.677124 448.296875,435.421234 448.798737,435.117126 
	C448.892151,435.318726 448.690247,435.572540 448.195679,435.881714 
z"/>
<path fill="#FEBB41" opacity="1.000000" stroke="none" 
	d="
M435.685150,438.855225 
	C435.969910,439.023987 435.965027,439.499512 435.947876,439.736389 
	C432.581024,440.317780 429.231354,440.662262 425.447571,441.002777 
	C424.839142,441.001343 424.664825,441.003937 424.071838,440.711304 
	C400.335907,417.032776 377.021179,393.647034 353.691040,370.276672 
	C352.880005,369.464264 351.914337,368.806183 351.020721,368.076202 
	C351.014465,367.898682 351.008179,367.721130 351.003387,367.277222 
	C351.344574,363.615173 351.684296,360.219452 352.049896,356.396790 
	C364.260468,368.011566 376.441895,380.056580 388.632751,392.092072 
	C390.881104,394.311707 393.167694,396.492615 395.715393,398.842865 
	C395.994171,398.994293 395.977509,398.966858 396.096924,399.169617 
	C396.408264,399.631866 396.656006,399.816345 397.120758,400.225647 
	C403.602753,407.360413 409.897003,414.220459 416.287720,420.989441 
	C416.887573,421.624786 418.095703,421.685852 419.021454,422.013550 
	C424.481110,427.571167 429.940735,433.128815 435.685150,438.855225 
z"/>
<path fill="#63536D" opacity="1.000000" stroke="none" 
	d="
M330.237823,196.378983 
	C329.529877,196.783203 328.680786,197.052750 328.141479,197.617889 
	C326.755219,199.070541 325.506317,200.654282 324.202515,202.185638 
	C326.233398,202.209991 328.264282,202.234344 330.643280,202.643875 
	C330.990295,210.347153 330.989166,217.665237 330.988068,224.983337 
	C330.337402,226.071091 329.686737,227.158844 329.027863,229.005371 
	C326.593079,245.564377 318.737030,258.655914 308.203003,270.200714 
	C296.472229,283.057129 281.626007,290.799408 264.877289,295.074524 
	C263.456451,295.290161 262.035645,295.505798 259.924774,295.876160 
	C251.877289,296.340118 244.519852,296.649384 237.162399,296.958649 
	C236.777496,294.669647 240.942657,291.796173 236.823547,290.388794 
	C235.865280,290.061401 233.503387,293.842102 231.195984,295.807617 
	C222.691772,293.249329 214.778915,290.615997 206.866043,287.982697 
	C209.256790,285.443024 211.831604,283.045135 213.950073,280.295685 
	C214.829575,279.154205 214.734222,277.261566 215.082184,275.710571 
	C213.526581,276.151398 211.536118,276.135895 210.500641,277.122620 
	C207.874680,279.624878 205.676926,282.576569 202.355713,286.462006 
	C196.377289,277.680267 191.316879,270.247009 185.804901,262.150482 
	C190.498611,260.149414 194.065399,258.853577 197.384888,257.091827 
	C198.548386,256.474304 199.104004,254.711426 199.937195,253.471558 
	C198.516647,253.178329 196.926025,252.326111 195.707474,252.696854 
	C192.082382,253.799744 188.603561,255.383423 183.876968,257.249207 
	C182.074051,248.134918 180.370422,239.522583 178.499176,230.062836 
	C183.155899,230.062836 186.632278,230.304840 190.049103,229.958740 
	C191.709198,229.790588 193.257812,228.522125 194.856903,227.751770 
	C193.183289,226.862442 191.577057,225.414795 189.821686,225.203003 
	C186.435242,224.794403 182.964584,225.083801 178.479843,225.083801 
	C180.379547,215.746277 182.079453,207.390854 183.936783,198.261597 
	C188.713364,200.134033 192.333282,201.724243 196.080276,202.914368 
	C197.161209,203.257690 198.607742,202.449966 199.886658,202.169922 
	C199.293320,200.969925 199.010834,199.184891 198.050888,198.674820 
	C194.557648,196.818649 190.837845,195.388885 186.013718,193.277710 
	C191.047729,185.655106 195.730164,178.564880 201.055862,170.500610 
	C204.584030,173.971619 207.088974,176.765915 209.966888,179.100418 
	C211.075302,179.999512 213.031906,179.852951 214.602051,180.182831 
	C214.221008,178.720596 214.295776,176.797226 213.371964,175.884125 
	C210.784073,173.326233 207.783783,171.185562 204.946198,168.880280 
	C205.077576,168.122177 205.208954,167.364059 205.340317,166.605942 
	C212.759048,161.589844 220.177780,156.573761 228.203613,151.147186 
	C230.254181,155.775345 231.683075,159.457626 233.530167,162.916580 
	C234.160355,164.096741 235.841385,164.715775 237.042267,165.591187 
	C237.327942,164.000000 238.185074,162.245758 237.786713,160.849762 
	C236.795303,157.375488 235.232010,154.064407 233.374390,149.361237 
	C242.288071,147.568085 250.583649,145.899277 260.044891,143.995972 
	C260.044891,149.056442 259.815796,152.820419 260.157196,156.531921 
	C260.294617,158.025681 261.682861,159.404388 262.501831,160.835449 
	C263.587280,159.413818 264.752106,158.042892 265.711914,156.540939 
	C266.016541,156.064209 265.773346,155.238281 265.783295,154.572174 
	C265.931458,144.641815 265.963226,144.453293 275.625366,146.074738 
	C280.990082,146.975006 286.228394,148.628708 292.158722,150.100418 
	C290.533447,154.239044 288.949707,157.669937 287.897736,161.256760 
	C287.495667,162.627716 288.310547,164.355576 288.570831,165.920776 
	C289.865753,164.908676 291.635681,164.156265 292.359711,162.832001 
	C294.021057,159.793320 295.172516,156.475830 297.111389,151.902481 
	C304.823059,157.121384 312.073364,162.028061 320.625183,167.815536 
	C316.619965,171.424026 313.559601,173.953537 310.821899,176.794083 
	C310.055298,177.589493 310.239197,179.301056 309.987091,180.592377 
	C311.402649,180.448257 313.215912,180.807526 314.157532,180.063568 
	C316.755707,178.010727 318.989441,175.496552 321.807495,173.332855 
	C324.911072,181.126907 327.574463,188.752945 330.237823,196.378983 
M267.934357,184.274643 
	C251.640961,182.661758 238.173950,187.974472 227.748352,200.703033 
	C216.116364,214.904495 215.141937,235.923996 225.375549,251.521042 
	C235.799881,267.408752 255.640305,275.053650 273.330719,269.999115 
	C293.470367,264.244781 306.792236,246.094650 305.894958,225.632538 
	C304.991333,205.025757 290.053986,188.464340 267.934357,184.274643 
z"/>
<path fill="#54465D" opacity="1.000000" stroke="none" 
	d="
M264.979553,295.473755 
	C281.626007,290.799408 296.472229,283.057129 308.203003,270.200714 
	C318.737030,258.655914 326.593079,245.564377 329.037781,229.342804 
	C334.097656,229.504150 339.139374,230.086823 345.522003,230.824463 
	C343.779510,239.472198 342.046173,248.074493 340.189178,257.290619 
	C335.598114,255.386597 332.154205,253.733978 328.549500,252.586655 
	C327.310608,252.192352 325.669983,253.060165 324.212891,253.351364 
	C325.013367,254.581055 325.617432,256.030060 326.672821,256.975067 
	C327.615234,257.818909 329.060577,258.095917 330.276062,258.640717 
	C338.015289,262.109344 338.185852,262.219513 333.698883,269.298126 
	C330.434845,274.447540 326.642639,279.262146 323.085876,284.226044 
	C322.307770,284.591217 321.529633,284.956390 320.751526,285.321564 
	C318.330444,282.169617 316.039948,278.901031 313.399658,275.944855 
	C312.710480,275.173187 310.932556,275.373901 309.654663,275.128021 
	C309.751953,276.489624 309.313385,278.382050 310.042358,279.117920 
	C312.727875,281.828888 315.800110,284.156830 319.058136,286.908569 
	C312.964142,294.222260 306.111053,298.159088 299.011139,301.653290 
	C298.306580,302.000031 296.121887,300.594391 295.453461,299.496979 
	C294.082458,297.246124 293.508881,294.510101 292.141144,292.256592 
	C291.392487,291.023041 289.693420,290.366364 288.422913,289.449524 
	C288.206512,291.073822 287.452179,292.859131 287.880615,294.290405 
	C288.916290,297.750336 290.503998,301.045044 292.432922,305.794556 
	C284.248810,307.290588 276.693634,308.815308 269.073578,309.871948 
	C268.181580,309.995636 266.262115,307.670929 265.981415,306.251404 
	C265.311768,302.865051 265.337128,299.341278 264.979553,295.473755 
z"/>
<path fill="#54465D" opacity="1.000000" stroke="none" 
	d="
M331.454102,225.011383 
	C330.989166,217.665237 330.990295,210.347153 330.983826,202.570709 
	C333.523468,200.998474 336.070709,199.884583 339.888672,198.215027 
	C341.359528,204.503006 343.093475,210.096222 343.909729,215.820297 
	C345.223602,225.034058 344.967712,225.071228 335.397217,225.061615 
	C334.238190,225.060455 333.079163,225.047119 331.454102,225.011383 
z"/>
<path fill="#54465D" opacity="1.000000" stroke="none" 
	d="
M236.963959,297.269867 
	C244.519852,296.649384 251.877289,296.340118 259.672119,296.044128 
	C260.082855,298.210968 260.036469,300.364532 260.033142,302.518188 
	C260.020691,310.537323 259.981995,310.879059 252.195419,309.876190 
	C246.074570,309.087860 240.079773,307.320862 233.363251,305.842041 
	C234.784149,302.391998 235.774841,299.986542 236.963959,297.269867 
z"/>
<path fill="#54455B" opacity="1.000000" stroke="none" 
	d="
M206.706726,288.203461 
	C214.778915,290.615997 222.691772,293.249329 230.980698,296.085938 
	C230.853867,297.850250 230.650177,299.623077 229.746124,300.900024 
	C229.111206,301.796875 226.998047,302.798157 226.439209,302.422516 
	C219.711838,297.900391 213.151398,293.129913 206.706726,288.203461 
z"/>
<path fill="#54455C" opacity="1.000000" stroke="none" 
	d="
M330.597168,196.283234 
	C327.574463,188.752945 324.911072,181.126907 322.101074,173.164352 
	C323.215546,173.423920 324.926514,173.686401 325.659180,174.674377 
	C328.692047,178.764053 331.584412,182.978256 334.238129,187.323959 
	C338.190002,193.795593 338.085632,193.859329 330.597168,196.283234 
z"/>
<path fill="#5DCA48" opacity="1.000000" stroke="none" 
	d="
M264.935516,398.000000 
	C264.935486,408.480225 264.935486,418.460449 264.935486,428.605682 
	C257.476990,431.211700 252.164337,435.897949 249.155380,443.104614 
	C248.811478,443.928345 247.558151,444.908417 246.722244,444.912323 
	C225.490768,445.011932 204.258713,444.990784 182.411453,444.990784 
	C213.992050,420.774567 212.542786,365.071686 182.346756,342.595978 
	C184.034882,342.424622 185.196335,342.205261 186.358017,342.203979 
	C205.507034,342.182678 224.656509,342.255676 243.804626,342.123444 
	C247.020798,342.101257 248.407013,343.282867 250.297852,345.958496 
	C253.349411,350.276642 257.516571,353.984375 261.783478,357.189911 
	C263.884491,358.768311 265.021149,359.852692 264.991058,362.532867 
	C264.860352,374.187317 264.935333,385.844086 264.935516,398.000000 
M228.981979,382.459351 
	C223.605728,388.867493 222.699600,394.951508 226.183258,401.250824 
	C229.296494,406.880310 235.493240,410.202698 241.540466,409.484589 
	C248.550674,408.652161 253.910492,403.932587 255.582291,397.119965 
	C257.071594,391.051147 254.324829,384.258423 248.890244,380.570312 
	C242.945282,376.535828 236.147324,377.026184 228.981979,382.459351 
z"/>
<path fill="#5DCA48" opacity="1.000000" stroke="none" 
	d="
M128.792084,422.153870 
	C132.765091,431.186798 138.205261,438.611267 146.762405,444.653870 
	C124.061050,444.653870 102.235626,444.653870 80.117264,444.653870 
	C77.481483,436.892609 72.159363,431.491089 63.931210,428.709229 
	C63.931210,421.305969 63.931183,413.998444 63.931221,406.690887 
	C63.931297,392.036346 63.990444,377.381378 63.879818,362.727692 
	C63.858646,359.922668 64.439850,358.248169 67.354752,357.110657 
	C72.861282,354.961792 76.424347,350.640778 79.103928,345.401245 
	C79.822563,343.996033 81.811615,342.341827 83.231361,342.328949 
	C103.878677,342.141144 124.528358,342.211609 145.177444,342.242950 
	C145.421402,342.243317 145.664902,342.540344 145.774231,342.611481 
	C121.681168,365.036682 117.958138,391.846375 128.792084,422.153870 
M79.513229,380.825409 
	C73.016975,386.385773 71.079498,393.134094 74.042076,399.881714 
	C76.911331,406.416779 83.809662,410.418030 90.539078,409.435760 
	C97.322174,408.445618 101.852264,404.530731 103.792976,398.131836 
	C105.756310,391.658417 103.929573,385.833984 98.683472,381.528687 
	C92.895248,376.778503 86.560379,376.669373 79.513229,380.825409 
z"/>
<path fill="#FDFDFC" opacity="1.000000" stroke="none" 
	d="
M182.938873,350.033142 
	C192.753128,357.783417 197.125992,368.576019 199.393814,380.341644 
	C202.727173,397.635406 200.395264,414.145599 190.642365,429.036499 
	C184.360550,438.627716 175.809875,445.249939 163.589508,444.947784 
	C153.538925,444.699310 146.108093,439.449402 140.057617,431.058502 
	C134.493576,414.574585 132.776398,398.544037 138.152832,382.481720 
	C143.863968,365.419525 152.964966,351.431122 173.092361,349.532471 
	C176.329987,349.227051 179.654510,349.843048 182.938873,350.033142 
M177.966568,370.393158 
	C177.671951,370.119843 177.377335,369.846527 176.791077,368.988647 
	C174.351578,365.238678 167.483139,365.637360 167.653214,359.325653 
	C167.655945,359.224670 165.908066,359.076508 164.152283,358.803009 
	C162.872742,359.263184 160.463806,359.793060 160.487244,360.172791 
	C160.739334,364.257812 157.322937,364.776794 154.958771,366.329132 
	C149.463898,369.937134 146.094894,377.123901 147.421432,383.122437 
	C148.955383,390.058746 152.512405,395.332550 160.831406,397.003784 
	C163.869492,397.742096 166.907578,398.480377 170.241501,399.851959 
	C174.592133,405.766602 174.340149,408.853729 168.242493,415.154236 
	C161.505356,416.764343 158.862686,415.378632 155.636276,409.122498 
	C155.100861,408.084351 153.257736,407.720612 151.218674,406.911713 
	C149.966049,407.035980 148.713425,407.160278 147.326172,407.297913 
	C147.779953,413.778564 150.787521,418.169647 155.641785,421.660767 
	C157.863312,423.258484 159.625702,425.494598 161.596313,427.441193 
	C161.329269,427.850830 161.062241,428.260468 160.795197,428.670105 
	C162.233505,428.670105 163.671829,428.670105 165.878906,428.784607 
	C166.680374,427.838623 167.512680,426.916718 168.274979,425.940125 
	C169.101837,424.880829 169.627228,423.360870 170.690994,422.747620 
	C179.136322,417.879059 182.573685,411.501465 180.965607,403.150543 
	C179.595734,396.036621 172.376297,389.539917 164.479813,389.683624 
	C160.573166,389.754761 157.509293,387.622559 156.022171,383.773315 
	C154.339142,379.416992 156.397308,374.291901 160.547394,372.380035 
	C165.307907,370.186981 169.863113,372.221954 173.090744,378.786163 
	C175.218475,382.741882 178.224411,380.309601 182.321808,380.252167 
	C180.661270,376.593109 179.366486,373.739960 178.037628,370.959656 
	C178.037628,370.959656 178.113190,370.987244 177.966568,370.393158 
z"/>
<path fill="#D8D6D6" opacity="1.000000" stroke="none" 
	d="
M182.823578,349.712891 
	C179.654510,349.843048 176.329987,349.227051 173.092361,349.532471 
	C152.964966,351.431122 143.863968,365.419525 138.152832,382.481720 
	C132.776398,398.544037 134.493576,414.574585 139.953064,430.742371 
	C129.382706,417.821320 126.944519,402.343079 128.465530,386.051788 
	C129.631973,373.558044 133.789276,362.066315 142.572906,352.714355 
	C154.259598,340.271515 169.063004,339.096100 182.823578,349.712891 
z"/>
<path fill="#FEA402" opacity="1.000000" stroke="none" 
	d="
M351.006714,368.535828 
	C351.914337,368.806183 352.880005,369.464264 353.691040,370.276672 
	C377.021179,393.647034 400.335907,417.032776 423.810425,440.705414 
	C402.446198,442.494751 384.178986,435.581604 369.329132,419.848114 
	C355.841919,405.558350 349.817505,388.574005 351.006714,368.535828 
z"/>
<path fill="#FEA502" opacity="1.000000" stroke="none" 
	d="
M487.984619,377.473572 
	C486.956146,377.099731 485.840240,376.357483 484.910278,375.428986 
	C461.916931,352.470734 438.942108,329.493896 415.971985,306.512360 
	C415.386627,305.926697 414.891113,305.251221 414.223511,304.318787 
	C434.013000,303.671692 451.929993,309.180603 466.492065,323.137146 
	C481.729004,337.740509 488.487854,355.998657 487.984619,377.473572 
M452.085938,317.995636 
	C451.255524,317.981964 450.382507,317.795624 449.602875,317.987854 
	C447.493500,318.507874 445.423798,319.188721 443.338348,319.805786 
	C444.401093,321.545959 445.197357,323.540924 446.574127,324.980865 
	C451.715057,330.357880 456.963226,335.640625 462.363098,340.756104 
	C463.751007,342.071014 465.841675,342.644135 467.609528,343.558014 
	C468.314941,341.308411 469.851074,338.954498 469.583923,336.827026 
	C468.340454,326.924988 462.657196,320.611786 452.085938,317.995636 
z"/>
<path fill="#F8A159" opacity="1.000000" stroke="none" 
	d="
M419.977264,324.056030 
	C423.271698,323.620514 425.240234,324.360016 425.164001,328.390045 
	C425.137848,329.772919 426.856995,331.440826 428.149353,332.544708 
	C430.936096,334.925018 433.962982,337.024170 436.957947,339.981934 
	C437.203339,341.530701 437.328125,342.352600 437.569824,343.138550 
	C439.967712,350.935364 439.973206,350.933533 432.053802,351.008209 
	C431.722076,351.011353 431.390411,351.022552 431.058716,351.029999 
	C428.261017,343.201813 423.116852,340.788696 413.197266,342.844391 
	C411.329407,341.484283 410.153687,340.255676 408.983093,338.777222 
	C408.988220,338.527374 408.994904,338.027618 409.162476,337.729492 
	C410.917725,336.277832 412.348938,334.592560 414.122498,334.070648 
	C419.415192,332.513275 420.920898,329.084991 419.977264,324.056030 
z"/>
<path fill="#F58323" opacity="1.000000" stroke="none" 
	d="
M408.977966,339.027069 
	C410.153687,340.255676 411.329407,341.484283 412.792511,342.865051 
	C413.079895,343.017273 413.073944,343.469330 413.085144,343.694366 
	C407.439667,347.090942 406.365234,352.229645 406.723694,358.400299 
	C404.987427,357.428589 403.534058,356.161438 402.040283,354.604706 
	C401.933929,353.931335 401.867950,353.547516 401.854126,352.757324 
	C403.101135,347.292725 403.564087,341.846008 408.977966,339.027069 
z"/>
<path fill="#F69443" opacity="1.000000" stroke="none" 
	d="
M408.983093,338.777222 
	C403.564087,341.846008 403.101135,347.292725 401.547760,352.659790 
	C399.474640,351.656769 397.760040,350.344910 396.045410,349.033020 
	C396.039337,348.863953 396.033234,348.694885 396.017151,348.272491 
	C398.891418,343.889801 401.775726,339.760468 404.810120,335.341125 
	C404.960205,335.051086 405.436401,335.041229 405.746887,335.364929 
	C407.036530,336.468323 408.015717,337.247955 408.994904,338.027618 
	C408.994904,338.027618 408.988220,338.527374 408.983093,338.777222 
z"/>
<path fill="#F8AF71" opacity="1.000000" stroke="none" 
	d="
M409.162476,337.729492 
	C408.015717,337.247955 407.036530,336.468323 405.984985,335.360596 
	C407.503998,334.213257 409.296844,333.632782 410.630371,332.507874 
	C411.974487,331.374054 413.792206,329.688354 413.775085,328.264038 
	C413.724731,324.077515 416.013428,323.744293 419.550934,324.040771 
	C420.920898,329.084991 419.415192,332.513275 414.122498,334.070648 
	C412.348938,334.592560 410.917725,336.277832 409.162476,337.729492 
z"/>
<path fill="#DF9654" opacity="1.000000" stroke="none" 
	d="
M431.066742,351.425079 
	C431.390411,351.022552 431.722076,351.011353 432.053802,351.008209 
	C439.973206,350.933533 439.967712,350.935364 437.569824,343.138550 
	C437.328125,342.352600 437.203339,341.530701 437.015808,340.320374 
	C438.973328,343.923370 440.993378,347.906891 442.843689,351.967743 
	C443.102905,352.536621 442.762482,353.684937 442.300781,354.222290 
	C440.433594,356.395416 432.488953,354.639801 431.066742,351.425079 
z"/>
<path fill="#F58426" opacity="1.000000" stroke="none" 
	d="
M442.971191,394.541351 
	C442.966949,394.983093 442.500427,394.969788 442.112915,394.685852 
	C440.509552,393.237274 439.293701,392.072632 438.001404,390.576416 
	C433.637146,386.150970 429.349365,382.057068 424.895142,377.674316 
	C421.484680,373.921295 418.240662,370.457123 414.996613,366.992981 
	C433.119293,367.197540 442.998016,376.768311 442.971191,394.541351 
z"/>
<path fill="#F8A259" opacity="1.000000" stroke="none" 
	d="
M414.711548,366.826050 
	C418.240662,370.457123 421.484680,373.921295 424.468689,377.688354 
	C422.789429,377.998413 421.370270,378.005585 419.951080,378.012726 
	C419.532196,378.020477 419.113281,378.028229 418.151062,377.772705 
	C408.405823,372.735352 401.857635,366.139313 402.080688,354.894287 
	C403.534058,356.161438 404.987427,357.428589 406.725708,358.844421 
	C409.482544,361.548462 411.954498,364.103790 414.711548,366.826050 
z"/>
<path fill="#F58222" opacity="1.000000" stroke="none" 
	d="
M431.078186,411.709717 
	C427.221527,413.070648 424.074982,414.648926 424.720581,419.694702 
	C424.793304,420.262848 422.175049,421.175293 420.392548,421.479950 
	C420.595276,416.825012 419.354309,414.291595 415.012360,412.303680 
	C406.244415,408.289429 402.067719,400.793488 401.941864,391.116364 
	C404.913391,390.698242 406.610321,391.169342 407.341125,394.890381 
	C408.521942,400.902618 415.120026,404.478180 421.805695,403.222046 
	C422.268707,402.986694 422.435883,403.001648 422.948181,403.236694 
	C423.478821,403.701996 423.713562,403.883636 424.158325,404.289856 
	C426.565155,406.728394 428.811127,408.878784 431.057098,411.029175 
	C431.057098,411.029175 431.068756,411.482941 431.078186,411.709717 
z"/>
<path fill="#F8AF71" opacity="1.000000" stroke="none" 
	d="
M402.040283,354.604706 
	C401.857635,366.139313 408.405823,372.735352 417.836853,377.768799 
	C407.111938,379.189178 394.894775,366.856598 395.931793,355.934418 
	C396.119690,353.955383 395.990906,351.946228 396.026855,349.492004 
	C397.760040,350.344910 399.474640,351.656769 401.495605,353.066193 
	C401.867950,353.547516 401.933929,353.931335 402.040283,354.604706 
z"/>
<path fill="#F8AD6D" opacity="1.000000" stroke="none" 
	d="
M423.997498,404.001678 
	C423.713562,403.883636 423.478821,403.701996 423.199280,403.254486 
	C428.434906,400.541473 432.162384,395.215942 431.855133,390.551086 
	C431.480133,384.856842 427.324158,380.450714 420.215027,378.251465 
	C421.370270,378.005585 422.789429,377.998413 424.635101,377.977234 
	C429.349365,382.057068 433.637146,386.150970 437.976685,390.975098 
	C436.741547,399.903473 432.318573,403.779663 423.997498,404.001678 
z"/>
<path fill="#F8A159" opacity="1.000000" stroke="none" 
	d="
M424.158325,404.289856 
	C432.318573,403.779663 436.741547,399.903473 438.053162,391.306641 
	C439.293701,392.072632 440.509552,393.237274 441.879700,394.677673 
	C441.509918,402.153320 437.573273,407.149475 431.392456,410.971039 
	C428.811127,408.878784 426.565155,406.728394 424.158325,404.289856 
z"/>
<path fill="#F69544" opacity="1.000000" stroke="none" 
	d="
M401.517212,391.088135 
	C402.067719,400.793488 406.244415,408.289429 415.012360,412.303680 
	C419.354309,414.291595 420.595276,416.825012 419.970276,421.455627 
	C419.960114,421.879456 419.492432,421.959259 419.256958,421.986389 
	C418.095703,421.685852 416.887573,421.624786 416.287720,420.989441 
	C409.897003,414.220459 403.602753,407.360413 397.004120,400.022797 
	C396.534058,399.258087 396.284485,399.073639 395.977509,398.966858 
	C395.977509,398.966858 395.994171,398.994293 396.009796,398.999817 
	C396.015533,398.039001 396.124878,397.053802 395.975189,396.109650 
	C395.323242,391.997131 397.119537,390.445282 401.517212,391.088135 
z"/>
<path fill="#FEA402" opacity="1.000000" stroke="none" 
	d="
M396.096924,399.169617 
	C396.284485,399.073639 396.534058,399.258087 396.842896,399.723022 
	C396.656006,399.816345 396.408264,399.631866 396.096924,399.169617 
z"/>
<path fill="#5C0B10" opacity="1.000000" stroke="none" 
	d="
M268.361694,184.383453 
	C290.053986,188.464340 304.991333,205.025757 305.894958,225.632538 
	C306.792236,246.094650 293.470367,264.244781 273.330719,269.999115 
	C255.640305,275.053650 235.799881,267.408752 225.375549,251.521042 
	C215.141937,235.923996 216.116364,214.904495 227.748352,200.703033 
	C238.173950,187.974472 251.640961,182.661758 268.361694,184.383453 
M225.979034,241.786179 
	C227.005692,243.869858 227.877151,246.048416 229.083801,248.022049 
	C237.979675,262.572662 255.410477,269.523865 271.886322,265.168549 
	C288.615112,260.746368 300.404114,245.952225 300.897949,228.761459 
	C301.375824,212.128189 290.767548,196.689301 274.632568,191.092407 
	C259.271790,186.232559 245.512238,189.271378 234.381088,200.763397 
	C223.335190,212.167435 220.332748,225.869354 225.979034,241.786179 
z"/>
<path fill="#5D1010" opacity="1.000000" stroke="none" 
	d="
M229.253632,382.213257 
	C236.147324,377.026184 242.945282,376.535828 248.890244,380.570312 
	C254.324829,384.258423 257.071594,391.051147 255.582291,397.119965 
	C253.910492,403.932587 248.550674,408.652161 241.540466,409.484589 
	C235.493240,410.202698 229.296494,406.880310 226.183258,401.250824 
	C222.699600,394.951508 223.605728,388.867493 229.253632,382.213257 
M234.280075,402.875641 
	C240.495941,405.712006 245.828903,404.609039 249.071594,399.816437 
	C252.235519,395.140259 251.559280,390.178741 246.757843,385.129791 
	C240.575928,381.431274 234.591812,382.355896 231.053680,387.556366 
	C227.620972,392.601837 228.673828,397.986115 234.280075,402.875641 
z"/>
<path fill="#5D0F11" opacity="1.000000" stroke="none" 
	d="
M79.815201,380.602295 
	C86.560379,376.669373 92.895248,376.778503 98.683472,381.528687 
	C103.929573,385.833984 105.756310,391.658417 103.792976,398.131836 
	C101.852264,404.530731 97.322174,408.445618 90.539078,409.435760 
	C83.809662,410.418030 76.911331,406.416779 74.042076,399.881714 
	C71.079498,393.134094 73.016975,386.385773 79.815201,380.602295 
M81.220123,401.692871 
	C87.325386,405.860382 93.447029,405.223206 97.396744,400.232697 
	C100.377266,396.466766 100.588142,388.139465 94.504066,384.452911 
	C88.276154,381.685760 83.324539,382.610260 79.894081,387.180817 
	C76.742653,391.379608 77.091431,396.335724 81.220123,401.692871 
z"/>
<path fill="#93D647" opacity="1.000000" stroke="none" 
	d="
M164.977127,358.950378 
	C165.908066,359.076508 167.655945,359.224670 167.653214,359.325653 
	C167.483139,365.637360 174.351578,365.238678 177.034103,369.567017 
	C177.555817,370.426025 177.834503,370.706635 178.113190,370.987244 
	C178.113190,370.987244 178.037628,370.959656 178.030334,371.365204 
	C178.133011,375.216156 178.536392,378.892151 173.127319,377.999969 
	C169.863113,372.221954 165.307907,370.186981 160.547394,372.380035 
	C156.397308,374.291901 154.339142,379.416992 156.022171,383.773315 
	C157.509293,387.622559 160.573166,389.754761 164.479813,389.683624 
	C172.376297,389.539917 179.595734,396.036621 180.965607,403.150543 
	C182.573685,411.501465 179.136322,417.879059 170.690994,422.747620 
	C169.627228,423.360870 169.101837,424.880829 168.274979,425.940125 
	C167.512680,426.916718 166.680374,427.838623 165.468994,428.338196 
	C165.411514,424.881592 164.102585,423.307159 161.272888,421.993225 
	C155.081741,419.118500 151.957062,413.977020 152.018921,407.045197 
	C153.257736,407.720612 155.100861,408.084351 155.636276,409.122498 
	C158.862686,415.378632 161.505356,416.764343 168.845490,415.307373 
	C173.900513,415.409180 176.220276,412.639923 177.496811,408.843292 
	C179.202408,403.770386 174.814423,398.281372 169.945663,399.218658 
	C166.907578,398.480377 163.869492,397.742096 160.389313,396.570099 
	C159.246124,395.227844 158.623825,394.243286 157.831894,393.422333 
	C148.342575,383.585144 150.001404,371.658051 162.057907,365.068909 
	C164.883835,363.524475 165.114517,361.514801 164.977127,358.950378 
z"/>
<path fill="#B0E178" opacity="1.000000" stroke="none" 
	d="
M164.564697,358.876709 
	C165.114517,361.514801 164.883835,363.524475 162.057907,365.068909 
	C150.001404,371.658051 148.342575,383.585144 157.831894,393.422333 
	C158.623825,394.243286 159.246124,395.227844 160.009979,396.464783 
	C152.512405,395.332550 148.955383,390.058746 147.421432,383.122437 
	C146.094894,377.123901 149.463898,369.937134 154.958771,366.329132 
	C157.322937,364.776794 160.739334,364.257812 160.487244,360.172791 
	C160.463806,359.793060 162.872742,359.263184 164.564697,358.876709 
z"/>
<path fill="#B0E177" opacity="1.000000" stroke="none" 
	d="
M151.618805,406.978455 
	C151.957062,413.977020 155.081741,419.118500 161.272888,421.993225 
	C164.102585,423.307159 165.411514,424.881592 165.084625,428.280945 
	C163.671829,428.670105 162.233505,428.670105 160.795197,428.670105 
	C161.062241,428.260468 161.329269,427.850830 161.596313,427.441193 
	C159.625702,425.494598 157.863312,423.258484 155.641785,421.660767 
	C150.787521,418.169647 147.779953,413.778564 147.326172,407.297913 
	C148.713425,407.160278 149.966049,407.035980 151.618805,406.978455 
z"/>
<path fill="#AEE074" opacity="1.000000" stroke="none" 
	d="
M170.093582,399.535309 
	C174.814423,398.281372 179.202408,403.770386 177.496811,408.843292 
	C176.220276,412.639923 173.900513,415.409180 169.226181,415.237732 
	C174.340149,408.853729 174.592133,405.766602 170.093582,399.535309 
z"/>
<path fill="#89BE4C" opacity="1.000000" stroke="none" 
	d="
M173.109039,378.393066 
	C178.536392,378.892151 178.133011,375.216156 178.047363,371.328796 
	C179.366486,373.739960 180.661270,376.593109 182.321808,380.252167 
	C178.224411,380.309601 175.218475,382.741882 173.109039,378.393066 
z"/>
<path fill="#89BE4C" opacity="1.000000" stroke="none" 
	d="
M178.039886,370.690186 
	C177.834503,370.706635 177.555817,370.426025 177.179932,369.859314 
	C177.377335,369.846527 177.671951,370.119843 178.039886,370.690186 
z"/>
<path fill="#FEBB40" opacity="1.000000" stroke="none" 
	d="
M452.512024,318.021362 
	C462.657196,320.611786 468.340454,326.924988 469.583923,336.827026 
	C469.851074,338.954498 468.314941,341.308411 467.609497,343.558014 
	C465.841675,342.644135 463.751007,342.071014 462.363098,340.756104 
	C456.963226,335.640625 451.715057,330.357880 446.574127,324.980865 
	C445.197357,323.540924 444.401093,321.545959 443.338379,319.805786 
	C445.423798,319.188721 447.493500,318.507874 449.602875,317.987854 
	C450.382507,317.795624 451.255524,317.981964 452.512024,318.021362 
z"/>
<path fill="#A1A5A3" opacity="1.000000" stroke="none" 
	d="
M275.269318,191.462418 
	C290.767548,196.689301 301.375824,212.128189 300.897949,228.761459 
	C300.404114,245.952225 288.615112,260.746368 271.886322,265.168549 
	C255.410477,269.523865 237.979675,262.572662 229.083801,248.022049 
	C227.877151,246.048416 227.005692,243.869858 226.389038,241.404037 
	C229.622253,241.021713 232.449005,240.929245 235.268143,241.036499 
	C251.940903,241.670883 268.190948,228.858017 273.231476,213.919159 
	C275.723633,206.533051 276.036407,199.078461 275.269318,191.462418 
z"/>
<path fill="#BCC2C0" opacity="1.000000" stroke="none" 
	d="
M274.950928,191.277405 
	C276.036407,199.078461 275.723633,206.533051 273.231476,213.919159 
	C268.190948,228.858017 251.940903,241.670883 235.268143,241.036499 
	C232.449005,240.929245 229.622253,241.021713 226.321411,241.049713 
	C220.332748,225.869354 223.335190,212.167435 234.381088,200.763397 
	C245.512238,189.271378 259.271790,186.232559 274.950928,191.277405 
z"/>
<path fill="#FCFBFB" opacity="1.000000" stroke="none" 
	d="
M233.930725,402.269684 
	C228.673828,397.986115 227.620972,392.601837 231.053680,387.556366 
	C234.591812,382.355896 240.575928,381.431274 246.924271,385.851105 
	C246.375366,393.333221 243.630341,398.456848 236.435516,400.224060 
	C235.490143,400.456238 234.760361,401.566223 233.930725,402.269684 
z"/>
<path fill="#D4D1D1" opacity="1.000000" stroke="none" 
	d="
M234.105408,402.572662 
	C234.760361,401.566223 235.490143,400.456238 236.435516,400.224060 
	C243.630341,398.456848 246.375366,393.333221 247.122162,386.158569 
	C251.559280,390.178741 252.235519,395.140259 249.071594,399.816437 
	C245.828903,404.609039 240.495941,405.712006 234.105408,402.572662 
z"/>
<path fill="#FCFBFB" opacity="1.000000" stroke="none" 
	d="
M80.871841,401.075439 
	C77.091431,396.335724 76.742653,391.379608 79.894081,387.180817 
	C83.324539,382.610260 88.276154,381.685760 94.757912,385.175934 
	C95.508118,390.592499 94.484665,394.978302 90.424240,397.561035 
	C87.626785,399.340424 84.082405,399.945526 80.871841,401.075439 
z"/>
<path fill="#D6D3D3" opacity="1.000000" stroke="none" 
	d="
M81.045982,401.384155 
	C84.082405,399.945526 87.626785,399.340424 90.424240,397.561035 
	C94.484665,394.978302 95.508118,390.592499 94.997269,385.472778 
	C100.588142,388.139465 100.377266,396.466766 97.396744,400.232697 
	C93.447029,405.223206 87.325386,405.860382 81.045982,401.384155 
z"/>
</svg>