<svg version="1.1" id="Layer_1" xmlns="http://www.w3.org/2000/svg" xmlns:xlink="http://www.w3.org/1999/xlink" x="0px" y="0px"
	 width="100%" viewBox="0 0 512 512" enable-background="new 0 0 512 512" xml:space="preserve">
<path fill="none" opacity="1.000000" stroke="none"
	d="
M1.000003,205.000000 
	C1.000000,137.070541 1.000000,69.141083 1.000000,1.000000 
	C73.354088,1.000000 145.708389,1.000000 218.866913,1.285614 
	C213.310562,4.647364 206.625000,7.200056 200.655746,10.906399 
	C187.406204,19.133102 178.684326,31.078749 173.990082,45.969742 
	C170.769196,56.187012 170.611008,66.706337 171.131912,77.227585 
	C171.254440,79.702431 172.414459,82.702248 174.131699,84.435738 
	C201.902817,112.469658 229.687424,140.494125 257.810150,168.174103 
	C270.748779,180.909073 276.868103,196.267838 278.080994,214.414902 
	C277.295532,232.005661 271.234680,246.988937 259.172058,259.217743 
	C238.979919,279.688171 218.563324,299.937408 198.205963,320.244446 
	C189.509323,328.919556 180.724030,337.505829 171.720245,346.111450 
	C171.351257,346.385132 171.241058,346.679810 171.065842,347.440796 
	C171.049362,362.279663 171.097900,376.652252 171.134155,391.286865 
	C171.404404,391.738647 171.686905,391.928436 171.980194,392.543671 
	C173.336548,398.632263 174.043167,404.544861 176.139877,409.914703 
	C184.548950,431.450897 207.768341,449.157623 231.941925,449.034302 
	C254.265732,448.920380 276.590881,449.073822 298.940369,449.570679 
	C299.017303,458.360596 299.069305,466.689331 299.099548,475.288879 
	C299.372345,475.750854 299.666931,475.942078 299.973785,476.547333 
	C300.035095,478.115509 299.866852,479.329529 300.166016,480.414703 
	C304.176910,494.963531 312.969574,505.320679 327.081238,511.025696 
	C327.859650,511.340393 328.366669,512.326416 329.000000,513.000000 
	C219.744217,513.000000 110.488419,513.000000 1.000000,513.000000 
	C1.000000,416.979218 1.000000,320.958282 1.340982,224.314453 
	C8.025212,233.621902 17.170036,236.477966 28.687002,236.189240 
	C52.814495,235.584396 76.967720,236.005875 101.110374,236.005905 
	C102.889992,236.005905 104.669601,236.005905 106.978989,236.005905 
	C106.978989,238.366394 106.979095,240.157562 106.978981,241.948730 
	C106.977707,261.096344 106.960701,280.244019 106.981766,299.391602 
	C106.992210,308.885559 112.131454,316.951599 121.674889,320.047852 
	C129.331451,322.531921 137.799866,321.841309 144.527908,315.070068 
	C172.928101,286.487671 201.472488,258.048523 229.969635,229.562469 
	C234.286499,225.247253 236.537399,220.170685 235.906174,213.566772 
	C235.684906,211.561234 235.435196,209.958878 235.119034,208.369766 
	C233.409622,199.777832 226.105331,195.146835 220.725342,189.555725 
	C199.294846,167.284180 177.204056,145.646332 155.267975,123.864250 
	C150.464752,119.094765 145.727966,114.054260 140.177902,110.293686 
	C133.523132,105.784584 125.985443,105.781464 118.693565,109.725197 
	C111.086143,113.839592 107.166344,120.380875 107.070915,128.824539 
	C106.850708,148.310410 107.000458,167.800446 107.000145,187.288803 
	C107.000114,189.057343 107.000145,190.825882 107.000145,193.000092 
	C104.556572,193.000092 102.753677,193.000092 100.950783,193.000092 
	C74.300049,193.000107 47.648964,193.076355 20.998795,192.953369 
	C13.078567,192.916824 7.578546,196.523071 3.471059,202.947708 
	C2.921600,203.807129 1.836866,204.324326 1.000003,205.000000 
z"/>
<path fill="#579ED6" opacity="1.000000" stroke="none" 
	d="
M329.468658,513.000000 
	C328.366669,512.326416 327.859650,511.340393 327.081238,511.025696 
	C312.969574,505.320679 304.176910,494.963531 300.166016,480.414703 
	C299.866852,479.329529 300.035095,478.115509 299.861176,476.341064 
	C299.583160,475.441162 299.378204,475.206940 299.121338,475.018066 
	C299.069305,466.689331 299.017303,458.360596 298.983398,449.097748 
	C299.022736,386.719849 299.034729,325.276031 299.101379,263.832275 
	C299.103851,261.558990 299.639648,259.286316 300.400146,257.010071 
	C371.582275,257.004517 442.291138,257.002258 513.000000,257.000000 
	C513.000000,318.020905 513.000000,379.041779 512.714905,440.207153 
	C511.953918,441.151825 511.377716,441.909485 511.017517,442.758759 
	C507.042450,452.130524 501.685486,460.561279 492.121490,464.876312 
	C483.486389,468.772308 474.496979,471.952057 465.505402,474.976868 
	C430.125549,486.878784 394.678497,498.580933 359.283539,510.438232 
	C358.042267,510.854065 357.088043,512.126709 356.000000,513.000000 
	C347.312439,513.000000 338.624878,513.000000 329.468658,513.000000 
z"/>
<path fill="#64B5F6" opacity="1.000000" stroke="none" 
	d="
M513.000000,256.531342 
	C442.291138,257.002258 371.582275,257.004517 300.389374,256.539795 
	C299.820831,242.077164 299.736328,228.081528 299.717468,213.616287 
	C299.831116,210.816406 299.920502,208.486115 299.921051,206.155807 
	C299.930573,166.514526 299.913239,126.873238 299.957611,87.232010 
	C299.961517,83.753967 299.795929,80.130257 300.661499,76.823509 
	C304.700836,61.392017 314.249512,50.805714 329.475586,45.667854 
	C348.092773,39.385704 366.756744,33.242390 385.390533,27.009264 
	C411.265228,18.354017 437.130615,9.671074 463.000000,0.999995 
	C469.354401,1.000000 475.708801,1.000000 482.196167,1.277752 
	C482.645081,1.938134 482.887665,2.536148 483.287476,2.672217 
	C497.013275,7.343546 506.618469,16.145166 511.135895,30.160212 
	C511.276093,30.595238 512.357422,30.726906 513.000000,31.000004 
	C513.000000,106.020897 513.000000,181.041794 513.000000,256.531342 
z"/>
<path fill="#2196F3" opacity="1.000000" stroke="none" 
	d="
M462.531342,0.999995 
	C437.130615,9.671074 411.265228,18.354017 385.390533,27.009264 
	C366.756744,33.242390 348.092773,39.385704 329.475586,45.667854 
	C314.249512,50.805714 304.700836,61.392017 300.661499,76.823509 
	C299.795929,80.130257 299.961517,83.753967 299.957611,87.232010 
	C299.913239,126.873238 299.930573,166.514526 299.921051,206.155807 
	C299.920502,208.486115 299.831116,210.816406 299.283447,213.598816 
	C291.906433,214.025681 285.028992,214.000427 278.151550,213.975159 
	C276.868103,196.267838 270.748779,180.909073 257.810150,168.174103 
	C229.687424,140.494125 201.902817,112.469658 174.131699,84.435738 
	C172.414459,82.702248 171.254440,79.702431 171.131912,77.227585 
	C170.611008,66.706337 170.769196,56.187012 173.990082,45.969742 
	C178.684326,31.078749 187.406204,19.133102 200.655746,10.906399 
	C206.625000,7.200056 213.310562,4.647364 219.335571,1.285614 
	C300.020905,1.000000 381.041779,1.000000 462.531342,0.999995 
z"/>
<path fill="#546D79" opacity="1.000000" stroke="none" 
	d="
M235.847092,213.976089 
	C236.537399,220.170685 234.286499,225.247253 229.969635,229.562469 
	C201.472488,258.048523 172.928101,286.487671 144.527908,315.070068 
	C137.799866,321.841309 129.331451,322.531921 121.674889,320.047852 
	C112.131454,316.951599 106.992210,308.885559 106.981766,299.391602 
	C106.960701,280.244019 106.977707,261.096344 106.978981,241.948730 
	C106.979095,240.157562 106.978989,238.366394 106.978989,236.005905 
	C104.669601,236.005905 102.889992,236.005905 101.110374,236.005905 
	C76.967720,236.005875 52.814495,235.584396 28.687002,236.189240 
	C17.170036,236.477966 8.025212,233.621902 1.340982,223.845795 
	C1.000000,220.969406 1.000000,217.938812 1.468652,214.456635 
	C79.907234,213.995407 157.877167,213.985748 235.847092,213.976089 
z"/>
<path fill="#607D8B" opacity="1.000000" stroke="none" 
	d="
M235.906174,213.566772 
	C157.877167,213.985748 79.907234,213.995407 1.468652,214.002533 
	C1.000000,211.299988 1.000000,208.599976 1.000003,205.449982 
	C1.836866,204.324326 2.921600,203.807129 3.471059,202.947708 
	C7.578546,196.523071 13.078567,192.916824 20.998795,192.953369 
	C47.648964,193.076355 74.300049,193.000107 100.950783,193.000092 
	C102.753677,193.000092 104.556572,193.000092 107.000145,193.000092 
	C107.000145,190.825882 107.000114,189.057343 107.000145,187.288803 
	C107.000458,167.800446 106.850708,148.310410 107.070915,128.824539 
	C107.166344,120.380875 111.086143,113.839592 118.693565,109.725197 
	C125.985443,105.781464 133.523132,105.784584 140.177902,110.293686 
	C145.727966,114.054260 150.464752,119.094765 155.267975,123.864250 
	C177.204056,145.646332 199.294846,167.284180 220.725342,189.555725 
	C226.105331,195.146835 233.409622,199.777832 235.119034,208.369766 
	C235.435196,209.958878 235.684906,211.561234 235.906174,213.566772 
z"/>
<path fill="none" opacity="1.000000" stroke="none"
	d="
M356.468689,513.000000 
	C357.088043,512.126709 358.042267,510.854065 359.283539,510.438232 
	C394.678497,498.580933 430.125549,486.878784 465.505402,474.976868 
	C474.496979,471.952057 483.486389,468.772308 492.121490,464.876312 
	C501.685486,460.561279 507.042450,452.130524 511.017517,442.758759 
	C511.377716,441.909485 511.953918,441.151825 512.714905,440.675812 
	C513.000000,464.954071 513.000000,488.908112 513.000000,513.000000 
	C460.979187,513.000000 408.958252,513.000000 356.468689,513.000000 
z"/>
<path fill="none" opacity="1.000000" stroke="none"
	d="
M513.000000,30.531345 
	C512.357422,30.726906 511.276093,30.595238 511.135895,30.160212 
	C506.618469,16.145166 497.013275,7.343546 483.287476,2.672217 
	C482.887665,2.536148 482.645081,1.938134 482.664581,1.277752 
	C492.926483,1.000000 502.852997,1.000000 513.000000,1.000000 
	C513.000000,10.686448 513.000000,20.374567 513.000000,30.531345 
z"/>
<path fill="#1D83D4" opacity="1.000000" stroke="none" 
	d="
M278.080994,214.414917 
	C285.028992,214.000427 291.906433,214.025681 299.217865,214.068405 
	C299.736328,228.081528 299.820831,242.077164 299.916138,256.543091 
	C299.639648,259.286316 299.103851,261.558990 299.101379,263.832275 
	C299.034729,325.276031 299.022736,386.719849 298.958496,448.636536 
	C276.590881,449.073822 254.265732,448.920380 231.941925,449.034302 
	C207.768341,449.157623 184.548950,431.450897 176.139877,409.914703 
	C174.043167,404.544861 173.336548,398.632263 171.867279,392.343506 
	C171.587189,391.450104 171.388153,391.219086 171.146423,391.024811 
	C171.097900,376.652252 171.049362,362.279663 171.230789,347.325592 
	C171.668533,346.569855 171.841293,346.365997 171.979034,346.132446 
	C180.724030,337.505829 189.509323,328.919556 198.205963,320.244446 
	C218.563324,299.937408 238.979919,279.688171 259.172058,259.217743 
	C271.234680,246.988937 277.295532,232.005661 278.080994,214.414917 
z"/>
<path fill="#1F8AE0" opacity="1.000000" stroke="none" 
	d="
M171.720230,346.111450 
	C171.841293,346.365997 171.668533,346.569855 171.295807,346.859283 
	C171.241058,346.679810 171.351257,346.385132 171.720230,346.111450 
z"/>
<path fill="#1F8AE0" opacity="1.000000" stroke="none" 
	d="
M171.134171,391.286865 
	C171.388153,391.219086 171.587189,391.450104 171.856491,391.918030 
	C171.686905,391.928436 171.404404,391.738647 171.134171,391.286865 
z"/>
<path fill="#5CA7E4" opacity="1.000000" stroke="none" 
	d="
M299.099548,475.288879 
	C299.378204,475.206940 299.583160,475.441162 299.848877,475.927032 
	C299.666931,475.942078 299.372345,475.750854 299.099548,475.288879 
z"/>
</svg>