<svg version="1.1" id="Layer_1" xmlns="http://www.w3.org/2000/svg" xmlns:xlink="http://www.w3.org/1999/xlink" x="0px" y="0px"
	 width="100%" viewBox="0 0 512 512" enable-background="new 0 0 512 512" xml:space="preserve">
<path fill="none" opacity="1.000000" stroke="none"
	d="
M0.999999,227.000000 
	C1.000000,151.707306 1.000000,76.414597 1.000000,1.060948 
	C171.666656,1.060948 342.333344,1.060948 513.000000,1.060948 
	C513.000000,25.088682 513.000000,49.075684 512.642700,73.464523 
	C510.588989,69.591690 507.072693,68.695480 503.040100,69.113503 
	C499.166656,69.515022 496.868896,71.903320 496.079163,75.639763 
	C495.610626,77.856438 495.150146,80.132561 495.149384,82.382111 
	C495.105347,209.544907 495.110199,336.707703 495.110199,463.870514 
	C495.110199,465.814636 495.110199,467.758728 495.110199,470.040375 
	C492.674103,470.040375 490.709717,470.040405 488.745300,470.040405 
	C329.916779,470.040527 171.088257,470.058502 12.259821,469.954956 
	C7.477798,469.951843 3.684644,470.920685 1.000000,475.000000 
	C1.000000,395.645782 1.000000,316.291534 1.335469,236.543381 
	C8.261014,241.825729 12.631312,241.598984 19.084978,235.148315 
	C48.672279,205.574692 78.245003,175.986496 107.828346,146.408936 
	C109.101105,145.136429 110.427032,143.917114 112.475037,141.958908 
	C118.111000,147.559753 123.604607,153.006195 129.083588,158.467300 
	C135.869553,165.231110 140.016937,165.240021 146.785889,158.472321 
	C169.293503,135.968872 191.799530,113.463829 214.481369,90.784218 
	C223.271881,99.635605 231.865494,108.455887 240.672073,117.058167 
	C243.443481,119.765274 246.630112,122.053467 251.104004,120.486565 
	C256.181122,118.708389 257.626709,114.753593 258.001862,110.008034 
	C258.377075,105.262062 258.564484,100.496292 259.095795,95.768600 
	C260.314850,84.921394 261.686462,74.091278 263.009155,63.255806 
	C263.936676,55.657513 264.789612,48.048401 265.849884,40.468468 
	C267.104492,31.499323 264.208832,25.607418 254.972351,26.106169 
	C245.865860,26.597904 236.807419,27.987711 227.729462,28.997595 
	C212.810944,30.657219 197.871582,32.158440 182.989395,34.097839 
	C178.522476,34.679955 173.829575,35.321472 171.835632,41.020561 
	C169.872604,46.631321 173.164673,49.589111 176.317764,52.784260 
	C184.603485,61.180519 193.002289,69.465195 201.065689,77.504807 
	C179.503418,99.065964 158.260483,120.307816 136.923080,141.644119 
	C131.553604,136.244781 125.923073,130.563431 120.270546,124.904022 
	C113.518394,118.143669 110.492523,118.146904 103.737068,124.900909 
	C70.499763,158.131119 37.267605,191.366470 4.016476,224.582840 
	C3.110347,225.488037 2.009858,226.198654 0.999999,227.000000 
M471.001556,424.499939 
	C471.001556,307.172272 470.957001,189.844528 471.093964,72.517006 
	C471.103943,63.975391 466.864990,59.949924 458.264832,59.969795 
	C426.933105,60.042202 395.601074,60.032238 364.269287,59.980629 
	C352.802643,59.961742 350.038879,63.029530 350.033539,74.500481 
	C349.976959,196.161484 349.998413,317.822510 349.998444,439.483551 
	C349.998444,440.483490 349.944275,441.486908 350.007568,442.482849 
	C350.495697,450.164673 353.749207,453.929352 360.753632,453.952484 
	C393.918396,454.062073 427.084686,454.133667 460.247986,453.886475 
	C466.649597,453.838745 471.054413,451.112671 471.007416,442.498993 
	C470.976471,436.832733 471.001556,431.166229 471.001556,424.499939 
M196.999741,374.500000 
	C196.999741,395.490021 197.391388,416.489838 196.866714,437.466736 
	C196.495941,452.291077 199.897873,454.192200 213.503220,454.080170 
	C244.319824,453.826324 275.139954,454.012146 305.958649,453.991760 
	C313.516663,453.986786 316.999969,450.667023 317.000000,443.625519 
	C317.000397,347.671112 317.001007,251.716690 316.998749,155.762268 
	C316.998566,148.602814 314.417145,146.002502 307.305542,146.001602 
	C273.821442,145.997406 240.337341,145.997986 206.853241,146.001129 
	C199.466034,146.001831 197.000534,148.533401 197.000412,156.103271 
	C196.999283,228.568848 196.999741,301.034424 196.999741,374.500000 
M88.500000,454.003479 
	C109.163063,454.003479 129.826126,454.004150 150.489182,454.003174 
	C160.843094,454.002716 164.003265,450.786346 164.003357,440.251221 
	C164.003708,398.091949 164.003494,355.932648 164.003494,313.773376 
	C164.003494,295.776520 164.093750,277.779022 163.965942,259.783081 
	C163.900650,250.589035 159.611084,247.809555 152.243011,247.873581 
	C119.584526,248.157394 86.922180,247.995880 54.261227,247.996979 
	C46.299034,247.997253 43.003414,251.265152 43.002071,259.277496 
	C42.991879,320.100189 42.957512,380.922943 43.039764,441.745514 
	C43.051697,450.568451 46.280430,453.872803 55.505909,453.975800 
	C66.169380,454.094849 76.835197,454.003479 88.500000,454.003479 
z"/>
<path fill="#030303" opacity="1.000000" stroke="none" 
	d="
M1.000000,475.444153 
	C3.684644,470.920685 7.477798,469.951843 12.259821,469.954956 
	C171.088257,470.058502 329.916779,470.040527 488.745300,470.040405 
	C490.709717,470.040405 492.674103,470.040375 495.110199,470.040375 
	C495.110199,467.758728 495.110199,465.814636 495.110199,463.870514 
	C495.110199,336.707703 495.105347,209.544907 495.149384,82.382111 
	C495.150146,80.132561 495.610626,77.856438 496.079163,75.639763 
	C496.868896,71.903320 499.166656,69.515022 503.040100,69.113503 
	C507.072693,68.695480 510.588989,69.591690 512.642700,73.933182 
	C513.000000,210.020889 513.000000,346.041779 512.638184,482.584869 
	C509.759186,487.219025 505.882263,487.958221 501.397888,487.956818 
	C339.073303,487.906036 176.748718,487.901672 14.424160,487.970947 
	C9.185263,487.973206 4.531506,487.214600 1.000000,483.000000 
	C1.000000,480.629425 1.000000,478.258881 1.000000,475.444153 
z"/>
<path fill="#FFFFFF" opacity="1.000000" stroke="none" 
	d="
M1.000000,483.468658 
	C4.531506,487.214600 9.185263,487.973206 14.424160,487.970947 
	C176.748718,487.901672 339.073303,487.906036 501.397888,487.956818 
	C505.882263,487.958221 509.759186,487.219025 512.638184,483.053528 
	C513.000000,492.992340 513.000000,502.984711 513.000000,512.957520 
	C342.333313,512.957520 171.666656,512.957520 1.000000,512.957520 
	C1.000000,503.255829 1.000000,493.596588 1.000000,483.468658 
z"/>
<path fill="#060203" opacity="1.000000" stroke="none" 
	d="
M0.999999,227.449982 
	C2.009858,226.198654 3.110347,225.488037 4.016476,224.582840 
	C37.267605,191.366470 70.499763,158.131119 103.737068,124.900909 
	C110.492523,118.146904 113.518394,118.143669 120.270546,124.904022 
	C125.923073,130.563431 131.553604,136.244781 136.923080,141.644119 
	C158.260483,120.307816 179.503418,99.065964 201.065689,77.504807 
	C193.002289,69.465195 184.603485,61.180519 176.317764,52.784260 
	C173.164673,49.589111 169.872604,46.631321 171.835632,41.020561 
	C173.829575,35.321472 178.522476,34.679955 182.989395,34.097839 
	C197.871582,32.158440 212.810944,30.657219 227.729462,28.997595 
	C236.807419,27.987711 245.865860,26.597904 254.972351,26.106169 
	C264.208832,25.607418 267.104492,31.499323 265.849884,40.468468 
	C264.789612,48.048401 263.936676,55.657513 263.009155,63.255806 
	C261.686462,74.091278 260.314850,84.921394 259.095795,95.768600 
	C258.564484,100.496292 258.377075,105.262062 258.001862,110.008034 
	C257.626709,114.753593 256.181122,118.708389 251.104004,120.486565 
	C246.630112,122.053467 243.443481,119.765274 240.672073,117.058167 
	C231.865494,108.455887 223.271881,99.635605 214.481369,90.784218 
	C191.799530,113.463829 169.293503,135.968872 146.785889,158.472321 
	C140.016937,165.240021 135.869553,165.231110 129.083588,158.467300 
	C123.604607,153.006195 118.111000,147.559753 112.475037,141.958908 
	C110.427032,143.917114 109.101105,145.136429 107.828346,146.408936 
	C78.245003,175.986496 48.672279,205.574692 19.084978,235.148315 
	C12.631312,241.598984 8.261014,241.825729 1.335469,236.074722 
	C1.000000,233.299988 1.000000,230.599976 0.999999,227.449982 
M208.739426,49.071625 
	C205.732224,49.487297 202.725037,49.902966 200.644104,50.190605 
	C214.455017,64.010139 228.364532,77.928345 242.179947,91.752388 
	C243.844559,76.706245 245.572189,61.090672 247.364380,44.891388 
	C234.295410,46.318371 221.961929,47.665047 208.739426,49.071625 
z"/>
<path fill="#000101" opacity="1.000000" stroke="none" 
	d="
M471.001556,424.999878 
	C471.001556,431.166229 470.976471,436.832733 471.007416,442.498993 
	C471.054413,451.112671 466.649597,453.838745 460.247986,453.886475 
	C427.084686,454.133667 393.918396,454.062073 360.753632,453.952484 
	C353.749207,453.929352 350.495697,450.164673 350.007568,442.482849 
	C349.944275,441.486908 349.998444,440.483490 349.998444,439.483551 
	C349.998413,317.822510 349.976959,196.161484 350.033539,74.500481 
	C350.038879,63.029530 352.802643,59.961742 364.269287,59.980629 
	C395.601074,60.032238 426.933105,60.042202 458.264832,59.969795 
	C466.864990,59.949924 471.103943,63.975391 471.093964,72.517006 
	C470.957001,189.844528 471.001556,307.172272 471.001556,424.999878 
M453.148743,350.500000 
	C453.148743,259.756073 453.148743,169.012177 453.148743,78.355438 
	C424.313141,78.355438 396.266785,78.355438 368.280396,78.355438 
	C368.280396,197.713318 368.280396,316.644104 368.280396,435.732819 
	C396.615387,435.732819 424.667969,435.732819 453.148895,435.732819 
	C453.148895,407.430939 453.148895,379.465485 453.148743,350.500000 
z"/>
<path fill="#000000" opacity="1.000000" stroke="none" 
	d="
M196.999741,374.000000 
	C196.999741,301.034424 196.999283,228.568848 197.000412,156.103271 
	C197.000534,148.533401 199.466034,146.001831 206.853241,146.001129 
	C240.337341,145.997986 273.821442,145.997406 307.305542,146.001602 
	C314.417145,146.002502 316.998566,148.602814 316.998749,155.762268 
	C317.001007,251.716690 317.000397,347.671112 317.000000,443.625519 
	C316.999969,450.667023 313.516663,453.986786 305.958649,453.991760 
	C275.139954,454.012146 244.319824,453.826324 213.503220,454.080170 
	C199.897873,454.192200 196.495941,452.291077 196.866714,437.466736 
	C197.391388,416.489838 196.999741,395.490021 196.999741,374.000000 
M214.300522,199.499939 
	C214.300522,278.264130 214.300522,357.028320 214.300522,435.824585 
	C243.116058,435.824585 271.217560,435.824585 299.461884,435.824585 
	C299.461884,344.840057 299.461884,254.126694 299.461884,163.358368 
	C271.009705,163.358368 242.919357,163.358368 214.300735,163.358368 
	C214.300735,175.250290 214.300735,186.875107 214.300522,199.499939 
z"/>
<path fill="#030201" opacity="1.000000" stroke="none" 
	d="
M88.000000,454.003479 
	C76.835197,454.003479 66.169380,454.094849 55.505909,453.975800 
	C46.280430,453.872803 43.051697,450.568451 43.039764,441.745514 
	C42.957512,380.922943 42.991879,320.100189 43.002071,259.277496 
	C43.003414,251.265152 46.299034,247.997253 54.261227,247.996979 
	C86.922180,247.995880 119.584526,248.157394 152.243011,247.873581 
	C159.611084,247.809555 163.900650,250.589035 163.965942,259.783081 
	C164.093750,277.779022 164.003494,295.776520 164.003494,313.773376 
	C164.003494,355.932648 164.003708,398.091949 164.003357,440.251221 
	C164.003265,450.786346 160.843094,454.002716 150.489182,454.003174 
	C129.826126,454.004150 109.163063,454.003479 88.000000,454.003479 
M99.499992,436.084839 
	C114.925980,436.084839 130.351974,436.084839 145.758087,436.084839 
	C145.758087,378.934235 145.758087,322.386780 145.758087,265.926300 
	C117.369255,265.926300 89.308327,265.926300 61.234360,265.926300 
	C61.234360,322.786072 61.234360,379.313995 61.234360,436.084839 
	C73.882912,436.084839 86.191444,436.084839 99.499992,436.084839 
z"/>
<path fill="#E56668" opacity="1.000000" stroke="none" 
	d="
M209.183929,49.041672 
	C221.961929,47.665047 234.295410,46.318371 247.364380,44.891388 
	C245.572189,61.090672 243.844559,76.706245 242.179947,91.752388 
	C228.364532,77.928345 214.455017,64.010139 200.644104,50.190605 
	C202.725037,49.902966 205.732224,49.487297 209.183929,49.041672 
z"/>
<path fill="#238892" opacity="1.000000" stroke="none" 
	d="
M453.148804,351.000000 
	C453.148895,379.465485 453.148895,407.430939 453.148895,435.732819 
	C424.667969,435.732819 396.615387,435.732819 368.280396,435.732819 
	C368.280396,316.644104 368.280396,197.713318 368.280396,78.355438 
	C396.266785,78.355438 424.313141,78.355438 453.148743,78.355438 
	C453.148743,169.012177 453.148743,259.756073 453.148804,351.000000 
M388.658936,182.133423 
	C387.446533,185.600418 385.196442,189.062103 385.178650,192.535217 
	C384.943359,238.518631 385.021454,284.503662 385.021942,330.488281 
	C385.022034,339.651886 384.893494,348.818085 385.074188,357.978149 
	C385.190186,363.858093 388.913025,367.836243 393.655640,367.747009 
	C398.502716,367.655884 401.853210,363.733521 401.984039,357.751373 
	C402.093292,352.755432 402.008118,347.755219 402.008118,342.756897 
	C402.008240,292.440369 402.016724,242.123871 402.000336,191.807358 
	C401.997253,182.404236 397.567566,178.936554 388.658936,182.133423 
M402.010956,396.743164 
	C401.891968,389.467804 399.025024,385.390961 393.841339,385.125732 
	C389.554077,384.906403 385.526672,388.504547 385.182159,393.669220 
	C384.807739,399.282776 384.788483,404.965302 385.208527,410.573242 
	C385.593140,415.708252 389.750366,419.250458 394.023712,418.928833 
	C398.460754,418.594879 401.781189,414.834473 401.975494,409.630585 
	C402.123962,405.653931 402.008911,401.667419 402.010956,396.743164 
z"/>
<path fill="#E56769" opacity="1.000000" stroke="none" 
	d="
M214.300629,198.999939 
	C214.300735,186.875107 214.300735,175.250290 214.300735,163.358368 
	C242.919357,163.358368 271.009705,163.358368 299.461884,163.358368 
	C299.461884,254.126694 299.461884,344.840057 299.461884,435.824585 
	C271.217560,435.824585 243.116058,435.824585 214.300522,435.824585 
	C214.300522,357.028320 214.300522,278.264130 214.300629,198.999939 
M231.688248,332.499939 
	C231.731583,341.657806 231.615509,350.820404 231.885513,359.971588 
	C232.020401,364.543976 235.766159,367.788116 240.026260,367.766907 
	C244.102875,367.746552 248.023270,364.654816 248.045975,360.402283 
	C248.201614,331.264526 248.206116,302.125061 248.032547,272.987457 
	C248.006393,268.596375 244.310547,265.852722 239.950424,265.859589 
	C234.732239,265.867798 231.749878,269.189423 231.722214,275.543030 
	C231.641022,294.195038 231.690002,312.847595 231.688248,332.499939 
M239.610977,385.080811 
	C233.154694,387.014282 231.796158,388.680450 231.706253,395.248230 
	C231.635834,400.391632 231.573532,405.544739 231.807022,410.679962 
	C232.032639,415.641876 235.505997,418.960114 239.986481,418.959747 
	C244.455994,418.959381 247.954620,415.633972 248.187546,410.685547 
	C248.429214,405.551056 248.365509,400.397400 248.293060,395.254120 
	C248.200424,388.676117 246.853745,387.028381 239.610977,385.080811 
z"/>
<path fill="#FDBD40" opacity="1.000000" stroke="none" 
	d="
M98.999985,436.084839 
	C86.191444,436.084839 73.882912,436.084839 61.234360,436.084839 
	C61.234360,379.313995 61.234360,322.786072 61.234360,265.926300 
	C89.308327,265.926300 117.369255,265.926300 145.758087,265.926300 
	C145.758087,322.386780 145.758087,378.934235 145.758087,436.084839 
	C130.351974,436.084839 114.925980,436.084839 98.999985,436.084839 
M84.096626,317.149475 
	C79.815804,318.738770 77.937576,321.922089 77.940773,326.377686 
	C77.948410,337.009949 77.869591,347.642914 77.973701,358.274139 
	C78.028862,363.907013 81.343765,367.621338 86.107712,367.827759 
	C90.986115,368.039124 94.820435,364.185120 94.910469,358.395447 
	C95.075783,347.765778 95.073212,337.130096 94.919975,326.500092 
	C94.825439,319.941956 91.586990,317.071045 84.096626,317.149475 
M80.246567,387.824341 
	C79.478050,390.124573 78.214638,392.388885 78.044716,394.732513 
	C77.698059,399.513763 77.874107,404.338837 77.956772,409.143768 
	C78.058975,415.084381 81.316292,418.881165 86.243874,418.987366 
	C91.124435,419.092499 94.746513,415.262085 94.928543,409.479736 
	C95.084908,404.512604 95.124908,399.529938 94.923409,394.566071 
	C94.582176,386.159943 88.138405,382.894318 80.246567,387.824341 
z"/>
<path fill="#010101" opacity="1.000000" stroke="none" 
	d="
M388.989807,181.951965 
	C397.567566,178.936554 401.997253,182.404236 402.000336,191.807358 
	C402.016724,242.123871 402.008240,292.440369 402.008118,342.756897 
	C402.008118,347.755219 402.093292,352.755432 401.984039,357.751373 
	C401.853210,363.733521 398.502716,367.655884 393.655640,367.747009 
	C388.913025,367.836243 385.190186,363.858093 385.074188,357.978149 
	C384.893494,348.818085 385.022034,339.651886 385.021942,330.488281 
	C385.021454,284.503662 384.943359,238.518631 385.178650,192.535217 
	C385.196442,189.062103 387.446533,185.600418 388.989807,181.951965 
z"/>
<path fill="#010101" opacity="1.000000" stroke="none" 
	d="
M402.011017,397.214233 
	C402.008911,401.667419 402.123962,405.653931 401.975494,409.630585 
	C401.781189,414.834473 398.460754,418.594879 394.023712,418.928833 
	C389.750366,419.250458 385.593140,415.708252 385.208527,410.573242 
	C384.788483,404.965302 384.807739,399.282776 385.182159,393.669220 
	C385.526672,388.504547 389.554077,384.906403 393.841339,385.125732 
	C399.025024,385.390961 401.891968,389.467804 402.011017,397.214233 
z"/>
<path fill="#010000" opacity="1.000000" stroke="none" 
	d="
M231.688110,331.999939 
	C231.690002,312.847595 231.641022,294.195038 231.722214,275.543030 
	C231.749878,269.189423 234.732239,265.867798 239.950424,265.859589 
	C244.310547,265.852722 248.006393,268.596375 248.032547,272.987457 
	C248.206116,302.125061 248.201614,331.264526 248.045975,360.402283 
	C248.023270,364.654816 244.102875,367.746552 240.026260,367.766907 
	C235.766159,367.788116 232.020401,364.543976 231.885513,359.971588 
	C231.615509,350.820404 231.731583,341.657806 231.688110,331.999939 
z"/>
<path fill="#020202" opacity="1.000000" stroke="none" 
	d="
M239.996246,385.080933 
	C246.853745,387.028381 248.200424,388.676117 248.293060,395.254120 
	C248.365509,400.397400 248.429214,405.551056 248.187546,410.685547 
	C247.954620,415.633972 244.455994,418.959381 239.986481,418.959747 
	C235.505997,418.960114 232.032639,415.641876 231.807022,410.679962 
	C231.573532,405.544739 231.635834,400.391632 231.706253,395.248230 
	C231.796158,388.680450 233.154694,387.014282 239.996246,385.080933 
z"/>
<path fill="#020202" opacity="1.000000" stroke="none" 
	d="
M84.492096,317.086914 
	C91.586990,317.071045 94.825439,319.941956 94.919975,326.500092 
	C95.073212,337.130096 95.075783,347.765778 94.910469,358.395447 
	C94.820435,364.185120 90.986115,368.039124 86.107712,367.827759 
	C81.343765,367.621338 78.028862,363.907013 77.973701,358.274139 
	C77.869591,347.642914 77.948410,337.009949 77.940773,326.377686 
	C77.937576,321.922089 79.815804,318.738770 84.492096,317.086914 
z"/>
<path fill="#030302" opacity="1.000000" stroke="none" 
	d="
M80.523514,387.547180 
	C88.138405,382.894318 94.582176,386.159943 94.923409,394.566071 
	C95.124908,399.529938 95.084908,404.512604 94.928543,409.479736 
	C94.746513,415.262085 91.124435,419.092499 86.243874,418.987366 
	C81.316292,418.881165 78.058975,415.084381 77.956772,409.143768 
	C77.874107,404.338837 77.698059,399.513763 78.044716,394.732513 
	C78.214638,392.388885 79.478050,390.124573 80.523514,387.547180 
z"/>
</svg>