<svg version="1.1" id="Layer_1" xmlns="http://www.w3.org/2000/svg" xmlns:xlink="http://www.w3.org/1999/xlink" x="0px" y="0px"
	 width="100%" viewBox="0 0 512 512" enable-background="new 0 0 512 512" xml:space="preserve">
<path fill="none" opacity="1.000000" stroke="none"
	d="
M513.000000,196.000000 
	C513.000000,301.974243 513.000000,407.448486 513.000000,512.961365 
	C342.400757,512.961365 171.801483,512.961365 1.101111,512.961365 
	C1.101111,342.442444 1.101111,171.884827 1.101111,1.163595 
	C171.666534,1.163595 342.333252,1.163595 513.000000,1.163595 
	C513.000000,65.865143 513.000000,130.682571 513.000000,196.000000 
M405.977325,321.437988 
	C405.977325,321.437988 405.869202,321.039978 406.006500,320.106415 
	C406.018951,240.222321 406.031891,160.338226 406.037262,80.454132 
	C406.037323,79.624748 405.937378,78.795372 405.859924,77.447914 
	C405.581940,77.257881 405.303955,77.067848 405.012390,76.076286 
	C404.971985,67.007149 395.249603,58.058090 386.805023,58.010426 
	C377.859222,57.959934 368.912415,58.081493 359.037842,58.026844 
	C339.742279,58.007706 320.446747,57.988564 301.035492,57.065224 
	C301.028748,54.899246 300.912018,52.726788 301.039093,50.568687 
	C301.277130,46.527447 299.489960,44.681862 295.441437,44.991642 
	C293.950195,45.105740 292.451233,45.118244 290.033997,45.031643 
	C280.549042,45.021015 271.064056,45.023838 261.579163,44.993782 
	C257.182861,44.979851 253.794571,43.579506 251.921616,39.077770 
	C250.631088,35.975941 248.853317,32.949291 246.736008,30.341518 
	C238.483566,20.177401 227.771240,16.057404 214.638504,16.893623 
	C200.409134,17.799671 189.129990,26.318811 184.290375,37.960613 
	C182.095734,43.239876 179.050385,44.968044 174.081528,44.989120 
	C165.095810,45.027237 156.109695,44.974594 147.123917,45.006104 
	C134.675629,45.049759 134.760559,43.374634 134.975815,56.993042 
	C134.981003,57.321941 134.893753,57.652306 133.931305,57.998409 
	C105.933617,57.999928 77.935860,57.977791 49.938354,58.051086 
	C47.860191,58.056526 45.627129,58.377926 43.732906,59.181458 
	C33.906284,63.349922 30.013262,71.331078 30.012051,81.556427 
	C29.997641,203.212875 30.002716,324.869324 30.002768,446.525757 
	C30.002773,456.024963 29.953506,465.524506 30.016081,475.023285 
	C30.096123,487.173157 39.889793,497.227539 52.005760,497.187134 
	C152.496201,496.852081 252.988235,496.998169 353.479797,496.991669 
	C355.644165,496.991547 357.808502,496.907349 360.907318,496.972290 
	C369.259521,496.935547 377.611725,496.898804 386.847504,496.902008 
	C390.613983,496.942383 394.380463,496.982758 399.039154,497.009491 
	C404.266205,496.586090 409.644714,496.809326 414.693848,495.626556 
	C435.687347,490.708710 453.023956,479.868256 466.029816,462.471497 
	C482.511627,440.425171 487.625122,415.785858 481.465393,389.153534 
	C477.082825,370.205139 467.537109,354.134613 452.198822,341.545807 
	C438.625458,330.405579 423.309875,323.984894 405.977325,321.437988 
z"/>
<path fill="#847784" opacity="1.000000" stroke="none" 
	d="
M359.972900,496.862396 
	C357.808502,496.907349 355.644165,496.991547 353.479797,496.991669 
	C252.988235,496.998169 152.496201,496.852081 52.005760,497.187134 
	C39.889793,497.227539 30.096123,487.173157 30.016081,475.023285 
	C29.953506,465.524506 30.002773,456.024963 30.002768,446.525757 
	C30.002716,324.869324 29.997641,203.212875 30.012051,81.556427 
	C30.013262,71.331078 33.906284,63.349922 43.732906,59.181458 
	C45.627129,58.377926 47.860191,58.056526 49.938354,58.051086 
	C77.935860,57.977791 105.933617,57.999928 134.437439,58.455280 
	C134.910156,68.598312 134.876755,78.284470 134.387131,87.969696 
	C112.937790,87.968658 91.944679,87.962418 70.951561,87.971474 
	C62.540176,87.975098 60.694839,89.790512 60.693993,98.236374 
	C60.683292,205.035019 60.680519,311.833649 60.737591,418.632263 
	C60.738594,420.511353 61.502460,422.390015 62.016945,424.578308 
	C75.045509,438.523499 87.960556,452.165863 100.914551,465.771118 
	C101.437096,466.319885 102.327347,466.518555 103.509171,466.935455 
	C165.289307,467.004364 226.606537,467.026794 287.923767,467.025360 
	C301.585144,467.025024 315.246552,466.940704 329.186340,467.090942 
	C338.092834,476.980469 348.586212,484.155426 360.085510,490.398254 
	C360.045471,492.840393 360.009186,494.851410 359.972900,496.862396 
z"/>
<path fill="#FFD064" opacity="1.000000" stroke="none" 
	d="
M360.089264,489.967072 
	C348.586212,484.155426 338.092834,476.980469 329.048248,466.795593 
	C313.357605,447.750214 305.993408,426.439087 308.246216,402.519562 
	C309.166534,392.747559 312.677490,383.219482 315.281647,373.322021 
	C321.129120,361.080933 329.092499,350.900513 339.222870,341.963898 
	C342.408051,339.620544 345.281250,337.433655 348.487366,335.132355 
	C352.906342,332.847626 356.992401,330.677338 361.458191,328.393616 
	C366.337006,326.801270 370.836060,325.322296 375.721619,323.833008 
	C384.377930,323.221527 392.647766,322.620392 401.263794,322.182251 
	C420.445740,326.264862 437.027100,334.099976 450.814545,348.076263 
	C494.078156,391.932373 479.120361,466.857941 422.035126,490.048859 
	C414.389771,493.154816 406.124939,494.735901 398.146942,497.023132 
	C394.380463,496.982758 390.613983,496.942383 386.066772,496.719421 
	C376.887146,494.346924 368.488190,492.156982 360.089264,489.967072 
M393.741821,476.249786 
	C399.022675,475.766083 404.417725,475.814880 409.565582,474.711060 
	C439.641541,468.262054 462.181702,442.909271 462.565186,409.420654 
	C462.812897,387.789307 453.631317,369.909515 436.716705,356.509796 
	C423.455444,346.004272 408.074799,341.253357 390.119171,342.714905 
	C385.863190,343.394531 381.513458,343.718445 377.366516,344.811676 
	C351.023407,351.756592 327.114990,378.617615 328.706451,412.799438 
	C330.286835,446.743561 359.075165,475.775024 393.741821,476.249786 
z"/>
<path fill="#695F69" opacity="1.000000" stroke="none" 
	d="
M400.917572,322.019226 
	C392.647766,322.620392 384.377930,323.221527 375.715942,323.374695 
	C375.321381,248.951263 375.319580,174.975861 375.316162,101.000450 
	C375.315582,88.637917 374.140930,87.498642 361.917053,87.983330 
	C361.586426,87.996429 361.258636,88.080414 360.958801,88.061356 
	C360.988129,87.991371 361.067200,87.861847 360.966370,87.464798 
	C360.565735,77.421135 360.265900,67.774521 359.966064,58.127907 
	C368.912415,58.081493 377.859222,57.959934 386.805023,58.010426 
	C395.249603,58.058090 404.971985,67.007149 405.163940,76.657089 
	C405.493042,77.489967 405.682587,77.732658 405.884125,77.965988 
	C405.937378,78.795372 406.037323,79.624748 406.037262,80.454132 
	C406.031891,160.338226 406.018951,240.222321 405.785553,320.697510 
	C405.362244,321.456268 405.175354,321.639709 404.600159,321.899841 
	C403.103394,321.980255 402.010498,321.999756 400.917572,322.019226 
z"/>
<path fill="#E3A76F" opacity="1.000000" stroke="none" 
	d="
M134.843353,87.970627 
	C134.876755,78.284470 134.910156,68.598312 134.896606,58.447067 
	C134.893753,57.652306 134.981003,57.321941 134.975815,56.993042 
	C134.760559,43.374634 134.675629,45.049759 147.123917,45.006104 
	C156.109695,44.974594 165.095810,45.027237 174.081528,44.989120 
	C179.050385,44.968044 182.095734,43.239876 184.290375,37.960613 
	C189.129990,26.318811 200.409134,17.799671 214.638504,16.893623 
	C227.771240,16.057404 238.483566,20.177401 246.736008,30.341518 
	C248.853317,32.949291 250.631088,35.975941 251.921616,39.077770 
	C253.794571,43.579506 257.182861,44.979851 261.579163,44.993782 
	C271.064056,45.023838 280.549042,45.021015 290.490784,45.561905 
	C290.947693,57.414894 290.965698,68.737663 290.942322,80.060349 
	C290.922180,89.816177 289.744446,90.988037 280.030945,90.991501 
	C231.742783,91.008713 183.454620,91.018333 135.110657,90.650101 
	C134.984360,89.503258 134.913864,88.736946 134.843353,87.970627 
M220.592484,56.165390 
	C225.076859,54.711411 227.934372,51.414413 227.261871,46.952320 
	C226.808105,43.941536 224.625336,40.507763 222.168167,38.646557 
	C218.691528,36.013115 214.509262,37.042225 211.310776,40.095375 
	C208.286636,42.982063 207.320358,46.609638 209.041840,50.525871 
	C211.087402,55.179329 214.767944,57.167027 220.592484,56.165390 
z"/>
<path fill="#C48958" opacity="1.000000" stroke="none" 
	d="
M135.166458,91.030617 
	C183.454620,91.018333 231.742783,91.008713 280.030945,90.991501 
	C289.744446,90.988037 290.922180,89.816177 290.942322,80.060349 
	C290.965698,68.737663 290.947693,57.414894 290.951691,45.634624 
	C292.451233,45.118244 293.950195,45.105740 295.441437,44.991642 
	C299.489960,44.681862 301.277130,46.527447 301.039093,50.568687 
	C300.912018,52.726788 301.028748,54.899246 301.054443,57.984039 
	C301.095520,68.584167 301.117615,78.265480 301.068054,88.395889 
	C300.789490,100.997543 300.789490,100.997673 288.752502,100.997681 
	C240.753006,100.997719 192.753525,100.998245 144.754028,100.997169 
	C135.414963,100.996956 134.699997,100.250748 135.166458,91.030617 
z"/>
<path fill="#837683" opacity="1.000000" stroke="none" 
	d="
M301.139740,87.946793 
	C301.117615,78.265480 301.095520,68.584167 301.112305,58.436142 
	C320.446747,57.988564 339.742279,58.007706 359.501953,58.077377 
	C360.265900,67.774521 360.565735,77.421135 360.496216,87.518921 
	C340.464478,87.962318 320.802094,87.954552 301.139740,87.946793 
z"/>
<path fill="#FFC43A" opacity="1.000000" stroke="none" 
	d="
M401.263794,322.182251 
	C402.010498,321.999756 403.103394,321.980255 404.856689,321.942596 
	C405.688507,321.898529 405.859924,321.872681 406.031311,321.846863 
	C423.309875,323.984894 438.625458,330.405579 452.198822,341.545807 
	C467.537109,354.134613 477.082825,370.205139 481.465393,389.153534 
	C487.625122,415.785858 482.511627,440.425171 466.029816,462.471497 
	C453.023956,479.868256 435.687347,490.708710 414.693848,495.626556 
	C409.644714,496.809326 404.266205,496.586090 398.593048,497.016296 
	C406.124939,494.735901 414.389771,493.154816 422.035126,490.048859 
	C479.120361,466.857941 494.078156,391.932373 450.814545,348.076263 
	C437.027100,334.099976 420.445740,326.264862 401.263794,322.182251 
z"/>
<path fill="#6F6368" opacity="1.000000" stroke="none" 
	d="
M360.085510,490.398254 
	C368.488190,492.156982 376.887146,494.346924 385.625000,496.699463 
	C377.611725,496.898804 369.259521,496.935547 360.440125,496.917358 
	C360.009186,494.851410 360.045471,492.840393 360.085510,490.398254 
z"/>
<path fill="#756D75" opacity="1.000000" stroke="none" 
	d="
M406.004333,321.642426 
	C405.859924,321.872681 405.688507,321.898529 405.260498,321.881653 
	C405.175354,321.639709 405.362244,321.456268 405.716919,321.164307 
	C405.869202,321.039978 405.977325,321.437988 406.004333,321.642426 
z"/>
<path fill="#756D75" opacity="1.000000" stroke="none" 
	d="
M405.872009,77.706955 
	C405.682587,77.732658 405.493042,77.489967 405.170746,77.057854 
	C405.303955,77.067848 405.581940,77.257881 405.872009,77.706955 
z"/>
<path fill="#ECEFF1" opacity="1.000000" stroke="none" 
	d="
M301.068054,88.395889 
	C320.802094,87.954552 340.464478,87.962318 360.597015,87.915970 
	C361.067200,87.861847 360.988129,87.991371 360.949219,88.521553 
	C360.910217,158.873047 360.903442,228.694351 360.917542,298.515656 
	C360.919556,308.512787 361.022308,318.509918 361.078430,328.507050 
	C356.992401,330.677338 352.906342,332.847626 348.438293,334.648132 
	C348.038269,312.688660 348.037933,291.098938 347.990479,269.509338 
	C347.977783,263.735260 346.392334,262.211700 340.569763,262.120331 
	C339.076630,262.096893 337.581970,262.170898 335.616425,262.157715 
	C331.149353,262.145477 327.153687,262.158081 323.158478,262.209778 
	C315.976227,262.302673 314.720123,263.508209 314.710815,270.703644 
	C314.678497,295.677429 314.667908,320.651398 314.709076,345.625153 
	C314.724426,354.943726 314.904755,364.261993 315.009857,373.580414 
	C312.677490,383.219482 309.166534,392.747559 308.246216,402.519562 
	C305.993408,426.439087 313.357605,447.750214 328.769836,466.599670 
	C315.246552,466.940704 301.585144,467.025024 287.923767,467.025360 
	C226.606537,467.026794 165.289307,467.004364 103.497589,466.474731 
	C103.000389,454.460785 103.027565,442.962280 102.934937,431.464722 
	C102.884895,425.253632 101.729805,424.185028 95.648949,424.001251 
	C86.496994,423.724640 77.347061,423.343933 68.193214,423.194519 
	C66.105331,423.160461 64.004974,423.890533 61.910362,424.268890 
	C61.502460,422.390015 60.738594,420.511353 60.737591,418.632263 
	C60.680519,311.833649 60.683292,205.035019 60.693993,98.236374 
	C60.694839,89.790512 62.540176,87.975098 70.951561,87.971474 
	C91.944679,87.962418 112.937790,87.968658 134.387131,87.969696 
	C134.913864,88.736946 134.984360,89.503258 135.110657,90.650101 
	C134.699997,100.250748 135.414963,100.996956 144.754028,100.997169 
	C192.753525,100.998245 240.753006,100.997719 288.752502,100.997681 
	C300.789490,100.997673 300.789490,100.997543 301.068054,88.395889 
M111.256096,243.036880 
	C132.421188,254.564850 153.438980,253.894287 173.494156,240.908249 
	C191.129257,229.489243 199.772400,212.614304 200.434265,191.144928 
	C197.628159,191.144928 195.349045,191.144928 192.130798,191.021866 
	C175.112030,190.959579 158.093262,190.897278 141.029739,189.919327 
	C140.911758,172.909637 140.793777,155.899963 140.730972,138.059204 
	C140.740997,131.154892 140.727356,131.044708 133.814346,131.900909 
	C130.362320,132.328430 126.907959,133.022949 123.561859,133.973892 
	C100.783730,140.447250 83.651917,161.172302 81.168373,185.103424 
	C78.763824,208.273346 90.944138,231.894958 111.256096,243.036880 
M212.905396,426.977631 
	C214.399963,426.986237 215.896622,426.946960 217.388687,427.012573 
	C221.755875,427.204620 223.907120,425.044403 223.913055,420.772430 
	C223.940109,401.342010 223.933472,381.911530 223.919205,362.481049 
	C223.916107,358.247314 221.845078,355.986084 217.505157,356.036346 
	C215.679916,356.057495 213.855026,356.109985 211.096405,356.029510 
	C206.268539,356.063904 201.440704,356.108185 196.612778,356.129669 
	C192.321198,356.148773 190.142319,358.266113 190.142105,362.577423 
	C190.141144,381.890747 190.140640,401.204041 190.142090,420.517365 
	C190.142410,424.782593 192.159958,427.020325 196.546616,426.969666 
	C201.705124,426.910095 206.864319,426.910797 212.905396,426.977631 
M149.179291,130.838745 
	C149.145081,146.643768 149.204681,162.449966 149.006165,178.252930 
	C148.960464,181.891708 150.388611,182.769760 153.700714,182.727264 
	C164.347275,182.590683 174.997192,182.739807 185.644852,182.656036 
	C191.107407,182.613068 196.567902,182.309326 202.928146,182.226349 
	C204.851120,182.226349 206.774109,182.226349 208.616440,182.226349 
	C211.559036,152.077957 176.084534,117.101395 149.450897,123.629463 
	C149.450897,125.653267 149.450897,127.790169 149.179291,130.838745 
M149.942017,426.952240 
	C161.505035,427.156281 161.838943,426.835907 161.841339,415.451630 
	C161.844116,402.288208 161.843063,389.124817 161.841797,375.961395 
	C161.840469,362.298096 161.884384,348.634583 161.812256,334.971649 
	C161.780945,329.040710 159.873505,327.217773 154.026215,327.122803 
	C152.696320,327.101196 151.364334,327.208405 149.098129,327.160828 
	C144.273056,327.216400 139.447449,327.244202 134.623077,327.335968 
	C130.472992,327.414886 128.030411,329.332886 128.030106,333.722565 
	C128.028091,362.678192 128.022858,391.633789 128.035995,420.589417 
	C128.037964,424.908661 130.316376,426.984894 134.583878,426.957489 
	C139.408173,426.926514 144.232376,426.883545 149.942017,426.952240 
M272.151947,293.953400 
	C268.656403,293.957977 265.160858,293.959076 261.665314,293.967773 
	C253.251984,293.988678 252.288452,294.933197 252.284409,303.506866 
	C252.268494,337.297791 252.275345,371.088715 252.277863,404.879639 
	C252.278244,410.039703 252.292587,415.199829 252.314682,420.359863 
	C252.334045,424.884277 254.583679,427.073853 259.142670,426.977753 
	C263.799591,426.879578 268.458771,426.888641 273.998566,426.945099 
	C285.962189,427.116425 285.962280,427.116425 285.962311,415.217041 
	C285.962372,378.903503 285.962372,342.589966 285.962311,306.276428 
	C285.962311,293.609100 285.799500,293.455139 272.151947,293.953400 
M340.401123,175.236176 
	C342.399567,175.193893 344.416290,175.308075 346.392670,175.077026 
	C350.622589,174.582565 353.036530,172.037262 353.327332,167.849472 
	C353.620300,163.629822 351.444946,160.836426 347.390961,159.761841 
	C345.650696,159.300537 343.766785,159.239304 341.947906,159.237610 
	C310.118256,159.208023 278.288574,159.204681 246.458908,159.242599 
	C244.480118,159.244965 242.408340,159.332291 240.542496,159.907669 
	C236.517670,161.148819 234.583969,164.135818 235.081497,168.315292 
	C235.550766,172.257324 237.977707,174.601227 241.946686,175.085342 
	C243.756577,175.306091 245.606873,175.229843 247.438858,175.230301 
	C278.102020,175.237869 308.765198,175.236252 340.401123,175.236176 
M242.320770,189.399200 
	C236.783630,191.111938 234.461334,194.002731 235.053009,198.446121 
	C235.635605,202.821457 238.816956,205.093872 244.545654,205.225082 
	C244.878296,205.232697 245.211182,205.231949 245.543945,205.231949 
	C277.989868,205.232178 310.435791,205.234146 342.881714,205.224640 
	C344.210571,205.224243 345.564087,205.257401 346.863556,205.030853 
	C350.576111,204.383591 352.801086,202.105713 353.282776,198.385666 
	C353.794464,194.433853 352.087219,191.513977 348.387299,190.093872 
	C346.729034,189.457382 344.812836,189.259872 343.013397,189.258667 
	C309.736115,189.236557 276.458832,189.274307 242.320770,189.399200 
M235.625107,230.546814 
	C237.575836,234.684555 241.177597,235.263321 245.241959,235.257401 
	C277.863342,235.209854 310.484802,235.235031 343.106262,235.218414 
	C344.598114,235.217651 346.141083,235.240219 347.572662,234.891953 
	C352.991638,233.573639 355.570343,226.577682 351.643494,222.686615 
	C349.660370,220.721588 346.155609,219.514587 343.272675,219.379791 
	C334.304504,218.960419 325.304688,219.212723 316.317169,219.213013 
	C292.683258,219.213806 269.049225,219.171509 245.415573,219.249146 
	C237.437698,219.275345 234.611389,222.381119 235.625107,230.546814 
M271.500031,129.212540 
	C262.169159,129.234970 252.833435,129.084442 243.509216,129.345154 
	C237.983826,129.499649 234.758041,133.022034 235.004944,137.773239 
	C235.241135,142.318512 238.448441,145.007217 243.889572,145.215942 
	C244.388870,145.235092 244.889221,145.230881 245.389084,145.230896 
	C277.881866,145.231720 310.374664,145.244659 342.867462,145.221909 
	C349.851105,145.217010 353.351074,142.552597 353.405884,137.388962 
	C353.459564,132.329926 349.713684,129.388885 342.984283,129.228500 
	C341.485382,129.192780 339.985077,129.212723 338.485413,129.212692 
	C316.490295,129.212189 294.495178,129.212677 271.500031,129.212540 
z"/>
<path fill="#D1D1D6" opacity="1.000000" stroke="none" 
	d="
M62.016945,424.578308 
	C64.004974,423.890533 66.105331,423.160461 68.193214,423.194519 
	C77.347061,423.343933 86.496994,423.724640 95.648949,424.001251 
	C101.729805,424.185028 102.884895,425.253632 102.934937,431.464722 
	C103.027565,442.962280 103.000389,454.460785 103.034683,466.419617 
	C102.327347,466.518555 101.437096,466.319885 100.914551,465.771118 
	C87.960556,452.165863 75.045509,438.523499 62.016945,424.578308 
z"/>
<path fill="#FFC338" opacity="1.000000" stroke="none" 
	d="
M391.020111,342.615906 
	C408.074799,341.253357 423.455444,346.004272 436.716705,356.509796 
	C453.631317,369.909515 462.812897,387.789307 462.565186,409.420654 
	C462.181702,442.909271 439.641541,468.262054 409.565582,474.711060 
	C404.417725,475.814880 399.022675,475.766083 393.063843,475.963013 
	C390.319366,475.048981 388.270264,474.355927 386.183563,473.805237 
	C374.476746,470.715698 364.272949,464.876190 355.861206,456.266815 
	C323.901978,423.556854 333.023041,370.012482 374.020020,349.562195 
	C379.482513,346.837402 385.343597,344.911682 391.020111,342.615906 
M412.572357,395.177643 
	C415.156189,394.651581 418.839325,394.962921 420.041687,393.384521 
	C421.498566,391.472015 421.743378,387.679138 420.949982,385.200073 
	C419.041748,379.237518 414.509460,375.082214 408.866058,372.555389 
	C405.280090,370.949829 403.109192,368.976685 401.825775,365.006958 
	C401.144928,362.900940 397.456909,360.416901 395.257629,360.535614 
	C393.101929,360.651947 389.987213,363.519409 389.317078,365.779510 
	C388.338837,369.078522 386.854645,370.686188 383.829926,372.024384 
	C375.069672,375.899933 369.551758,382.583374 369.412598,392.406097 
	C369.272583,402.288086 374.479645,409.117584 383.565948,412.734589 
	C387.401764,414.261505 391.566010,414.942596 395.523041,416.191742 
	C399.146057,417.335449 403.013824,418.196381 406.194489,420.133148 
	C410.926941,423.014954 411.074799,428.759186 407.073395,431.869385 
	C398.786377,438.310791 385.644287,435.297363 381.085938,425.910553 
	C378.783173,421.168579 375.489838,419.464447 371.641144,421.023346 
	C367.655212,422.637848 366.230042,426.607483 368.133789,431.542175 
	C370.987518,438.939301 376.244629,444.079407 383.638306,446.851410 
	C386.688904,447.995087 388.302582,449.591095 389.333038,452.932739 
	C390.033600,455.204773 393.114471,457.878723 395.414764,458.175873 
	C397.390228,458.431061 401.199005,455.933319 401.683960,454.016937 
	C402.862946,449.358307 405.802948,447.874023 409.719177,446.356842 
	C417.915771,443.181366 423.395905,437.426086 423.924500,428.209778 
	C424.475342,418.605835 420.303436,411.260925 411.747742,407.053528 
	C407.036194,404.736542 401.709747,403.663574 396.649658,402.064148 
	C393.803955,401.164642 390.751709,400.706940 388.115570,399.399109 
	C382.104767,396.416931 381.927734,389.500671 387.555725,385.791351 
	C394.256012,381.375397 403.322144,383.231598 407.871033,389.864532 
	C409.074493,391.619415 410.552612,393.185944 412.572357,395.177643 
z"/>
<path fill="#D1D1D6" opacity="1.000000" stroke="none" 
	d="
M361.458191,328.393616 
	C361.022308,318.509918 360.919556,308.512787 360.917542,298.515656 
	C360.903442,228.694351 360.910217,158.873047 360.919922,88.591537 
	C361.258636,88.080414 361.586426,87.996429 361.917053,87.983330 
	C374.140930,87.498642 375.315582,88.637917 375.316162,101.000450 
	C375.319580,174.975861 375.321381,248.951263 375.329407,323.385010 
	C370.836060,325.322296 366.337006,326.801270 361.458191,328.393616 
z"/>
<path fill="#8AC9FE" opacity="1.000000" stroke="none" 
	d="
M315.281647,373.322021 
	C314.904755,364.261993 314.724426,354.943726 314.709076,345.625153 
	C314.667908,320.651398 314.678497,295.677429 314.710815,270.703644 
	C314.720123,263.508209 315.976227,262.302673 323.158478,262.209778 
	C327.153687,262.158081 331.149353,262.145477 335.728424,262.509674 
	C336.873596,265.961914 337.900604,269.016510 337.921692,272.078064 
	C338.065582,292.978851 337.968170,313.881134 338.038940,334.782684 
	C338.047241,337.229523 338.606842,339.674500 338.910889,342.120361 
	C329.092499,350.900513 321.129120,361.080933 315.281647,373.322021 
z"/>
<path fill="#F5B92A" opacity="1.000000" stroke="none" 
	d="
M390.569641,342.665405 
	C385.343597,344.911682 379.482513,346.837402 374.020020,349.562195 
	C333.023041,370.012482 323.901978,423.556854 355.861206,456.266815 
	C364.272949,464.876190 374.476746,470.715698 386.183563,473.805237 
	C388.270264,474.355927 390.319366,475.048981 392.715271,475.849762 
	C359.075165,475.775024 330.286835,446.743561 328.706451,412.799438 
	C327.114990,378.617615 351.023407,351.756592 377.366516,344.811676 
	C381.513458,343.718445 385.863190,343.394531 390.569641,342.665405 
z"/>
<path fill="#60B7FF" opacity="1.000000" stroke="none" 
	d="
M339.222870,341.963898 
	C338.606842,339.674500 338.047241,337.229523 338.038940,334.782684 
	C337.968170,313.881134 338.065582,292.978851 337.921692,272.078064 
	C337.900604,269.016510 336.873596,265.961914 336.200012,262.552124 
	C337.581970,262.170898 339.076630,262.096893 340.569763,262.120331 
	C346.392334,262.211700 347.977783,263.735260 347.990479,269.509338 
	C348.037933,291.098938 348.038269,312.688660 348.105347,334.762543 
	C345.281250,337.433655 342.408051,339.620544 339.222870,341.963898 
z"/>
<path fill="#ECEDED" opacity="1.000000" stroke="none" 
	d="
M220.225204,56.262161 
	C214.767944,57.167027 211.087402,55.179329 209.041840,50.525871 
	C207.320358,46.609638 208.286636,42.982063 211.310776,40.095375 
	C214.509262,37.042225 218.691528,36.013115 222.168167,38.646557 
	C224.625336,40.507763 226.808105,43.941536 227.261871,46.952320 
	C227.934372,51.414413 225.076859,54.711411 220.225204,56.262161 
z"/>
<path fill="#8AC9FE" opacity="1.000000" stroke="none" 
	d="
M140.675797,138.890274 
	C140.793777,155.899963 140.911758,172.909637 140.790970,190.609146 
	C131.863983,206.127060 123.175766,220.955154 114.185326,235.716888 
	C95.472214,226.466507 84.676514,201.159561 89.767136,179.118576 
	C95.123306,155.927856 115.424324,139.885880 140.675797,138.890274 
z"/>
<path fill="#6DF5C2" opacity="1.000000" stroke="none" 
	d="
M273.116943,426.850769 
	C268.458771,426.888641 263.799591,426.879578 259.142670,426.977753 
	C254.583679,427.073853 252.334045,424.884277 252.314682,420.359863 
	C252.292587,415.199829 252.278244,410.039703 252.277863,404.879639 
	C252.275345,371.088715 252.268494,337.297791 252.284409,303.506866 
	C252.288452,294.933197 253.251984,293.988678 261.665314,293.967773 
	C265.160858,293.959076 268.656403,293.957977 272.821686,294.317108 
	C274.293823,297.111542 275.786469,299.539703 275.795532,301.973389 
	C275.941315,341.036407 275.950317,380.100403 275.778320,419.163208 
	C275.767029,421.729584 274.043823,424.288422 273.116943,426.850769 
z"/>
<path fill="#6BF5C2" opacity="1.000000" stroke="none" 
	d="
M114.487549,235.783249 
	C123.175766,220.955154 131.863983,206.127060 140.813354,191.066986 
	C158.093262,190.897278 175.112030,190.959579 192.557983,191.503326 
	C190.295700,232.933212 151.427750,255.051071 114.659828,236.335846 
	C114.588913,236.156128 114.487549,235.783249 114.487549,235.783249 
z"/>
<path fill="#FFE177" opacity="1.000000" stroke="none" 
	d="
M149.056625,426.845795 
	C144.232376,426.883545 139.408173,426.926514 134.583878,426.957489 
	C130.316376,426.984894 128.037964,424.908661 128.035995,420.589417 
	C128.022858,391.633789 128.028091,362.678192 128.030106,333.722565 
	C128.030411,329.332886 130.472992,327.414886 134.623077,327.335968 
	C139.447449,327.244202 144.273056,327.216400 149.659454,327.598206 
	C150.484650,330.174286 150.974274,332.312622 150.978226,334.451843 
	C151.030579,362.727203 151.064301,391.002930 150.930603,419.277740 
	C150.918655,421.803314 149.709671,424.323242 149.056625,426.845795 
z"/>
<path fill="#FE6671" opacity="1.000000" stroke="none" 
	d="
M202.029327,182.123444 
	C196.567902,182.309326 191.107407,182.613068 185.644852,182.656036 
	C174.997192,182.739807 164.347275,182.590683 153.700714,182.727264 
	C150.388611,182.769760 148.960464,181.891708 149.006165,178.252930 
	C149.204681,162.449966 149.145081,146.643768 149.717773,130.395233 
	C175.998154,132.235046 193.143494,145.753220 199.864090,169.359695 
	C201.038651,173.485367 201.330048,177.862473 202.029327,182.123444 
z"/>
<path fill="#A99DA9" opacity="1.000000" stroke="none" 
	d="
M339.914734,175.236435 
	C308.765198,175.236252 278.102020,175.237869 247.438858,175.230301 
	C245.606873,175.229843 243.756577,175.306091 241.946686,175.085342 
	C237.977707,174.601227 235.550766,172.257324 235.081497,168.315292 
	C234.583969,164.135818 236.517670,161.148819 240.542496,159.907669 
	C242.408340,159.332291 244.480118,159.244965 246.458908,159.242599 
	C278.288574,159.204681 310.118256,159.208023 341.947906,159.237610 
	C343.766785,159.239304 345.650696,159.300537 347.390961,159.761841 
	C351.444946,160.836426 353.620300,163.629822 353.327332,167.849472 
	C353.036530,172.037262 350.622589,174.582565 346.392670,175.077026 
	C344.416290,175.308075 342.399567,175.193893 339.914734,175.236435 
z"/>
<path fill="#A99DA9" opacity="1.000000" stroke="none" 
	d="
M242.751160,189.349319 
	C276.458832,189.274307 309.736115,189.236557 343.013397,189.258667 
	C344.812836,189.259872 346.729034,189.457382 348.387299,190.093872 
	C352.087219,191.513977 353.794464,194.433853 353.282776,198.385666 
	C352.801086,202.105713 350.576111,204.383591 346.863556,205.030853 
	C345.564087,205.257401 344.210571,205.224243 342.881714,205.224640 
	C310.435791,205.234146 277.989868,205.232178 245.543945,205.231949 
	C245.211182,205.231949 244.878296,205.232697 244.545654,205.225082 
	C238.816956,205.093872 235.635605,202.821457 235.053009,198.446121 
	C234.461334,194.002731 236.783630,191.111938 242.751160,189.349319 
z"/>
<path fill="#A99DA9" opacity="1.000000" stroke="none" 
	d="
M235.471802,230.179657 
	C234.611389,222.381119 237.437698,219.275345 245.415573,219.249146 
	C269.049225,219.171509 292.683258,219.213806 316.317169,219.213013 
	C325.304688,219.212723 334.304504,218.960419 343.272675,219.379791 
	C346.155609,219.514587 349.660370,220.721588 351.643494,222.686615 
	C355.570343,226.577682 352.991638,233.573639 347.572662,234.891953 
	C346.141083,235.240219 344.598114,235.217651 343.106262,235.218414 
	C310.484802,235.235031 277.863342,235.209854 245.241959,235.257401 
	C241.177597,235.263321 237.575836,234.684555 235.471802,230.179657 
z"/>
<path fill="#A99DA9" opacity="1.000000" stroke="none" 
	d="
M272.000061,129.212723 
	C294.495178,129.212677 316.490295,129.212189 338.485413,129.212692 
	C339.985077,129.212723 341.485382,129.192780 342.984283,129.228500 
	C349.713684,129.388885 353.459564,132.329926 353.405884,137.388962 
	C353.351074,142.552597 349.851105,145.217010 342.867462,145.221909 
	C310.374664,145.244659 277.881866,145.231720 245.389084,145.230896 
	C244.889221,145.230881 244.388870,145.235092 243.889572,145.215942 
	C238.448441,145.007217 235.241135,142.318512 235.004944,137.773239 
	C234.758041,133.022034 237.983826,129.499649 243.509216,129.345154 
	C252.833435,129.084442 262.169159,129.234970 272.000061,129.212723 
z"/>
<path fill="#FE6570" opacity="1.000000" stroke="none" 
	d="
M212.023224,426.885345 
	C206.864319,426.910797 201.705124,426.910095 196.546616,426.969666 
	C192.159958,427.020325 190.142410,424.782593 190.142090,420.517365 
	C190.140640,401.204041 190.141144,381.890747 190.142105,362.577423 
	C190.142319,358.266113 192.321198,356.148773 196.612778,356.129669 
	C201.440704,356.108185 206.268539,356.063904 211.655930,356.454529 
	C212.790665,360.273468 213.824860,363.662262 213.862701,367.062164 
	C214.039612,382.953857 214.068680,398.850342 213.854370,414.741119 
	C213.799667,418.796692 212.662857,422.837677 212.023224,426.885345 
z"/>
<path fill="#02E49A" opacity="1.000000" stroke="none" 
	d="
M273.557739,426.897949 
	C274.043823,424.288422 275.767029,421.729584 275.778320,419.163208 
	C275.950317,380.100403 275.941315,341.036407 275.795532,301.973389 
	C275.786469,299.539703 274.293823,297.111542 273.290344,294.389404 
	C285.799500,293.455139 285.962311,293.609100 285.962311,306.276428 
	C285.962372,342.589966 285.962372,378.903503 285.962311,415.217041 
	C285.962280,427.116425 285.962189,427.116425 273.557739,426.897949 
z"/>
<path fill="#63B8FF" opacity="1.000000" stroke="none" 
	d="
M114.185326,235.716888 
	C114.487549,235.783249 114.588913,236.156128 114.416260,236.588867 
	C113.097717,238.874527 111.951843,240.727463 110.805969,242.580399 
	C90.944138,231.894958 78.763824,208.273346 81.168373,185.103424 
	C83.651917,161.172302 100.783730,140.447250 123.561859,133.973892 
	C126.907959,133.022949 130.362320,132.328430 133.814346,131.900909 
	C140.727356,131.044708 140.740997,131.154892 140.703384,138.474731 
	C115.424324,139.885880 95.123306,155.927856 89.767136,179.118576 
	C84.676514,201.159561 95.472214,226.466507 114.185326,235.716888 
z"/>
<path fill="#FFD168" opacity="1.000000" stroke="none" 
	d="
M149.499329,426.899017 
	C149.709671,424.323242 150.918655,421.803314 150.930603,419.277740 
	C151.064301,391.002930 151.030579,362.727203 150.978226,334.451843 
	C150.974274,332.312622 150.484650,330.174286 150.127045,327.645935 
	C151.364334,327.208405 152.696320,327.101196 154.026215,327.122803 
	C159.873505,327.217773 161.780945,329.040710 161.812256,334.971649 
	C161.884384,348.634583 161.840469,362.298096 161.841797,375.961395 
	C161.843063,389.124817 161.844116,402.288208 161.841339,415.451630 
	C161.838943,426.835907 161.505035,427.156281 149.499329,426.899017 
z"/>
<path fill="#06E49C" opacity="1.000000" stroke="none" 
	d="
M111.031036,242.808640 
	C111.951843,240.727463 113.097717,238.874527 114.487167,236.768585 
	C151.427750,255.051071 190.295700,232.933212 193.027557,191.564865 
	C195.349045,191.144928 197.628159,191.144928 200.434265,191.144928 
	C199.772400,212.614304 191.129257,229.489243 173.494156,240.908249 
	C153.438980,253.894287 132.421188,254.564850 111.031036,242.808640 
z"/>
<path fill="#FD4A57" opacity="1.000000" stroke="none" 
	d="
M212.464310,426.931488 
	C212.662857,422.837677 213.799667,418.796692 213.854370,414.741119 
	C214.068680,398.850342 214.039612,382.953857 213.862701,367.062164 
	C213.824860,363.662262 212.790665,360.273468 212.122711,356.513916 
	C213.855026,356.109985 215.679916,356.057495 217.505157,356.036346 
	C221.845078,355.986084 223.916107,358.247314 223.919205,362.481049 
	C223.933472,381.911530 223.940109,401.342010 223.913055,420.772430 
	C223.907120,425.044403 221.755875,427.204620 217.388687,427.012573 
	C215.896622,426.946960 214.399963,426.986237 212.464310,426.931488 
z"/>
<path fill="#FD4A58" opacity="1.000000" stroke="none" 
	d="
M202.478729,182.174896 
	C201.330048,177.862473 201.038651,173.485367 199.864090,169.359695 
	C193.143494,145.753220 175.998154,132.235046 149.853577,129.939392 
	C149.450897,127.790169 149.450897,125.653267 149.450897,123.629463 
	C176.084534,117.101395 211.559036,152.077957 208.616440,182.226349 
	C206.774109,182.226349 204.851120,182.226349 202.478729,182.174896 
z"/>
<path fill="#FFE076" opacity="1.000000" stroke="none" 
	d="
M412.238495,395.008301 
	C410.552612,393.185944 409.074493,391.619415 407.871033,389.864532 
	C403.322144,383.231598 394.256012,381.375397 387.555725,385.791351 
	C381.927734,389.500671 382.104767,396.416931 388.115570,399.399109 
	C390.751709,400.706940 393.803955,401.164642 396.649658,402.064148 
	C401.709747,403.663574 407.036194,404.736542 411.747742,407.053528 
	C420.303436,411.260925 424.475342,418.605835 423.924500,428.209778 
	C423.395905,437.426086 417.915771,443.181366 409.719177,446.356842 
	C405.802948,447.874023 402.862946,449.358307 401.683960,454.016937 
	C401.199005,455.933319 397.390228,458.431061 395.414764,458.175873 
	C393.114471,457.878723 390.033600,455.204773 389.333038,452.932739 
	C388.302582,449.591095 386.688904,447.995087 383.638306,446.851410 
	C376.244629,444.079407 370.987518,438.939301 368.133789,431.542175 
	C366.230042,426.607483 367.655212,422.637848 371.641144,421.023346 
	C375.489838,419.464447 378.783173,421.168579 381.085938,425.910553 
	C385.644287,435.297363 398.786377,438.310791 407.073395,431.869385 
	C411.074799,428.759186 410.926941,423.014954 406.194489,420.133148 
	C403.013824,418.196381 399.146057,417.335449 395.523041,416.191742 
	C391.566010,414.942596 387.401764,414.261505 383.565948,412.734589 
	C374.479645,409.117584 369.272583,402.288086 369.412598,392.406097 
	C369.551758,382.583374 375.069672,375.899933 383.829926,372.024384 
	C386.854645,370.686188 388.338837,369.078522 389.317078,365.779510 
	C389.987213,363.519409 393.101929,360.651947 395.257629,360.535614 
	C397.456909,360.416901 401.144928,362.900940 401.825775,365.006958 
	C403.109192,368.976685 405.280090,370.949829 408.866058,372.555389 
	C414.509460,375.082214 419.041748,379.237518 420.949982,385.200073 
	C421.743378,387.679138 421.498566,391.472015 420.041687,393.384521 
	C418.839325,394.962921 415.156189,394.651581 412.238495,395.008301 
z"/>
</svg>